<svg xmlns="http://www.w3.org/2000/svg" id="svg"><g id="pop-up" transform="translate(200,200)"><g><path class="guide" id="pentagon" d="M170.4013491481106, 0L52.656912751185146, -162.0613134927962L-137.85758732524042, -100.1594L-137.85758732524044, 100.15939999999998L52.65691275118511, 162.06131349279622ZM203.10424684241804, 0L62.762663904031434, 193.16361744670104L-164.31478732524042, 119.38168097194345L-164.31478732524045, -119.3816809719434L62.762663904031385, -193.16361744670107Z" fill="none" stroke="black" style="display: none;"></path><path class="guide" d="M5.553982848911579, 7.6444015798488785L127.7852760103479, -81.16183115502545L116.67731031252475, -96.4506343147232L-5.553982848911579, -7.6444015798488785ZM8.986533022472907, -2.919901579848877L-37.70166647634317, -146.61140455770908L-55.67473252128898, -140.77160139801134L-8.986533022472907, 2.919901579848877ZM1.157168760514334e-15, -9.449L-151.08618732524047, -9.449000000000018L-151.08618732524047, 9.448999999999982L-1.157168760514334e-15, 9.449ZM-8.986533022472905, -2.9199015798488794L-55.674732521289016, 140.7716013980113L-37.701666476343206, 146.61140455770905L8.986533022472905, 2.9199015798488794ZM-5.553982848911581, 7.644401579848878L116.67731031252472, 96.45063431472323L127.7852760103479, 81.16183115502548L5.553982848911581, -7.644401579848878Z" fill="none" stroke="black" style="display: none;"></path><path d="M203.10424684241804, 0L62.762663904031434, 193.16361744670104L-164.31478732524042, 119.38168097194345L-164.31478732524045, -119.3816809719434L62.762663904031385, -193.16361744670107ZM11.679606319395505, 35.94613208989163L-1.7016664763432061, 35.94613208989163L-34, 134L52.65691275118511, 162.06131349279622L106, 89L23, 28ZM-137.85758732524044, 100.15939999999998L-52, 128L-20, 30L-30.577606319395514, 22.21593139564631L-34.577606319395514, 9.448999999999982L-137.85758732524044, 9.448999999999982ZM34, -13L37.796, 0L34, 13L117, 73L170.4013491481106, 0L117, -73ZM-137.85758732524042, -100.1594L-137.85758732524044, -9.449L-34.796, -9.449L-30.57760631939551, -22.21593139564632L-20, -30L-52, -128ZM-34, -134L-2.0134669775270932, -35.94613208989163L11.679606319395514, -35.94613208989162L23, -28L106, -89L52.656912751185146, -162.0613134927962Z" fill="none" stroke="red"></path><circle cx="0" cy="0" fill="none" stroke="red" r="5.6693999999999996"></circle><g transform="rotate(0) translate(-151.08618732524047,0)"><g transform="rotate(90) translate(-24.000459999999997,-10.11043)translate(75.26771902805656,0)"><rect class="guide" x="0" y="0" fill="none" stroke="blue" width="48.000919999999994" height="20.22086" style="display: none;"></rect><circle fill="none" stroke="red" r="4.15756" cx="8.882059999999997" cy="10.11043"></circle><circle fill="none" stroke="red" r="4.15756" cx="39.11886" cy="10.11043"></circle></g><g transform="rotate(90) translate(-24.000459999999997,-10.11043)translate(-75.26771902805656,0)"><rect class="guide" x="0" y="0" fill="none" stroke="blue" width="48.000919999999994" height="20.22086" style="display: none;"></rect><circle fill="none" stroke="red" r="4.15756" cx="8.882059999999997" cy="10.11043"></circle><circle fill="none" stroke="red" r="4.15756" cx="39.11886" cy="10.11043"></circle></g></g><g transform="rotate(72) translate(-151.08618732524047,0)"><g transform="rotate(90) translate(-24.000459999999997,-10.11043)translate(75.26771902805656,0)"><rect class="guide" x="0" y="0" fill="none" stroke="blue" width="48.000919999999994" height="20.22086" style="display: none;"></rect><circle fill="none" stroke="red" r="4.15756" cx="8.882059999999997" cy="10.11043"></circle><circle fill="none" stroke="red" r="4.15756" cx="39.11886" cy="10.11043"></circle></g><g transform="rotate(90) translate(-24.000459999999997,-10.11043)translate(-75.26771902805656,0)"><rect class="guide" x="0" y="0" fill="none" stroke="blue" width="48.000919999999994" height="20.22086" style="display: none;"></rect><circle fill="none" stroke="red" r="4.15756" cx="8.882059999999997" cy="10.11043"></circle><circle fill="none" stroke="red" r="4.15756" cx="39.11886" cy="10.11043"></circle></g></g><g transform="rotate(144) translate(-151.08618732524047,0)"><g transform="rotate(90) translate(-24.000459999999997,-10.11043)translate(75.26771902805656,0)"><rect class="guide" x="0" y="0" fill="none" stroke="blue" width="48.000919999999994" height="20.22086" style="display: none;"></rect><circle fill="none" stroke="red" r="4.15756" cx="8.882059999999997" cy="10.11043"></circle><circle fill="none" stroke="red" r="4.15756" cx="39.11886" cy="10.11043"></circle></g><g transform="rotate(90) translate(-24.000459999999997,-10.11043)translate(-75.26771902805656,0)"><rect class="guide" x="0" y="0" fill="none" stroke="blue" width="48.000919999999994" height="20.22086" style="display: none;"></rect><circle fill="none" stroke="red" r="4.15756" cx="8.882059999999997" cy="10.11043"></circle><circle fill="none" stroke="red" r="4.15756" cx="39.11886" cy="10.11043"></circle></g></g><g transform="rotate(216) translate(-151.08618732524047,0)"><g transform="rotate(90) translate(-24.000459999999997,-10.11043)translate(75.26771902805656,0)"><rect class="guide" x="0" y="0" fill="none" stroke="blue" width="48.000919999999994" height="20.22086" style="display: none;"></rect><circle fill="none" stroke="red" r="4.15756" cx="8.882059999999997" cy="10.11043"></circle><circle fill="none" stroke="red" r="4.15756" cx="39.11886" cy="10.11043"></circle></g><g transform="rotate(90) translate(-24.000459999999997,-10.11043)translate(-75.26771902805656,0)"><rect class="guide" x="0" y="0" fill="none" stroke="blue" width="48.000919999999994" height="20.22086" style="display: none;"></rect><circle fill="none" stroke="red" r="4.15756" cx="8.882059999999997" cy="10.11043"></circle><circle fill="none" stroke="red" r="4.15756" cx="39.11886" cy="10.11043"></circle></g></g><g transform="rotate(288) translate(-151.08618732524047,0)"><g transform="rotate(90) translate(-24.000459999999997,-10.11043)translate(75.26771902805656,0)"><rect class="guide" x="0" y="0" fill="none" stroke="blue" width="48.000919999999994" height="20.22086" style="display: none;"></rect><circle fill="none" stroke="red" r="4.15756" cx="8.882059999999997" cy="10.11043"></circle><circle fill="none" stroke="red" r="4.15756" cx="39.11886" cy="10.11043"></circle></g><g transform="rotate(90) translate(-24.000459999999997,-10.11043)translate(-75.26771902805656,0)"><rect class="guide" x="0" y="0" fill="none" stroke="blue" width="48.000919999999994" height="20.22086" style="display: none;"></rect><circle fill="none" stroke="red" r="4.15756" cx="8.882059999999997" cy="10.11043"></circle><circle fill="none" stroke="red" r="4.15756" cx="39.11886" cy="10.11043"></circle></g></g></g><g transform="translate(384.24726024010806,0)"><g><path id="pentagon" d="M203.10424684241804, 0L62.762663904031434, 193.16361744670104L-164.31478732524042, 119.38168097194345L-164.31478732524045, -119.3816809719434L62.762663904031385, -193.16361744670107Z" fill="none" stroke="red"></path><circle fill="none" stroke="black" cx="0" cy="0" r="1.8898" class="guide" style="display: none;"></circle><rect fill="none" stroke="red" y="-11.338799999999999" x="-3.7796" height="22.677599999999998" width="7.5592" transform="rotate(36) translate(151.08618732524047,0)"></rect><rect fill="none" stroke="red" y="-11.338799999999999" x="-3.7796" height="22.677599999999998" width="7.5592" transform="rotate(-36) translate(151.08618732524047,0)"></rect><g class="single-face"><g><path stroke="red" stroke-width="1" fill="none" d="M 156.96071065374457 18.499451823234285 L 144.72966812598636 9.613079264975761 L 138.28704802124895 18.48058509760046 L 150.51809054900716 27.366957655858982 L 72.54017135028862 134.6943558369372 L 60.30912882253041 125.80798327867868 L 53.86650871779297 134.6754891113034 L 66.09755124555117 143.56186166956192 L 52.65691275118516 162.06131349279622 L 30.909502836800716 154.9951516695619 L 35.58134536455893 140.61669883360526 L 25.15696705849036 137.22961300098055 L 20.48512453073215 151.6080658369372 L -105.68579910478742 110.61264765585892 L -101.01395657702922 96.23419481990227 L -111.4383348830978 92.84710898727757 L -116.110177410856 107.22556182323422 L -137.85758732524044 100.15939999999992 L -137.85758732524042 77.29282 L -122.73918732524042 77.29282 L -122.73918732524042 66.33198000000002 L -137.85758732524042 66.33198000000002 L -137.85758732524044 -66.33197999999996 L -122.73918732524045 -66.33197999999996 L -122.73918732524045 -77.29281999999998 L -137.85758732524044 -77.29281999999998 L -137.85758732524044 -100.15939999999998 L -116.11017741085601 -107.22556182323427 L -111.43833488309781 -92.84710898727762 L -101.01395657702923 -96.23419481990231 L -105.68579910478745 -110.61264765585896 L 20.485124530732122 -151.60806583693721 L 25.156967058490324 -137.22961300098058 L 35.5813453645589 -140.61669883360528 L 30.909502836800698 -154.99515166956195 L 52.65691275118513 -162.06131349279622 L 66.09755124555114 -143.56186166956195 L 53.866508717792954 -134.67548911130342 L 60.3091288225304 -125.80798327867872 L 72.54017135028859 -134.69435583693726 L 150.51809054900724 -27.366957655859125 L 138.28704802124906 -18.480585097600596 L 144.7296681259865 -9.61307926497588 L 156.9607106537447 -18.49945182323441 L 170.40134914811074 -1.4210854715202004e-13 ZM 157.25460327989083 18.09494332604681 L 150.22419792286092 27.771466153046457 ZM 31.385031094948292 155.14966016674936 L 20.009596272584574 151.45355733974972 ZM -137.85758732524042 77.79282 L -137.85758732524042 65.83198000000002 ZM -116.58570566900359 -107.0710533260468 L -105.21027084663987 -110.76715615304644 ZM 65.80365861940491 -143.9663701667494 L 72.83406397643483 -134.28984733974977 ZM 72.83406397643486 134.28984733974974 L 65.80365861940494 143.96637016674939 ZM -105.21027084663983 110.76715615304639 L -116.58570566900359 107.07105332604672 ZM -137.85758732524044 -65.83197999999996 L -137.85758732524044 -77.79281999999998 ZM 20.00959627258453 -151.45355733974975 L 31.38503109494829 -155.1496601667494 ZM 150.224197922861 -27.77146615304659 L 157.25460327989094 -18.094943326046945 Z"></path></g></g><g transform=" translate(-151.08618732524047,0)"><g transform="rotate(90) translate(-24.000459999999997,-10.11043)translate(75.26771902805656,1.13388)"><rect class="guide" x="0" y="0" fill="none" stroke="blue" width="48.000919999999994" height="20.22086" style="display: none;"></rect><circle fill="none" stroke="red" r="4.15756" cx="8.882059999999997" cy="10.11043"></circle><circle fill="none" stroke="red" r="4.15756" cx="39.11886" cy="10.11043"></circle></g><g transform="rotate(90) translate(-24.000459999999997,-10.11043)translate(-75.26771902805656,1.13388)"><rect class="guide" x="0" y="0" fill="none" stroke="blue" width="48.000919999999994" height="20.22086" style="display: none;"></rect><circle fill="none" stroke="red" r="4.15756" cx="8.882059999999997" cy="10.11043"></circle><circle fill="none" stroke="red" r="4.15756" cx="39.11886" cy="10.11043"></circle></g></g></g><g transform="translate(384.24726024010806,0)"><path id="pentagon" d="M203.10424684241804, 0L62.762663904031434, 193.16361744670104L-164.31478732524042, 119.38168097194345L-164.31478732524045, -119.3816809719434L62.762663904031385, -193.16361744670107Z" fill="none" stroke="red"></path><circle fill="none" stroke="black" cx="0" cy="0" r="1.8898" class="guide" style="display: none;"></circle><rect fill="none" stroke="red" y="-11.338799999999999" x="-3.7796" height="22.677599999999998" width="7.5592" transform="rotate(36) translate(151.08618732524047,0)"></rect><rect fill="none" stroke="red" y="-11.338799999999999" x="-3.7796" height="22.677599999999998" width="7.5592" transform="rotate(-36) translate(151.08618732524047,0)"></rect><g class="single-face"><g><path stroke="red" stroke-width="1" fill="none" d="M 156.96071065374457 18.499451823234285 L 144.72966812598636 9.613079264975761 L 138.28704802124895 18.48058509760046 L 150.51809054900716 27.366957655858982 L 72.54017135028862 134.6943558369372 L 60.30912882253041 125.80798327867868 L 53.86650871779297 134.6754891113034 L 66.09755124555117 143.56186166956192 L 52.65691275118516 162.06131349279622 L 30.909502836800716 154.9951516695619 L 35.58134536455893 140.61669883360526 L 25.15696705849036 137.22961300098055 L 20.48512453073215 151.6080658369372 L -105.68579910478742 110.61264765585892 L -101.01395657702922 96.23419481990227 L -111.4383348830978 92.84710898727757 L -116.110177410856 107.22556182323422 L -137.85758732524044 100.15939999999992 L -137.85758732524042 77.29282 L -122.73918732524042 77.29282 L -122.73918732524042 66.33198000000002 L -137.85758732524042 66.33198000000002 L -137.85758732524044 -66.33197999999996 L -122.73918732524045 -66.33197999999996 L -122.73918732524045 -77.29281999999998 L -137.85758732524044 -77.29281999999998 L -137.85758732524044 -100.15939999999998 L -116.11017741085601 -107.22556182323427 L -111.43833488309781 -92.84710898727762 L -101.01395657702923 -96.23419481990231 L -105.68579910478745 -110.61264765585896 L 20.485124530732122 -151.60806583693721 L 25.156967058490324 -137.22961300098058 L 35.5813453645589 -140.61669883360528 L 30.909502836800698 -154.99515166956195 L 52.65691275118513 -162.06131349279622 L 66.09755124555114 -143.56186166956195 L 53.866508717792954 -134.67548911130342 L 60.3091288225304 -125.80798327867872 L 72.54017135028859 -134.69435583693726 L 150.51809054900724 -27.366957655859125 L 138.28704802124906 -18.480585097600596 L 144.7296681259865 -9.61307926497588 L 156.9607106537447 -18.49945182323441 L 170.40134914811074 -1.4210854715202004e-13 ZM 157.25460327989083 18.09494332604681 L 150.22419792286092 27.771466153046457 ZM 31.385031094948292 155.14966016674936 L 20.009596272584574 151.45355733974972 ZM -137.85758732524042 77.79282 L -137.85758732524042 65.83198000000002 ZM -116.58570566900359 -107.0710533260468 L -105.21027084663987 -110.76715615304644 ZM 65.80365861940491 -143.9663701667494 L 72.83406397643483 -134.28984733974977 ZM 72.83406397643486 134.28984733974974 L 65.80365861940494 143.96637016674939 ZM -105.21027084663983 110.76715615304639 L -116.58570566900359 107.07105332604672 ZM -137.85758732524044 -65.83197999999996 L -137.85758732524044 -77.79281999999998 ZM 20.00959627258453 -151.45355733974975 L 31.38503109494829 -155.1496601667494 ZM 150.224197922861 -27.77146615304659 L 157.25460327989094 -18.094943326046945 Z"></path></g></g><g transform=" translate(-151.08618732524047,0)"><g transform="rotate(90) translate(-24.000459999999997,-10.11043)translate(75.26771902805656,1.13388)"><rect class="guide" x="0" y="0" fill="none" stroke="blue" width="48.000919999999994" height="20.22086" style="display: none;"></rect><circle fill="none" stroke="red" r="4.15756" cx="8.882059999999997" cy="10.11043"></circle><circle fill="none" stroke="red" r="4.15756" cx="39.11886" cy="10.11043"></circle></g><g transform="rotate(90) translate(-24.000459999999997,-10.11043)translate(-75.26771902805656,1.13388)"><rect class="guide" x="0" y="0" fill="none" stroke="blue" width="48.000919999999994" height="20.22086" style="display: none;"></rect><circle fill="none" stroke="red" r="4.15756" cx="8.882059999999997" cy="10.11043"></circle><circle fill="none" stroke="red" r="4.15756" cx="39.11886" cy="10.11043"></circle></g></g></g><g transform="translate(768.4945204802161,0)"><path id="pentagon" d="M203.10424684241804, 0L62.762663904031434, 193.16361744670104L-164.31478732524042, 119.38168097194345L-164.31478732524045, -119.3816809719434L62.762663904031385, -193.16361744670107Z" fill="none" stroke="red"></path><circle fill="none" stroke="black" cx="0" cy="0" r="1.8898" class="guide" style="display: none;"></circle><rect fill="none" stroke="red" y="-11.338799999999999" x="-3.7796" height="22.677599999999998" width="7.5592" transform="rotate(36) translate(151.08618732524047,0)"></rect><rect fill="none" stroke="red" y="-11.338799999999999" x="-3.7796" height="22.677599999999998" width="7.5592" transform="rotate(-36) translate(151.08618732524047,0)"></rect><g class="single-face"><g><path stroke="red" stroke-width="1" fill="none" d="M 156.96071065374457 18.499451823234285 L 144.72966812598636 9.613079264975761 L 138.28704802124895 18.48058509760046 L 150.51809054900716 27.366957655858982 L 72.54017135028862 134.6943558369372 L 60.30912882253041 125.80798327867868 L 53.86650871779297 134.6754891113034 L 66.09755124555117 143.56186166956192 L 52.65691275118516 162.06131349279622 L 30.909502836800716 154.9951516695619 L 35.58134536455893 140.61669883360526 L 25.15696705849036 137.22961300098055 L 20.48512453073215 151.6080658369372 L -105.68579910478742 110.61264765585892 L -101.01395657702922 96.23419481990227 L -111.4383348830978 92.84710898727757 L -116.110177410856 107.22556182323422 L -137.85758732524044 100.15939999999992 L -137.85758732524042 77.29282 L -122.73918732524042 77.29282 L -122.73918732524042 66.33198000000002 L -137.85758732524042 66.33198000000002 L -137.85758732524044 -66.33197999999996 L -122.73918732524045 -66.33197999999996 L -122.73918732524045 -77.29281999999998 L -137.85758732524044 -77.29281999999998 L -137.85758732524044 -100.15939999999998 L -116.11017741085601 -107.22556182323427 L -111.43833488309781 -92.84710898727762 L -101.01395657702923 -96.23419481990231 L -105.68579910478745 -110.61264765585896 L 20.485124530732122 -151.60806583693721 L 25.156967058490324 -137.22961300098058 L 35.5813453645589 -140.61669883360528 L 30.909502836800698 -154.99515166956195 L 52.65691275118513 -162.06131349279622 L 66.09755124555114 -143.56186166956195 L 53.866508717792954 -134.67548911130342 L 60.3091288225304 -125.80798327867872 L 72.54017135028859 -134.69435583693726 L 150.51809054900724 -27.366957655859125 L 138.28704802124906 -18.480585097600596 L 144.7296681259865 -9.61307926497588 L 156.9607106537447 -18.49945182323441 L 170.40134914811074 -1.4210854715202004e-13 ZM 157.25460327989083 18.09494332604681 L 150.22419792286092 27.771466153046457 ZM 31.385031094948292 155.14966016674936 L 20.009596272584574 151.45355733974972 ZM -137.85758732524042 77.79282 L -137.85758732524042 65.83198000000002 ZM -116.58570566900359 -107.0710533260468 L -105.21027084663987 -110.76715615304644 ZM 65.80365861940491 -143.9663701667494 L 72.83406397643483 -134.28984733974977 ZM 72.83406397643486 134.28984733974974 L 65.80365861940494 143.96637016674939 ZM -105.21027084663983 110.76715615304639 L -116.58570566900359 107.07105332604672 ZM -137.85758732524044 -65.83197999999996 L -137.85758732524044 -77.79281999999998 ZM 20.00959627258453 -151.45355733974975 L 31.38503109494829 -155.1496601667494 ZM 150.224197922861 -27.77146615304659 L 157.25460327989094 -18.094943326046945 Z"></path></g></g><g transform=" translate(-151.08618732524047,0)"><g transform="rotate(90) translate(-24.000459999999997,-10.11043)translate(75.26771902805656,1.13388)"><rect class="guide" x="0" y="0" fill="none" stroke="blue" width="48.000919999999994" height="20.22086" style="display: none;"></rect><circle fill="none" stroke="red" r="4.15756" cx="8.882059999999997" cy="10.11043"></circle><circle fill="none" stroke="red" r="4.15756" cx="39.11886" cy="10.11043"></circle></g><g transform="rotate(90) translate(-24.000459999999997,-10.11043)translate(-75.26771902805656,1.13388)"><rect class="guide" x="0" y="0" fill="none" stroke="blue" width="48.000919999999994" height="20.22086" style="display: none;"></rect><circle fill="none" stroke="red" r="4.15756" cx="8.882059999999997" cy="10.11043"></circle><circle fill="none" stroke="red" r="4.15756" cx="39.11886" cy="10.11043"></circle></g></g></g><g transform="translate(1152.7417807203242,0)"><path id="pentagon" d="M203.10424684241804, 0L62.762663904031434, 193.16361744670104L-164.31478732524042, 119.38168097194345L-164.31478732524045, -119.3816809719434L62.762663904031385, -193.16361744670107Z" fill="none" stroke="red"></path><circle fill="none" stroke="black" cx="0" cy="0" r="1.8898" class="guide" style="display: none;"></circle><rect fill="none" stroke="red" y="-11.338799999999999" x="-3.7796" height="22.677599999999998" width="7.5592" transform="rotate(36) translate(151.08618732524047,0)"></rect><rect fill="none" stroke="red" y="-11.338799999999999" x="-3.7796" height="22.677599999999998" width="7.5592" transform="rotate(-36) translate(151.08618732524047,0)"></rect><g class="single-face"><g><path stroke="red" stroke-width="1" fill="none" d="M 156.96071065374457 18.499451823234285 L 144.72966812598636 9.613079264975761 L 138.28704802124895 18.48058509760046 L 150.51809054900716 27.366957655858982 L 72.54017135028862 134.6943558369372 L 60.30912882253041 125.80798327867868 L 53.86650871779297 134.6754891113034 L 66.09755124555117 143.56186166956192 L 52.65691275118516 162.06131349279622 L 30.909502836800716 154.9951516695619 L 35.58134536455893 140.61669883360526 L 25.15696705849036 137.22961300098055 L 20.48512453073215 151.6080658369372 L -105.68579910478742 110.61264765585892 L -101.01395657702922 96.23419481990227 L -111.4383348830978 92.84710898727757 L -116.110177410856 107.22556182323422 L -137.85758732524044 100.15939999999992 L -137.85758732524042 77.29282 L -122.73918732524042 77.29282 L -122.73918732524042 66.33198000000002 L -137.85758732524042 66.33198000000002 L -137.85758732524044 -66.33197999999996 L -122.73918732524045 -66.33197999999996 L -122.73918732524045 -77.29281999999998 L -137.85758732524044 -77.29281999999998 L -137.85758732524044 -100.15939999999998 L -116.11017741085601 -107.22556182323427 L -111.43833488309781 -92.84710898727762 L -101.01395657702923 -96.23419481990231 L -105.68579910478745 -110.61264765585896 L 20.485124530732122 -151.60806583693721 L 25.156967058490324 -137.22961300098058 L 35.5813453645589 -140.61669883360528 L 30.909502836800698 -154.99515166956195 L 52.65691275118513 -162.06131349279622 L 66.09755124555114 -143.56186166956195 L 53.866508717792954 -134.67548911130342 L 60.3091288225304 -125.80798327867872 L 72.54017135028859 -134.69435583693726 L 150.51809054900724 -27.366957655859125 L 138.28704802124906 -18.480585097600596 L 144.7296681259865 -9.61307926497588 L 156.9607106537447 -18.49945182323441 L 170.40134914811074 -1.4210854715202004e-13 ZM 157.25460327989083 18.09494332604681 L 150.22419792286092 27.771466153046457 ZM 31.385031094948292 155.14966016674936 L 20.009596272584574 151.45355733974972 ZM -137.85758732524042 77.79282 L -137.85758732524042 65.83198000000002 ZM -116.58570566900359 -107.0710533260468 L -105.21027084663987 -110.76715615304644 ZM 65.80365861940491 -143.9663701667494 L 72.83406397643483 -134.28984733974977 ZM 72.83406397643486 134.28984733974974 L 65.80365861940494 143.96637016674939 ZM -105.21027084663983 110.76715615304639 L -116.58570566900359 107.07105332604672 ZM -137.85758732524044 -65.83197999999996 L -137.85758732524044 -77.79281999999998 ZM 20.00959627258453 -151.45355733974975 L 31.38503109494829 -155.1496601667494 ZM 150.224197922861 -27.77146615304659 L 157.25460327989094 -18.094943326046945 Z"></path></g></g><g transform=" translate(-151.08618732524047,0)"><g transform="rotate(90) translate(-24.000459999999997,-10.11043)translate(75.26771902805656,1.13388)"><rect class="guide" x="0" y="0" fill="none" stroke="blue" width="48.000919999999994" height="20.22086" style="display: none;"></rect><circle fill="none" stroke="red" r="4.15756" cx="8.882059999999997" cy="10.11043"></circle><circle fill="none" stroke="red" r="4.15756" cx="39.11886" cy="10.11043"></circle></g><g transform="rotate(90) translate(-24.000459999999997,-10.11043)translate(-75.26771902805656,1.13388)"><rect class="guide" x="0" y="0" fill="none" stroke="blue" width="48.000919999999994" height="20.22086" style="display: none;"></rect><circle fill="none" stroke="red" r="4.15756" cx="8.882059999999997" cy="10.11043"></circle><circle fill="none" stroke="red" r="4.15756" cx="39.11886" cy="10.11043"></circle></g></g></g><g transform="translate(1536.9890409604322,0)"><path id="pentagon" d="M203.10424684241804, 0L62.762663904031434, 193.16361744670104L-164.31478732524042, 119.38168097194345L-164.31478732524045, -119.3816809719434L62.762663904031385, -193.16361744670107Z" fill="none" stroke="red"></path><circle fill="none" stroke="black" cx="0" cy="0" r="1.8898" class="guide" style="display: none;"></circle><rect fill="none" stroke="red" y="-11.338799999999999" x="-3.7796" height="22.677599999999998" width="7.5592" transform="rotate(36) translate(151.08618732524047,0)"></rect><rect fill="none" stroke="red" y="-11.338799999999999" x="-3.7796" height="22.677599999999998" width="7.5592" transform="rotate(-36) translate(151.08618732524047,0)"></rect><g class="single-face"><g><path stroke="red" stroke-width="1" fill="none" d="M 156.96071065374457 18.499451823234285 L 144.72966812598636 9.613079264975761 L 138.28704802124895 18.48058509760046 L 150.51809054900716 27.366957655858982 L 72.54017135028862 134.6943558369372 L 60.30912882253041 125.80798327867868 L 53.86650871779297 134.6754891113034 L 66.09755124555117 143.56186166956192 L 52.65691275118516 162.06131349279622 L 30.909502836800716 154.9951516695619 L 35.58134536455893 140.61669883360526 L 25.15696705849036 137.22961300098055 L 20.48512453073215 151.6080658369372 L -105.68579910478742 110.61264765585892 L -101.01395657702922 96.23419481990227 L -111.4383348830978 92.84710898727757 L -116.110177410856 107.22556182323422 L -137.85758732524044 100.15939999999992 L -137.85758732524042 77.29282 L -122.73918732524042 77.29282 L -122.73918732524042 66.33198000000002 L -137.85758732524042 66.33198000000002 L -137.85758732524044 -66.33197999999996 L -122.73918732524045 -66.33197999999996 L -122.73918732524045 -77.29281999999998 L -137.85758732524044 -77.29281999999998 L -137.85758732524044 -100.15939999999998 L -116.11017741085601 -107.22556182323427 L -111.43833488309781 -92.84710898727762 L -101.01395657702923 -96.23419481990231 L -105.68579910478745 -110.61264765585896 L 20.485124530732122 -151.60806583693721 L 25.156967058490324 -137.22961300098058 L 35.5813453645589 -140.61669883360528 L 30.909502836800698 -154.99515166956195 L 52.65691275118513 -162.06131349279622 L 66.09755124555114 -143.56186166956195 L 53.866508717792954 -134.67548911130342 L 60.3091288225304 -125.80798327867872 L 72.54017135028859 -134.69435583693726 L 150.51809054900724 -27.366957655859125 L 138.28704802124906 -18.480585097600596 L 144.7296681259865 -9.61307926497588 L 156.9607106537447 -18.49945182323441 L 170.40134914811074 -1.4210854715202004e-13 ZM 157.25460327989083 18.09494332604681 L 150.22419792286092 27.771466153046457 ZM 31.385031094948292 155.14966016674936 L 20.009596272584574 151.45355733974972 ZM -137.85758732524042 77.79282 L -137.85758732524042 65.83198000000002 ZM -116.58570566900359 -107.0710533260468 L -105.21027084663987 -110.76715615304644 ZM 65.80365861940491 -143.9663701667494 L 72.83406397643483 -134.28984733974977 ZM 72.83406397643486 134.28984733974974 L 65.80365861940494 143.96637016674939 ZM -105.21027084663983 110.76715615304639 L -116.58570566900359 107.07105332604672 ZM -137.85758732524044 -65.83197999999996 L -137.85758732524044 -77.79281999999998 ZM 20.00959627258453 -151.45355733974975 L 31.38503109494829 -155.1496601667494 ZM 150.224197922861 -27.77146615304659 L 157.25460327989094 -18.094943326046945 Z"></path></g></g><g transform=" translate(-151.08618732524047,0)"><g transform="rotate(90) translate(-24.000459999999997,-10.11043)translate(75.26771902805656,1.13388)"><rect class="guide" x="0" y="0" fill="none" stroke="blue" width="48.000919999999994" height="20.22086" style="display: none;"></rect><circle fill="none" stroke="red" r="4.15756" cx="8.882059999999997" cy="10.11043"></circle><circle fill="none" stroke="red" r="4.15756" cx="39.11886" cy="10.11043"></circle></g><g transform="rotate(90) translate(-24.000459999999997,-10.11043)translate(-75.26771902805656,1.13388)"><rect class="guide" x="0" y="0" fill="none" stroke="blue" width="48.000919999999994" height="20.22086" style="display: none;"></rect><circle fill="none" stroke="red" r="4.15756" cx="8.882059999999997" cy="10.11043"></circle><circle fill="none" stroke="red" r="4.15756" cx="39.11886" cy="10.11043"></circle></g></g></g><g transform="translate(1921.2363012005403,0)"><path id="pentagon" d="M203.10424684241804, 0L62.762663904031434, 193.16361744670104L-164.31478732524042, 119.38168097194345L-164.31478732524045, -119.3816809719434L62.762663904031385, -193.16361744670107Z" fill="none" stroke="red"></path><circle fill="none" stroke="black" cx="0" cy="0" r="1.8898" class="guide" style="display: none;"></circle><rect fill="none" stroke="red" y="-11.338799999999999" x="-3.7796" height="22.677599999999998" width="7.5592" transform="rotate(36) translate(151.08618732524047,0)"></rect><rect fill="none" stroke="red" y="-11.338799999999999" x="-3.7796" height="22.677599999999998" width="7.5592" transform="rotate(-36) translate(151.08618732524047,0)"></rect><g class="single-face"><g><path stroke="red" stroke-width="1" fill="none" d="M 156.96071065374457 18.499451823234285 L 144.72966812598636 9.613079264975761 L 138.28704802124895 18.48058509760046 L 150.51809054900716 27.366957655858982 L 72.54017135028862 134.6943558369372 L 60.30912882253041 125.80798327867868 L 53.86650871779297 134.6754891113034 L 66.09755124555117 143.56186166956192 L 52.65691275118516 162.06131349279622 L 30.909502836800716 154.9951516695619 L 35.58134536455893 140.61669883360526 L 25.15696705849036 137.22961300098055 L 20.48512453073215 151.6080658369372 L -105.68579910478742 110.61264765585892 L -101.01395657702922 96.23419481990227 L -111.4383348830978 92.84710898727757 L -116.110177410856 107.22556182323422 L -137.85758732524044 100.15939999999992 L -137.85758732524042 77.29282 L -122.73918732524042 77.29282 L -122.73918732524042 66.33198000000002 L -137.85758732524042 66.33198000000002 L -137.85758732524044 -66.33197999999996 L -122.73918732524045 -66.33197999999996 L -122.73918732524045 -77.29281999999998 L -137.85758732524044 -77.29281999999998 L -137.85758732524044 -100.15939999999998 L -116.11017741085601 -107.22556182323427 L -111.43833488309781 -92.84710898727762 L -101.01395657702923 -96.23419481990231 L -105.68579910478745 -110.61264765585896 L 20.485124530732122 -151.60806583693721 L 25.156967058490324 -137.22961300098058 L 35.5813453645589 -140.61669883360528 L 30.909502836800698 -154.99515166956195 L 52.65691275118513 -162.06131349279622 L 66.09755124555114 -143.56186166956195 L 53.866508717792954 -134.67548911130342 L 60.3091288225304 -125.80798327867872 L 72.54017135028859 -134.69435583693726 L 150.51809054900724 -27.366957655859125 L 138.28704802124906 -18.480585097600596 L 144.7296681259865 -9.61307926497588 L 156.9607106537447 -18.49945182323441 L 170.40134914811074 -1.4210854715202004e-13 ZM 157.25460327989083 18.09494332604681 L 150.22419792286092 27.771466153046457 ZM 31.385031094948292 155.14966016674936 L 20.009596272584574 151.45355733974972 ZM -137.85758732524042 77.79282 L -137.85758732524042 65.83198000000002 ZM -116.58570566900359 -107.0710533260468 L -105.21027084663987 -110.76715615304644 ZM 65.80365861940491 -143.9663701667494 L 72.83406397643483 -134.28984733974977 ZM 72.83406397643486 134.28984733974974 L 65.80365861940494 143.96637016674939 ZM -105.21027084663983 110.76715615304639 L -116.58570566900359 107.07105332604672 ZM -137.85758732524044 -65.83197999999996 L -137.85758732524044 -77.79281999999998 ZM 20.00959627258453 -151.45355733974975 L 31.38503109494829 -155.1496601667494 ZM 150.224197922861 -27.77146615304659 L 157.25460327989094 -18.094943326046945 Z"></path></g></g><g transform=" translate(-151.08618732524047,0)"><g transform="rotate(90) translate(-24.000459999999997,-10.11043)translate(75.26771902805656,1.13388)"><rect class="guide" x="0" y="0" fill="none" stroke="blue" width="48.000919999999994" height="20.22086" style="display: none;"></rect><circle fill="none" stroke="red" r="4.15756" cx="8.882059999999997" cy="10.11043"></circle><circle fill="none" stroke="red" r="4.15756" cx="39.11886" cy="10.11043"></circle></g><g transform="rotate(90) translate(-24.000459999999997,-10.11043)translate(-75.26771902805656,1.13388)"><rect class="guide" x="0" y="0" fill="none" stroke="blue" width="48.000919999999994" height="20.22086" style="display: none;"></rect><circle fill="none" stroke="red" r="4.15756" cx="8.882059999999997" cy="10.11043"></circle><circle fill="none" stroke="red" r="4.15756" cx="39.11886" cy="10.11043"></circle></g></g></g><g transform="translate(2305.4835614406484,0)"><path id="pentagon" d="M203.10424684241804, 0L62.762663904031434, 193.16361744670104L-164.31478732524042, 119.38168097194345L-164.31478732524045, -119.3816809719434L62.762663904031385, -193.16361744670107Z" fill="none" stroke="red"></path><circle fill="none" stroke="black" cx="0" cy="0" r="1.8898" class="guide" style="display: none;"></circle><rect fill="none" stroke="red" y="-11.338799999999999" x="-3.7796" height="22.677599999999998" width="7.5592" transform="rotate(36) translate(151.08618732524047,0)"></rect><rect fill="none" stroke="red" y="-11.338799999999999" x="-3.7796" height="22.677599999999998" width="7.5592" transform="rotate(-36) translate(151.08618732524047,0)"></rect><g class="single-face"><g><path stroke="red" stroke-width="1" fill="none" d="M 156.96071065374457 18.499451823234285 L 144.72966812598636 9.613079264975761 L 138.28704802124895 18.48058509760046 L 150.51809054900716 27.366957655858982 L 72.54017135028862 134.6943558369372 L 60.30912882253041 125.80798327867868 L 53.86650871779297 134.6754891113034 L 66.09755124555117 143.56186166956192 L 52.65691275118516 162.06131349279622 L 30.909502836800716 154.9951516695619 L 35.58134536455893 140.61669883360526 L 25.15696705849036 137.22961300098055 L 20.48512453073215 151.6080658369372 L -105.68579910478742 110.61264765585892 L -101.01395657702922 96.23419481990227 L -111.4383348830978 92.84710898727757 L -116.110177410856 107.22556182323422 L -137.85758732524044 100.15939999999992 L -137.85758732524042 77.29282 L -122.73918732524042 77.29282 L -122.73918732524042 66.33198000000002 L -137.85758732524042 66.33198000000002 L -137.85758732524044 -66.33197999999996 L -122.73918732524045 -66.33197999999996 L -122.73918732524045 -77.29281999999998 L -137.85758732524044 -77.29281999999998 L -137.85758732524044 -100.15939999999998 L -116.11017741085601 -107.22556182323427 L -111.43833488309781 -92.84710898727762 L -101.01395657702923 -96.23419481990231 L -105.68579910478745 -110.61264765585896 L 20.485124530732122 -151.60806583693721 L 25.156967058490324 -137.22961300098058 L 35.5813453645589 -140.61669883360528 L 30.909502836800698 -154.99515166956195 L 52.65691275118513 -162.06131349279622 L 66.09755124555114 -143.56186166956195 L 53.866508717792954 -134.67548911130342 L 60.3091288225304 -125.80798327867872 L 72.54017135028859 -134.69435583693726 L 150.51809054900724 -27.366957655859125 L 138.28704802124906 -18.480585097600596 L 144.7296681259865 -9.61307926497588 L 156.9607106537447 -18.49945182323441 L 170.40134914811074 -1.4210854715202004e-13 ZM 157.25460327989083 18.09494332604681 L 150.22419792286092 27.771466153046457 ZM 31.385031094948292 155.14966016674936 L 20.009596272584574 151.45355733974972 ZM -137.85758732524042 77.79282 L -137.85758732524042 65.83198000000002 ZM -116.58570566900359 -107.0710533260468 L -105.21027084663987 -110.76715615304644 ZM 65.80365861940491 -143.9663701667494 L 72.83406397643483 -134.28984733974977 ZM 72.83406397643486 134.28984733974974 L 65.80365861940494 143.96637016674939 ZM -105.21027084663983 110.76715615304639 L -116.58570566900359 107.07105332604672 ZM -137.85758732524044 -65.83197999999996 L -137.85758732524044 -77.79281999999998 ZM 20.00959627258453 -151.45355733974975 L 31.38503109494829 -155.1496601667494 ZM 150.224197922861 -27.77146615304659 L 157.25460327989094 -18.094943326046945 Z"></path></g></g><g transform=" translate(-151.08618732524047,0)"><g transform="rotate(90) translate(-24.000459999999997,-10.11043)translate(75.26771902805656,1.13388)"><rect class="guide" x="0" y="0" fill="none" stroke="blue" width="48.000919999999994" height="20.22086" style="display: none;"></rect><circle fill="none" stroke="red" r="4.15756" cx="8.882059999999997" cy="10.11043"></circle><circle fill="none" stroke="red" r="4.15756" cx="39.11886" cy="10.11043"></circle></g><g transform="rotate(90) translate(-24.000459999999997,-10.11043)translate(-75.26771902805656,1.13388)"><rect class="guide" x="0" y="0" fill="none" stroke="blue" width="48.000919999999994" height="20.22086" style="display: none;"></rect><circle fill="none" stroke="red" r="4.15756" cx="8.882059999999997" cy="10.11043"></circle><circle fill="none" stroke="red" r="4.15756" cx="39.11886" cy="10.11043"></circle></g></g></g><g transform="translate(2689.7308216807564,0)"><path id="pentagon" d="M203.10424684241804, 0L62.762663904031434, 193.16361744670104L-164.31478732524042, 119.38168097194345L-164.31478732524045, -119.3816809719434L62.762663904031385, -193.16361744670107Z" fill="none" stroke="red"></path><circle fill="none" stroke="black" cx="0" cy="0" r="1.8898" class="guide" style="display: none;"></circle><rect fill="none" stroke="red" y="-11.338799999999999" x="-3.7796" height="22.677599999999998" width="7.5592" transform="rotate(36) translate(151.08618732524047,0)"></rect><rect fill="none" stroke="red" y="-11.338799999999999" x="-3.7796" height="22.677599999999998" width="7.5592" transform="rotate(-36) translate(151.08618732524047,0)"></rect><g class="single-face"><g><path stroke="red" stroke-width="1" fill="none" d="M 156.96071065374457 18.499451823234285 L 144.72966812598636 9.613079264975761 L 138.28704802124895 18.48058509760046 L 150.51809054900716 27.366957655858982 L 72.54017135028862 134.6943558369372 L 60.30912882253041 125.80798327867868 L 53.86650871779297 134.6754891113034 L 66.09755124555117 143.56186166956192 L 52.65691275118516 162.06131349279622 L 30.909502836800716 154.9951516695619 L 35.58134536455893 140.61669883360526 L 25.15696705849036 137.22961300098055 L 20.48512453073215 151.6080658369372 L -105.68579910478742 110.61264765585892 L -101.01395657702922 96.23419481990227 L -111.4383348830978 92.84710898727757 L -116.110177410856 107.22556182323422 L -137.85758732524044 100.15939999999992 L -137.85758732524042 77.29282 L -122.73918732524042 77.29282 L -122.73918732524042 66.33198000000002 L -137.85758732524042 66.33198000000002 L -137.85758732524044 -66.33197999999996 L -122.73918732524045 -66.33197999999996 L -122.73918732524045 -77.29281999999998 L -137.85758732524044 -77.29281999999998 L -137.85758732524044 -100.15939999999998 L -116.11017741085601 -107.22556182323427 L -111.43833488309781 -92.84710898727762 L -101.01395657702923 -96.23419481990231 L -105.68579910478745 -110.61264765585896 L 20.485124530732122 -151.60806583693721 L 25.156967058490324 -137.22961300098058 L 35.5813453645589 -140.61669883360528 L 30.909502836800698 -154.99515166956195 L 52.65691275118513 -162.06131349279622 L 66.09755124555114 -143.56186166956195 L 53.866508717792954 -134.67548911130342 L 60.3091288225304 -125.80798327867872 L 72.54017135028859 -134.69435583693726 L 150.51809054900724 -27.366957655859125 L 138.28704802124906 -18.480585097600596 L 144.7296681259865 -9.61307926497588 L 156.9607106537447 -18.49945182323441 L 170.40134914811074 -1.4210854715202004e-13 ZM 157.25460327989083 18.09494332604681 L 150.22419792286092 27.771466153046457 ZM 31.385031094948292 155.14966016674936 L 20.009596272584574 151.45355733974972 ZM -137.85758732524042 77.79282 L -137.85758732524042 65.83198000000002 ZM -116.58570566900359 -107.0710533260468 L -105.21027084663987 -110.76715615304644 ZM 65.80365861940491 -143.9663701667494 L 72.83406397643483 -134.28984733974977 ZM 72.83406397643486 134.28984733974974 L 65.80365861940494 143.96637016674939 ZM -105.21027084663983 110.76715615304639 L -116.58570566900359 107.07105332604672 ZM -137.85758732524044 -65.83197999999996 L -137.85758732524044 -77.79281999999998 ZM 20.00959627258453 -151.45355733974975 L 31.38503109494829 -155.1496601667494 ZM 150.224197922861 -27.77146615304659 L 157.25460327989094 -18.094943326046945 Z"></path></g></g><g transform=" translate(-151.08618732524047,0)"><g transform="rotate(90) translate(-24.000459999999997,-10.11043)translate(75.26771902805656,1.13388)"><rect class="guide" x="0" y="0" fill="none" stroke="blue" width="48.000919999999994" height="20.22086" style="display: none;"></rect><circle fill="none" stroke="red" r="4.15756" cx="8.882059999999997" cy="10.11043"></circle><circle fill="none" stroke="red" r="4.15756" cx="39.11886" cy="10.11043"></circle></g><g transform="rotate(90) translate(-24.000459999999997,-10.11043)translate(-75.26771902805656,1.13388)"><rect class="guide" x="0" y="0" fill="none" stroke="blue" width="48.000919999999994" height="20.22086" style="display: none;"></rect><circle fill="none" stroke="red" r="4.15756" cx="8.882059999999997" cy="10.11043"></circle><circle fill="none" stroke="red" r="4.15756" cx="39.11886" cy="10.11043"></circle></g></g></g><g transform="translate(3073.9780819208645,0)"><path id="pentagon" d="M203.10424684241804, 0L62.762663904031434, 193.16361744670104L-164.31478732524042, 119.38168097194345L-164.31478732524045, -119.3816809719434L62.762663904031385, -193.16361744670107Z" fill="none" stroke="red"></path><circle fill="none" stroke="black" cx="0" cy="0" r="1.8898" class="guide" style="display: none;"></circle><rect fill="none" stroke="red" y="-11.338799999999999" x="-3.7796" height="22.677599999999998" width="7.5592" transform="rotate(36) translate(151.08618732524047,0)"></rect><rect fill="none" stroke="red" y="-11.338799999999999" x="-3.7796" height="22.677599999999998" width="7.5592" transform="rotate(-36) translate(151.08618732524047,0)"></rect><g class="single-face"><g><path stroke="red" stroke-width="1" fill="none" d="M 156.96071065374457 18.499451823234285 L 144.72966812598636 9.613079264975761 L 138.28704802124895 18.48058509760046 L 150.51809054900716 27.366957655858982 L 72.54017135028862 134.6943558369372 L 60.30912882253041 125.80798327867868 L 53.86650871779297 134.6754891113034 L 66.09755124555117 143.56186166956192 L 52.65691275118516 162.06131349279622 L 30.909502836800716 154.9951516695619 L 35.58134536455893 140.61669883360526 L 25.15696705849036 137.22961300098055 L 20.48512453073215 151.6080658369372 L -105.68579910478742 110.61264765585892 L -101.01395657702922 96.23419481990227 L -111.4383348830978 92.84710898727757 L -116.110177410856 107.22556182323422 L -137.85758732524044 100.15939999999992 L -137.85758732524042 77.29282 L -122.73918732524042 77.29282 L -122.73918732524042 66.33198000000002 L -137.85758732524042 66.33198000000002 L -137.85758732524044 -66.33197999999996 L -122.73918732524045 -66.33197999999996 L -122.73918732524045 -77.29281999999998 L -137.85758732524044 -77.29281999999998 L -137.85758732524044 -100.15939999999998 L -116.11017741085601 -107.22556182323427 L -111.43833488309781 -92.84710898727762 L -101.01395657702923 -96.23419481990231 L -105.68579910478745 -110.61264765585896 L 20.485124530732122 -151.60806583693721 L 25.156967058490324 -137.22961300098058 L 35.5813453645589 -140.61669883360528 L 30.909502836800698 -154.99515166956195 L 52.65691275118513 -162.06131349279622 L 66.09755124555114 -143.56186166956195 L 53.866508717792954 -134.67548911130342 L 60.3091288225304 -125.80798327867872 L 72.54017135028859 -134.69435583693726 L 150.51809054900724 -27.366957655859125 L 138.28704802124906 -18.480585097600596 L 144.7296681259865 -9.61307926497588 L 156.9607106537447 -18.49945182323441 L 170.40134914811074 -1.4210854715202004e-13 ZM 157.25460327989083 18.09494332604681 L 150.22419792286092 27.771466153046457 ZM 31.385031094948292 155.14966016674936 L 20.009596272584574 151.45355733974972 ZM -137.85758732524042 77.79282 L -137.85758732524042 65.83198000000002 ZM -116.58570566900359 -107.0710533260468 L -105.21027084663987 -110.76715615304644 ZM 65.80365861940491 -143.9663701667494 L 72.83406397643483 -134.28984733974977 ZM 72.83406397643486 134.28984733974974 L 65.80365861940494 143.96637016674939 ZM -105.21027084663983 110.76715615304639 L -116.58570566900359 107.07105332604672 ZM -137.85758732524044 -65.83197999999996 L -137.85758732524044 -77.79281999999998 ZM 20.00959627258453 -151.45355733974975 L 31.38503109494829 -155.1496601667494 ZM 150.224197922861 -27.77146615304659 L 157.25460327989094 -18.094943326046945 Z"></path></g></g><g transform=" translate(-151.08618732524047,0)"><g transform="rotate(90) translate(-24.000459999999997,-10.11043)translate(75.26771902805656,1.13388)"><rect class="guide" x="0" y="0" fill="none" stroke="blue" width="48.000919999999994" height="20.22086" style="display: none;"></rect><circle fill="none" stroke="red" r="4.15756" cx="8.882059999999997" cy="10.11043"></circle><circle fill="none" stroke="red" r="4.15756" cx="39.11886" cy="10.11043"></circle></g><g transform="rotate(90) translate(-24.000459999999997,-10.11043)translate(-75.26771902805656,1.13388)"><rect class="guide" x="0" y="0" fill="none" stroke="blue" width="48.000919999999994" height="20.22086" style="display: none;"></rect><circle fill="none" stroke="red" r="4.15756" cx="8.882059999999997" cy="10.11043"></circle><circle fill="none" stroke="red" r="4.15756" cx="39.11886" cy="10.11043"></circle></g></g></g><g transform="translate(3458.2253421609726,0)"><path id="pentagon" d="M203.10424684241804, 0L62.762663904031434, 193.16361744670104L-164.31478732524042, 119.38168097194345L-164.31478732524045, -119.3816809719434L62.762663904031385, -193.16361744670107Z" fill="none" stroke="red"></path><circle fill="none" stroke="black" cx="0" cy="0" r="1.8898" class="guide" style="display: none;"></circle><rect fill="none" stroke="red" y="-11.338799999999999" x="-3.7796" height="22.677599999999998" width="7.5592" transform="rotate(36) translate(151.08618732524047,0)"></rect><rect fill="none" stroke="red" y="-11.338799999999999" x="-3.7796" height="22.677599999999998" width="7.5592" transform="rotate(-36) translate(151.08618732524047,0)"></rect><g class="single-face"><g><path stroke="red" stroke-width="1" fill="none" d="M 156.96071065374457 18.499451823234285 L 144.72966812598636 9.613079264975761 L 138.28704802124895 18.48058509760046 L 150.51809054900716 27.366957655858982 L 72.54017135028862 134.6943558369372 L 60.30912882253041 125.80798327867868 L 53.86650871779297 134.6754891113034 L 66.09755124555117 143.56186166956192 L 52.65691275118516 162.06131349279622 L 30.909502836800716 154.9951516695619 L 35.58134536455893 140.61669883360526 L 25.15696705849036 137.22961300098055 L 20.48512453073215 151.6080658369372 L -105.68579910478742 110.61264765585892 L -101.01395657702922 96.23419481990227 L -111.4383348830978 92.84710898727757 L -116.110177410856 107.22556182323422 L -137.85758732524044 100.15939999999992 L -137.85758732524042 77.29282 L -122.73918732524042 77.29282 L -122.73918732524042 66.33198000000002 L -137.85758732524042 66.33198000000002 L -137.85758732524044 -66.33197999999996 L -122.73918732524045 -66.33197999999996 L -122.73918732524045 -77.29281999999998 L -137.85758732524044 -77.29281999999998 L -137.85758732524044 -100.15939999999998 L -116.11017741085601 -107.22556182323427 L -111.43833488309781 -92.84710898727762 L -101.01395657702923 -96.23419481990231 L -105.68579910478745 -110.61264765585896 L 20.485124530732122 -151.60806583693721 L 25.156967058490324 -137.22961300098058 L 35.5813453645589 -140.61669883360528 L 30.909502836800698 -154.99515166956195 L 52.65691275118513 -162.06131349279622 L 66.09755124555114 -143.56186166956195 L 53.866508717792954 -134.67548911130342 L 60.3091288225304 -125.80798327867872 L 72.54017135028859 -134.69435583693726 L 150.51809054900724 -27.366957655859125 L 138.28704802124906 -18.480585097600596 L 144.7296681259865 -9.61307926497588 L 156.9607106537447 -18.49945182323441 L 170.40134914811074 -1.4210854715202004e-13 ZM 157.25460327989083 18.09494332604681 L 150.22419792286092 27.771466153046457 ZM 31.385031094948292 155.14966016674936 L 20.009596272584574 151.45355733974972 ZM -137.85758732524042 77.79282 L -137.85758732524042 65.83198000000002 ZM -116.58570566900359 -107.0710533260468 L -105.21027084663987 -110.76715615304644 ZM 65.80365861940491 -143.9663701667494 L 72.83406397643483 -134.28984733974977 ZM 72.83406397643486 134.28984733974974 L 65.80365861940494 143.96637016674939 ZM -105.21027084663983 110.76715615304639 L -116.58570566900359 107.07105332604672 ZM -137.85758732524044 -65.83197999999996 L -137.85758732524044 -77.79281999999998 ZM 20.00959627258453 -151.45355733974975 L 31.38503109494829 -155.1496601667494 ZM 150.224197922861 -27.77146615304659 L 157.25460327989094 -18.094943326046945 Z"></path></g></g><g transform=" translate(-151.08618732524047,0)"><g transform="rotate(90) translate(-24.000459999999997,-10.11043)translate(75.26771902805656,1.13388)"><rect class="guide" x="0" y="0" fill="none" stroke="blue" width="48.000919999999994" height="20.22086" style="display: none;"></rect><circle fill="none" stroke="red" r="4.15756" cx="8.882059999999997" cy="10.11043"></circle><circle fill="none" stroke="red" r="4.15756" cx="39.11886" cy="10.11043"></circle></g><g transform="rotate(90) translate(-24.000459999999997,-10.11043)translate(-75.26771902805656,1.13388)"><rect class="guide" x="0" y="0" fill="none" stroke="blue" width="48.000919999999994" height="20.22086" style="display: none;"></rect><circle fill="none" stroke="red" r="4.15756" cx="8.882059999999997" cy="10.11043"></circle><circle fill="none" stroke="red" r="4.15756" cx="39.11886" cy="10.11043"></circle></g></g></g></g><g class="face"><g class="faces-group"></g></g><g transform="translate(0,404.24726024010806)"><path class="guide" id="pentagon" d="M170.4013491481106, 0L52.656912751185146, -162.0613134927962L-137.85758732524042, -100.1594L-137.85758732524044, 100.15939999999998L52.65691275118511, 162.06131349279622ZM203.10424684241804, 0L62.762663904031434, 193.16361744670104L-164.31478732524042, 119.38168097194345L-164.31478732524045, -119.3816809719434L62.762663904031385, -193.16361744670107Z" fill="none" stroke="black" style="display: none;"></path><path class="guide" d="M5.553982848911579, 7.6444015798488785L127.7852760103479, -81.16183115502545L116.67731031252475, -96.4506343147232L-5.553982848911579, -7.6444015798488785ZM8.986533022472907, -2.919901579848877L-37.70166647634317, -146.61140455770908L-55.67473252128898, -140.77160139801134L-8.986533022472907, 2.919901579848877ZM1.157168760514334e-15, -9.449L-151.08618732524047, -9.449000000000018L-151.08618732524047, 9.448999999999982L-1.157168760514334e-15, 9.449ZM-8.986533022472905, -2.9199015798488794L-55.674732521289016, 140.7716013980113L-37.701666476343206, 146.61140455770905L8.986533022472905, 2.9199015798488794ZM-5.553982848911581, 7.644401579848878L116.67731031252472, 96.45063431472323L127.7852760103479, 81.16183115502548L5.553982848911581, -7.644401579848878Z" fill="none" stroke="black" style="display: none;"></path><path d="M203.10424684241804, 0L62.762663904031434, 193.16361744670104L-164.31478732524042, 119.38168097194345L-164.31478732524045, -119.3816809719434L62.762663904031385, -193.16361744670107ZM11.679606319395505, 35.94613208989163L-1.7016664763432061, 35.94613208989163L-34, 134L52.65691275118511, 162.06131349279622L106, 89L23, 28ZM-137.85758732524044, 100.15939999999998L-52, 128L-20, 30L-30.577606319395514, 22.21593139564631L-34.577606319395514, 9.448999999999982L-137.85758732524044, 9.448999999999982ZM34, -13L37.796, 0L34, 13L117, 73L170.4013491481106, 0L117, -73ZM-137.85758732524042, -100.1594L-137.85758732524044, -9.449L-34.796, -9.449L-30.57760631939551, -22.21593139564632L-20, -30L-52, -128ZM-34, -134L-2.0134669775270932, -35.94613208989163L11.679606319395514, -35.94613208989162L23, -28L106, -89L52.656912751185146, -162.0613134927962Z" fill="none" stroke="red"></path><circle cx="0" cy="0" fill="none" stroke="red" r="5.6693999999999996"></circle><g transform="rotate(0) translate(-151.08618732524047,0)"><g transform="rotate(90) translate(-24.000459999999997,-10.11043)translate(75.26771902805656,0)"><rect class="guide" x="0" y="0" fill="none" stroke="blue" width="48.000919999999994" height="20.22086" style="display: none;"></rect><circle fill="none" stroke="red" r="4.15756" cx="8.882059999999997" cy="10.11043"></circle><circle fill="none" stroke="red" r="4.15756" cx="39.11886" cy="10.11043"></circle></g><g transform="rotate(90) translate(-24.000459999999997,-10.11043)translate(-75.26771902805656,0)"><rect class="guide" x="0" y="0" fill="none" stroke="blue" width="48.000919999999994" height="20.22086" style="display: none;"></rect><circle fill="none" stroke="red" r="4.15756" cx="8.882059999999997" cy="10.11043"></circle><circle fill="none" stroke="red" r="4.15756" cx="39.11886" cy="10.11043"></circle></g></g><g transform="rotate(72) translate(-151.08618732524047,0)"><g transform="rotate(90) translate(-24.000459999999997,-10.11043)translate(75.26771902805656,0)"><rect class="guide" x="0" y="0" fill="none" stroke="blue" width="48.000919999999994" height="20.22086" style="display: none;"></rect><circle fill="none" stroke="red" r="4.15756" cx="8.882059999999997" cy="10.11043"></circle><circle fill="none" stroke="red" r="4.15756" cx="39.11886" cy="10.11043"></circle></g><g transform="rotate(90) translate(-24.000459999999997,-10.11043)translate(-75.26771902805656,0)"><rect class="guide" x="0" y="0" fill="none" stroke="blue" width="48.000919999999994" height="20.22086" style="display: none;"></rect><circle fill="none" stroke="red" r="4.15756" cx="8.882059999999997" cy="10.11043"></circle><circle fill="none" stroke="red" r="4.15756" cx="39.11886" cy="10.11043"></circle></g></g><g transform="rotate(144) translate(-151.08618732524047,0)"><g transform="rotate(90) translate(-24.000459999999997,-10.11043)translate(75.26771902805656,0)"><rect class="guide" x="0" y="0" fill="none" stroke="blue" width="48.000919999999994" height="20.22086" style="display: none;"></rect><circle fill="none" stroke="red" r="4.15756" cx="8.882059999999997" cy="10.11043"></circle><circle fill="none" stroke="red" r="4.15756" cx="39.11886" cy="10.11043"></circle></g><g transform="rotate(90) translate(-24.000459999999997,-10.11043)translate(-75.26771902805656,0)"><rect class="guide" x="0" y="0" fill="none" stroke="blue" width="48.000919999999994" height="20.22086" style="display: none;"></rect><circle fill="none" stroke="red" r="4.15756" cx="8.882059999999997" cy="10.11043"></circle><circle fill="none" stroke="red" r="4.15756" cx="39.11886" cy="10.11043"></circle></g></g><g transform="rotate(216) translate(-151.08618732524047,0)"><g transform="rotate(90) translate(-24.000459999999997,-10.11043)translate(75.26771902805656,0)"><rect class="guide" x="0" y="0" fill="none" stroke="blue" width="48.000919999999994" height="20.22086" style="display: none;"></rect><circle fill="none" stroke="red" r="4.15756" cx="8.882059999999997" cy="10.11043"></circle><circle fill="none" stroke="red" r="4.15756" cx="39.11886" cy="10.11043"></circle></g><g transform="rotate(90) translate(-24.000459999999997,-10.11043)translate(-75.26771902805656,0)"><rect class="guide" x="0" y="0" fill="none" stroke="blue" width="48.000919999999994" height="20.22086" style="display: none;"></rect><circle fill="none" stroke="red" r="4.15756" cx="8.882059999999997" cy="10.11043"></circle><circle fill="none" stroke="red" r="4.15756" cx="39.11886" cy="10.11043"></circle></g></g><g transform="rotate(288) translate(-151.08618732524047,0)"><g transform="rotate(90) translate(-24.000459999999997,-10.11043)translate(75.26771902805656,0)"><rect class="guide" x="0" y="0" fill="none" stroke="blue" width="48.000919999999994" height="20.22086" style="display: none;"></rect><circle fill="none" stroke="red" r="4.15756" cx="8.882059999999997" cy="10.11043"></circle><circle fill="none" stroke="red" r="4.15756" cx="39.11886" cy="10.11043"></circle></g><g transform="rotate(90) translate(-24.000459999999997,-10.11043)translate(-75.26771902805656,0)"><rect class="guide" x="0" y="0" fill="none" stroke="blue" width="48.000919999999994" height="20.22086" style="display: none;"></rect><circle fill="none" stroke="red" r="4.15756" cx="8.882059999999997" cy="10.11043"></circle><circle fill="none" stroke="red" r="4.15756" cx="39.11886" cy="10.11043"></circle></g></g><circle fill="none" stroke="red" cx="0" cy="0" r="5.6693999999999996" transform="rotate(36) translate(75.592)"></circle><circle fill="none" stroke="red" cx="0" cy="0" r="5.6693999999999996" transform="rotate(108) translate(75.592)"></circle><circle fill="none" stroke="red" cx="0" cy="0" r="5.6693999999999996" transform="rotate(180) translate(75.592)"></circle><circle fill="none" stroke="red" cx="0" cy="0" r="5.6693999999999996" transform="rotate(252) translate(75.592)"></circle><circle fill="none" stroke="red" cx="0" cy="0" r="5.6693999999999996" transform="rotate(324) translate(75.592)"></circle></g></g></svg>