<svg xmlns="http://www.w3.org/2000/svg" id="svg"><g id="pop-up" transform="translate(200,200)"><g><path class="guide" id="pentagon" d="M170.4013491481106, 0L52.656912751185146, -162.0613134927962L-137.85758732524042, -100.1594L-137.85758732524044, 100.15939999999998L52.65691275118511, 162.06131349279622ZM203.10424684241804, 0L62.762663904031434, 193.16361744670104L-164.31478732524042, 119.38168097194345L-164.31478732524045, -119.3816809719434L62.762663904031385, -193.16361744670107Z" fill="none" stroke="black" style="display: none;"></path><path class="guide" d="M5.553982848911579, 7.6444015798488785L127.7852760103479, -81.16183115502545L116.67731031252475, -96.4506343147232L-5.553982848911579, -7.6444015798488785ZM8.986533022472907, -2.919901579848877L-37.70166647634317, -146.61140455770908L-55.67473252128898, -140.77160139801134L-8.986533022472907, 2.919901579848877ZM1.157168760514334e-15, -9.449L-151.08618732524047, -9.449000000000018L-151.08618732524047, 9.448999999999982L-1.157168760514334e-15, 9.449ZM-8.986533022472905, -2.9199015798488794L-55.674732521289016, 140.7716013980113L-37.701666476343206, 146.61140455770905L8.986533022472905, 2.9199015798488794ZM-5.553982848911581, 7.644401579848878L116.67731031252472, 96.45063431472323L127.7852760103479, 81.16183115502548L5.553982848911581, -7.644401579848878Z" fill="none" stroke="black" style="display: none;"></path><path d="M203.10424684241804, 0L62.762663904031434, 193.16361744670104L-164.31478732524042, 119.38168097194345L-164.31478732524045, -119.3816809719434L62.762663904031385, -193.16361744670107ZM11.679606319395505, 35.94613208989163L-1.7016664763432061, 35.94613208989163L-34, 134L52.65691275118511, 162.06131349279622L106, 89L23, 28ZM-137.85758732524044, 100.15939999999998L-52, 128L-20, 30L-30.577606319395514, 22.21593139564631L-34.577606319395514, 9.448999999999982L-137.85758732524044, 9.448999999999982ZM34, -13L37.796, 0L34, 13L117, 73L170.4013491481106, 0L117, -73ZM-137.85758732524042, -100.1594L-137.85758732524044, -9.449L-34.796, -9.449L-30.57760631939551, -22.21593139564632L-20, -30L-52, -128ZM-34, -134L-2.0134669775270932, -35.94613208989163L11.679606319395514, -35.94613208989162L23, -28L106, -89L52.656912751185146, -162.0613134927962Z" fill="none" stroke="red"></path><circle cx="0" cy="0" fill="none" stroke="red" r="5.6693999999999996"></circle><g transform="rotate(0) translate(-151.08618732524047,0)"><g transform="rotate(90) translate(-24.000459999999997,-10.11043)translate(75.26771902805656,1.13388)"><rect class="guide" x="0" y="0" fill="none" stroke="blue" width="48.000919999999994" height="20.22086" style="display: none;"></rect><circle fill="none" stroke="red" r="4.15756" cx="8.882059999999997" cy="10.11043"></circle><circle fill="none" stroke="red" r="4.15756" cx="39.11886" cy="10.11043"></circle></g><g transform="rotate(90) translate(-24.000459999999997,-10.11043)translate(-75.26771902805656,1.13388)"><rect class="guide" x="0" y="0" fill="none" stroke="blue" width="48.000919999999994" height="20.22086" style="display: none;"></rect><circle fill="none" stroke="red" r="4.15756" cx="8.882059999999997" cy="10.11043"></circle><circle fill="none" stroke="red" r="4.15756" cx="39.11886" cy="10.11043"></circle></g></g><g transform="rotate(72) translate(-151.08618732524047,0)"><g transform="rotate(90) translate(-24.000459999999997,-10.11043)translate(75.26771902805656,1.13388)"><rect class="guide" x="0" y="0" fill="none" stroke="blue" width="48.000919999999994" height="20.22086" style="display: none;"></rect><circle fill="none" stroke="red" r="4.15756" cx="8.882059999999997" cy="10.11043"></circle><circle fill="none" stroke="red" r="4.15756" cx="39.11886" cy="10.11043"></circle></g><g transform="rotate(90) translate(-24.000459999999997,-10.11043)translate(-75.26771902805656,1.13388)"><rect class="guide" x="0" y="0" fill="none" stroke="blue" width="48.000919999999994" height="20.22086" style="display: none;"></rect><circle fill="none" stroke="red" r="4.15756" cx="8.882059999999997" cy="10.11043"></circle><circle fill="none" stroke="red" r="4.15756" cx="39.11886" cy="10.11043"></circle></g></g><g transform="rotate(144) translate(-151.08618732524047,0)"><g transform="rotate(90) translate(-24.000459999999997,-10.11043)translate(75.26771902805656,1.13388)"><rect class="guide" x="0" y="0" fill="none" stroke="blue" width="48.000919999999994" height="20.22086" style="display: none;"></rect><circle fill="none" stroke="red" r="4.15756" cx="8.882059999999997" cy="10.11043"></circle><circle fill="none" stroke="red" r="4.15756" cx="39.11886" cy="10.11043"></circle></g><g transform="rotate(90) translate(-24.000459999999997,-10.11043)translate(-75.26771902805656,1.13388)"><rect class="guide" x="0" y="0" fill="none" stroke="blue" width="48.000919999999994" height="20.22086" style="display: none;"></rect><circle fill="none" stroke="red" r="4.15756" cx="8.882059999999997" cy="10.11043"></circle><circle fill="none" stroke="red" r="4.15756" cx="39.11886" cy="10.11043"></circle></g></g><g transform="rotate(216) translate(-151.08618732524047,0)"><g transform="rotate(90) translate(-24.000459999999997,-10.11043)translate(75.26771902805656,1.13388)"><rect class="guide" x="0" y="0" fill="none" stroke="blue" width="48.000919999999994" height="20.22086" style="display: none;"></rect><circle fill="none" stroke="red" r="4.15756" cx="8.882059999999997" cy="10.11043"></circle><circle fill="none" stroke="red" r="4.15756" cx="39.11886" cy="10.11043"></circle></g><g transform="rotate(90) translate(-24.000459999999997,-10.11043)translate(-75.26771902805656,1.13388)"><rect class="guide" x="0" y="0" fill="none" stroke="blue" width="48.000919999999994" height="20.22086" style="display: none;"></rect><circle fill="none" stroke="red" r="4.15756" cx="8.882059999999997" cy="10.11043"></circle><circle fill="none" stroke="red" r="4.15756" cx="39.11886" cy="10.11043"></circle></g></g><g transform="rotate(288) translate(-151.08618732524047,0)"><g transform="rotate(90) translate(-24.000459999999997,-10.11043)translate(75.26771902805656,1.13388)"><rect class="guide" x="0" y="0" fill="none" stroke="blue" width="48.000919999999994" height="20.22086" style="display: none;"></rect><circle fill="none" stroke="red" r="4.15756" cx="8.882059999999997" cy="10.11043"></circle><circle fill="none" stroke="red" r="4.15756" cx="39.11886" cy="10.11043"></circle></g><g transform="rotate(90) translate(-24.000459999999997,-10.11043)translate(-75.26771902805656,1.13388)"><rect class="guide" x="0" y="0" fill="none" stroke="blue" width="48.000919999999994" height="20.22086" style="display: none;"></rect><circle fill="none" stroke="red" r="4.15756" cx="8.882059999999997" cy="10.11043"></circle><circle fill="none" stroke="red" r="4.15756" cx="39.11886" cy="10.11043"></circle></g></g></g><g transform="translate(384.24726024010806,0)"><g><path id="pentagon" d="M203.10424684241804, 0L62.762663904031434, 193.16361744670104L-164.31478732524042, 119.38168097194345L-164.31478732524045, -119.3816809719434L62.762663904031385, -193.16361744670107Z" fill="none" stroke="red"></path><g class="single-face"><g><path stroke="red" stroke-width="1" fill="none" d="M 114.86152065899483 76.44401579848878 L 102.63047813123663 67.55764324023025 L 95.96569871254273 76.7309251360489 L 108.19674124030094 85.61729769430742 L 52.65691275118516 162.06131349279622 L -37.2084174735439 132.8622976943074 L -32.53657494578569 118.48384485835072 L -43.320414572753165 114.97996296253207 L -47.99225710051138 129.35841579848872 L -137.85758732524044 100.15939999999992 L -137.85758732524044 5.66940000000001 L -122.73918732524044 5.66940000000001 L -122.73918732524044 -5.669399999999982 L -137.85758732524044 -5.669399999999982 L -137.85758732524044 -100.15939999999998 L -47.992257100511395 -129.35841579848878 L -43.320414572753194 -114.97996296253213 L -32.536574945785716 -118.48384485835078 L -37.20841747354392 -132.86229769430741 L 52.65691275118513 -162.06131349279622 L 108.19674124030098 -85.6172976943075 L 95.96569871254277 -76.73092513604895 L 102.63047813123669 -67.55764324023032 L 114.86152065899488 -76.44401579848886 L 170.40134914811074 -1.4210854715202004e-13 ZM 115.15541328514107 76.03950730130131 L 107.90284861415469 86.0218061914949 ZM -36.73288921539633 133.01680619149485 L -48.46778535865896 129.20390730130126 ZM -137.85758732524044 6.16940000000001 L -137.85758732524044 -6.169399999999982 ZM -48.46778535865897 -129.2039073013013 L -36.73288921539634 -133.0168061914949 ZM 107.90284861415475 -86.02180619149497 L 115.15541328514112 -76.03950730130138 Z"></path></g></g><g transform=" translate(-151.08618732524047,0)"><g transform="rotate(90) translate(-24.000459999999997,-10.11043)translate(75.26771902805656,1.13388)"><rect class="guide" x="0" y="0" fill="none" stroke="blue" width="48.000919999999994" height="20.22086" style="display: none;"></rect><circle fill="none" stroke="red" r="4.15756" cx="8.882059999999997" cy="10.11043"></circle><circle fill="none" stroke="red" r="4.15756" cx="39.11886" cy="10.11043"></circle></g><g transform="rotate(90) translate(-24.000459999999997,-10.11043)translate(-75.26771902805656,1.13388)"><rect class="guide" x="0" y="0" fill="none" stroke="blue" width="48.000919999999994" height="20.22086" style="display: none;"></rect><circle fill="none" stroke="red" r="4.15756" cx="8.882059999999997" cy="10.11043"></circle><circle fill="none" stroke="red" r="4.15756" cx="39.11886" cy="10.11043"></circle></g></g></g><g transform="translate(384.24726024010806,0)"><path id="pentagon" d="M203.10424684241804, 0L62.762663904031434, 193.16361744670104L-164.31478732524042, 119.38168097194345L-164.31478732524045, -119.3816809719434L62.762663904031385, -193.16361744670107Z" fill="none" stroke="red"></path><g class="single-face"><g><path stroke="red" stroke-width="1" fill="none" d="M 114.86152065899483 76.44401579848878 L 102.63047813123663 67.55764324023025 L 95.96569871254273 76.7309251360489 L 108.19674124030094 85.61729769430742 L 52.65691275118516 162.06131349279622 L -37.2084174735439 132.8622976943074 L -32.53657494578569 118.48384485835072 L -43.320414572753165 114.97996296253207 L -47.99225710051138 129.35841579848872 L -137.85758732524044 100.15939999999992 L -137.85758732524044 5.66940000000001 L -122.73918732524044 5.66940000000001 L -122.73918732524044 -5.669399999999982 L -137.85758732524044 -5.669399999999982 L -137.85758732524044 -100.15939999999998 L -47.992257100511395 -129.35841579848878 L -43.320414572753194 -114.97996296253213 L -32.536574945785716 -118.48384485835078 L -37.20841747354392 -132.86229769430741 L 52.65691275118513 -162.06131349279622 L 108.19674124030098 -85.6172976943075 L 95.96569871254277 -76.73092513604895 L 102.63047813123669 -67.55764324023032 L 114.86152065899488 -76.44401579848886 L 170.40134914811074 -1.4210854715202004e-13 ZM 115.15541328514107 76.03950730130131 L 107.90284861415469 86.0218061914949 ZM -36.73288921539633 133.01680619149485 L -48.46778535865896 129.20390730130126 ZM -137.85758732524044 6.16940000000001 L -137.85758732524044 -6.169399999999982 ZM -48.46778535865897 -129.2039073013013 L -36.73288921539634 -133.0168061914949 ZM 107.90284861415475 -86.02180619149497 L 115.15541328514112 -76.03950730130138 Z"></path></g></g><g transform=" translate(-151.08618732524047,0)"><g transform="rotate(90) translate(-24.000459999999997,-10.11043)translate(75.26771902805656,1.13388)"><rect class="guide" x="0" y="0" fill="none" stroke="blue" width="48.000919999999994" height="20.22086" style="display: none;"></rect><circle fill="none" stroke="red" r="4.15756" cx="8.882059999999997" cy="10.11043"></circle><circle fill="none" stroke="red" r="4.15756" cx="39.11886" cy="10.11043"></circle></g><g transform="rotate(90) translate(-24.000459999999997,-10.11043)translate(-75.26771902805656,1.13388)"><rect class="guide" x="0" y="0" fill="none" stroke="blue" width="48.000919999999994" height="20.22086" style="display: none;"></rect><circle fill="none" stroke="red" r="4.15756" cx="8.882059999999997" cy="10.11043"></circle><circle fill="none" stroke="red" r="4.15756" cx="39.11886" cy="10.11043"></circle></g></g></g><g transform="translate(768.4945204802161,0)"><path id="pentagon" d="M203.10424684241804, 0L62.762663904031434, 193.16361744670104L-164.31478732524042, 119.38168097194345L-164.31478732524045, -119.3816809719434L62.762663904031385, -193.16361744670107Z" fill="none" stroke="red"></path><g class="single-face"><g><path stroke="red" stroke-width="1" fill="none" d="M 114.86152065899483 76.44401579848878 L 102.63047813123663 67.55764324023025 L 95.96569871254273 76.7309251360489 L 108.19674124030094 85.61729769430742 L 52.65691275118516 162.06131349279622 L -37.2084174735439 132.8622976943074 L -32.53657494578569 118.48384485835072 L -43.320414572753165 114.97996296253207 L -47.99225710051138 129.35841579848872 L -137.85758732524044 100.15939999999992 L -137.85758732524044 5.66940000000001 L -122.73918732524044 5.66940000000001 L -122.73918732524044 -5.669399999999982 L -137.85758732524044 -5.669399999999982 L -137.85758732524044 -100.15939999999998 L -47.992257100511395 -129.35841579848878 L -43.320414572753194 -114.97996296253213 L -32.536574945785716 -118.48384485835078 L -37.20841747354392 -132.86229769430741 L 52.65691275118513 -162.06131349279622 L 108.19674124030098 -85.6172976943075 L 95.96569871254277 -76.73092513604895 L 102.63047813123669 -67.55764324023032 L 114.86152065899488 -76.44401579848886 L 170.40134914811074 -1.4210854715202004e-13 ZM 115.15541328514107 76.03950730130131 L 107.90284861415469 86.0218061914949 ZM -36.73288921539633 133.01680619149485 L -48.46778535865896 129.20390730130126 ZM -137.85758732524044 6.16940000000001 L -137.85758732524044 -6.169399999999982 ZM -48.46778535865897 -129.2039073013013 L -36.73288921539634 -133.0168061914949 ZM 107.90284861415475 -86.02180619149497 L 115.15541328514112 -76.03950730130138 Z"></path></g></g><g transform=" translate(-151.08618732524047,0)"><g transform="rotate(90) translate(-24.000459999999997,-10.11043)translate(75.26771902805656,1.13388)"><rect class="guide" x="0" y="0" fill="none" stroke="blue" width="48.000919999999994" height="20.22086" style="display: none;"></rect><circle fill="none" stroke="red" r="4.15756" cx="8.882059999999997" cy="10.11043"></circle><circle fill="none" stroke="red" r="4.15756" cx="39.11886" cy="10.11043"></circle></g><g transform="rotate(90) translate(-24.000459999999997,-10.11043)translate(-75.26771902805656,1.13388)"><rect class="guide" x="0" y="0" fill="none" stroke="blue" width="48.000919999999994" height="20.22086" style="display: none;"></rect><circle fill="none" stroke="red" r="4.15756" cx="8.882059999999997" cy="10.11043"></circle><circle fill="none" stroke="red" r="4.15756" cx="39.11886" cy="10.11043"></circle></g></g></g><g transform="translate(1152.7417807203242,0)"><path id="pentagon" d="M203.10424684241804, 0L62.762663904031434, 193.16361744670104L-164.31478732524042, 119.38168097194345L-164.31478732524045, -119.3816809719434L62.762663904031385, -193.16361744670107Z" fill="none" stroke="red"></path><g class="single-face"><g><path stroke="red" stroke-width="1" fill="none" d="M 114.86152065899483 76.44401579848878 L 102.63047813123663 67.55764324023025 L 95.96569871254273 76.7309251360489 L 108.19674124030094 85.61729769430742 L 52.65691275118516 162.06131349279622 L -37.2084174735439 132.8622976943074 L -32.53657494578569 118.48384485835072 L -43.320414572753165 114.97996296253207 L -47.99225710051138 129.35841579848872 L -137.85758732524044 100.15939999999992 L -137.85758732524044 5.66940000000001 L -122.73918732524044 5.66940000000001 L -122.73918732524044 -5.669399999999982 L -137.85758732524044 -5.669399999999982 L -137.85758732524044 -100.15939999999998 L -47.992257100511395 -129.35841579848878 L -43.320414572753194 -114.97996296253213 L -32.536574945785716 -118.48384485835078 L -37.20841747354392 -132.86229769430741 L 52.65691275118513 -162.06131349279622 L 108.19674124030098 -85.6172976943075 L 95.96569871254277 -76.73092513604895 L 102.63047813123669 -67.55764324023032 L 114.86152065899488 -76.44401579848886 L 170.40134914811074 -1.4210854715202004e-13 ZM 115.15541328514107 76.03950730130131 L 107.90284861415469 86.0218061914949 ZM -36.73288921539633 133.01680619149485 L -48.46778535865896 129.20390730130126 ZM -137.85758732524044 6.16940000000001 L -137.85758732524044 -6.169399999999982 ZM -48.46778535865897 -129.2039073013013 L -36.73288921539634 -133.0168061914949 ZM 107.90284861415475 -86.02180619149497 L 115.15541328514112 -76.03950730130138 Z"></path></g></g><g transform=" translate(-151.08618732524047,0)"><g transform="rotate(90) translate(-24.000459999999997,-10.11043)translate(75.26771902805656,1.13388)"><rect class="guide" x="0" y="0" fill="none" stroke="blue" width="48.000919999999994" height="20.22086" style="display: none;"></rect><circle fill="none" stroke="red" r="4.15756" cx="8.882059999999997" cy="10.11043"></circle><circle fill="none" stroke="red" r="4.15756" cx="39.11886" cy="10.11043"></circle></g><g transform="rotate(90) translate(-24.000459999999997,-10.11043)translate(-75.26771902805656,1.13388)"><rect class="guide" x="0" y="0" fill="none" stroke="blue" width="48.000919999999994" height="20.22086" style="display: none;"></rect><circle fill="none" stroke="red" r="4.15756" cx="8.882059999999997" cy="10.11043"></circle><circle fill="none" stroke="red" r="4.15756" cx="39.11886" cy="10.11043"></circle></g></g></g><g transform="translate(1536.9890409604322,0)"><path id="pentagon" d="M203.10424684241804, 0L62.762663904031434, 193.16361744670104L-164.31478732524042, 119.38168097194345L-164.31478732524045, -119.3816809719434L62.762663904031385, -193.16361744670107Z" fill="none" stroke="red"></path><g class="single-face"><g><path stroke="red" stroke-width="1" fill="none" d="M 114.86152065899483 76.44401579848878 L 102.63047813123663 67.55764324023025 L 95.96569871254273 76.7309251360489 L 108.19674124030094 85.61729769430742 L 52.65691275118516 162.06131349279622 L -37.2084174735439 132.8622976943074 L -32.53657494578569 118.48384485835072 L -43.320414572753165 114.97996296253207 L -47.99225710051138 129.35841579848872 L -137.85758732524044 100.15939999999992 L -137.85758732524044 5.66940000000001 L -122.73918732524044 5.66940000000001 L -122.73918732524044 -5.669399999999982 L -137.85758732524044 -5.669399999999982 L -137.85758732524044 -100.15939999999998 L -47.992257100511395 -129.35841579848878 L -43.320414572753194 -114.97996296253213 L -32.536574945785716 -118.48384485835078 L -37.20841747354392 -132.86229769430741 L 52.65691275118513 -162.06131349279622 L 108.19674124030098 -85.6172976943075 L 95.96569871254277 -76.73092513604895 L 102.63047813123669 -67.55764324023032 L 114.86152065899488 -76.44401579848886 L 170.40134914811074 -1.4210854715202004e-13 ZM 115.15541328514107 76.03950730130131 L 107.90284861415469 86.0218061914949 ZM -36.73288921539633 133.01680619149485 L -48.46778535865896 129.20390730130126 ZM -137.85758732524044 6.16940000000001 L -137.85758732524044 -6.169399999999982 ZM -48.46778535865897 -129.2039073013013 L -36.73288921539634 -133.0168061914949 ZM 107.90284861415475 -86.02180619149497 L 115.15541328514112 -76.03950730130138 Z"></path></g></g><g transform=" translate(-151.08618732524047,0)"><g transform="rotate(90) translate(-24.000459999999997,-10.11043)translate(75.26771902805656,1.13388)"><rect class="guide" x="0" y="0" fill="none" stroke="blue" width="48.000919999999994" height="20.22086" style="display: none;"></rect><circle fill="none" stroke="red" r="4.15756" cx="8.882059999999997" cy="10.11043"></circle><circle fill="none" stroke="red" r="4.15756" cx="39.11886" cy="10.11043"></circle></g><g transform="rotate(90) translate(-24.000459999999997,-10.11043)translate(-75.26771902805656,1.13388)"><rect class="guide" x="0" y="0" fill="none" stroke="blue" width="48.000919999999994" height="20.22086" style="display: none;"></rect><circle fill="none" stroke="red" r="4.15756" cx="8.882059999999997" cy="10.11043"></circle><circle fill="none" stroke="red" r="4.15756" cx="39.11886" cy="10.11043"></circle></g></g></g><g transform="translate(1921.2363012005403,0)"><path id="pentagon" d="M203.10424684241804, 0L62.762663904031434, 193.16361744670104L-164.31478732524042, 119.38168097194345L-164.31478732524045, -119.3816809719434L62.762663904031385, -193.16361744670107Z" fill="none" stroke="red"></path><g class="single-face"><g><path stroke="red" stroke-width="1" fill="none" d="M 114.86152065899483 76.44401579848878 L 102.63047813123663 67.55764324023025 L 95.96569871254273 76.7309251360489 L 108.19674124030094 85.61729769430742 L 52.65691275118516 162.06131349279622 L -37.2084174735439 132.8622976943074 L -32.53657494578569 118.48384485835072 L -43.320414572753165 114.97996296253207 L -47.99225710051138 129.35841579848872 L -137.85758732524044 100.15939999999992 L -137.85758732524044 5.66940000000001 L -122.73918732524044 5.66940000000001 L -122.73918732524044 -5.669399999999982 L -137.85758732524044 -5.669399999999982 L -137.85758732524044 -100.15939999999998 L -47.992257100511395 -129.35841579848878 L -43.320414572753194 -114.97996296253213 L -32.536574945785716 -118.48384485835078 L -37.20841747354392 -132.86229769430741 L 52.65691275118513 -162.06131349279622 L 108.19674124030098 -85.6172976943075 L 95.96569871254277 -76.73092513604895 L 102.63047813123669 -67.55764324023032 L 114.86152065899488 -76.44401579848886 L 170.40134914811074 -1.4210854715202004e-13 ZM 115.15541328514107 76.03950730130131 L 107.90284861415469 86.0218061914949 ZM -36.73288921539633 133.01680619149485 L -48.46778535865896 129.20390730130126 ZM -137.85758732524044 6.16940000000001 L -137.85758732524044 -6.169399999999982 ZM -48.46778535865897 -129.2039073013013 L -36.73288921539634 -133.0168061914949 ZM 107.90284861415475 -86.02180619149497 L 115.15541328514112 -76.03950730130138 Z"></path></g></g><g transform=" translate(-151.08618732524047,0)"><g transform="rotate(90) translate(-24.000459999999997,-10.11043)translate(75.26771902805656,1.13388)"><rect class="guide" x="0" y="0" fill="none" stroke="blue" width="48.000919999999994" height="20.22086" style="display: none;"></rect><circle fill="none" stroke="red" r="4.15756" cx="8.882059999999997" cy="10.11043"></circle><circle fill="none" stroke="red" r="4.15756" cx="39.11886" cy="10.11043"></circle></g><g transform="rotate(90) translate(-24.000459999999997,-10.11043)translate(-75.26771902805656,1.13388)"><rect class="guide" x="0" y="0" fill="none" stroke="blue" width="48.000919999999994" height="20.22086" style="display: none;"></rect><circle fill="none" stroke="red" r="4.15756" cx="8.882059999999997" cy="10.11043"></circle><circle fill="none" stroke="red" r="4.15756" cx="39.11886" cy="10.11043"></circle></g></g></g><g transform="translate(2305.4835614406484,0)"><path id="pentagon" d="M203.10424684241804, 0L62.762663904031434, 193.16361744670104L-164.31478732524042, 119.38168097194345L-164.31478732524045, -119.3816809719434L62.762663904031385, -193.16361744670107Z" fill="none" stroke="red"></path><g class="single-face"><g><path stroke="red" stroke-width="1" fill="none" d="M 114.86152065899483 76.44401579848878 L 102.63047813123663 67.55764324023025 L 95.96569871254273 76.7309251360489 L 108.19674124030094 85.61729769430742 L 52.65691275118516 162.06131349279622 L -37.2084174735439 132.8622976943074 L -32.53657494578569 118.48384485835072 L -43.320414572753165 114.97996296253207 L -47.99225710051138 129.35841579848872 L -137.85758732524044 100.15939999999992 L -137.85758732524044 5.66940000000001 L -122.73918732524044 5.66940000000001 L -122.73918732524044 -5.669399999999982 L -137.85758732524044 -5.669399999999982 L -137.85758732524044 -100.15939999999998 L -47.992257100511395 -129.35841579848878 L -43.320414572753194 -114.97996296253213 L -32.536574945785716 -118.48384485835078 L -37.20841747354392 -132.86229769430741 L 52.65691275118513 -162.06131349279622 L 108.19674124030098 -85.6172976943075 L 95.96569871254277 -76.73092513604895 L 102.63047813123669 -67.55764324023032 L 114.86152065899488 -76.44401579848886 L 170.40134914811074 -1.4210854715202004e-13 ZM 115.15541328514107 76.03950730130131 L 107.90284861415469 86.0218061914949 ZM -36.73288921539633 133.01680619149485 L -48.46778535865896 129.20390730130126 ZM -137.85758732524044 6.16940000000001 L -137.85758732524044 -6.169399999999982 ZM -48.46778535865897 -129.2039073013013 L -36.73288921539634 -133.0168061914949 ZM 107.90284861415475 -86.02180619149497 L 115.15541328514112 -76.03950730130138 Z"></path></g></g><g transform=" translate(-151.08618732524047,0)"><g transform="rotate(90) translate(-24.000459999999997,-10.11043)translate(75.26771902805656,1.13388)"><rect class="guide" x="0" y="0" fill="none" stroke="blue" width="48.000919999999994" height="20.22086" style="display: none;"></rect><circle fill="none" stroke="red" r="4.15756" cx="8.882059999999997" cy="10.11043"></circle><circle fill="none" stroke="red" r="4.15756" cx="39.11886" cy="10.11043"></circle></g><g transform="rotate(90) translate(-24.000459999999997,-10.11043)translate(-75.26771902805656,1.13388)"><rect class="guide" x="0" y="0" fill="none" stroke="blue" width="48.000919999999994" height="20.22086" style="display: none;"></rect><circle fill="none" stroke="red" r="4.15756" cx="8.882059999999997" cy="10.11043"></circle><circle fill="none" stroke="red" r="4.15756" cx="39.11886" cy="10.11043"></circle></g></g></g><g transform="translate(2689.7308216807564,0)"><path id="pentagon" d="M203.10424684241804, 0L62.762663904031434, 193.16361744670104L-164.31478732524042, 119.38168097194345L-164.31478732524045, -119.3816809719434L62.762663904031385, -193.16361744670107Z" fill="none" stroke="red"></path><g class="single-face"><g><path stroke="red" stroke-width="1" fill="none" d="M 114.86152065899483 76.44401579848878 L 102.63047813123663 67.55764324023025 L 95.96569871254273 76.7309251360489 L 108.19674124030094 85.61729769430742 L 52.65691275118516 162.06131349279622 L -37.2084174735439 132.8622976943074 L -32.53657494578569 118.48384485835072 L -43.320414572753165 114.97996296253207 L -47.99225710051138 129.35841579848872 L -137.85758732524044 100.15939999999992 L -137.85758732524044 5.66940000000001 L -122.73918732524044 5.66940000000001 L -122.73918732524044 -5.669399999999982 L -137.85758732524044 -5.669399999999982 L -137.85758732524044 -100.15939999999998 L -47.992257100511395 -129.35841579848878 L -43.320414572753194 -114.97996296253213 L -32.536574945785716 -118.48384485835078 L -37.20841747354392 -132.86229769430741 L 52.65691275118513 -162.06131349279622 L 108.19674124030098 -85.6172976943075 L 95.96569871254277 -76.73092513604895 L 102.63047813123669 -67.55764324023032 L 114.86152065899488 -76.44401579848886 L 170.40134914811074 -1.4210854715202004e-13 ZM 115.15541328514107 76.03950730130131 L 107.90284861415469 86.0218061914949 ZM -36.73288921539633 133.01680619149485 L -48.46778535865896 129.20390730130126 ZM -137.85758732524044 6.16940000000001 L -137.85758732524044 -6.169399999999982 ZM -48.46778535865897 -129.2039073013013 L -36.73288921539634 -133.0168061914949 ZM 107.90284861415475 -86.02180619149497 L 115.15541328514112 -76.03950730130138 Z"></path></g></g><g transform=" translate(-151.08618732524047,0)"><g transform="rotate(90) translate(-24.000459999999997,-10.11043)translate(75.26771902805656,1.13388)"><rect class="guide" x="0" y="0" fill="none" stroke="blue" width="48.000919999999994" height="20.22086" style="display: none;"></rect><circle fill="none" stroke="red" r="4.15756" cx="8.882059999999997" cy="10.11043"></circle><circle fill="none" stroke="red" r="4.15756" cx="39.11886" cy="10.11043"></circle></g><g transform="rotate(90) translate(-24.000459999999997,-10.11043)translate(-75.26771902805656,1.13388)"><rect class="guide" x="0" y="0" fill="none" stroke="blue" width="48.000919999999994" height="20.22086" style="display: none;"></rect><circle fill="none" stroke="red" r="4.15756" cx="8.882059999999997" cy="10.11043"></circle><circle fill="none" stroke="red" r="4.15756" cx="39.11886" cy="10.11043"></circle></g></g></g><g transform="translate(3073.9780819208645,0)"><path id="pentagon" d="M203.10424684241804, 0L62.762663904031434, 193.16361744670104L-164.31478732524042, 119.38168097194345L-164.31478732524045, -119.3816809719434L62.762663904031385, -193.16361744670107Z" fill="none" stroke="red"></path><g class="single-face"><g><path stroke="red" stroke-width="1" fill="none" d="M 114.86152065899483 76.44401579848878 L 102.63047813123663 67.55764324023025 L 95.96569871254273 76.7309251360489 L 108.19674124030094 85.61729769430742 L 52.65691275118516 162.06131349279622 L -37.2084174735439 132.8622976943074 L -32.53657494578569 118.48384485835072 L -43.320414572753165 114.97996296253207 L -47.99225710051138 129.35841579848872 L -137.85758732524044 100.15939999999992 L -137.85758732524044 5.66940000000001 L -122.73918732524044 5.66940000000001 L -122.73918732524044 -5.669399999999982 L -137.85758732524044 -5.669399999999982 L -137.85758732524044 -100.15939999999998 L -47.992257100511395 -129.35841579848878 L -43.320414572753194 -114.97996296253213 L -32.536574945785716 -118.48384485835078 L -37.20841747354392 -132.86229769430741 L 52.65691275118513 -162.06131349279622 L 108.19674124030098 -85.6172976943075 L 95.96569871254277 -76.73092513604895 L 102.63047813123669 -67.55764324023032 L 114.86152065899488 -76.44401579848886 L 170.40134914811074 -1.4210854715202004e-13 ZM 115.15541328514107 76.03950730130131 L 107.90284861415469 86.0218061914949 ZM -36.73288921539633 133.01680619149485 L -48.46778535865896 129.20390730130126 ZM -137.85758732524044 6.16940000000001 L -137.85758732524044 -6.169399999999982 ZM -48.46778535865897 -129.2039073013013 L -36.73288921539634 -133.0168061914949 ZM 107.90284861415475 -86.02180619149497 L 115.15541328514112 -76.03950730130138 Z"></path></g></g><g transform=" translate(-151.08618732524047,0)"><g transform="rotate(90) translate(-24.000459999999997,-10.11043)translate(75.26771902805656,1.13388)"><rect class="guide" x="0" y="0" fill="none" stroke="blue" width="48.000919999999994" height="20.22086" style="display: none;"></rect><circle fill="none" stroke="red" r="4.15756" cx="8.882059999999997" cy="10.11043"></circle><circle fill="none" stroke="red" r="4.15756" cx="39.11886" cy="10.11043"></circle></g><g transform="rotate(90) translate(-24.000459999999997,-10.11043)translate(-75.26771902805656,1.13388)"><rect class="guide" x="0" y="0" fill="none" stroke="blue" width="48.000919999999994" height="20.22086" style="display: none;"></rect><circle fill="none" stroke="red" r="4.15756" cx="8.882059999999997" cy="10.11043"></circle><circle fill="none" stroke="red" r="4.15756" cx="39.11886" cy="10.11043"></circle></g></g></g><g transform="translate(3458.2253421609726,0)"><path id="pentagon" d="M203.10424684241804, 0L62.762663904031434, 193.16361744670104L-164.31478732524042, 119.38168097194345L-164.31478732524045, -119.3816809719434L62.762663904031385, -193.16361744670107Z" fill="none" stroke="red"></path><g class="single-face"><g><path stroke="red" stroke-width="1" fill="none" d="M 114.86152065899483 76.44401579848878 L 102.63047813123663 67.55764324023025 L 95.96569871254273 76.7309251360489 L 108.19674124030094 85.61729769430742 L 52.65691275118516 162.06131349279622 L -37.2084174735439 132.8622976943074 L -32.53657494578569 118.48384485835072 L -43.320414572753165 114.97996296253207 L -47.99225710051138 129.35841579848872 L -137.85758732524044 100.15939999999992 L -137.85758732524044 5.66940000000001 L -122.73918732524044 5.66940000000001 L -122.73918732524044 -5.669399999999982 L -137.85758732524044 -5.669399999999982 L -137.85758732524044 -100.15939999999998 L -47.992257100511395 -129.35841579848878 L -43.320414572753194 -114.97996296253213 L -32.536574945785716 -118.48384485835078 L -37.20841747354392 -132.86229769430741 L 52.65691275118513 -162.06131349279622 L 108.19674124030098 -85.6172976943075 L 95.96569871254277 -76.73092513604895 L 102.63047813123669 -67.55764324023032 L 114.86152065899488 -76.44401579848886 L 170.40134914811074 -1.4210854715202004e-13 ZM 115.15541328514107 76.03950730130131 L 107.90284861415469 86.0218061914949 ZM -36.73288921539633 133.01680619149485 L -48.46778535865896 129.20390730130126 ZM -137.85758732524044 6.16940000000001 L -137.85758732524044 -6.169399999999982 ZM -48.46778535865897 -129.2039073013013 L -36.73288921539634 -133.0168061914949 ZM 107.90284861415475 -86.02180619149497 L 115.15541328514112 -76.03950730130138 Z"></path></g></g><g transform=" translate(-151.08618732524047,0)"><g transform="rotate(90) translate(-24.000459999999997,-10.11043)translate(75.26771902805656,1.13388)"><rect class="guide" x="0" y="0" fill="none" stroke="blue" width="48.000919999999994" height="20.22086" style="display: none;"></rect><circle fill="none" stroke="red" r="4.15756" cx="8.882059999999997" cy="10.11043"></circle><circle fill="none" stroke="red" r="4.15756" cx="39.11886" cy="10.11043"></circle></g><g transform="rotate(90) translate(-24.000459999999997,-10.11043)translate(-75.26771902805656,1.13388)"><rect class="guide" x="0" y="0" fill="none" stroke="blue" width="48.000919999999994" height="20.22086" style="display: none;"></rect><circle fill="none" stroke="red" r="4.15756" cx="8.882059999999997" cy="10.11043"></circle><circle fill="none" stroke="red" r="4.15756" cx="39.11886" cy="10.11043"></circle></g></g></g></g><g class="face"><g class="faces-group"></g></g><g transform="translate(0,404.24726024010806)"><path class="guide" id="pentagon" d="M170.4013491481106, 0L52.656912751185146, -162.0613134927962L-137.85758732524042, -100.1594L-137.85758732524044, 100.15939999999998L52.65691275118511, 162.06131349279622ZM203.10424684241804, 0L62.762663904031434, 193.16361744670104L-164.31478732524042, 119.38168097194345L-164.31478732524045, -119.3816809719434L62.762663904031385, -193.16361744670107Z" fill="none" stroke="black" style="display: none;"></path><path class="guide" d="M5.553982848911579, 7.6444015798488785L127.7852760103479, -81.16183115502545L116.67731031252475, -96.4506343147232L-5.553982848911579, -7.6444015798488785ZM8.986533022472907, -2.919901579848877L-37.70166647634317, -146.61140455770908L-55.67473252128898, -140.77160139801134L-8.986533022472907, 2.919901579848877ZM1.157168760514334e-15, -9.449L-151.08618732524047, -9.449000000000018L-151.08618732524047, 9.448999999999982L-1.157168760514334e-15, 9.449ZM-8.986533022472905, -2.9199015798488794L-55.674732521289016, 140.7716013980113L-37.701666476343206, 146.61140455770905L8.986533022472905, 2.9199015798488794ZM-5.553982848911581, 7.644401579848878L116.67731031252472, 96.45063431472323L127.7852760103479, 81.16183115502548L5.553982848911581, -7.644401579848878Z" fill="none" stroke="black" style="display: none;"></path><path d="M203.10424684241804, 0L62.762663904031434, 193.16361744670104L-164.31478732524042, 119.38168097194345L-164.31478732524045, -119.3816809719434L62.762663904031385, -193.16361744670107ZM11.679606319395505, 35.94613208989163L-1.7016664763432061, 35.94613208989163L-34, 134L52.65691275118511, 162.06131349279622L106, 89L23, 28ZM-137.85758732524044, 100.15939999999998L-52, 128L-20, 30L-30.577606319395514, 22.21593139564631L-34.577606319395514, 9.448999999999982L-137.85758732524044, 9.448999999999982ZM34, -13L37.796, 0L34, 13L117, 73L170.4013491481106, 0L117, -73ZM-137.85758732524042, -100.1594L-137.85758732524044, -9.449L-34.796, -9.449L-30.57760631939551, -22.21593139564632L-20, -30L-52, -128ZM-34, -134L-2.0134669775270932, -35.94613208989163L11.679606319395514, -35.94613208989162L23, -28L106, -89L52.656912751185146, -162.0613134927962Z" fill="none" stroke="red"></path><circle cx="0" cy="0" fill="none" stroke="red" r="5.6693999999999996"></circle><g transform="rotate(0) translate(-151.08618732524047,0)"><g transform="rotate(90) translate(-24.000459999999997,-10.11043)translate(75.26771902805656,1.13388)"><rect class="guide" x="0" y="0" fill="none" stroke="blue" width="48.000919999999994" height="20.22086" style="display: none;"></rect><circle fill="none" stroke="red" r="4.15756" cx="8.882059999999997" cy="10.11043"></circle><circle fill="none" stroke="red" r="4.15756" cx="39.11886" cy="10.11043"></circle></g><g transform="rotate(90) translate(-24.000459999999997,-10.11043)translate(-75.26771902805656,1.13388)"><rect class="guide" x="0" y="0" fill="none" stroke="blue" width="48.000919999999994" height="20.22086" style="display: none;"></rect><circle fill="none" stroke="red" r="4.15756" cx="8.882059999999997" cy="10.11043"></circle><circle fill="none" stroke="red" r="4.15756" cx="39.11886" cy="10.11043"></circle></g></g><g transform="rotate(72) translate(-151.08618732524047,0)"><g transform="rotate(90) translate(-24.000459999999997,-10.11043)translate(75.26771902805656,1.13388)"><rect class="guide" x="0" y="0" fill="none" stroke="blue" width="48.000919999999994" height="20.22086" style="display: none;"></rect><circle fill="none" stroke="red" r="4.15756" cx="8.882059999999997" cy="10.11043"></circle><circle fill="none" stroke="red" r="4.15756" cx="39.11886" cy="10.11043"></circle></g><g transform="rotate(90) translate(-24.000459999999997,-10.11043)translate(-75.26771902805656,1.13388)"><rect class="guide" x="0" y="0" fill="none" stroke="blue" width="48.000919999999994" height="20.22086" style="display: none;"></rect><circle fill="none" stroke="red" r="4.15756" cx="8.882059999999997" cy="10.11043"></circle><circle fill="none" stroke="red" r="4.15756" cx="39.11886" cy="10.11043"></circle></g></g><g transform="rotate(144) translate(-151.08618732524047,0)"><g transform="rotate(90) translate(-24.000459999999997,-10.11043)translate(75.26771902805656,1.13388)"><rect class="guide" x="0" y="0" fill="none" stroke="blue" width="48.000919999999994" height="20.22086" style="display: none;"></rect><circle fill="none" stroke="red" r="4.15756" cx="8.882059999999997" cy="10.11043"></circle><circle fill="none" stroke="red" r="4.15756" cx="39.11886" cy="10.11043"></circle></g><g transform="rotate(90) translate(-24.000459999999997,-10.11043)translate(-75.26771902805656,1.13388)"><rect class="guide" x="0" y="0" fill="none" stroke="blue" width="48.000919999999994" height="20.22086" style="display: none;"></rect><circle fill="none" stroke="red" r="4.15756" cx="8.882059999999997" cy="10.11043"></circle><circle fill="none" stroke="red" r="4.15756" cx="39.11886" cy="10.11043"></circle></g></g><g transform="rotate(216) translate(-151.08618732524047,0)"><g transform="rotate(90) translate(-24.000459999999997,-10.11043)translate(75.26771902805656,1.13388)"><rect class="guide" x="0" y="0" fill="none" stroke="blue" width="48.000919999999994" height="20.22086" style="display: none;"></rect><circle fill="none" stroke="red" r="4.15756" cx="8.882059999999997" cy="10.11043"></circle><circle fill="none" stroke="red" r="4.15756" cx="39.11886" cy="10.11043"></circle></g><g transform="rotate(90) translate(-24.000459999999997,-10.11043)translate(-75.26771902805656,1.13388)"><rect class="guide" x="0" y="0" fill="none" stroke="blue" width="48.000919999999994" height="20.22086" style="display: none;"></rect><circle fill="none" stroke="red" r="4.15756" cx="8.882059999999997" cy="10.11043"></circle><circle fill="none" stroke="red" r="4.15756" cx="39.11886" cy="10.11043"></circle></g></g><g transform="rotate(288) translate(-151.08618732524047,0)"><g transform="rotate(90) translate(-24.000459999999997,-10.11043)translate(75.26771902805656,1.13388)"><rect class="guide" x="0" y="0" fill="none" stroke="blue" width="48.000919999999994" height="20.22086" style="display: none;"></rect><circle fill="none" stroke="red" r="4.15756" cx="8.882059999999997" cy="10.11043"></circle><circle fill="none" stroke="red" r="4.15756" cx="39.11886" cy="10.11043"></circle></g><g transform="rotate(90) translate(-24.000459999999997,-10.11043)translate(-75.26771902805656,1.13388)"><rect class="guide" x="0" y="0" fill="none" stroke="blue" width="48.000919999999994" height="20.22086" style="display: none;"></rect><circle fill="none" stroke="red" r="4.15756" cx="8.882059999999997" cy="10.11043"></circle><circle fill="none" stroke="red" r="4.15756" cx="39.11886" cy="10.11043"></circle></g></g></g></g></svg>