<?xml version="1.0" encoding="UTF-8" standalone="no"?>
<svg
   xmlns:dc="http://purl.org/dc/elements/1.1/"
   xmlns:cc="http://creativecommons.org/ns#"
   xmlns:rdf="http://www.w3.org/1999/02/22-rdf-syntax-ns#"
   xmlns:svg="http://www.w3.org/2000/svg"
   xmlns="http://www.w3.org/2000/svg"
   xmlns:sodipodi="http://sodipodi.sourceforge.net/DTD/sodipodi-0.dtd"
   xmlns:inkscape="http://www.inkscape.org/namespaces/inkscape"
   id="svg"
   version="1.1"
   sodipodi:docname="popup-outer-pentagons.svg"
   inkscape:version="1.0.1 (3bc2e813f5, 2020-09-07)">
  <metadata
     id="metadata493">
    <rdf:RDF>
      <cc:Work
         rdf:about="">
        <dc:format>image/svg+xml</dc:format>
        <dc:type
           rdf:resource="http://purl.org/dc/dcmitype/StillImage" />
        <dc:title></dc:title>
      </cc:Work>
    </rdf:RDF>
  </metadata>
  <defs
     id="defs491" />
  <sodipodi:namedview
     pagecolor="#ffffff"
     bordercolor="#666666"
     borderopacity="1"
     objecttolerance="10"
     gridtolerance="10"
     guidetolerance="10"
     inkscape:pageopacity="0"
     inkscape:pageshadow="2"
     inkscape:window-width="701"
     inkscape:window-height="480"
     id="namedview489"
     showgrid="false"
     inkscape:zoom="3.5533333"
     inkscape:cx="150"
     inkscape:cy="75"
     inkscape:window-x="0"
     inkscape:window-y="0"
     inkscape:window-maximized="0"
     inkscape:current-layer="svg" />
  <g
     id="pop-up"
     transform="translate(200,200)">
    <g
       id="g99">
      <path
         class="guide"
         id="pentagon"
         d="M170.4013491481106, 0L52.656912751185146, -162.0613134927962L-137.85758732524042, -100.1594L-137.85758732524044, 100.15939999999998L52.65691275118511, 162.06131349279622ZM203.10424684241804, 0L62.762663904031434, 193.16361744670104L-164.31478732524042, 119.38168097194345L-164.31478732524045, -119.3816809719434L62.762663904031385, -193.16361744670107Z"
         fill="none"
         stroke="black"
         style="display: none;" />
      <path
         class="guide"
         d="M5.553982848911579, 7.6444015798488785L127.7852760103479, -81.16183115502545L116.67731031252475, -96.4506343147232L-5.553982848911579, -7.6444015798488785ZM8.986533022472907, -2.919901579848877L-37.70166647634317, -146.61140455770908L-55.67473252128898, -140.77160139801134L-8.986533022472907, 2.919901579848877ZM1.157168760514334e-15, -9.449L-151.08618732524047, -9.449000000000018L-151.08618732524047, 9.448999999999982L-1.157168760514334e-15, 9.449ZM-8.986533022472905, -2.9199015798488794L-55.674732521289016, 140.7716013980113L-37.701666476343206, 146.61140455770905L8.986533022472905, 2.9199015798488794ZM-5.553982848911581, 7.644401579848878L116.67731031252472, 96.45063431472323L127.7852760103479, 81.16183115502548L5.553982848911581, -7.644401579848878Z"
         fill="none"
         stroke="black"
         style="display: none;"
         id="path3" />
      <path
         d="M203.10424684241804, 0L62.762663904031434, 193.16361744670104L-164.31478732524042, 119.38168097194345L-164.31478732524045, -119.3816809719434L62.762663904031385, -193.16361744670107ZM11.679606319395505, 35.94613208989163L-1.7016664763432061, 35.94613208989163L-34, 134L52.65691275118511, 162.06131349279622L106, 89L23, 28ZM-137.85758732524044, 100.15939999999998L-52, 128L-20, 30L-30.577606319395514, 22.21593139564631L-34.577606319395514, 9.448999999999982L-137.85758732524044, 9.448999999999982ZM34, -13L37.796, 0L34, 13L117, 73L170.4013491481106, 0L117, -73ZM-137.85758732524042, -100.1594L-137.85758732524044, -9.449L-34.796, -9.449L-30.57760631939551, -22.21593139564632L-20, -30L-52, -128ZM-34, -134L-2.0134669775270932, -35.94613208989163L11.679606319395514, -35.94613208989162L23, -28L106, -89L52.656912751185146, -162.0613134927962Z"
         fill="none"
         stroke="red"
         id="path5" />
      <circle
         cx="0"
         cy="0"
         fill="none"
         stroke="red"
         r="5.6693999999999996"
         id="circle7" />
      <g
         transform="rotate(0) translate(-151.08618732524047,0)"
         id="g25">
        <g
           transform="rotate(90) translate(-24.000459999999997,-10.11043)translate(75.26771902805656,1.13388)"
           id="g15">
          <rect
             class="guide"
             x="0"
             y="0"
             fill="none"
             stroke="blue"
             width="48.000919999999994"
             height="20.22086"
             style="display: none;"
             id="rect9" />
          <circle
             fill="none"
             stroke="red"
             r="4.15756"
             cx="8.882059999999997"
             cy="10.11043"
             id="circle11" />
          <circle
             fill="none"
             stroke="red"
             r="4.15756"
             cx="39.11886"
             cy="10.11043"
             id="circle13" />
        </g>
        <g
           transform="rotate(90) translate(-24.000459999999997,-10.11043)translate(-75.26771902805656,1.13388)"
           id="g23">
          <rect
             class="guide"
             x="0"
             y="0"
             fill="none"
             stroke="blue"
             width="48.000919999999994"
             height="20.22086"
             style="display: none;"
             id="rect17" />
          <circle
             fill="none"
             stroke="red"
             r="4.15756"
             cx="8.882059999999997"
             cy="10.11043"
             id="circle19" />
          <circle
             fill="none"
             stroke="red"
             r="4.15756"
             cx="39.11886"
             cy="10.11043"
             id="circle21" />
        </g>
      </g>
      <g
         transform="rotate(72) translate(-151.08618732524047,0)"
         id="g43">
        <g
           transform="rotate(90) translate(-24.000459999999997,-10.11043)translate(75.26771902805656,1.13388)"
           id="g33">
          <rect
             class="guide"
             x="0"
             y="0"
             fill="none"
             stroke="blue"
             width="48.000919999999994"
             height="20.22086"
             style="display: none;"
             id="rect27" />
          <circle
             fill="none"
             stroke="red"
             r="4.15756"
             cx="8.882059999999997"
             cy="10.11043"
             id="circle29" />
          <circle
             fill="none"
             stroke="red"
             r="4.15756"
             cx="39.11886"
             cy="10.11043"
             id="circle31" />
        </g>
        <g
           transform="rotate(90) translate(-24.000459999999997,-10.11043)translate(-75.26771902805656,1.13388)"
           id="g41">
          <rect
             class="guide"
             x="0"
             y="0"
             fill="none"
             stroke="blue"
             width="48.000919999999994"
             height="20.22086"
             style="display: none;"
             id="rect35" />
          <circle
             fill="none"
             stroke="red"
             r="4.15756"
             cx="8.882059999999997"
             cy="10.11043"
             id="circle37" />
          <circle
             fill="none"
             stroke="red"
             r="4.15756"
             cx="39.11886"
             cy="10.11043"
             id="circle39" />
        </g>
      </g>
      <g
         transform="rotate(144) translate(-151.08618732524047,0)"
         id="g61">
        <g
           transform="rotate(90) translate(-24.000459999999997,-10.11043)translate(75.26771902805656,1.13388)"
           id="g51">
          <rect
             class="guide"
             x="0"
             y="0"
             fill="none"
             stroke="blue"
             width="48.000919999999994"
             height="20.22086"
             style="display: none;"
             id="rect45" />
          <circle
             fill="none"
             stroke="red"
             r="4.15756"
             cx="8.882059999999997"
             cy="10.11043"
             id="circle47" />
          <circle
             fill="none"
             stroke="red"
             r="4.15756"
             cx="39.11886"
             cy="10.11043"
             id="circle49" />
        </g>
        <g
           transform="rotate(90) translate(-24.000459999999997,-10.11043)translate(-75.26771902805656,1.13388)"
           id="g59">
          <rect
             class="guide"
             x="0"
             y="0"
             fill="none"
             stroke="blue"
             width="48.000919999999994"
             height="20.22086"
             style="display: none;"
             id="rect53" />
          <circle
             fill="none"
             stroke="red"
             r="4.15756"
             cx="8.882059999999997"
             cy="10.11043"
             id="circle55" />
          <circle
             fill="none"
             stroke="red"
             r="4.15756"
             cx="39.11886"
             cy="10.11043"
             id="circle57" />
        </g>
      </g>
      <g
         transform="rotate(216) translate(-151.08618732524047,0)"
         id="g79">
        <g
           transform="rotate(90) translate(-24.000459999999997,-10.11043)translate(75.26771902805656,1.13388)"
           id="g69">
          <rect
             class="guide"
             x="0"
             y="0"
             fill="none"
             stroke="blue"
             width="48.000919999999994"
             height="20.22086"
             style="display: none;"
             id="rect63" />
          <circle
             fill="none"
             stroke="red"
             r="4.15756"
             cx="8.882059999999997"
             cy="10.11043"
             id="circle65" />
          <circle
             fill="none"
             stroke="red"
             r="4.15756"
             cx="39.11886"
             cy="10.11043"
             id="circle67" />
        </g>
        <g
           transform="rotate(90) translate(-24.000459999999997,-10.11043)translate(-75.26771902805656,1.13388)"
           id="g77">
          <rect
             class="guide"
             x="0"
             y="0"
             fill="none"
             stroke="blue"
             width="48.000919999999994"
             height="20.22086"
             style="display: none;"
             id="rect71" />
          <circle
             fill="none"
             stroke="red"
             r="4.15756"
             cx="8.882059999999997"
             cy="10.11043"
             id="circle73" />
          <circle
             fill="none"
             stroke="red"
             r="4.15756"
             cx="39.11886"
             cy="10.11043"
             id="circle75" />
        </g>
      </g>
      <g
         transform="rotate(288) translate(-151.08618732524047,0)"
         id="g97">
        <g
           transform="rotate(90) translate(-24.000459999999997,-10.11043)translate(75.26771902805656,1.13388)"
           id="g87">
          <rect
             class="guide"
             x="0"
             y="0"
             fill="none"
             stroke="blue"
             width="48.000919999999994"
             height="20.22086"
             style="display: none;"
             id="rect81" />
          <circle
             fill="none"
             stroke="red"
             r="4.15756"
             cx="8.882059999999997"
             cy="10.11043"
             id="circle83" />
          <circle
             fill="none"
             stroke="red"
             r="4.15756"
             cx="39.11886"
             cy="10.11043"
             id="circle85" />
        </g>
        <g
           transform="rotate(90) translate(-24.000459999999997,-10.11043)translate(-75.26771902805656,1.13388)"
           id="g95">
          <rect
             class="guide"
             x="0"
             y="0"
             fill="none"
             stroke="blue"
             width="48.000919999999994"
             height="20.22086"
             style="display: none;"
             id="rect89" />
          <circle
             fill="none"
             stroke="red"
             r="4.15756"
             cx="8.882059999999997"
             cy="10.11043"
             id="circle91" />
          <circle
             fill="none"
             stroke="red"
             r="4.15756"
             cx="39.11886"
             cy="10.11043"
             id="circle93" />
        </g>
      </g>
    </g>
    <g
       transform="translate(384.24726024010806,0)"
       id="g381">
      <g
         id="g127">
        <path
           id="path101"
           d="M203.10424684241804, 0L62.762663904031434, 193.16361744670104L-164.31478732524042, 119.38168097194345L-164.31478732524045, -119.3816809719434L62.762663904031385, -193.16361744670107Z"
           fill="none"
           stroke="red" />
        <g
           class="single-face"
           id="g107">
          <g
             id="g105">
            <path
               stroke="red"
               stroke-width="1"
               fill="none"
               d="M 114.86152065899483 76.44401579848878 L 102.63047813123663 67.55764324023025 L 95.96569871254273 76.7309251360489 L 108.19674124030094 85.61729769430742 L 52.65691275118516 162.06131349279622 L -37.2084174735439 132.8622976943074 L -32.53657494578569 118.48384485835072 L -43.320414572753165 114.97996296253207 L -47.99225710051138 129.35841579848872 L -137.85758732524044 100.15939999999992 L -137.85758732524044 5.66940000000001 L -122.73918732524044 5.66940000000001 L -122.73918732524044 -5.669399999999982 L -137.85758732524044 -5.669399999999982 L -137.85758732524044 -100.15939999999998 L -47.992257100511395 -129.35841579848878 L -43.320414572753194 -114.97996296253213 L -32.536574945785716 -118.48384485835078 L -37.20841747354392 -132.86229769430741 L 52.65691275118513 -162.06131349279622 L 108.19674124030098 -85.6172976943075 L 95.96569871254277 -76.73092513604895 L 102.63047813123669 -67.55764324023032 L 114.86152065899488 -76.44401579848886 L 170.40134914811074 -1.4210854715202004e-13 ZM 115.15541328514107 76.03950730130131 L 107.90284861415469 86.0218061914949 ZM -36.73288921539633 133.01680619149485 L -48.46778535865896 129.20390730130126 ZM -137.85758732524044 6.16940000000001 L -137.85758732524044 -6.169399999999982 ZM -48.46778535865897 -129.2039073013013 L -36.73288921539634 -133.0168061914949 ZM 107.90284861415475 -86.02180619149497 L 115.15541328514112 -76.03950730130138 Z"
               id="path103" />
          </g>
        </g>
        <g
           transform=" translate(-151.08618732524047,0)"
           id="g125">
          <g
             transform="rotate(90) translate(-24.000459999999997,-10.11043)translate(75.26771902805656,1.13388)"
             id="g115">
            <rect
               class="guide"
               x="0"
               y="0"
               fill="none"
               stroke="blue"
               width="48.000919999999994"
               height="20.22086"
               style="display: none;"
               id="rect109" />
            <circle
               fill="none"
               stroke="red"
               r="4.15756"
               cx="8.882059999999997"
               cy="10.11043"
               id="circle111" />
            <circle
               fill="none"
               stroke="red"
               r="4.15756"
               cx="39.11886"
               cy="10.11043"
               id="circle113" />
          </g>
          <g
             transform="rotate(90) translate(-24.000459999999997,-10.11043)translate(-75.26771902805656,1.13388)"
             id="g123">
            <rect
               class="guide"
               x="0"
               y="0"
               fill="none"
               stroke="blue"
               width="48.000919999999994"
               height="20.22086"
               style="display: none;"
               id="rect117" />
            <circle
               fill="none"
               stroke="red"
               r="4.15756"
               cx="8.882059999999997"
               cy="10.11043"
               id="circle119" />
            <circle
               fill="none"
               stroke="red"
               r="4.15756"
               cx="39.11886"
               cy="10.11043"
               id="circle121" />
          </g>
        </g>
      </g>
      <g
         transform="translate(384.24726024010806,0)"
         id="g155">
        <path
           id="path129"
           d="M203.10424684241804, 0L62.762663904031434, 193.16361744670104L-164.31478732524042, 119.38168097194345L-164.31478732524045, -119.3816809719434L62.762663904031385, -193.16361744670107Z"
           fill="none"
           stroke="red" />
        <g
           class="single-face"
           id="g135">
          <g
             id="g133">
            <path
               stroke="red"
               stroke-width="1"
               fill="none"
               d="M 114.86152065899483 76.44401579848878 L 102.63047813123663 67.55764324023025 L 95.96569871254273 76.7309251360489 L 108.19674124030094 85.61729769430742 L 52.65691275118516 162.06131349279622 L -37.2084174735439 132.8622976943074 L -32.53657494578569 118.48384485835072 L -43.320414572753165 114.97996296253207 L -47.99225710051138 129.35841579848872 L -137.85758732524044 100.15939999999992 L -137.85758732524044 5.66940000000001 L -122.73918732524044 5.66940000000001 L -122.73918732524044 -5.669399999999982 L -137.85758732524044 -5.669399999999982 L -137.85758732524044 -100.15939999999998 L -47.992257100511395 -129.35841579848878 L -43.320414572753194 -114.97996296253213 L -32.536574945785716 -118.48384485835078 L -37.20841747354392 -132.86229769430741 L 52.65691275118513 -162.06131349279622 L 108.19674124030098 -85.6172976943075 L 95.96569871254277 -76.73092513604895 L 102.63047813123669 -67.55764324023032 L 114.86152065899488 -76.44401579848886 L 170.40134914811074 -1.4210854715202004e-13 ZM 115.15541328514107 76.03950730130131 L 107.90284861415469 86.0218061914949 ZM -36.73288921539633 133.01680619149485 L -48.46778535865896 129.20390730130126 ZM -137.85758732524044 6.16940000000001 L -137.85758732524044 -6.169399999999982 ZM -48.46778535865897 -129.2039073013013 L -36.73288921539634 -133.0168061914949 ZM 107.90284861415475 -86.02180619149497 L 115.15541328514112 -76.03950730130138 Z"
               id="path131" />
          </g>
        </g>
        <g
           transform=" translate(-151.08618732524047,0)"
           id="g153">
          <g
             transform="rotate(90) translate(-24.000459999999997,-10.11043)translate(75.26771902805656,1.13388)"
             id="g143">
            <rect
               class="guide"
               x="0"
               y="0"
               fill="none"
               stroke="blue"
               width="48.000919999999994"
               height="20.22086"
               style="display: none;"
               id="rect137" />
            <circle
               fill="none"
               stroke="red"
               r="4.15756"
               cx="8.882059999999997"
               cy="10.11043"
               id="circle139" />
            <circle
               fill="none"
               stroke="red"
               r="4.15756"
               cx="39.11886"
               cy="10.11043"
               id="circle141" />
          </g>
          <g
             transform="rotate(90) translate(-24.000459999999997,-10.11043)translate(-75.26771902805656,1.13388)"
             id="g151">
            <rect
               class="guide"
               x="0"
               y="0"
               fill="none"
               stroke="blue"
               width="48.000919999999994"
               height="20.22086"
               style="display: none;"
               id="rect145" />
            <circle
               fill="none"
               stroke="red"
               r="4.15756"
               cx="8.882059999999997"
               cy="10.11043"
               id="circle147" />
            <circle
               fill="none"
               stroke="red"
               r="4.15756"
               cx="39.11886"
               cy="10.11043"
               id="circle149" />
          </g>
        </g>
      </g>
      <g
         transform="translate(768.4945204802161,0)"
         id="g183">
        <path
           id="path157"
           d="M203.10424684241804, 0L62.762663904031434, 193.16361744670104L-164.31478732524042, 119.38168097194345L-164.31478732524045, -119.3816809719434L62.762663904031385, -193.16361744670107Z"
           fill="none"
           stroke="red" />
        <g
           class="single-face"
           id="g163">
          <g
             id="g161">
            <path
               stroke="red"
               stroke-width="1"
               fill="none"
               d="M 114.86152065899483 76.44401579848878 L 102.63047813123663 67.55764324023025 L 95.96569871254273 76.7309251360489 L 108.19674124030094 85.61729769430742 L 52.65691275118516 162.06131349279622 L -37.2084174735439 132.8622976943074 L -32.53657494578569 118.48384485835072 L -43.320414572753165 114.97996296253207 L -47.99225710051138 129.35841579848872 L -137.85758732524044 100.15939999999992 L -137.85758732524044 5.66940000000001 L -122.73918732524044 5.66940000000001 L -122.73918732524044 -5.669399999999982 L -137.85758732524044 -5.669399999999982 L -137.85758732524044 -100.15939999999998 L -47.992257100511395 -129.35841579848878 L -43.320414572753194 -114.97996296253213 L -32.536574945785716 -118.48384485835078 L -37.20841747354392 -132.86229769430741 L 52.65691275118513 -162.06131349279622 L 108.19674124030098 -85.6172976943075 L 95.96569871254277 -76.73092513604895 L 102.63047813123669 -67.55764324023032 L 114.86152065899488 -76.44401579848886 L 170.40134914811074 -1.4210854715202004e-13 ZM 115.15541328514107 76.03950730130131 L 107.90284861415469 86.0218061914949 ZM -36.73288921539633 133.01680619149485 L -48.46778535865896 129.20390730130126 ZM -137.85758732524044 6.16940000000001 L -137.85758732524044 -6.169399999999982 ZM -48.46778535865897 -129.2039073013013 L -36.73288921539634 -133.0168061914949 ZM 107.90284861415475 -86.02180619149497 L 115.15541328514112 -76.03950730130138 Z"
               id="path159" />
          </g>
        </g>
        <g
           transform=" translate(-151.08618732524047,0)"
           id="g181">
          <g
             transform="rotate(90) translate(-24.000459999999997,-10.11043)translate(75.26771902805656,1.13388)"
             id="g171">
            <rect
               class="guide"
               x="0"
               y="0"
               fill="none"
               stroke="blue"
               width="48.000919999999994"
               height="20.22086"
               style="display: none;"
               id="rect165" />
            <circle
               fill="none"
               stroke="red"
               r="4.15756"
               cx="8.882059999999997"
               cy="10.11043"
               id="circle167" />
            <circle
               fill="none"
               stroke="red"
               r="4.15756"
               cx="39.11886"
               cy="10.11043"
               id="circle169" />
          </g>
          <g
             transform="rotate(90) translate(-24.000459999999997,-10.11043)translate(-75.26771902805656,1.13388)"
             id="g179">
            <rect
               class="guide"
               x="0"
               y="0"
               fill="none"
               stroke="blue"
               width="48.000919999999994"
               height="20.22086"
               style="display: none;"
               id="rect173" />
            <circle
               fill="none"
               stroke="red"
               r="4.15756"
               cx="8.882059999999997"
               cy="10.11043"
               id="circle175" />
            <circle
               fill="none"
               stroke="red"
               r="4.15756"
               cx="39.11886"
               cy="10.11043"
               id="circle177" />
          </g>
        </g>
      </g>
      <g
         transform="translate(1152.7417807203242,0)"
         id="g211">
        <path
           id="path185"
           d="M203.10424684241804, 0L62.762663904031434, 193.16361744670104L-164.31478732524042, 119.38168097194345L-164.31478732524045, -119.3816809719434L62.762663904031385, -193.16361744670107Z"
           fill="none"
           stroke="red" />
        <g
           class="single-face"
           id="g191">
          <g
             id="g189">
            <path
               stroke="red"
               stroke-width="1"
               fill="none"
               d="M 114.86152065899483 76.44401579848878 L 102.63047813123663 67.55764324023025 L 95.96569871254273 76.7309251360489 L 108.19674124030094 85.61729769430742 L 52.65691275118516 162.06131349279622 L -37.2084174735439 132.8622976943074 L -32.53657494578569 118.48384485835072 L -43.320414572753165 114.97996296253207 L -47.99225710051138 129.35841579848872 L -137.85758732524044 100.15939999999992 L -137.85758732524044 5.66940000000001 L -122.73918732524044 5.66940000000001 L -122.73918732524044 -5.669399999999982 L -137.85758732524044 -5.669399999999982 L -137.85758732524044 -100.15939999999998 L -47.992257100511395 -129.35841579848878 L -43.320414572753194 -114.97996296253213 L -32.536574945785716 -118.48384485835078 L -37.20841747354392 -132.86229769430741 L 52.65691275118513 -162.06131349279622 L 108.19674124030098 -85.6172976943075 L 95.96569871254277 -76.73092513604895 L 102.63047813123669 -67.55764324023032 L 114.86152065899488 -76.44401579848886 L 170.40134914811074 -1.4210854715202004e-13 ZM 115.15541328514107 76.03950730130131 L 107.90284861415469 86.0218061914949 ZM -36.73288921539633 133.01680619149485 L -48.46778535865896 129.20390730130126 ZM -137.85758732524044 6.16940000000001 L -137.85758732524044 -6.169399999999982 ZM -48.46778535865897 -129.2039073013013 L -36.73288921539634 -133.0168061914949 ZM 107.90284861415475 -86.02180619149497 L 115.15541328514112 -76.03950730130138 Z"
               id="path187" />
          </g>
        </g>
        <g
           transform=" translate(-151.08618732524047,0)"
           id="g209">
          <g
             transform="rotate(90) translate(-24.000459999999997,-10.11043)translate(75.26771902805656,1.13388)"
             id="g199">
            <rect
               class="guide"
               x="0"
               y="0"
               fill="none"
               stroke="blue"
               width="48.000919999999994"
               height="20.22086"
               style="display: none;"
               id="rect193" />
            <circle
               fill="none"
               stroke="red"
               r="4.15756"
               cx="8.882059999999997"
               cy="10.11043"
               id="circle195" />
            <circle
               fill="none"
               stroke="red"
               r="4.15756"
               cx="39.11886"
               cy="10.11043"
               id="circle197" />
          </g>
          <g
             transform="rotate(90) translate(-24.000459999999997,-10.11043)translate(-75.26771902805656,1.13388)"
             id="g207">
            <rect
               class="guide"
               x="0"
               y="0"
               fill="none"
               stroke="blue"
               width="48.000919999999994"
               height="20.22086"
               style="display: none;"
               id="rect201" />
            <circle
               fill="none"
               stroke="red"
               r="4.15756"
               cx="8.882059999999997"
               cy="10.11043"
               id="circle203" />
            <circle
               fill="none"
               stroke="red"
               r="4.15756"
               cx="39.11886"
               cy="10.11043"
               id="circle205" />
          </g>
        </g>
      </g>
      <g
         transform="translate(1536.9890409604322,0)"
         id="g239">
        <path
           id="path213"
           d="M203.10424684241804, 0L62.762663904031434, 193.16361744670104L-164.31478732524042, 119.38168097194345L-164.31478732524045, -119.3816809719434L62.762663904031385, -193.16361744670107Z"
           fill="none"
           stroke="red" />
        <g
           class="single-face"
           id="g219">
          <g
             id="g217">
            <path
               stroke="red"
               stroke-width="1"
               fill="none"
               d="M 114.86152065899483 76.44401579848878 L 102.63047813123663 67.55764324023025 L 95.96569871254273 76.7309251360489 L 108.19674124030094 85.61729769430742 L 52.65691275118516 162.06131349279622 L -37.2084174735439 132.8622976943074 L -32.53657494578569 118.48384485835072 L -43.320414572753165 114.97996296253207 L -47.99225710051138 129.35841579848872 L -137.85758732524044 100.15939999999992 L -137.85758732524044 5.66940000000001 L -122.73918732524044 5.66940000000001 L -122.73918732524044 -5.669399999999982 L -137.85758732524044 -5.669399999999982 L -137.85758732524044 -100.15939999999998 L -47.992257100511395 -129.35841579848878 L -43.320414572753194 -114.97996296253213 L -32.536574945785716 -118.48384485835078 L -37.20841747354392 -132.86229769430741 L 52.65691275118513 -162.06131349279622 L 108.19674124030098 -85.6172976943075 L 95.96569871254277 -76.73092513604895 L 102.63047813123669 -67.55764324023032 L 114.86152065899488 -76.44401579848886 L 170.40134914811074 -1.4210854715202004e-13 ZM 115.15541328514107 76.03950730130131 L 107.90284861415469 86.0218061914949 ZM -36.73288921539633 133.01680619149485 L -48.46778535865896 129.20390730130126 ZM -137.85758732524044 6.16940000000001 L -137.85758732524044 -6.169399999999982 ZM -48.46778535865897 -129.2039073013013 L -36.73288921539634 -133.0168061914949 ZM 107.90284861415475 -86.02180619149497 L 115.15541328514112 -76.03950730130138 Z"
               id="path215" />
          </g>
        </g>
        <g
           transform=" translate(-151.08618732524047,0)"
           id="g237">
          <g
             transform="rotate(90) translate(-24.000459999999997,-10.11043)translate(75.26771902805656,1.13388)"
             id="g227">
            <rect
               class="guide"
               x="0"
               y="0"
               fill="none"
               stroke="blue"
               width="48.000919999999994"
               height="20.22086"
               style="display: none;"
               id="rect221" />
            <circle
               fill="none"
               stroke="red"
               r="4.15756"
               cx="8.882059999999997"
               cy="10.11043"
               id="circle223" />
            <circle
               fill="none"
               stroke="red"
               r="4.15756"
               cx="39.11886"
               cy="10.11043"
               id="circle225" />
          </g>
          <g
             transform="rotate(90) translate(-24.000459999999997,-10.11043)translate(-75.26771902805656,1.13388)"
             id="g235">
            <rect
               class="guide"
               x="0"
               y="0"
               fill="none"
               stroke="blue"
               width="48.000919999999994"
               height="20.22086"
               style="display: none;"
               id="rect229" />
            <circle
               fill="none"
               stroke="red"
               r="4.15756"
               cx="8.882059999999997"
               cy="10.11043"
               id="circle231" />
            <circle
               fill="none"
               stroke="red"
               r="4.15756"
               cx="39.11886"
               cy="10.11043"
               id="circle233" />
          </g>
        </g>
      </g>
      <g
         transform="translate(1921.2363012005403,0)"
         id="g267">
        <path
           id="path241"
           d="M203.10424684241804, 0L62.762663904031434, 193.16361744670104L-164.31478732524042, 119.38168097194345L-164.31478732524045, -119.3816809719434L62.762663904031385, -193.16361744670107Z"
           fill="none"
           stroke="red" />
        <g
           class="single-face"
           id="g247">
          <g
             id="g245">
            <path
               stroke="red"
               stroke-width="1"
               fill="none"
               d="M 114.86152065899483 76.44401579848878 L 102.63047813123663 67.55764324023025 L 95.96569871254273 76.7309251360489 L 108.19674124030094 85.61729769430742 L 52.65691275118516 162.06131349279622 L -37.2084174735439 132.8622976943074 L -32.53657494578569 118.48384485835072 L -43.320414572753165 114.97996296253207 L -47.99225710051138 129.35841579848872 L -137.85758732524044 100.15939999999992 L -137.85758732524044 5.66940000000001 L -122.73918732524044 5.66940000000001 L -122.73918732524044 -5.669399999999982 L -137.85758732524044 -5.669399999999982 L -137.85758732524044 -100.15939999999998 L -47.992257100511395 -129.35841579848878 L -43.320414572753194 -114.97996296253213 L -32.536574945785716 -118.48384485835078 L -37.20841747354392 -132.86229769430741 L 52.65691275118513 -162.06131349279622 L 108.19674124030098 -85.6172976943075 L 95.96569871254277 -76.73092513604895 L 102.63047813123669 -67.55764324023032 L 114.86152065899488 -76.44401579848886 L 170.40134914811074 -1.4210854715202004e-13 ZM 115.15541328514107 76.03950730130131 L 107.90284861415469 86.0218061914949 ZM -36.73288921539633 133.01680619149485 L -48.46778535865896 129.20390730130126 ZM -137.85758732524044 6.16940000000001 L -137.85758732524044 -6.169399999999982 ZM -48.46778535865897 -129.2039073013013 L -36.73288921539634 -133.0168061914949 ZM 107.90284861415475 -86.02180619149497 L 115.15541328514112 -76.03950730130138 Z"
               id="path243" />
          </g>
        </g>
        <g
           transform=" translate(-151.08618732524047,0)"
           id="g265">
          <g
             transform="rotate(90) translate(-24.000459999999997,-10.11043)translate(75.26771902805656,1.13388)"
             id="g255">
            <rect
               class="guide"
               x="0"
               y="0"
               fill="none"
               stroke="blue"
               width="48.000919999999994"
               height="20.22086"
               style="display: none;"
               id="rect249" />
            <circle
               fill="none"
               stroke="red"
               r="4.15756"
               cx="8.882059999999997"
               cy="10.11043"
               id="circle251" />
            <circle
               fill="none"
               stroke="red"
               r="4.15756"
               cx="39.11886"
               cy="10.11043"
               id="circle253" />
          </g>
          <g
             transform="rotate(90) translate(-24.000459999999997,-10.11043)translate(-75.26771902805656,1.13388)"
             id="g263">
            <rect
               class="guide"
               x="0"
               y="0"
               fill="none"
               stroke="blue"
               width="48.000919999999994"
               height="20.22086"
               style="display: none;"
               id="rect257" />
            <circle
               fill="none"
               stroke="red"
               r="4.15756"
               cx="8.882059999999997"
               cy="10.11043"
               id="circle259" />
            <circle
               fill="none"
               stroke="red"
               r="4.15756"
               cx="39.11886"
               cy="10.11043"
               id="circle261" />
          </g>
        </g>
      </g>
      <g
         transform="translate(2305.4835614406484,0)"
         id="g295">
        <path
           id="path269"
           d="M203.10424684241804, 0L62.762663904031434, 193.16361744670104L-164.31478732524042, 119.38168097194345L-164.31478732524045, -119.3816809719434L62.762663904031385, -193.16361744670107Z"
           fill="none"
           stroke="red" />
        <g
           class="single-face"
           id="g275">
          <g
             id="g273">
            <path
               stroke="red"
               stroke-width="1"
               fill="none"
               d="M 114.86152065899483 76.44401579848878 L 102.63047813123663 67.55764324023025 L 95.96569871254273 76.7309251360489 L 108.19674124030094 85.61729769430742 L 52.65691275118516 162.06131349279622 L -37.2084174735439 132.8622976943074 L -32.53657494578569 118.48384485835072 L -43.320414572753165 114.97996296253207 L -47.99225710051138 129.35841579848872 L -137.85758732524044 100.15939999999992 L -137.85758732524044 5.66940000000001 L -122.73918732524044 5.66940000000001 L -122.73918732524044 -5.669399999999982 L -137.85758732524044 -5.669399999999982 L -137.85758732524044 -100.15939999999998 L -47.992257100511395 -129.35841579848878 L -43.320414572753194 -114.97996296253213 L -32.536574945785716 -118.48384485835078 L -37.20841747354392 -132.86229769430741 L 52.65691275118513 -162.06131349279622 L 108.19674124030098 -85.6172976943075 L 95.96569871254277 -76.73092513604895 L 102.63047813123669 -67.55764324023032 L 114.86152065899488 -76.44401579848886 L 170.40134914811074 -1.4210854715202004e-13 ZM 115.15541328514107 76.03950730130131 L 107.90284861415469 86.0218061914949 ZM -36.73288921539633 133.01680619149485 L -48.46778535865896 129.20390730130126 ZM -137.85758732524044 6.16940000000001 L -137.85758732524044 -6.169399999999982 ZM -48.46778535865897 -129.2039073013013 L -36.73288921539634 -133.0168061914949 ZM 107.90284861415475 -86.02180619149497 L 115.15541328514112 -76.03950730130138 Z"
               id="path271" />
          </g>
        </g>
        <g
           transform=" translate(-151.08618732524047,0)"
           id="g293">
          <g
             transform="rotate(90) translate(-24.000459999999997,-10.11043)translate(75.26771902805656,1.13388)"
             id="g283">
            <rect
               class="guide"
               x="0"
               y="0"
               fill="none"
               stroke="blue"
               width="48.000919999999994"
               height="20.22086"
               style="display: none;"
               id="rect277" />
            <circle
               fill="none"
               stroke="red"
               r="4.15756"
               cx="8.882059999999997"
               cy="10.11043"
               id="circle279" />
            <circle
               fill="none"
               stroke="red"
               r="4.15756"
               cx="39.11886"
               cy="10.11043"
               id="circle281" />
          </g>
          <g
             transform="rotate(90) translate(-24.000459999999997,-10.11043)translate(-75.26771902805656,1.13388)"
             id="g291">
            <rect
               class="guide"
               x="0"
               y="0"
               fill="none"
               stroke="blue"
               width="48.000919999999994"
               height="20.22086"
               style="display: none;"
               id="rect285" />
            <circle
               fill="none"
               stroke="red"
               r="4.15756"
               cx="8.882059999999997"
               cy="10.11043"
               id="circle287" />
            <circle
               fill="none"
               stroke="red"
               r="4.15756"
               cx="39.11886"
               cy="10.11043"
               id="circle289" />
          </g>
        </g>
      </g>
      <g
         transform="translate(2689.7308216807564,0)"
         id="g323">
        <path
           id="path297"
           d="M203.10424684241804, 0L62.762663904031434, 193.16361744670104L-164.31478732524042, 119.38168097194345L-164.31478732524045, -119.3816809719434L62.762663904031385, -193.16361744670107Z"
           fill="none"
           stroke="red" />
        <g
           class="single-face"
           id="g303">
          <g
             id="g301">
            <path
               stroke="red"
               stroke-width="1"
               fill="none"
               d="M 114.86152065899483 76.44401579848878 L 102.63047813123663 67.55764324023025 L 95.96569871254273 76.7309251360489 L 108.19674124030094 85.61729769430742 L 52.65691275118516 162.06131349279622 L -37.2084174735439 132.8622976943074 L -32.53657494578569 118.48384485835072 L -43.320414572753165 114.97996296253207 L -47.99225710051138 129.35841579848872 L -137.85758732524044 100.15939999999992 L -137.85758732524044 5.66940000000001 L -122.73918732524044 5.66940000000001 L -122.73918732524044 -5.669399999999982 L -137.85758732524044 -5.669399999999982 L -137.85758732524044 -100.15939999999998 L -47.992257100511395 -129.35841579848878 L -43.320414572753194 -114.97996296253213 L -32.536574945785716 -118.48384485835078 L -37.20841747354392 -132.86229769430741 L 52.65691275118513 -162.06131349279622 L 108.19674124030098 -85.6172976943075 L 95.96569871254277 -76.73092513604895 L 102.63047813123669 -67.55764324023032 L 114.86152065899488 -76.44401579848886 L 170.40134914811074 -1.4210854715202004e-13 ZM 115.15541328514107 76.03950730130131 L 107.90284861415469 86.0218061914949 ZM -36.73288921539633 133.01680619149485 L -48.46778535865896 129.20390730130126 ZM -137.85758732524044 6.16940000000001 L -137.85758732524044 -6.169399999999982 ZM -48.46778535865897 -129.2039073013013 L -36.73288921539634 -133.0168061914949 ZM 107.90284861415475 -86.02180619149497 L 115.15541328514112 -76.03950730130138 Z"
               id="path299" />
          </g>
        </g>
        <g
           transform=" translate(-151.08618732524047,0)"
           id="g321">
          <g
             transform="rotate(90) translate(-24.000459999999997,-10.11043)translate(75.26771902805656,1.13388)"
             id="g311">
            <rect
               class="guide"
               x="0"
               y="0"
               fill="none"
               stroke="blue"
               width="48.000919999999994"
               height="20.22086"
               style="display: none;"
               id="rect305" />
            <circle
               fill="none"
               stroke="red"
               r="4.15756"
               cx="8.882059999999997"
               cy="10.11043"
               id="circle307" />
            <circle
               fill="none"
               stroke="red"
               r="4.15756"
               cx="39.11886"
               cy="10.11043"
               id="circle309" />
          </g>
          <g
             transform="rotate(90) translate(-24.000459999999997,-10.11043)translate(-75.26771902805656,1.13388)"
             id="g319">
            <rect
               class="guide"
               x="0"
               y="0"
               fill="none"
               stroke="blue"
               width="48.000919999999994"
               height="20.22086"
               style="display: none;"
               id="rect313" />
            <circle
               fill="none"
               stroke="red"
               r="4.15756"
               cx="8.882059999999997"
               cy="10.11043"
               id="circle315" />
            <circle
               fill="none"
               stroke="red"
               r="4.15756"
               cx="39.11886"
               cy="10.11043"
               id="circle317" />
          </g>
        </g>
      </g>
      <g
         transform="translate(3073.9780819208645,0)"
         id="g351">
        <path
           id="path325"
           d="M203.10424684241804, 0L62.762663904031434, 193.16361744670104L-164.31478732524042, 119.38168097194345L-164.31478732524045, -119.3816809719434L62.762663904031385, -193.16361744670107Z"
           fill="none"
           stroke="red" />
        <g
           class="single-face"
           id="g331">
          <g
             id="g329">
            <path
               stroke="red"
               stroke-width="1"
               fill="none"
               d="M 114.86152065899483 76.44401579848878 L 102.63047813123663 67.55764324023025 L 95.96569871254273 76.7309251360489 L 108.19674124030094 85.61729769430742 L 52.65691275118516 162.06131349279622 L -37.2084174735439 132.8622976943074 L -32.53657494578569 118.48384485835072 L -43.320414572753165 114.97996296253207 L -47.99225710051138 129.35841579848872 L -137.85758732524044 100.15939999999992 L -137.85758732524044 5.66940000000001 L -122.73918732524044 5.66940000000001 L -122.73918732524044 -5.669399999999982 L -137.85758732524044 -5.669399999999982 L -137.85758732524044 -100.15939999999998 L -47.992257100511395 -129.35841579848878 L -43.320414572753194 -114.97996296253213 L -32.536574945785716 -118.48384485835078 L -37.20841747354392 -132.86229769430741 L 52.65691275118513 -162.06131349279622 L 108.19674124030098 -85.6172976943075 L 95.96569871254277 -76.73092513604895 L 102.63047813123669 -67.55764324023032 L 114.86152065899488 -76.44401579848886 L 170.40134914811074 -1.4210854715202004e-13 ZM 115.15541328514107 76.03950730130131 L 107.90284861415469 86.0218061914949 ZM -36.73288921539633 133.01680619149485 L -48.46778535865896 129.20390730130126 ZM -137.85758732524044 6.16940000000001 L -137.85758732524044 -6.169399999999982 ZM -48.46778535865897 -129.2039073013013 L -36.73288921539634 -133.0168061914949 ZM 107.90284861415475 -86.02180619149497 L 115.15541328514112 -76.03950730130138 Z"
               id="path327" />
          </g>
        </g>
        <g
           transform=" translate(-151.08618732524047,0)"
           id="g349">
          <g
             transform="rotate(90) translate(-24.000459999999997,-10.11043)translate(75.26771902805656,1.13388)"
             id="g339">
            <rect
               class="guide"
               x="0"
               y="0"
               fill="none"
               stroke="blue"
               width="48.000919999999994"
               height="20.22086"
               style="display: none;"
               id="rect333" />
            <circle
               fill="none"
               stroke="red"
               r="4.15756"
               cx="8.882059999999997"
               cy="10.11043"
               id="circle335" />
            <circle
               fill="none"
               stroke="red"
               r="4.15756"
               cx="39.11886"
               cy="10.11043"
               id="circle337" />
          </g>
          <g
             transform="rotate(90) translate(-24.000459999999997,-10.11043)translate(-75.26771902805656,1.13388)"
             id="g347">
            <rect
               class="guide"
               x="0"
               y="0"
               fill="none"
               stroke="blue"
               width="48.000919999999994"
               height="20.22086"
               style="display: none;"
               id="rect341" />
            <circle
               fill="none"
               stroke="red"
               r="4.15756"
               cx="8.882059999999997"
               cy="10.11043"
               id="circle343" />
            <circle
               fill="none"
               stroke="red"
               r="4.15756"
               cx="39.11886"
               cy="10.11043"
               id="circle345" />
          </g>
        </g>
      </g>
      <g
         transform="translate(3458.2253421609726,0)"
         id="g379">
        <path
           id="path353"
           d="M203.10424684241804, 0L62.762663904031434, 193.16361744670104L-164.31478732524042, 119.38168097194345L-164.31478732524045, -119.3816809719434L62.762663904031385, -193.16361744670107Z"
           fill="none"
           stroke="red" />
        <g
           class="single-face"
           id="g359">
          <g
             id="g357">
            <path
               stroke="red"
               stroke-width="1"
               fill="none"
               d="M 114.86152065899483 76.44401579848878 L 102.63047813123663 67.55764324023025 L 95.96569871254273 76.7309251360489 L 108.19674124030094 85.61729769430742 L 52.65691275118516 162.06131349279622 L -37.2084174735439 132.8622976943074 L -32.53657494578569 118.48384485835072 L -43.320414572753165 114.97996296253207 L -47.99225710051138 129.35841579848872 L -137.85758732524044 100.15939999999992 L -137.85758732524044 5.66940000000001 L -122.73918732524044 5.66940000000001 L -122.73918732524044 -5.669399999999982 L -137.85758732524044 -5.669399999999982 L -137.85758732524044 -100.15939999999998 L -47.992257100511395 -129.35841579848878 L -43.320414572753194 -114.97996296253213 L -32.536574945785716 -118.48384485835078 L -37.20841747354392 -132.86229769430741 L 52.65691275118513 -162.06131349279622 L 108.19674124030098 -85.6172976943075 L 95.96569871254277 -76.73092513604895 L 102.63047813123669 -67.55764324023032 L 114.86152065899488 -76.44401579848886 L 170.40134914811074 -1.4210854715202004e-13 ZM 115.15541328514107 76.03950730130131 L 107.90284861415469 86.0218061914949 ZM -36.73288921539633 133.01680619149485 L -48.46778535865896 129.20390730130126 ZM -137.85758732524044 6.16940000000001 L -137.85758732524044 -6.169399999999982 ZM -48.46778535865897 -129.2039073013013 L -36.73288921539634 -133.0168061914949 ZM 107.90284861415475 -86.02180619149497 L 115.15541328514112 -76.03950730130138 Z"
               id="path355" />
          </g>
        </g>
        <g
           transform=" translate(-151.08618732524047,0)"
           id="g377">
          <g
             transform="rotate(90) translate(-24.000459999999997,-10.11043)translate(75.26771902805656,1.13388)"
             id="g367">
            <rect
               class="guide"
               x="0"
               y="0"
               fill="none"
               stroke="blue"
               width="48.000919999999994"
               height="20.22086"
               style="display: none;"
               id="rect361" />
            <circle
               fill="none"
               stroke="red"
               r="4.15756"
               cx="8.882059999999997"
               cy="10.11043"
               id="circle363" />
            <circle
               fill="none"
               stroke="red"
               r="4.15756"
               cx="39.11886"
               cy="10.11043"
               id="circle365" />
          </g>
          <g
             transform="rotate(90) translate(-24.000459999999997,-10.11043)translate(-75.26771902805656,1.13388)"
             id="g375">
            <rect
               class="guide"
               x="0"
               y="0"
               fill="none"
               stroke="blue"
               width="48.000919999999994"
               height="20.22086"
               style="display: none;"
               id="rect369" />
            <circle
               fill="none"
               stroke="red"
               r="4.15756"
               cx="8.882059999999997"
               cy="10.11043"
               id="circle371" />
            <circle
               fill="none"
               stroke="red"
               r="4.15756"
               cx="39.11886"
               cy="10.11043"
               id="circle373" />
          </g>
        </g>
      </g>
    </g>
    <g
       class="face"
       id="g385">
      <g
         class="faces-group"
         id="g383" />
    </g>
    <g
       transform="translate(0,404.24726024010806)"
       id="g485">
      <path
         class="guide"
         id="path387"
         d="M170.4013491481106, 0L52.656912751185146, -162.0613134927962L-137.85758732524042, -100.1594L-137.85758732524044, 100.15939999999998L52.65691275118511, 162.06131349279622ZM203.10424684241804, 0L62.762663904031434, 193.16361744670104L-164.31478732524042, 119.38168097194345L-164.31478732524045, -119.3816809719434L62.762663904031385, -193.16361744670107Z"
         fill="none"
         stroke="black"
         style="display: none;" />
      <path
         class="guide"
         d="M5.553982848911579, 7.6444015798488785L127.7852760103479, -81.16183115502545L116.67731031252475, -96.4506343147232L-5.553982848911579, -7.6444015798488785ZM8.986533022472907, -2.919901579848877L-37.70166647634317, -146.61140455770908L-55.67473252128898, -140.77160139801134L-8.986533022472907, 2.919901579848877ZM1.157168760514334e-15, -9.449L-151.08618732524047, -9.449000000000018L-151.08618732524047, 9.448999999999982L-1.157168760514334e-15, 9.449ZM-8.986533022472905, -2.9199015798488794L-55.674732521289016, 140.7716013980113L-37.701666476343206, 146.61140455770905L8.986533022472905, 2.9199015798488794ZM-5.553982848911581, 7.644401579848878L116.67731031252472, 96.45063431472323L127.7852760103479, 81.16183115502548L5.553982848911581, -7.644401579848878Z"
         fill="none"
         stroke="black"
         style="display: none;"
         id="path389" />
      <path
         d="M203.10424684241804, 0L62.762663904031434, 193.16361744670104L-164.31478732524042, 119.38168097194345L-164.31478732524045, -119.3816809719434L62.762663904031385, -193.16361744670107ZM11.679606319395505, 35.94613208989163L-1.7016664763432061, 35.94613208989163L-34, 134L52.65691275118511, 162.06131349279622L106, 89L23, 28ZM-137.85758732524044, 100.15939999999998L-52, 128L-20, 30L-30.577606319395514, 22.21593139564631L-34.577606319395514, 9.448999999999982L-137.85758732524044, 9.448999999999982ZM34, -13L37.796, 0L34, 13L117, 73L170.4013491481106, 0L117, -73ZM-137.85758732524042, -100.1594L-137.85758732524044, -9.449L-34.796, -9.449L-30.57760631939551, -22.21593139564632L-20, -30L-52, -128ZM-34, -134L-2.0134669775270932, -35.94613208989163L11.679606319395514, -35.94613208989162L23, -28L106, -89L52.656912751185146, -162.0613134927962Z"
         fill="none"
         stroke="red"
         id="path391" />
      <circle
         cx="0"
         cy="0"
         fill="none"
         stroke="red"
         r="5.6693999999999996"
         id="circle393" />
      <g
         transform="rotate(0) translate(-151.08618732524047,0)"
         id="g411">
        <g
           transform="rotate(90) translate(-24.000459999999997,-10.11043)translate(75.26771902805656,1.13388)"
           id="g401">
          <rect
             class="guide"
             x="0"
             y="0"
             fill="none"
             stroke="blue"
             width="48.000919999999994"
             height="20.22086"
             style="display: none;"
             id="rect395" />
          <circle
             fill="none"
             stroke="red"
             r="4.15756"
             cx="8.882059999999997"
             cy="10.11043"
             id="circle397" />
          <circle
             fill="none"
             stroke="red"
             r="4.15756"
             cx="39.11886"
             cy="10.11043"
             id="circle399" />
        </g>
        <g
           transform="rotate(90) translate(-24.000459999999997,-10.11043)translate(-75.26771902805656,1.13388)"
           id="g409">
          <rect
             class="guide"
             x="0"
             y="0"
             fill="none"
             stroke="blue"
             width="48.000919999999994"
             height="20.22086"
             style="display: none;"
             id="rect403" />
          <circle
             fill="none"
             stroke="red"
             r="4.15756"
             cx="8.882059999999997"
             cy="10.11043"
             id="circle405" />
          <circle
             fill="none"
             stroke="red"
             r="4.15756"
             cx="39.11886"
             cy="10.11043"
             id="circle407" />
        </g>
      </g>
      <g
         transform="rotate(72) translate(-151.08618732524047,0)"
         id="g429">
        <g
           transform="rotate(90) translate(-24.000459999999997,-10.11043)translate(75.26771902805656,1.13388)"
           id="g419">
          <rect
             class="guide"
             x="0"
             y="0"
             fill="none"
             stroke="blue"
             width="48.000919999999994"
             height="20.22086"
             style="display: none;"
             id="rect413" />
          <circle
             fill="none"
             stroke="red"
             r="4.15756"
             cx="8.882059999999997"
             cy="10.11043"
             id="circle415" />
          <circle
             fill="none"
             stroke="red"
             r="4.15756"
             cx="39.11886"
             cy="10.11043"
             id="circle417" />
        </g>
        <g
           transform="rotate(90) translate(-24.000459999999997,-10.11043)translate(-75.26771902805656,1.13388)"
           id="g427">
          <rect
             class="guide"
             x="0"
             y="0"
             fill="none"
             stroke="blue"
             width="48.000919999999994"
             height="20.22086"
             style="display: none;"
             id="rect421" />
          <circle
             fill="none"
             stroke="red"
             r="4.15756"
             cx="8.882059999999997"
             cy="10.11043"
             id="circle423" />
          <circle
             fill="none"
             stroke="red"
             r="4.15756"
             cx="39.11886"
             cy="10.11043"
             id="circle425" />
        </g>
      </g>
      <g
         transform="rotate(144) translate(-151.08618732524047,0)"
         id="g447">
        <g
           transform="rotate(90) translate(-24.000459999999997,-10.11043)translate(75.26771902805656,1.13388)"
           id="g437">
          <rect
             class="guide"
             x="0"
             y="0"
             fill="none"
             stroke="blue"
             width="48.000919999999994"
             height="20.22086"
             style="display: none;"
             id="rect431" />
          <circle
             fill="none"
             stroke="red"
             r="4.15756"
             cx="8.882059999999997"
             cy="10.11043"
             id="circle433" />
          <circle
             fill="none"
             stroke="red"
             r="4.15756"
             cx="39.11886"
             cy="10.11043"
             id="circle435" />
        </g>
        <g
           transform="rotate(90) translate(-24.000459999999997,-10.11043)translate(-75.26771902805656,1.13388)"
           id="g445">
          <rect
             class="guide"
             x="0"
             y="0"
             fill="none"
             stroke="blue"
             width="48.000919999999994"
             height="20.22086"
             style="display: none;"
             id="rect439" />
          <circle
             fill="none"
             stroke="red"
             r="4.15756"
             cx="8.882059999999997"
             cy="10.11043"
             id="circle441" />
          <circle
             fill="none"
             stroke="red"
             r="4.15756"
             cx="39.11886"
             cy="10.11043"
             id="circle443" />
        </g>
      </g>
      <g
         transform="rotate(216) translate(-151.08618732524047,0)"
         id="g465">
        <g
           transform="rotate(90) translate(-24.000459999999997,-10.11043)translate(75.26771902805656,1.13388)"
           id="g455">
          <rect
             class="guide"
             x="0"
             y="0"
             fill="none"
             stroke="blue"
             width="48.000919999999994"
             height="20.22086"
             style="display: none;"
             id="rect449" />
          <circle
             fill="none"
             stroke="red"
             r="4.15756"
             cx="8.882059999999997"
             cy="10.11043"
             id="circle451" />
          <circle
             fill="none"
             stroke="red"
             r="4.15756"
             cx="39.11886"
             cy="10.11043"
             id="circle453" />
        </g>
        <g
           transform="rotate(90) translate(-24.000459999999997,-10.11043)translate(-75.26771902805656,1.13388)"
           id="g463">
          <rect
             class="guide"
             x="0"
             y="0"
             fill="none"
             stroke="blue"
             width="48.000919999999994"
             height="20.22086"
             style="display: none;"
             id="rect457" />
          <circle
             fill="none"
             stroke="red"
             r="4.15756"
             cx="8.882059999999997"
             cy="10.11043"
             id="circle459" />
          <circle
             fill="none"
             stroke="red"
             r="4.15756"
             cx="39.11886"
             cy="10.11043"
             id="circle461" />
        </g>
      </g>
      <g
         transform="rotate(288) translate(-151.08618732524047,0)"
         id="g483">
        <g
           transform="rotate(90) translate(-24.000459999999997,-10.11043)translate(75.26771902805656,1.13388)"
           id="g473">
          <rect
             class="guide"
             x="0"
             y="0"
             fill="none"
             stroke="blue"
             width="48.000919999999994"
             height="20.22086"
             style="display: none;"
             id="rect467" />
          <circle
             fill="none"
             stroke="red"
             r="4.15756"
             cx="8.882059999999997"
             cy="10.11043"
             id="circle469" />
          <circle
             fill="none"
             stroke="red"
             r="4.15756"
             cx="39.11886"
             cy="10.11043"
             id="circle471" />
        </g>
        <g
           transform="rotate(90) translate(-24.000459999999997,-10.11043)translate(-75.26771902805656,1.13388)"
           id="g481">
          <rect
             class="guide"
             x="0"
             y="0"
             fill="none"
             stroke="blue"
             width="48.000919999999994"
             height="20.22086"
             style="display: none;"
             id="rect475" />
          <circle
             fill="none"
             stroke="red"
             r="4.15756"
             cx="8.882059999999997"
             cy="10.11043"
             id="circle477" />
          <circle
             fill="none"
             stroke="red"
             r="4.15756"
             cx="39.11886"
             cy="10.11043"
             id="circle479" />
        </g>
      </g>
    </g>
  </g>
</svg>
