<?xml version="1.0" encoding="UTF-8" standalone="no"?>
<svg
   xmlns:dc="http://purl.org/dc/elements/1.1/"
   xmlns:cc="http://creativecommons.org/ns#"
   xmlns:rdf="http://www.w3.org/1999/02/22-rdf-syntax-ns#"
   xmlns:svg="http://www.w3.org/2000/svg"
   xmlns="http://www.w3.org/2000/svg"
   xmlns:sodipodi="http://sodipodi.sourceforge.net/DTD/sodipodi-0.dtd"
   xmlns:inkscape="http://www.inkscape.org/namespaces/inkscape"
   id="svg"
   viewBox="0 0 1692.480728149414 2379.528076171875"
   version="1.1"
   sodipodi:docname="popup-inner-pentagons.svg"
   inkscape:version="1.0.1 (3bc2e813f5, 2020-09-07)">
  <metadata
     id="metadata332">
    <rdf:RDF>
      <cc:Work
         rdf:about="">
        <dc:format>image/svg+xml</dc:format>
        <dc:type
           rdf:resource="http://purl.org/dc/dcmitype/StillImage" />
        <dc:title></dc:title>
      </cc:Work>
    </rdf:RDF>
  </metadata>
  <defs
     id="defs330" />
  <sodipodi:namedview
     pagecolor="#ffffff"
     bordercolor="#666666"
     borderopacity="1"
     objecttolerance="10"
     gridtolerance="10"
     guidetolerance="10"
     inkscape:pageopacity="0"
     inkscape:pageshadow="2"
     inkscape:window-width="767"
     inkscape:window-height="480"
     id="namedview328"
     showgrid="false"
     inkscape:zoom="0.33745847"
     inkscape:cx="167.44413"
     inkscape:cy="-35.201926"
     inkscape:window-x="0"
     inkscape:window-y="0"
     inkscape:window-maximized="0"
     inkscape:current-layer="svg" />
  <g
     transform="translate(0,825.7122421264648)"
     id="g82">
    <g
       transform="translate(0,578.7215631445266)"
       id="g70">
      <g
         transform="translate(0,0)"
         id="g68">
        <g
           class="single-face"
           transform="translate(395.8143754296844,0)"
           id="g6">
          <g
             id="g4">
            <path
               stroke="red"
               stroke-width="1"
               fill="none"
               d="M 179.99453254829297 17.772745116517044 L 167.76349002053476 8.88637255825852 L 161.54302922975378 17.44810232768927 L 173.774071757512 26.33447488594779 L 78.74471529829452 157.13116303042528 L 66.51367277053632 148.24479047216676 L 60.29321197975534 156.8065202415975 L 72.52425450751356 165.69289279985603 L 59.61159934096435 183.46563791637305 L 38.71848439648075 176.67705335525224 L 43.39032692423895 162.2986005192956 L 33.325409939069296 159.02831074986486 L 28.653567411311087 173.4067635858215 L -125.10716126873217 123.44687433055147 L -120.43531874097397 109.06842149459482 L -130.50023572614361 105.79813172516407 L -135.17207825390182 120.17658456112072 L -156.0651931983854 113.38799999999992 L -156.0651931983854 91.41967888920753 L -140.9467931983854 91.41967888920753 L -140.94679319838542 80.83679888920753 L -156.0651931983854 80.83679888920753 L -156.06519319838543 -80.83679888920749 L -140.94679319838545 -80.83679888920749 L -140.94679319838545 -91.41967888920747 L -156.06519319838543 -91.41967888920747 L -156.06519319838543 -113.38799999999996 L -135.17207825390184 -120.17658456112078 L -130.50023572614364 -105.79813172516413 L -120.43531874097398 -109.06842149459487 L -125.1071612687322 -123.44687433055152 L 28.65356741131106 -173.40676358582155 L 33.32540993906926 -159.0283107498649 L 43.390326924238906 -162.29860051929563 L 38.718484396480704 -176.6770533552523 L 59.61159934096429 -183.4656379163731 L 72.52425450751353 -165.69289279985605 L 60.293211979755334 -156.80652024159753 L 66.51367277053632 -148.24479047216676 L 78.74471529829451 -157.1311630304253 L 173.77407175751213 -26.334474885947913 L 161.54302922975396 -17.448102327689384 L 167.76349002053493 -8.886372558258671 L 179.9945325482931 -17.7727451165172 L 192.90718771484237 -1.7053025658242404e-13 Z"
               id="path2" />
          </g>
        </g>
        <g
           class="single-face"
           transform="translate(791.6287508593688,0)"
           id="g12">
          <g
             id="g10">
            <path
               stroke="red"
               stroke-width="1"
               fill="none"
               d="M 179.99453254829297 17.772745116517044 L 167.76349002053476 8.88637255825852 L 161.54302922975378 17.44810232768927 L 173.774071757512 26.33447488594779 L 78.74471529829452 157.13116303042528 L 66.51367277053632 148.24479047216676 L 60.29321197975534 156.8065202415975 L 72.52425450751356 165.69289279985603 L 59.61159934096435 183.46563791637305 L 38.71848439648075 176.67705335525224 L 43.39032692423895 162.2986005192956 L 33.325409939069296 159.02831074986486 L 28.653567411311087 173.4067635858215 L -125.10716126873217 123.44687433055147 L -120.43531874097397 109.06842149459482 L -130.50023572614361 105.79813172516407 L -135.17207825390182 120.17658456112072 L -156.0651931983854 113.38799999999992 L -156.0651931983854 91.41967888920753 L -140.9467931983854 91.41967888920753 L -140.94679319838542 80.83679888920753 L -156.0651931983854 80.83679888920753 L -156.06519319838543 -80.83679888920749 L -140.94679319838545 -80.83679888920749 L -140.94679319838545 -91.41967888920747 L -156.06519319838543 -91.41967888920747 L -156.06519319838543 -113.38799999999996 L -135.17207825390184 -120.17658456112078 L -130.50023572614364 -105.79813172516413 L -120.43531874097398 -109.06842149459487 L -125.1071612687322 -123.44687433055152 L 28.65356741131106 -173.40676358582155 L 33.32540993906926 -159.0283107498649 L 43.390326924238906 -162.29860051929563 L 38.718484396480704 -176.6770533552523 L 59.61159934096429 -183.4656379163731 L 72.52425450751353 -165.69289279985605 L 60.293211979755334 -156.80652024159753 L 66.51367277053632 -148.24479047216676 L 78.74471529829451 -157.1311630304253 L 173.77407175751213 -26.334474885947913 L 161.54302922975396 -17.448102327689384 L 167.76349002053493 -8.886372558258671 L 179.9945325482931 -17.7727451165172 L 192.90718771484237 -1.7053025658242404e-13 Z"
               id="path8" />
          </g>
        </g>
        <g
           class="single-face"
           transform="translate(1187.4431262890532,0)"
           id="g18">
          <g
             id="g16">
            <path
               stroke="red"
               stroke-width="1"
               fill="none"
               d="M 179.99453254829297 17.772745116517044 L 167.76349002053476 8.88637255825852 L 161.54302922975378 17.44810232768927 L 173.774071757512 26.33447488594779 L 78.74471529829452 157.13116303042528 L 66.51367277053632 148.24479047216676 L 60.29321197975534 156.8065202415975 L 72.52425450751356 165.69289279985603 L 59.61159934096435 183.46563791637305 L 38.71848439648075 176.67705335525224 L 43.39032692423895 162.2986005192956 L 33.325409939069296 159.02831074986486 L 28.653567411311087 173.4067635858215 L -125.10716126873217 123.44687433055147 L -120.43531874097397 109.06842149459482 L -130.50023572614361 105.79813172516407 L -135.17207825390182 120.17658456112072 L -156.0651931983854 113.38799999999992 L -156.0651931983854 91.41967888920753 L -140.9467931983854 91.41967888920753 L -140.94679319838542 80.83679888920753 L -156.0651931983854 80.83679888920753 L -156.06519319838543 -80.83679888920749 L -140.94679319838545 -80.83679888920749 L -140.94679319838545 -91.41967888920747 L -156.06519319838543 -91.41967888920747 L -156.06519319838543 -113.38799999999996 L -135.17207825390184 -120.17658456112078 L -130.50023572614364 -105.79813172516413 L -120.43531874097398 -109.06842149459487 L -125.1071612687322 -123.44687433055152 L 28.65356741131106 -173.40676358582155 L 33.32540993906926 -159.0283107498649 L 43.390326924238906 -162.29860051929563 L 38.718484396480704 -176.6770533552523 L 59.61159934096429 -183.4656379163731 L 72.52425450751353 -165.69289279985605 L 60.293211979755334 -156.80652024159753 L 66.51367277053632 -148.24479047216676 L 78.74471529829451 -157.1311630304253 L 173.77407175751213 -26.334474885947913 L 161.54302922975396 -17.448102327689384 L 167.76349002053493 -8.886372558258671 L 179.9945325482931 -17.7727451165172 L 192.90718771484237 -1.7053025658242404e-13 Z"
               id="path14" />
          </g>
        </g>
        <g
           class="single-face"
           transform="translate(0,395.8143754296844)"
           id="g24">
          <g
             id="g22">
            <path
               stroke="red"
               stroke-width="1"
               fill="none"
               d="M 179.99453254829297 17.772745116517044 L 167.76349002053476 8.88637255825852 L 161.54302922975378 17.44810232768927 L 173.774071757512 26.33447488594779 L 78.74471529829452 157.13116303042528 L 66.51367277053632 148.24479047216676 L 60.29321197975534 156.8065202415975 L 72.52425450751356 165.69289279985603 L 59.61159934096435 183.46563791637305 L 38.71848439648075 176.67705335525224 L 43.39032692423895 162.2986005192956 L 33.325409939069296 159.02831074986486 L 28.653567411311087 173.4067635858215 L -125.10716126873217 123.44687433055147 L -120.43531874097397 109.06842149459482 L -130.50023572614361 105.79813172516407 L -135.17207825390182 120.17658456112072 L -156.0651931983854 113.38799999999992 L -156.0651931983854 91.41967888920753 L -140.9467931983854 91.41967888920753 L -140.94679319838542 80.83679888920753 L -156.0651931983854 80.83679888920753 L -156.06519319838543 -80.83679888920749 L -140.94679319838545 -80.83679888920749 L -140.94679319838545 -91.41967888920747 L -156.06519319838543 -91.41967888920747 L -156.06519319838543 -113.38799999999996 L -135.17207825390184 -120.17658456112078 L -130.50023572614364 -105.79813172516413 L -120.43531874097398 -109.06842149459487 L -125.1071612687322 -123.44687433055152 L 28.65356741131106 -173.40676358582155 L 33.32540993906926 -159.0283107498649 L 43.390326924238906 -162.29860051929563 L 38.718484396480704 -176.6770533552523 L 59.61159934096429 -183.4656379163731 L 72.52425450751353 -165.69289279985605 L 60.293211979755334 -156.80652024159753 L 66.51367277053632 -148.24479047216676 L 78.74471529829451 -157.1311630304253 L 173.77407175751213 -26.334474885947913 L 161.54302922975396 -17.448102327689384 L 167.76349002053493 -8.886372558258671 L 179.9945325482931 -17.7727451165172 L 192.90718771484237 -1.7053025658242404e-13 Z"
               id="path20" />
          </g>
        </g>
        <g
           class="single-face"
           transform="translate(395.8143754296844,395.8143754296844)"
           id="g30">
          <g
             id="g28">
            <path
               stroke="red"
               stroke-width="1"
               fill="none"
               d="M 179.99453254829297 17.772745116517044 L 167.76349002053476 8.88637255825852 L 161.54302922975378 17.44810232768927 L 173.774071757512 26.33447488594779 L 78.74471529829452 157.13116303042528 L 66.51367277053632 148.24479047216676 L 60.29321197975534 156.8065202415975 L 72.52425450751356 165.69289279985603 L 59.61159934096435 183.46563791637305 L 38.71848439648075 176.67705335525224 L 43.39032692423895 162.2986005192956 L 33.325409939069296 159.02831074986486 L 28.653567411311087 173.4067635858215 L -125.10716126873217 123.44687433055147 L -120.43531874097397 109.06842149459482 L -130.50023572614361 105.79813172516407 L -135.17207825390182 120.17658456112072 L -156.0651931983854 113.38799999999992 L -156.0651931983854 91.41967888920753 L -140.9467931983854 91.41967888920753 L -140.94679319838542 80.83679888920753 L -156.0651931983854 80.83679888920753 L -156.06519319838543 -80.83679888920749 L -140.94679319838545 -80.83679888920749 L -140.94679319838545 -91.41967888920747 L -156.06519319838543 -91.41967888920747 L -156.06519319838543 -113.38799999999996 L -135.17207825390184 -120.17658456112078 L -130.50023572614364 -105.79813172516413 L -120.43531874097398 -109.06842149459487 L -125.1071612687322 -123.44687433055152 L 28.65356741131106 -173.40676358582155 L 33.32540993906926 -159.0283107498649 L 43.390326924238906 -162.29860051929563 L 38.718484396480704 -176.6770533552523 L 59.61159934096429 -183.4656379163731 L 72.52425450751353 -165.69289279985605 L 60.293211979755334 -156.80652024159753 L 66.51367277053632 -148.24479047216676 L 78.74471529829451 -157.1311630304253 L 173.77407175751213 -26.334474885947913 L 161.54302922975396 -17.448102327689384 L 167.76349002053493 -8.886372558258671 L 179.9945325482931 -17.7727451165172 L 192.90718771484237 -1.7053025658242404e-13 Z"
               id="path26" />
          </g>
        </g>
        <g
           class="single-face"
           transform="translate(791.6287508593688,395.8143754296844)"
           id="g36">
          <g
             id="g34">
            <path
               stroke="red"
               stroke-width="1"
               fill="none"
               d="M 179.99453254829297 17.772745116517044 L 167.76349002053476 8.88637255825852 L 161.54302922975378 17.44810232768927 L 173.774071757512 26.33447488594779 L 78.74471529829452 157.13116303042528 L 66.51367277053632 148.24479047216676 L 60.29321197975534 156.8065202415975 L 72.52425450751356 165.69289279985603 L 59.61159934096435 183.46563791637305 L 38.71848439648075 176.67705335525224 L 43.39032692423895 162.2986005192956 L 33.325409939069296 159.02831074986486 L 28.653567411311087 173.4067635858215 L -125.10716126873217 123.44687433055147 L -120.43531874097397 109.06842149459482 L -130.50023572614361 105.79813172516407 L -135.17207825390182 120.17658456112072 L -156.0651931983854 113.38799999999992 L -156.0651931983854 91.41967888920753 L -140.9467931983854 91.41967888920753 L -140.94679319838542 80.83679888920753 L -156.0651931983854 80.83679888920753 L -156.06519319838543 -80.83679888920749 L -140.94679319838545 -80.83679888920749 L -140.94679319838545 -91.41967888920747 L -156.06519319838543 -91.41967888920747 L -156.06519319838543 -113.38799999999996 L -135.17207825390184 -120.17658456112078 L -130.50023572614364 -105.79813172516413 L -120.43531874097398 -109.06842149459487 L -125.1071612687322 -123.44687433055152 L 28.65356741131106 -173.40676358582155 L 33.32540993906926 -159.0283107498649 L 43.390326924238906 -162.29860051929563 L 38.718484396480704 -176.6770533552523 L 59.61159934096429 -183.4656379163731 L 72.52425450751353 -165.69289279985605 L 60.293211979755334 -156.80652024159753 L 66.51367277053632 -148.24479047216676 L 78.74471529829451 -157.1311630304253 L 173.77407175751213 -26.334474885947913 L 161.54302922975396 -17.448102327689384 L 167.76349002053493 -8.886372558258671 L 179.9945325482931 -17.7727451165172 L 192.90718771484237 -1.7053025658242404e-13 Z"
               id="path32" />
          </g>
        </g>
        <g
           class="single-face"
           transform="translate(1187.4431262890532,395.8143754296844)"
           id="g42">
          <g
             id="g40">
            <path
               stroke="red"
               stroke-width="1"
               fill="none"
               d="M 179.99453254829297 17.772745116517044 L 167.76349002053476 8.88637255825852 L 161.54302922975378 17.44810232768927 L 173.774071757512 26.33447488594779 L 78.74471529829452 157.13116303042528 L 66.51367277053632 148.24479047216676 L 60.29321197975534 156.8065202415975 L 72.52425450751356 165.69289279985603 L 59.61159934096435 183.46563791637305 L 38.71848439648075 176.67705335525224 L 43.39032692423895 162.2986005192956 L 33.325409939069296 159.02831074986486 L 28.653567411311087 173.4067635858215 L -125.10716126873217 123.44687433055147 L -120.43531874097397 109.06842149459482 L -130.50023572614361 105.79813172516407 L -135.17207825390182 120.17658456112072 L -156.0651931983854 113.38799999999992 L -156.0651931983854 91.41967888920753 L -140.9467931983854 91.41967888920753 L -140.94679319838542 80.83679888920753 L -156.0651931983854 80.83679888920753 L -156.06519319838543 -80.83679888920749 L -140.94679319838545 -80.83679888920749 L -140.94679319838545 -91.41967888920747 L -156.06519319838543 -91.41967888920747 L -156.06519319838543 -113.38799999999996 L -135.17207825390184 -120.17658456112078 L -130.50023572614364 -105.79813172516413 L -120.43531874097398 -109.06842149459487 L -125.1071612687322 -123.44687433055152 L 28.65356741131106 -173.40676358582155 L 33.32540993906926 -159.0283107498649 L 43.390326924238906 -162.29860051929563 L 38.718484396480704 -176.6770533552523 L 59.61159934096429 -183.4656379163731 L 72.52425450751353 -165.69289279985605 L 60.293211979755334 -156.80652024159753 L 66.51367277053632 -148.24479047216676 L 78.74471529829451 -157.1311630304253 L 173.77407175751213 -26.334474885947913 L 161.54302922975396 -17.448102327689384 L 167.76349002053493 -8.886372558258671 L 179.9945325482931 -17.7727451165172 L 192.90718771484237 -1.7053025658242404e-13 Z"
               id="path38" />
          </g>
        </g>
        <g
           class="single-face"
           transform="translate(0,791.6287508593688)"
           id="g48">
          <g
             id="g46">
            <path
               stroke="red"
               stroke-width="1"
               fill="none"
               d="M 179.99453254829297 17.772745116517044 L 167.76349002053476 8.88637255825852 L 161.54302922975378 17.44810232768927 L 173.774071757512 26.33447488594779 L 78.74471529829452 157.13116303042528 L 66.51367277053632 148.24479047216676 L 60.29321197975534 156.8065202415975 L 72.52425450751356 165.69289279985603 L 59.61159934096435 183.46563791637305 L 38.71848439648075 176.67705335525224 L 43.39032692423895 162.2986005192956 L 33.325409939069296 159.02831074986486 L 28.653567411311087 173.4067635858215 L -125.10716126873217 123.44687433055147 L -120.43531874097397 109.06842149459482 L -130.50023572614361 105.79813172516407 L -135.17207825390182 120.17658456112072 L -156.0651931983854 113.38799999999992 L -156.0651931983854 91.41967888920753 L -140.9467931983854 91.41967888920753 L -140.94679319838542 80.83679888920753 L -156.0651931983854 80.83679888920753 L -156.06519319838543 -80.83679888920749 L -140.94679319838545 -80.83679888920749 L -140.94679319838545 -91.41967888920747 L -156.06519319838543 -91.41967888920747 L -156.06519319838543 -113.38799999999996 L -135.17207825390184 -120.17658456112078 L -130.50023572614364 -105.79813172516413 L -120.43531874097398 -109.06842149459487 L -125.1071612687322 -123.44687433055152 L 28.65356741131106 -173.40676358582155 L 33.32540993906926 -159.0283107498649 L 43.390326924238906 -162.29860051929563 L 38.718484396480704 -176.6770533552523 L 59.61159934096429 -183.4656379163731 L 72.52425450751353 -165.69289279985605 L 60.293211979755334 -156.80652024159753 L 66.51367277053632 -148.24479047216676 L 78.74471529829451 -157.1311630304253 L 173.77407175751213 -26.334474885947913 L 161.54302922975396 -17.448102327689384 L 167.76349002053493 -8.886372558258671 L 179.9945325482931 -17.7727451165172 L 192.90718771484237 -1.7053025658242404e-13 Z"
               id="path44" />
          </g>
        </g>
        <g
           class="single-face"
           transform="translate(395.8143754296844,791.6287508593688)"
           id="g54">
          <g
             id="g52">
            <path
               stroke="red"
               stroke-width="1"
               fill="none"
               d="M 179.99453254829297 17.772745116517044 L 167.76349002053476 8.88637255825852 L 161.54302922975378 17.44810232768927 L 173.774071757512 26.33447488594779 L 78.74471529829452 157.13116303042528 L 66.51367277053632 148.24479047216676 L 60.29321197975534 156.8065202415975 L 72.52425450751356 165.69289279985603 L 59.61159934096435 183.46563791637305 L 38.71848439648075 176.67705335525224 L 43.39032692423895 162.2986005192956 L 33.325409939069296 159.02831074986486 L 28.653567411311087 173.4067635858215 L -125.10716126873217 123.44687433055147 L -120.43531874097397 109.06842149459482 L -130.50023572614361 105.79813172516407 L -135.17207825390182 120.17658456112072 L -156.0651931983854 113.38799999999992 L -156.0651931983854 91.41967888920753 L -140.9467931983854 91.41967888920753 L -140.94679319838542 80.83679888920753 L -156.0651931983854 80.83679888920753 L -156.06519319838543 -80.83679888920749 L -140.94679319838545 -80.83679888920749 L -140.94679319838545 -91.41967888920747 L -156.06519319838543 -91.41967888920747 L -156.06519319838543 -113.38799999999996 L -135.17207825390184 -120.17658456112078 L -130.50023572614364 -105.79813172516413 L -120.43531874097398 -109.06842149459487 L -125.1071612687322 -123.44687433055152 L 28.65356741131106 -173.40676358582155 L 33.32540993906926 -159.0283107498649 L 43.390326924238906 -162.29860051929563 L 38.718484396480704 -176.6770533552523 L 59.61159934096429 -183.4656379163731 L 72.52425450751353 -165.69289279985605 L 60.293211979755334 -156.80652024159753 L 66.51367277053632 -148.24479047216676 L 78.74471529829451 -157.1311630304253 L 173.77407175751213 -26.334474885947913 L 161.54302922975396 -17.448102327689384 L 167.76349002053493 -8.886372558258671 L 179.9945325482931 -17.7727451165172 L 192.90718771484237 -1.7053025658242404e-13 Z"
               id="path50" />
          </g>
        </g>
        <g
           class="single-face"
           transform="translate(791.6287508593688,791.6287508593688)"
           id="g60">
          <g
             id="g58">
            <path
               stroke="red"
               stroke-width="1"
               fill="none"
               d="M 179.99453254829297 17.772745116517044 L 167.76349002053476 8.88637255825852 L 161.54302922975378 17.44810232768927 L 173.774071757512 26.33447488594779 L 78.74471529829452 157.13116303042528 L 66.51367277053632 148.24479047216676 L 60.29321197975534 156.8065202415975 L 72.52425450751356 165.69289279985603 L 59.61159934096435 183.46563791637305 L 38.71848439648075 176.67705335525224 L 43.39032692423895 162.2986005192956 L 33.325409939069296 159.02831074986486 L 28.653567411311087 173.4067635858215 L -125.10716126873217 123.44687433055147 L -120.43531874097397 109.06842149459482 L -130.50023572614361 105.79813172516407 L -135.17207825390182 120.17658456112072 L -156.0651931983854 113.38799999999992 L -156.0651931983854 91.41967888920753 L -140.9467931983854 91.41967888920753 L -140.94679319838542 80.83679888920753 L -156.0651931983854 80.83679888920753 L -156.06519319838543 -80.83679888920749 L -140.94679319838545 -80.83679888920749 L -140.94679319838545 -91.41967888920747 L -156.06519319838543 -91.41967888920747 L -156.06519319838543 -113.38799999999996 L -135.17207825390184 -120.17658456112078 L -130.50023572614364 -105.79813172516413 L -120.43531874097398 -109.06842149459487 L -125.1071612687322 -123.44687433055152 L 28.65356741131106 -173.40676358582155 L 33.32540993906926 -159.0283107498649 L 43.390326924238906 -162.29860051929563 L 38.718484396480704 -176.6770533552523 L 59.61159934096429 -183.4656379163731 L 72.52425450751353 -165.69289279985605 L 60.293211979755334 -156.80652024159753 L 66.51367277053632 -148.24479047216676 L 78.74471529829451 -157.1311630304253 L 173.77407175751213 -26.334474885947913 L 161.54302922975396 -17.448102327689384 L 167.76349002053493 -8.886372558258671 L 179.9945325482931 -17.7727451165172 L 192.90718771484237 -1.7053025658242404e-13 Z"
               id="path56" />
          </g>
        </g>
        <g
           class="single-face"
           transform="translate(1187.4431262890532,791.6287508593688)"
           id="g66">
          <g
             id="g64">
            <path
               stroke="red"
               stroke-width="1"
               fill="none"
               d="M 179.99453254829297 17.772745116517044 L 167.76349002053476 8.88637255825852 L 161.54302922975378 17.44810232768927 L 173.774071757512 26.33447488594779 L 78.74471529829452 157.13116303042528 L 66.51367277053632 148.24479047216676 L 60.29321197975534 156.8065202415975 L 72.52425450751356 165.69289279985603 L 59.61159934096435 183.46563791637305 L 38.71848439648075 176.67705335525224 L 43.39032692423895 162.2986005192956 L 33.325409939069296 159.02831074986486 L 28.653567411311087 173.4067635858215 L -125.10716126873217 123.44687433055147 L -120.43531874097397 109.06842149459482 L -130.50023572614361 105.79813172516407 L -135.17207825390182 120.17658456112072 L -156.0651931983854 113.38799999999992 L -156.0651931983854 91.41967888920753 L -140.9467931983854 91.41967888920753 L -140.94679319838542 80.83679888920753 L -156.0651931983854 80.83679888920753 L -156.06519319838543 -80.83679888920749 L -140.94679319838545 -80.83679888920749 L -140.94679319838545 -91.41967888920747 L -156.06519319838543 -91.41967888920747 L -156.06519319838543 -113.38799999999996 L -135.17207825390184 -120.17658456112078 L -130.50023572614364 -105.79813172516413 L -120.43531874097398 -109.06842149459487 L -125.1071612687322 -123.44687433055152 L 28.65356741131106 -173.40676358582155 L 33.32540993906926 -159.0283107498649 L 43.390326924238906 -162.29860051929563 L 38.718484396480704 -176.6770533552523 L 59.61159934096429 -183.4656379163731 L 72.52425450751353 -165.69289279985605 L 60.293211979755334 -156.80652024159753 L 66.51367277053632 -148.24479047216676 L 78.74471529829451 -157.1311630304253 L 173.77407175751213 -26.334474885947913 L 161.54302922975396 -17.448102327689384 L 167.76349002053493 -8.886372558258671 L 179.9945325482931 -17.7727451165172 L 192.90718771484237 -1.7053025658242404e-13 Z"
               id="path62" />
          </g>
        </g>
      </g>
    </g>
    <g
       class="face"
       id="g80">
      <g
         class="single-face"
         transform="translate(192.9071877148422,192.9071877148422)"
         id="g76">
        <g
           id="g74">
          <path
             stroke="red"
             stroke-width="1"
             fill="none"
             d="M 179.99453254829297 17.772745116517044 L 167.76349002053476 8.88637255825852 L 161.54302922975378 17.44810232768927 L 173.774071757512 26.33447488594779 L 78.74471529829452 157.13116303042528 L 66.51367277053632 148.24479047216676 L 60.29321197975534 156.8065202415975 L 72.52425450751356 165.69289279985603 L 59.61159934096435 183.46563791637305 L 38.71848439648075 176.67705335525224 L 43.39032692423895 162.2986005192956 L 33.325409939069296 159.02831074986486 L 28.653567411311087 173.4067635858215 L -125.10716126873217 123.44687433055147 L -120.43531874097397 109.06842149459482 L -130.50023572614361 105.79813172516407 L -135.17207825390182 120.17658456112072 L -156.0651931983854 113.38799999999992 L -156.0651931983854 91.41967888920753 L -140.9467931983854 91.41967888920753 L -140.94679319838542 80.83679888920753 L -156.0651931983854 80.83679888920753 L -156.06519319838543 -80.83679888920749 L -140.94679319838545 -80.83679888920749 L -140.94679319838545 -91.41967888920747 L -156.06519319838543 -91.41967888920747 L -156.06519319838543 -113.38799999999996 L -135.17207825390184 -120.17658456112078 L -130.50023572614364 -105.79813172516413 L -120.43531874097398 -109.06842149459487 L -125.1071612687322 -123.44687433055152 L 28.65356741131106 -173.40676358582155 L 33.32540993906926 -159.0283107498649 L 43.390326924238906 -162.29860051929563 L 38.718484396480704 -176.6770533552523 L 59.61159934096429 -183.4656379163731 L 72.52425450751353 -165.69289279985605 L 60.293211979755334 -156.80652024159753 L 66.51367277053632 -148.24479047216676 L 78.74471529829451 -157.1311630304253 L 173.77407175751213 -26.334474885947913 L 161.54302922975396 -17.448102327689384 L 167.76349002053493 -8.886372558258671 L 179.9945325482931 -17.7727451165172 L 192.90718771484237 -1.7053025658242404e-13 Z"
             id="path72" />
        </g>
      </g>
      <g
         class="faces-group"
         id="g78" />
    </g>
  </g>
  <g
     transform="translate(100,0)"
     id="g86">
    <path
       d="M 0 0 L 43.37190717877706 0 L 43.37190717877706 9.449 L 28.253507178777056 9.449 L 28.253507178777056 20.03188 L 43.37190717877706 20.03188 L 43.37190717877706 29.48088 L 18.218426414049254 29.48088 L 6.9675046621104535 51.97786544946148 L -1.4835728448264618 47.75141422275309 L 5.278749117906965 34.229690211654024 L -4.186457689862387 29.496064837740622 L -10.948779652595814 43.01778884883969 L -19.399857159532733 38.7913376221313 Z"
       fill="none"
       stroke="red"
       id="path84" />
  </g>
  <g
     transform="translate(0,51.977867126464844)"
     id="g324">
    <g
       transform="translate(82.77176284790039,20)"
       id="g90">
      <path
         d="M 0 0 L 43.37190717877706 0 L 43.37190717877706 9.449 L 28.253507178777056 9.449 L 28.253507178777056 20.03188 L 43.37190717877706 20.03188 L 43.37190717877706 29.48088 L 18.218426414049254 29.48088 L 6.9675046621104535 51.97786544946148 L -1.4835728448264618 47.75141422275309 L 5.278749117906965 34.229690211654024 L -4.186457689862387 29.496064837740622 L -10.948779652595814 43.01778884883969 L -19.399857159532733 38.7913376221313 Z"
         fill="none"
         stroke="red"
         id="path88" />
    </g>
    <g
       transform="translate(155.54352569580078,20)"
       id="g94">
      <path
         d="M 0 0 L 43.37190717877706 0 L 43.37190717877706 9.449 L 28.253507178777056 9.449 L 28.253507178777056 20.03188 L 43.37190717877706 20.03188 L 43.37190717877706 29.48088 L 18.218426414049254 29.48088 L 6.9675046621104535 51.97786544946148 L -1.4835728448264618 47.75141422275309 L 5.278749117906965 34.229690211654024 L -4.186457689862387 29.496064837740622 L -10.948779652595814 43.01778884883969 L -19.399857159532733 38.7913376221313 Z"
         fill="none"
         stroke="red"
         id="path92" />
    </g>
    <g
       transform="translate(228.31528854370117,20)"
       id="g98">
      <path
         d="M 0 0 L 43.37190717877706 0 L 43.37190717877706 9.449 L 28.253507178777056 9.449 L 28.253507178777056 20.03188 L 43.37190717877706 20.03188 L 43.37190717877706 29.48088 L 18.218426414049254 29.48088 L 6.9675046621104535 51.97786544946148 L -1.4835728448264618 47.75141422275309 L 5.278749117906965 34.229690211654024 L -4.186457689862387 29.496064837740622 L -10.948779652595814 43.01778884883969 L -19.399857159532733 38.7913376221313 Z"
         fill="none"
         stroke="red"
         id="path96" />
    </g>
    <g
       transform="translate(301.08705139160156,20)"
       id="g102">
      <path
         d="M 0 0 L 43.37190717877706 0 L 43.37190717877706 9.449 L 28.253507178777056 9.449 L 28.253507178777056 20.03188 L 43.37190717877706 20.03188 L 43.37190717877706 29.48088 L 18.218426414049254 29.48088 L 6.9675046621104535 51.97786544946148 L -1.4835728448264618 47.75141422275309 L 5.278749117906965 34.229690211654024 L -4.186457689862387 29.496064837740622 L -10.948779652595814 43.01778884883969 L -19.399857159532733 38.7913376221313 Z"
         fill="none"
         stroke="red"
         id="path100" />
    </g>
    <g
       transform="translate(10,81.97786712646484)"
       id="g106">
      <path
         d="M 0 0 L 43.37190717877706 0 L 43.37190717877706 9.449 L 28.253507178777056 9.449 L 28.253507178777056 20.03188 L 43.37190717877706 20.03188 L 43.37190717877706 29.48088 L 18.218426414049254 29.48088 L 6.9675046621104535 51.97786544946148 L -1.4835728448264618 47.75141422275309 L 5.278749117906965 34.229690211654024 L -4.186457689862387 29.496064837740622 L -10.948779652595814 43.01778884883969 L -19.399857159532733 38.7913376221313 Z"
         fill="none"
         stroke="red"
         id="path104" />
    </g>
    <g
       transform="translate(82.77176284790039,81.97786712646484)"
       id="g110">
      <path
         d="M 0 0 L 43.37190717877706 0 L 43.37190717877706 9.449 L 28.253507178777056 9.449 L 28.253507178777056 20.03188 L 43.37190717877706 20.03188 L 43.37190717877706 29.48088 L 18.218426414049254 29.48088 L 6.9675046621104535 51.97786544946148 L -1.4835728448264618 47.75141422275309 L 5.278749117906965 34.229690211654024 L -4.186457689862387 29.496064837740622 L -10.948779652595814 43.01778884883969 L -19.399857159532733 38.7913376221313 Z"
         fill="none"
         stroke="red"
         id="path108" />
    </g>
    <g
       transform="translate(155.54352569580078,81.97786712646484)"
       id="g114">
      <path
         d="M 0 0 L 43.37190717877706 0 L 43.37190717877706 9.449 L 28.253507178777056 9.449 L 28.253507178777056 20.03188 L 43.37190717877706 20.03188 L 43.37190717877706 29.48088 L 18.218426414049254 29.48088 L 6.9675046621104535 51.97786544946148 L -1.4835728448264618 47.75141422275309 L 5.278749117906965 34.229690211654024 L -4.186457689862387 29.496064837740622 L -10.948779652595814 43.01778884883969 L -19.399857159532733 38.7913376221313 Z"
         fill="none"
         stroke="red"
         id="path112" />
    </g>
    <g
       transform="translate(228.31528854370117,81.97786712646484)"
       id="g118">
      <path
         d="M 0 0 L 43.37190717877706 0 L 43.37190717877706 9.449 L 28.253507178777056 9.449 L 28.253507178777056 20.03188 L 43.37190717877706 20.03188 L 43.37190717877706 29.48088 L 18.218426414049254 29.48088 L 6.9675046621104535 51.97786544946148 L -1.4835728448264618 47.75141422275309 L 5.278749117906965 34.229690211654024 L -4.186457689862387 29.496064837740622 L -10.948779652595814 43.01778884883969 L -19.399857159532733 38.7913376221313 Z"
         fill="none"
         stroke="red"
         id="path116" />
    </g>
    <g
       transform="translate(301.08705139160156,81.97786712646484)"
       id="g122">
      <path
         d="M 0 0 L 43.37190717877706 0 L 43.37190717877706 9.449 L 28.253507178777056 9.449 L 28.253507178777056 20.03188 L 43.37190717877706 20.03188 L 43.37190717877706 29.48088 L 18.218426414049254 29.48088 L 6.9675046621104535 51.97786544946148 L -1.4835728448264618 47.75141422275309 L 5.278749117906965 34.229690211654024 L -4.186457689862387 29.496064837740622 L -10.948779652595814 43.01778884883969 L -19.399857159532733 38.7913376221313 Z"
         fill="none"
         stroke="red"
         id="path120" />
    </g>
    <g
       transform="translate(10,143.9557342529297)"
       id="g126">
      <path
         d="M 0 0 L 43.37190717877706 0 L 43.37190717877706 9.449 L 28.253507178777056 9.449 L 28.253507178777056 20.03188 L 43.37190717877706 20.03188 L 43.37190717877706 29.48088 L 18.218426414049254 29.48088 L 6.9675046621104535 51.97786544946148 L -1.4835728448264618 47.75141422275309 L 5.278749117906965 34.229690211654024 L -4.186457689862387 29.496064837740622 L -10.948779652595814 43.01778884883969 L -19.399857159532733 38.7913376221313 Z"
         fill="none"
         stroke="red"
         id="path124" />
    </g>
    <g
       transform="translate(82.77176284790039,143.9557342529297)"
       id="g130">
      <path
         d="M 0 0 L 43.37190717877706 0 L 43.37190717877706 9.449 L 28.253507178777056 9.449 L 28.253507178777056 20.03188 L 43.37190717877706 20.03188 L 43.37190717877706 29.48088 L 18.218426414049254 29.48088 L 6.9675046621104535 51.97786544946148 L -1.4835728448264618 47.75141422275309 L 5.278749117906965 34.229690211654024 L -4.186457689862387 29.496064837740622 L -10.948779652595814 43.01778884883969 L -19.399857159532733 38.7913376221313 Z"
         fill="none"
         stroke="red"
         id="path128" />
    </g>
    <g
       transform="translate(155.54352569580078,143.9557342529297)"
       id="g134">
      <path
         d="M 0 0 L 43.37190717877706 0 L 43.37190717877706 9.449 L 28.253507178777056 9.449 L 28.253507178777056 20.03188 L 43.37190717877706 20.03188 L 43.37190717877706 29.48088 L 18.218426414049254 29.48088 L 6.9675046621104535 51.97786544946148 L -1.4835728448264618 47.75141422275309 L 5.278749117906965 34.229690211654024 L -4.186457689862387 29.496064837740622 L -10.948779652595814 43.01778884883969 L -19.399857159532733 38.7913376221313 Z"
         fill="none"
         stroke="red"
         id="path132" />
    </g>
    <g
       transform="translate(228.31528854370117,143.9557342529297)"
       id="g138">
      <path
         d="M 0 0 L 43.37190717877706 0 L 43.37190717877706 9.449 L 28.253507178777056 9.449 L 28.253507178777056 20.03188 L 43.37190717877706 20.03188 L 43.37190717877706 29.48088 L 18.218426414049254 29.48088 L 6.9675046621104535 51.97786544946148 L -1.4835728448264618 47.75141422275309 L 5.278749117906965 34.229690211654024 L -4.186457689862387 29.496064837740622 L -10.948779652595814 43.01778884883969 L -19.399857159532733 38.7913376221313 Z"
         fill="none"
         stroke="red"
         id="path136" />
    </g>
    <g
       transform="translate(301.08705139160156,143.9557342529297)"
       id="g142">
      <path
         d="M 0 0 L 43.37190717877706 0 L 43.37190717877706 9.449 L 28.253507178777056 9.449 L 28.253507178777056 20.03188 L 43.37190717877706 20.03188 L 43.37190717877706 29.48088 L 18.218426414049254 29.48088 L 6.9675046621104535 51.97786544946148 L -1.4835728448264618 47.75141422275309 L 5.278749117906965 34.229690211654024 L -4.186457689862387 29.496064837740622 L -10.948779652595814 43.01778884883969 L -19.399857159532733 38.7913376221313 Z"
         fill="none"
         stroke="red"
         id="path140" />
    </g>
    <g
       transform="translate(10,205.93360137939453)"
       id="g146">
      <path
         d="M 0 0 L 43.37190717877706 0 L 43.37190717877706 9.449 L 28.253507178777056 9.449 L 28.253507178777056 20.03188 L 43.37190717877706 20.03188 L 43.37190717877706 29.48088 L 18.218426414049254 29.48088 L 6.9675046621104535 51.97786544946148 L -1.4835728448264618 47.75141422275309 L 5.278749117906965 34.229690211654024 L -4.186457689862387 29.496064837740622 L -10.948779652595814 43.01778884883969 L -19.399857159532733 38.7913376221313 Z"
         fill="none"
         stroke="red"
         id="path144" />
    </g>
    <g
       transform="translate(82.77176284790039,205.93360137939453)"
       id="g150">
      <path
         d="M 0 0 L 43.37190717877706 0 L 43.37190717877706 9.449 L 28.253507178777056 9.449 L 28.253507178777056 20.03188 L 43.37190717877706 20.03188 L 43.37190717877706 29.48088 L 18.218426414049254 29.48088 L 6.9675046621104535 51.97786544946148 L -1.4835728448264618 47.75141422275309 L 5.278749117906965 34.229690211654024 L -4.186457689862387 29.496064837740622 L -10.948779652595814 43.01778884883969 L -19.399857159532733 38.7913376221313 Z"
         fill="none"
         stroke="red"
         id="path148" />
    </g>
    <g
       transform="translate(155.54352569580078,205.93360137939453)"
       id="g154">
      <path
         d="M 0 0 L 43.37190717877706 0 L 43.37190717877706 9.449 L 28.253507178777056 9.449 L 28.253507178777056 20.03188 L 43.37190717877706 20.03188 L 43.37190717877706 29.48088 L 18.218426414049254 29.48088 L 6.9675046621104535 51.97786544946148 L -1.4835728448264618 47.75141422275309 L 5.278749117906965 34.229690211654024 L -4.186457689862387 29.496064837740622 L -10.948779652595814 43.01778884883969 L -19.399857159532733 38.7913376221313 Z"
         fill="none"
         stroke="red"
         id="path152" />
    </g>
    <g
       transform="translate(228.31528854370117,205.93360137939453)"
       id="g158">
      <path
         d="M 0 0 L 43.37190717877706 0 L 43.37190717877706 9.449 L 28.253507178777056 9.449 L 28.253507178777056 20.03188 L 43.37190717877706 20.03188 L 43.37190717877706 29.48088 L 18.218426414049254 29.48088 L 6.9675046621104535 51.97786544946148 L -1.4835728448264618 47.75141422275309 L 5.278749117906965 34.229690211654024 L -4.186457689862387 29.496064837740622 L -10.948779652595814 43.01778884883969 L -19.399857159532733 38.7913376221313 Z"
         fill="none"
         stroke="red"
         id="path156" />
    </g>
    <g
       transform="translate(301.08705139160156,205.93360137939453)"
       id="g162">
      <path
         d="M 0 0 L 43.37190717877706 0 L 43.37190717877706 9.449 L 28.253507178777056 9.449 L 28.253507178777056 20.03188 L 43.37190717877706 20.03188 L 43.37190717877706 29.48088 L 18.218426414049254 29.48088 L 6.9675046621104535 51.97786544946148 L -1.4835728448264618 47.75141422275309 L 5.278749117906965 34.229690211654024 L -4.186457689862387 29.496064837740622 L -10.948779652595814 43.01778884883969 L -19.399857159532733 38.7913376221313 Z"
         fill="none"
         stroke="red"
         id="path160" />
    </g>
    <g
       transform="translate(10,267.9114685058594)"
       id="g166">
      <path
         d="M 0 0 L 43.37190717877706 0 L 43.37190717877706 9.449 L 28.253507178777056 9.449 L 28.253507178777056 20.03188 L 43.37190717877706 20.03188 L 43.37190717877706 29.48088 L 18.218426414049254 29.48088 L 6.9675046621104535 51.97786544946148 L -1.4835728448264618 47.75141422275309 L 5.278749117906965 34.229690211654024 L -4.186457689862387 29.496064837740622 L -10.948779652595814 43.01778884883969 L -19.399857159532733 38.7913376221313 Z"
         fill="none"
         stroke="red"
         id="path164" />
    </g>
    <g
       transform="translate(82.77176284790039,267.9114685058594)"
       id="g170">
      <path
         d="M 0 0 L 43.37190717877706 0 L 43.37190717877706 9.449 L 28.253507178777056 9.449 L 28.253507178777056 20.03188 L 43.37190717877706 20.03188 L 43.37190717877706 29.48088 L 18.218426414049254 29.48088 L 6.9675046621104535 51.97786544946148 L -1.4835728448264618 47.75141422275309 L 5.278749117906965 34.229690211654024 L -4.186457689862387 29.496064837740622 L -10.948779652595814 43.01778884883969 L -19.399857159532733 38.7913376221313 Z"
         fill="none"
         stroke="red"
         id="path168" />
    </g>
    <g
       transform="translate(155.54352569580078,267.9114685058594)"
       id="g174">
      <path
         d="M 0 0 L 43.37190717877706 0 L 43.37190717877706 9.449 L 28.253507178777056 9.449 L 28.253507178777056 20.03188 L 43.37190717877706 20.03188 L 43.37190717877706 29.48088 L 18.218426414049254 29.48088 L 6.9675046621104535 51.97786544946148 L -1.4835728448264618 47.75141422275309 L 5.278749117906965 34.229690211654024 L -4.186457689862387 29.496064837740622 L -10.948779652595814 43.01778884883969 L -19.399857159532733 38.7913376221313 Z"
         fill="none"
         stroke="red"
         id="path172" />
    </g>
    <g
       transform="translate(228.31528854370117,267.9114685058594)"
       id="g178">
      <path
         d="M 0 0 L 43.37190717877706 0 L 43.37190717877706 9.449 L 28.253507178777056 9.449 L 28.253507178777056 20.03188 L 43.37190717877706 20.03188 L 43.37190717877706 29.48088 L 18.218426414049254 29.48088 L 6.9675046621104535 51.97786544946148 L -1.4835728448264618 47.75141422275309 L 5.278749117906965 34.229690211654024 L -4.186457689862387 29.496064837740622 L -10.948779652595814 43.01778884883969 L -19.399857159532733 38.7913376221313 Z"
         fill="none"
         stroke="red"
         id="path176" />
    </g>
    <g
       transform="translate(301.08705139160156,267.9114685058594)"
       id="g182">
      <path
         d="M 0 0 L 43.37190717877706 0 L 43.37190717877706 9.449 L 28.253507178777056 9.449 L 28.253507178777056 20.03188 L 43.37190717877706 20.03188 L 43.37190717877706 29.48088 L 18.218426414049254 29.48088 L 6.9675046621104535 51.97786544946148 L -1.4835728448264618 47.75141422275309 L 5.278749117906965 34.229690211654024 L -4.186457689862387 29.496064837740622 L -10.948779652595814 43.01778884883969 L -19.399857159532733 38.7913376221313 Z"
         fill="none"
         stroke="red"
         id="path180" />
    </g>
    <g
       transform="translate(10,329.8893356323242)"
       id="g186">
      <path
         d="M 0 0 L 43.37190717877706 0 L 43.37190717877706 9.449 L 28.253507178777056 9.449 L 28.253507178777056 20.03188 L 43.37190717877706 20.03188 L 43.37190717877706 29.48088 L 18.218426414049254 29.48088 L 6.9675046621104535 51.97786544946148 L -1.4835728448264618 47.75141422275309 L 5.278749117906965 34.229690211654024 L -4.186457689862387 29.496064837740622 L -10.948779652595814 43.01778884883969 L -19.399857159532733 38.7913376221313 Z"
         fill="none"
         stroke="red"
         id="path184" />
    </g>
    <g
       transform="translate(82.77176284790039,329.8893356323242)"
       id="g190">
      <path
         d="M 0 0 L 43.37190717877706 0 L 43.37190717877706 9.449 L 28.253507178777056 9.449 L 28.253507178777056 20.03188 L 43.37190717877706 20.03188 L 43.37190717877706 29.48088 L 18.218426414049254 29.48088 L 6.9675046621104535 51.97786544946148 L -1.4835728448264618 47.75141422275309 L 5.278749117906965 34.229690211654024 L -4.186457689862387 29.496064837740622 L -10.948779652595814 43.01778884883969 L -19.399857159532733 38.7913376221313 Z"
         fill="none"
         stroke="red"
         id="path188" />
    </g>
    <g
       transform="translate(155.54352569580078,329.8893356323242)"
       id="g194">
      <path
         d="M 0 0 L 43.37190717877706 0 L 43.37190717877706 9.449 L 28.253507178777056 9.449 L 28.253507178777056 20.03188 L 43.37190717877706 20.03188 L 43.37190717877706 29.48088 L 18.218426414049254 29.48088 L 6.9675046621104535 51.97786544946148 L -1.4835728448264618 47.75141422275309 L 5.278749117906965 34.229690211654024 L -4.186457689862387 29.496064837740622 L -10.948779652595814 43.01778884883969 L -19.399857159532733 38.7913376221313 Z"
         fill="none"
         stroke="red"
         id="path192" />
    </g>
    <g
       transform="translate(228.31528854370117,329.8893356323242)"
       id="g198">
      <path
         d="M 0 0 L 43.37190717877706 0 L 43.37190717877706 9.449 L 28.253507178777056 9.449 L 28.253507178777056 20.03188 L 43.37190717877706 20.03188 L 43.37190717877706 29.48088 L 18.218426414049254 29.48088 L 6.9675046621104535 51.97786544946148 L -1.4835728448264618 47.75141422275309 L 5.278749117906965 34.229690211654024 L -4.186457689862387 29.496064837740622 L -10.948779652595814 43.01778884883969 L -19.399857159532733 38.7913376221313 Z"
         fill="none"
         stroke="red"
         id="path196" />
    </g>
    <g
       transform="translate(301.08705139160156,329.8893356323242)"
       id="g202">
      <path
         d="M 0 0 L 43.37190717877706 0 L 43.37190717877706 9.449 L 28.253507178777056 9.449 L 28.253507178777056 20.03188 L 43.37190717877706 20.03188 L 43.37190717877706 29.48088 L 18.218426414049254 29.48088 L 6.9675046621104535 51.97786544946148 L -1.4835728448264618 47.75141422275309 L 5.278749117906965 34.229690211654024 L -4.186457689862387 29.496064837740622 L -10.948779652595814 43.01778884883969 L -19.399857159532733 38.7913376221313 Z"
         fill="none"
         stroke="red"
         id="path200" />
    </g>
    <g
       transform="translate(10,391.86720275878906)"
       id="g206">
      <path
         d="M 0 0 L 43.37190717877706 0 L 43.37190717877706 9.449 L 28.253507178777056 9.449 L 28.253507178777056 20.03188 L 43.37190717877706 20.03188 L 43.37190717877706 29.48088 L 18.218426414049254 29.48088 L 6.9675046621104535 51.97786544946148 L -1.4835728448264618 47.75141422275309 L 5.278749117906965 34.229690211654024 L -4.186457689862387 29.496064837740622 L -10.948779652595814 43.01778884883969 L -19.399857159532733 38.7913376221313 Z"
         fill="none"
         stroke="red"
         id="path204" />
    </g>
    <g
       transform="translate(82.77176284790039,391.86720275878906)"
       id="g210">
      <path
         d="M 0 0 L 43.37190717877706 0 L 43.37190717877706 9.449 L 28.253507178777056 9.449 L 28.253507178777056 20.03188 L 43.37190717877706 20.03188 L 43.37190717877706 29.48088 L 18.218426414049254 29.48088 L 6.9675046621104535 51.97786544946148 L -1.4835728448264618 47.75141422275309 L 5.278749117906965 34.229690211654024 L -4.186457689862387 29.496064837740622 L -10.948779652595814 43.01778884883969 L -19.399857159532733 38.7913376221313 Z"
         fill="none"
         stroke="red"
         id="path208" />
    </g>
    <g
       transform="translate(155.54352569580078,391.86720275878906)"
       id="g214">
      <path
         d="M 0 0 L 43.37190717877706 0 L 43.37190717877706 9.449 L 28.253507178777056 9.449 L 28.253507178777056 20.03188 L 43.37190717877706 20.03188 L 43.37190717877706 29.48088 L 18.218426414049254 29.48088 L 6.9675046621104535 51.97786544946148 L -1.4835728448264618 47.75141422275309 L 5.278749117906965 34.229690211654024 L -4.186457689862387 29.496064837740622 L -10.948779652595814 43.01778884883969 L -19.399857159532733 38.7913376221313 Z"
         fill="none"
         stroke="red"
         id="path212" />
    </g>
    <g
       transform="translate(228.31528854370117,391.86720275878906)"
       id="g218">
      <path
         d="M 0 0 L 43.37190717877706 0 L 43.37190717877706 9.449 L 28.253507178777056 9.449 L 28.253507178777056 20.03188 L 43.37190717877706 20.03188 L 43.37190717877706 29.48088 L 18.218426414049254 29.48088 L 6.9675046621104535 51.97786544946148 L -1.4835728448264618 47.75141422275309 L 5.278749117906965 34.229690211654024 L -4.186457689862387 29.496064837740622 L -10.948779652595814 43.01778884883969 L -19.399857159532733 38.7913376221313 Z"
         fill="none"
         stroke="red"
         id="path216" />
    </g>
    <g
       transform="translate(301.08705139160156,391.86720275878906)"
       id="g222">
      <path
         d="M 0 0 L 43.37190717877706 0 L 43.37190717877706 9.449 L 28.253507178777056 9.449 L 28.253507178777056 20.03188 L 43.37190717877706 20.03188 L 43.37190717877706 29.48088 L 18.218426414049254 29.48088 L 6.9675046621104535 51.97786544946148 L -1.4835728448264618 47.75141422275309 L 5.278749117906965 34.229690211654024 L -4.186457689862387 29.496064837740622 L -10.948779652595814 43.01778884883969 L -19.399857159532733 38.7913376221313 Z"
         fill="none"
         stroke="red"
         id="path220" />
    </g>
    <g
       transform="translate(10,453.8450698852539)"
       id="g226">
      <path
         d="M 0 0 L 43.37190717877706 0 L 43.37190717877706 9.449 L 28.253507178777056 9.449 L 28.253507178777056 20.03188 L 43.37190717877706 20.03188 L 43.37190717877706 29.48088 L 18.218426414049254 29.48088 L 6.9675046621104535 51.97786544946148 L -1.4835728448264618 47.75141422275309 L 5.278749117906965 34.229690211654024 L -4.186457689862387 29.496064837740622 L -10.948779652595814 43.01778884883969 L -19.399857159532733 38.7913376221313 Z"
         fill="none"
         stroke="red"
         id="path224" />
    </g>
    <g
       transform="translate(82.77176284790039,453.8450698852539)"
       id="g230">
      <path
         d="M 0 0 L 43.37190717877706 0 L 43.37190717877706 9.449 L 28.253507178777056 9.449 L 28.253507178777056 20.03188 L 43.37190717877706 20.03188 L 43.37190717877706 29.48088 L 18.218426414049254 29.48088 L 6.9675046621104535 51.97786544946148 L -1.4835728448264618 47.75141422275309 L 5.278749117906965 34.229690211654024 L -4.186457689862387 29.496064837740622 L -10.948779652595814 43.01778884883969 L -19.399857159532733 38.7913376221313 Z"
         fill="none"
         stroke="red"
         id="path228" />
    </g>
    <g
       transform="translate(155.54352569580078,453.8450698852539)"
       id="g234">
      <path
         d="M 0 0 L 43.37190717877706 0 L 43.37190717877706 9.449 L 28.253507178777056 9.449 L 28.253507178777056 20.03188 L 43.37190717877706 20.03188 L 43.37190717877706 29.48088 L 18.218426414049254 29.48088 L 6.9675046621104535 51.97786544946148 L -1.4835728448264618 47.75141422275309 L 5.278749117906965 34.229690211654024 L -4.186457689862387 29.496064837740622 L -10.948779652595814 43.01778884883969 L -19.399857159532733 38.7913376221313 Z"
         fill="none"
         stroke="red"
         id="path232" />
    </g>
    <g
       transform="translate(228.31528854370117,453.8450698852539)"
       id="g238">
      <path
         d="M 0 0 L 43.37190717877706 0 L 43.37190717877706 9.449 L 28.253507178777056 9.449 L 28.253507178777056 20.03188 L 43.37190717877706 20.03188 L 43.37190717877706 29.48088 L 18.218426414049254 29.48088 L 6.9675046621104535 51.97786544946148 L -1.4835728448264618 47.75141422275309 L 5.278749117906965 34.229690211654024 L -4.186457689862387 29.496064837740622 L -10.948779652595814 43.01778884883969 L -19.399857159532733 38.7913376221313 Z"
         fill="none"
         stroke="red"
         id="path236" />
    </g>
    <g
       transform="translate(301.08705139160156,453.8450698852539)"
       id="g242">
      <path
         d="M 0 0 L 43.37190717877706 0 L 43.37190717877706 9.449 L 28.253507178777056 9.449 L 28.253507178777056 20.03188 L 43.37190717877706 20.03188 L 43.37190717877706 29.48088 L 18.218426414049254 29.48088 L 6.9675046621104535 51.97786544946148 L -1.4835728448264618 47.75141422275309 L 5.278749117906965 34.229690211654024 L -4.186457689862387 29.496064837740622 L -10.948779652595814 43.01778884883969 L -19.399857159532733 38.7913376221313 Z"
         fill="none"
         stroke="red"
         id="path240" />
    </g>
    <g
       transform="translate(10,515.8229370117188)"
       id="g246">
      <path
         d="M 0 0 L 43.37190717877706 0 L 43.37190717877706 9.449 L 28.253507178777056 9.449 L 28.253507178777056 20.03188 L 43.37190717877706 20.03188 L 43.37190717877706 29.48088 L 18.218426414049254 29.48088 L 6.9675046621104535 51.97786544946148 L -1.4835728448264618 47.75141422275309 L 5.278749117906965 34.229690211654024 L -4.186457689862387 29.496064837740622 L -10.948779652595814 43.01778884883969 L -19.399857159532733 38.7913376221313 Z"
         fill="none"
         stroke="red"
         id="path244" />
    </g>
    <g
       transform="translate(82.77176284790039,515.8229370117188)"
       id="g250">
      <path
         d="M 0 0 L 43.37190717877706 0 L 43.37190717877706 9.449 L 28.253507178777056 9.449 L 28.253507178777056 20.03188 L 43.37190717877706 20.03188 L 43.37190717877706 29.48088 L 18.218426414049254 29.48088 L 6.9675046621104535 51.97786544946148 L -1.4835728448264618 47.75141422275309 L 5.278749117906965 34.229690211654024 L -4.186457689862387 29.496064837740622 L -10.948779652595814 43.01778884883969 L -19.399857159532733 38.7913376221313 Z"
         fill="none"
         stroke="red"
         id="path248" />
    </g>
    <g
       transform="translate(155.54352569580078,515.8229370117188)"
       id="g254">
      <path
         d="M 0 0 L 43.37190717877706 0 L 43.37190717877706 9.449 L 28.253507178777056 9.449 L 28.253507178777056 20.03188 L 43.37190717877706 20.03188 L 43.37190717877706 29.48088 L 18.218426414049254 29.48088 L 6.9675046621104535 51.97786544946148 L -1.4835728448264618 47.75141422275309 L 5.278749117906965 34.229690211654024 L -4.186457689862387 29.496064837740622 L -10.948779652595814 43.01778884883969 L -19.399857159532733 38.7913376221313 Z"
         fill="none"
         stroke="red"
         id="path252" />
    </g>
    <g
       transform="translate(228.31528854370117,515.8229370117188)"
       id="g258">
      <path
         d="M 0 0 L 43.37190717877706 0 L 43.37190717877706 9.449 L 28.253507178777056 9.449 L 28.253507178777056 20.03188 L 43.37190717877706 20.03188 L 43.37190717877706 29.48088 L 18.218426414049254 29.48088 L 6.9675046621104535 51.97786544946148 L -1.4835728448264618 47.75141422275309 L 5.278749117906965 34.229690211654024 L -4.186457689862387 29.496064837740622 L -10.948779652595814 43.01778884883969 L -19.399857159532733 38.7913376221313 Z"
         fill="none"
         stroke="red"
         id="path256" />
    </g>
    <g
       transform="translate(301.08705139160156,515.8229370117188)"
       id="g262">
      <path
         d="M 0 0 L 43.37190717877706 0 L 43.37190717877706 9.449 L 28.253507178777056 9.449 L 28.253507178777056 20.03188 L 43.37190717877706 20.03188 L 43.37190717877706 29.48088 L 18.218426414049254 29.48088 L 6.9675046621104535 51.97786544946148 L -1.4835728448264618 47.75141422275309 L 5.278749117906965 34.229690211654024 L -4.186457689862387 29.496064837740622 L -10.948779652595814 43.01778884883969 L -19.399857159532733 38.7913376221313 Z"
         fill="none"
         stroke="red"
         id="path260" />
    </g>
    <g
       transform="translate(10,577.8008041381836)"
       id="g266">
      <path
         d="M 0 0 L 43.37190717877706 0 L 43.37190717877706 9.449 L 28.253507178777056 9.449 L 28.253507178777056 20.03188 L 43.37190717877706 20.03188 L 43.37190717877706 29.48088 L 18.218426414049254 29.48088 L 6.9675046621104535 51.97786544946148 L -1.4835728448264618 47.75141422275309 L 5.278749117906965 34.229690211654024 L -4.186457689862387 29.496064837740622 L -10.948779652595814 43.01778884883969 L -19.399857159532733 38.7913376221313 Z"
         fill="none"
         stroke="red"
         id="path264" />
    </g>
    <g
       transform="translate(82.77176284790039,577.8008041381836)"
       id="g270">
      <path
         d="M 0 0 L 43.37190717877706 0 L 43.37190717877706 9.449 L 28.253507178777056 9.449 L 28.253507178777056 20.03188 L 43.37190717877706 20.03188 L 43.37190717877706 29.48088 L 18.218426414049254 29.48088 L 6.9675046621104535 51.97786544946148 L -1.4835728448264618 47.75141422275309 L 5.278749117906965 34.229690211654024 L -4.186457689862387 29.496064837740622 L -10.948779652595814 43.01778884883969 L -19.399857159532733 38.7913376221313 Z"
         fill="none"
         stroke="red"
         id="path268" />
    </g>
    <g
       transform="translate(155.54352569580078,577.8008041381836)"
       id="g274">
      <path
         d="M 0 0 L 43.37190717877706 0 L 43.37190717877706 9.449 L 28.253507178777056 9.449 L 28.253507178777056 20.03188 L 43.37190717877706 20.03188 L 43.37190717877706 29.48088 L 18.218426414049254 29.48088 L 6.9675046621104535 51.97786544946148 L -1.4835728448264618 47.75141422275309 L 5.278749117906965 34.229690211654024 L -4.186457689862387 29.496064837740622 L -10.948779652595814 43.01778884883969 L -19.399857159532733 38.7913376221313 Z"
         fill="none"
         stroke="red"
         id="path272" />
    </g>
    <g
       transform="translate(228.31528854370117,577.8008041381836)"
       id="g278">
      <path
         d="M 0 0 L 43.37190717877706 0 L 43.37190717877706 9.449 L 28.253507178777056 9.449 L 28.253507178777056 20.03188 L 43.37190717877706 20.03188 L 43.37190717877706 29.48088 L 18.218426414049254 29.48088 L 6.9675046621104535 51.97786544946148 L -1.4835728448264618 47.75141422275309 L 5.278749117906965 34.229690211654024 L -4.186457689862387 29.496064837740622 L -10.948779652595814 43.01778884883969 L -19.399857159532733 38.7913376221313 Z"
         fill="none"
         stroke="red"
         id="path276" />
    </g>
    <g
       transform="translate(301.08705139160156,577.8008041381836)"
       id="g282">
      <path
         d="M 0 0 L 43.37190717877706 0 L 43.37190717877706 9.449 L 28.253507178777056 9.449 L 28.253507178777056 20.03188 L 43.37190717877706 20.03188 L 43.37190717877706 29.48088 L 18.218426414049254 29.48088 L 6.9675046621104535 51.97786544946148 L -1.4835728448264618 47.75141422275309 L 5.278749117906965 34.229690211654024 L -4.186457689862387 29.496064837740622 L -10.948779652595814 43.01778884883969 L -19.399857159532733 38.7913376221313 Z"
         fill="none"
         stroke="red"
         id="path280" />
    </g>
    <g
       transform="translate(10,639.7786712646484)"
       id="g286">
      <path
         d="M 0 0 L 43.37190717877706 0 L 43.37190717877706 9.449 L 28.253507178777056 9.449 L 28.253507178777056 20.03188 L 43.37190717877706 20.03188 L 43.37190717877706 29.48088 L 18.218426414049254 29.48088 L 6.9675046621104535 51.97786544946148 L -1.4835728448264618 47.75141422275309 L 5.278749117906965 34.229690211654024 L -4.186457689862387 29.496064837740622 L -10.948779652595814 43.01778884883969 L -19.399857159532733 38.7913376221313 Z"
         fill="none"
         stroke="red"
         id="path284" />
    </g>
    <g
       transform="translate(82.77176284790039,639.7786712646484)"
       id="g290">
      <path
         d="M 0 0 L 43.37190717877706 0 L 43.37190717877706 9.449 L 28.253507178777056 9.449 L 28.253507178777056 20.03188 L 43.37190717877706 20.03188 L 43.37190717877706 29.48088 L 18.218426414049254 29.48088 L 6.9675046621104535 51.97786544946148 L -1.4835728448264618 47.75141422275309 L 5.278749117906965 34.229690211654024 L -4.186457689862387 29.496064837740622 L -10.948779652595814 43.01778884883969 L -19.399857159532733 38.7913376221313 Z"
         fill="none"
         stroke="red"
         id="path288" />
    </g>
    <g
       transform="translate(155.54352569580078,639.7786712646484)"
       id="g294">
      <path
         d="M 0 0 L 43.37190717877706 0 L 43.37190717877706 9.449 L 28.253507178777056 9.449 L 28.253507178777056 20.03188 L 43.37190717877706 20.03188 L 43.37190717877706 29.48088 L 18.218426414049254 29.48088 L 6.9675046621104535 51.97786544946148 L -1.4835728448264618 47.75141422275309 L 5.278749117906965 34.229690211654024 L -4.186457689862387 29.496064837740622 L -10.948779652595814 43.01778884883969 L -19.399857159532733 38.7913376221313 Z"
         fill="none"
         stroke="red"
         id="path292" />
    </g>
    <g
       transform="translate(228.31528854370117,639.7786712646484)"
       id="g298">
      <path
         d="M 0 0 L 43.37190717877706 0 L 43.37190717877706 9.449 L 28.253507178777056 9.449 L 28.253507178777056 20.03188 L 43.37190717877706 20.03188 L 43.37190717877706 29.48088 L 18.218426414049254 29.48088 L 6.9675046621104535 51.97786544946148 L -1.4835728448264618 47.75141422275309 L 5.278749117906965 34.229690211654024 L -4.186457689862387 29.496064837740622 L -10.948779652595814 43.01778884883969 L -19.399857159532733 38.7913376221313 Z"
         fill="none"
         stroke="red"
         id="path296" />
    </g>
    <g
       transform="translate(301.08705139160156,639.7786712646484)"
       id="g302">
      <path
         d="M 0 0 L 43.37190717877706 0 L 43.37190717877706 9.449 L 28.253507178777056 9.449 L 28.253507178777056 20.03188 L 43.37190717877706 20.03188 L 43.37190717877706 29.48088 L 18.218426414049254 29.48088 L 6.9675046621104535 51.97786544946148 L -1.4835728448264618 47.75141422275309 L 5.278749117906965 34.229690211654024 L -4.186457689862387 29.496064837740622 L -10.948779652595814 43.01778884883969 L -19.399857159532733 38.7913376221313 Z"
         fill="none"
         stroke="red"
         id="path300" />
    </g>
    <g
       transform="translate(10,701.7565383911133)"
       id="g306">
      <path
         d="M 0 0 L 43.37190717877706 0 L 43.37190717877706 9.449 L 28.253507178777056 9.449 L 28.253507178777056 20.03188 L 43.37190717877706 20.03188 L 43.37190717877706 29.48088 L 18.218426414049254 29.48088 L 6.9675046621104535 51.97786544946148 L -1.4835728448264618 47.75141422275309 L 5.278749117906965 34.229690211654024 L -4.186457689862387 29.496064837740622 L -10.948779652595814 43.01778884883969 L -19.399857159532733 38.7913376221313 Z"
         fill="none"
         stroke="red"
         id="path304" />
    </g>
    <g
       transform="translate(82.77176284790039,701.7565383911133)"
       id="g310">
      <path
         d="M 0 0 L 43.37190717877706 0 L 43.37190717877706 9.449 L 28.253507178777056 9.449 L 28.253507178777056 20.03188 L 43.37190717877706 20.03188 L 43.37190717877706 29.48088 L 18.218426414049254 29.48088 L 6.9675046621104535 51.97786544946148 L -1.4835728448264618 47.75141422275309 L 5.278749117906965 34.229690211654024 L -4.186457689862387 29.496064837740622 L -10.948779652595814 43.01778884883969 L -19.399857159532733 38.7913376221313 Z"
         fill="none"
         stroke="red"
         id="path308" />
    </g>
    <g
       transform="translate(155.54352569580078,701.7565383911133)"
       id="g314">
      <path
         d="M 0 0 L 43.37190717877706 0 L 43.37190717877706 9.449 L 28.253507178777056 9.449 L 28.253507178777056 20.03188 L 43.37190717877706 20.03188 L 43.37190717877706 29.48088 L 18.218426414049254 29.48088 L 6.9675046621104535 51.97786544946148 L -1.4835728448264618 47.75141422275309 L 5.278749117906965 34.229690211654024 L -4.186457689862387 29.496064837740622 L -10.948779652595814 43.01778884883969 L -19.399857159532733 38.7913376221313 Z"
         fill="none"
         stroke="red"
         id="path312" />
    </g>
    <g
       transform="translate(228.31528854370117,701.7565383911133)"
       id="g318">
      <path
         d="M 0 0 L 43.37190717877706 0 L 43.37190717877706 9.449 L 28.253507178777056 9.449 L 28.253507178777056 20.03188 L 43.37190717877706 20.03188 L 43.37190717877706 29.48088 L 18.218426414049254 29.48088 L 6.9675046621104535 51.97786544946148 L -1.4835728448264618 47.75141422275309 L 5.278749117906965 34.229690211654024 L -4.186457689862387 29.496064837740622 L -10.948779652595814 43.01778884883969 L -19.399857159532733 38.7913376221313 Z"
         fill="none"
         stroke="red"
         id="path316" />
    </g>
    <g
       transform="translate(301.08705139160156,701.7565383911133)"
       id="g322">
      <path
         d="M 0 0 L 43.37190717877706 0 L 43.37190717877706 9.449 L 28.253507178777056 9.449 L 28.253507178777056 20.03188 L 43.37190717877706 20.03188 L 43.37190717877706 29.48088 L 18.218426414049254 29.48088 L 6.9675046621104535 51.97786544946148 L -1.4835728448264618 47.75141422275309 L 5.278749117906965 34.229690211654024 L -4.186457689862387 29.496064837740622 L -10.948779652595814 43.01778884883969 L -19.399857159532733 38.7913376221313 Z"
         fill="none"
         stroke="red"
         id="path320" />
    </g>
  </g>
  <rect
     id="bin"
     width="1311.5212"
     height="933.5612"
     fill="none"
     stroke="black" />
</svg>
