<?xml version="1.0" encoding="UTF-8" standalone="no"?>
<svg
   xmlns:dc="http://purl.org/dc/elements/1.1/"
   xmlns:cc="http://creativecommons.org/ns#"
   xmlns:rdf="http://www.w3.org/1999/02/22-rdf-syntax-ns#"
   xmlns:svg="http://www.w3.org/2000/svg"
   xmlns="http://www.w3.org/2000/svg"
   xmlns:sodipodi="http://sodipodi.sourceforge.net/DTD/sodipodi-0.dtd"
   xmlns:inkscape="http://www.inkscape.org/namespaces/inkscape"
   id="svg"
   version="1.1"
   sodipodi:docname="popup-outer-pentagons.svg"
   inkscape:version="1.0.1 (3bc2e813f5, 2020-09-07)">
  <metadata
     id="metadata563">
    <rdf:RDF>
      <cc:Work
         rdf:about="">
        <dc:format>image/svg+xml</dc:format>
        <dc:type
           rdf:resource="http://purl.org/dc/dcmitype/StillImage" />
        <dc:title></dc:title>
      </cc:Work>
    </rdf:RDF>
  </metadata>
  <defs
     id="defs561" />
  <sodipodi:namedview
     pagecolor="#ffffff"
     bordercolor="#666666"
     borderopacity="1"
     objecttolerance="10"
     gridtolerance="10"
     guidetolerance="10"
     inkscape:pageopacity="0"
     inkscape:pageshadow="2"
     inkscape:window-width="701"
     inkscape:window-height="480"
     id="namedview559"
     showgrid="false"
     inkscape:zoom="3.5533333"
     inkscape:cx="150"
     inkscape:cy="75"
     inkscape:window-x="0"
     inkscape:window-y="0"
     inkscape:window-maximized="0"
     inkscape:current-layer="svg" />
  <g
     id="pop-up"
     transform="translate(200,200)">
    <g
       id="g99">
      <path
         class="guide"
         id="pentagon"
         d="M170.4013491481106, 0L52.656912751185146, -162.0613134927962L-137.85758732524042, -100.1594L-137.85758732524044, 100.15939999999998L52.65691275118511, 162.06131349279622ZM203.10424684241804, 0L62.762663904031434, 193.16361744670104L-164.31478732524042, 119.38168097194345L-164.31478732524045, -119.3816809719434L62.762663904031385, -193.16361744670107Z"
         fill="none"
         stroke="black"
         style="display: none;" />
      <path
         class="guide"
         d="M5.553982848911579, 7.6444015798488785L127.7852760103479, -81.16183115502545L116.67731031252475, -96.4506343147232L-5.553982848911579, -7.6444015798488785ZM8.986533022472907, -2.919901579848877L-37.70166647634317, -146.61140455770908L-55.67473252128898, -140.77160139801134L-8.986533022472907, 2.919901579848877ZM1.157168760514334e-15, -9.449L-151.08618732524047, -9.449000000000018L-151.08618732524047, 9.448999999999982L-1.157168760514334e-15, 9.449ZM-8.986533022472905, -2.9199015798488794L-55.674732521289016, 140.7716013980113L-37.701666476343206, 146.61140455770905L8.986533022472905, 2.9199015798488794ZM-5.553982848911581, 7.644401579848878L116.67731031252472, 96.45063431472323L127.7852760103479, 81.16183115502548L5.553982848911581, -7.644401579848878Z"
         fill="none"
         stroke="black"
         style="display: none;"
         id="path3" />
      <path
         d="M203.10424684241804, 0L62.762663904031434, 193.16361744670104L-164.31478732524042, 119.38168097194345L-164.31478732524045, -119.3816809719434L62.762663904031385, -193.16361744670107ZM11.679606319395505, 35.94613208989163L-1.7016664763432061, 35.94613208989163L-34, 134L52.65691275118511, 162.06131349279622L106, 89L23, 28ZM-137.85758732524044, 100.15939999999998L-52, 128L-20, 30L-30.577606319395514, 22.21593139564631L-34.577606319395514, 9.448999999999982L-137.85758732524044, 9.448999999999982ZM34, -13L37.796, 0L34, 13L117, 73L170.4013491481106, 0L117, -73ZM-137.85758732524042, -100.1594L-137.85758732524044, -9.449L-34.796, -9.449L-30.57760631939551, -22.21593139564632L-20, -30L-52, -128ZM-34, -134L-2.0134669775270932, -35.94613208989163L11.679606319395514, -35.94613208989162L23, -28L106, -89L52.656912751185146, -162.0613134927962Z"
         fill="none"
         stroke="red"
         id="path5" />
      <circle
         cx="0"
         cy="0"
         fill="none"
         stroke="red"
         r="5.6693999999999996"
         id="circle7" />
      <g
         transform="rotate(0) translate(-151.08618732524047,0)"
         id="g25">
        <g
           transform="rotate(90) translate(-24.000459999999997,-10.11043)translate(75.26771902805656,0)"
           id="g15">
          <rect
             class="guide"
             x="0"
             y="0"
             fill="none"
             stroke="blue"
             width="48.000919999999994"
             height="20.22086"
             style="display: none;"
             id="rect9" />
          <circle
             fill="none"
             stroke="red"
             r="4.15756"
             cx="8.882059999999997"
             cy="10.11043"
             id="circle11" />
          <circle
             fill="none"
             stroke="red"
             r="4.15756"
             cx="39.11886"
             cy="10.11043"
             id="circle13" />
        </g>
        <g
           transform="rotate(90) translate(-24.000459999999997,-10.11043)translate(-75.26771902805656,0)"
           id="g23">
          <rect
             class="guide"
             x="0"
             y="0"
             fill="none"
             stroke="blue"
             width="48.000919999999994"
             height="20.22086"
             style="display: none;"
             id="rect17" />
          <circle
             fill="none"
             stroke="red"
             r="4.15756"
             cx="8.882059999999997"
             cy="10.11043"
             id="circle19" />
          <circle
             fill="none"
             stroke="red"
             r="4.15756"
             cx="39.11886"
             cy="10.11043"
             id="circle21" />
        </g>
      </g>
      <g
         transform="rotate(72) translate(-151.08618732524047,0)"
         id="g43">
        <g
           transform="rotate(90) translate(-24.000459999999997,-10.11043)translate(75.26771902805656,0)"
           id="g33">
          <rect
             class="guide"
             x="0"
             y="0"
             fill="none"
             stroke="blue"
             width="48.000919999999994"
             height="20.22086"
             style="display: none;"
             id="rect27" />
          <circle
             fill="none"
             stroke="red"
             r="4.15756"
             cx="8.882059999999997"
             cy="10.11043"
             id="circle29" />
          <circle
             fill="none"
             stroke="red"
             r="4.15756"
             cx="39.11886"
             cy="10.11043"
             id="circle31" />
        </g>
        <g
           transform="rotate(90) translate(-24.000459999999997,-10.11043)translate(-75.26771902805656,0)"
           id="g41">
          <rect
             class="guide"
             x="0"
             y="0"
             fill="none"
             stroke="blue"
             width="48.000919999999994"
             height="20.22086"
             style="display: none;"
             id="rect35" />
          <circle
             fill="none"
             stroke="red"
             r="4.15756"
             cx="8.882059999999997"
             cy="10.11043"
             id="circle37" />
          <circle
             fill="none"
             stroke="red"
             r="4.15756"
             cx="39.11886"
             cy="10.11043"
             id="circle39" />
        </g>
      </g>
      <g
         transform="rotate(144) translate(-151.08618732524047,0)"
         id="g61">
        <g
           transform="rotate(90) translate(-24.000459999999997,-10.11043)translate(75.26771902805656,0)"
           id="g51">
          <rect
             class="guide"
             x="0"
             y="0"
             fill="none"
             stroke="blue"
             width="48.000919999999994"
             height="20.22086"
             style="display: none;"
             id="rect45" />
          <circle
             fill="none"
             stroke="red"
             r="4.15756"
             cx="8.882059999999997"
             cy="10.11043"
             id="circle47" />
          <circle
             fill="none"
             stroke="red"
             r="4.15756"
             cx="39.11886"
             cy="10.11043"
             id="circle49" />
        </g>
        <g
           transform="rotate(90) translate(-24.000459999999997,-10.11043)translate(-75.26771902805656,0)"
           id="g59">
          <rect
             class="guide"
             x="0"
             y="0"
             fill="none"
             stroke="blue"
             width="48.000919999999994"
             height="20.22086"
             style="display: none;"
             id="rect53" />
          <circle
             fill="none"
             stroke="red"
             r="4.15756"
             cx="8.882059999999997"
             cy="10.11043"
             id="circle55" />
          <circle
             fill="none"
             stroke="red"
             r="4.15756"
             cx="39.11886"
             cy="10.11043"
             id="circle57" />
        </g>
      </g>
      <g
         transform="rotate(216) translate(-151.08618732524047,0)"
         id="g79">
        <g
           transform="rotate(90) translate(-24.000459999999997,-10.11043)translate(75.26771902805656,0)"
           id="g69">
          <rect
             class="guide"
             x="0"
             y="0"
             fill="none"
             stroke="blue"
             width="48.000919999999994"
             height="20.22086"
             style="display: none;"
             id="rect63" />
          <circle
             fill="none"
             stroke="red"
             r="4.15756"
             cx="8.882059999999997"
             cy="10.11043"
             id="circle65" />
          <circle
             fill="none"
             stroke="red"
             r="4.15756"
             cx="39.11886"
             cy="10.11043"
             id="circle67" />
        </g>
        <g
           transform="rotate(90) translate(-24.000459999999997,-10.11043)translate(-75.26771902805656,0)"
           id="g77">
          <rect
             class="guide"
             x="0"
             y="0"
             fill="none"
             stroke="blue"
             width="48.000919999999994"
             height="20.22086"
             style="display: none;"
             id="rect71" />
          <circle
             fill="none"
             stroke="red"
             r="4.15756"
             cx="8.882059999999997"
             cy="10.11043"
             id="circle73" />
          <circle
             fill="none"
             stroke="red"
             r="4.15756"
             cx="39.11886"
             cy="10.11043"
             id="circle75" />
        </g>
      </g>
      <g
         transform="rotate(288) translate(-151.08618732524047,0)"
         id="g97">
        <g
           transform="rotate(90) translate(-24.000459999999997,-10.11043)translate(75.26771902805656,0)"
           id="g87">
          <rect
             class="guide"
             x="0"
             y="0"
             fill="none"
             stroke="blue"
             width="48.000919999999994"
             height="20.22086"
             style="display: none;"
             id="rect81" />
          <circle
             fill="none"
             stroke="red"
             r="4.15756"
             cx="8.882059999999997"
             cy="10.11043"
             id="circle83" />
          <circle
             fill="none"
             stroke="red"
             r="4.15756"
             cx="39.11886"
             cy="10.11043"
             id="circle85" />
        </g>
        <g
           transform="rotate(90) translate(-24.000459999999997,-10.11043)translate(-75.26771902805656,0)"
           id="g95">
          <rect
             class="guide"
             x="0"
             y="0"
             fill="none"
             stroke="blue"
             width="48.000919999999994"
             height="20.22086"
             style="display: none;"
             id="rect89" />
          <circle
             fill="none"
             stroke="red"
             r="4.15756"
             cx="8.882059999999997"
             cy="10.11043"
             id="circle91" />
          <circle
             fill="none"
             stroke="red"
             r="4.15756"
             cx="39.11886"
             cy="10.11043"
             id="circle93" />
        </g>
      </g>
    </g>
    <g
       transform="translate(384.24726024010806,0)"
       id="g441">
      <g
         id="g133">
        <path
           id="path101"
           d="M203.10424684241804, 0L62.762663904031434, 193.16361744670104L-164.31478732524042, 119.38168097194345L-164.31478732524045, -119.3816809719434L62.762663904031385, -193.16361744670107Z"
           fill="none"
           stroke="red" />
        <circle
           fill="none"
           stroke="black"
           cx="0"
           cy="0"
           r="1.8898"
           class="guide"
           style="display: none;"
           id="circle103" />
        <rect
           fill="none"
           stroke="red"
           y="-11.338799999999999"
           x="-3.7796"
           height="22.677599999999998"
           width="7.5592"
           transform="rotate(36) translate(151.08618732524047,0)"
           id="rect105" />
        <rect
           fill="none"
           stroke="red"
           y="-11.338799999999999"
           x="-3.7796"
           height="22.677599999999998"
           width="7.5592"
           transform="rotate(-36) translate(151.08618732524047,0)"
           id="rect107" />
        <g
           class="single-face"
           id="g113">
          <g
             id="g111">
            <path
               stroke="red"
               stroke-width="1"
               fill="none"
               d="M 156.96071065374457 18.499451823234285 L 144.72966812598636 9.613079264975761 L 138.28704802124895 18.48058509760046 L 150.51809054900716 27.366957655858982 L 72.54017135028862 134.6943558369372 L 60.30912882253041 125.80798327867868 L 53.86650871779297 134.6754891113034 L 66.09755124555117 143.56186166956192 L 52.65691275118516 162.06131349279622 L 30.909502836800716 154.9951516695619 L 35.58134536455893 140.61669883360526 L 25.15696705849036 137.22961300098055 L 20.48512453073215 151.6080658369372 L -105.68579910478742 110.61264765585892 L -101.01395657702922 96.23419481990227 L -111.4383348830978 92.84710898727757 L -116.110177410856 107.22556182323422 L -137.85758732524044 100.15939999999992 L -137.85758732524042 77.29282 L -122.73918732524042 77.29282 L -122.73918732524042 66.33198000000002 L -137.85758732524042 66.33198000000002 L -137.85758732524044 -66.33197999999996 L -122.73918732524045 -66.33197999999996 L -122.73918732524045 -77.29281999999998 L -137.85758732524044 -77.29281999999998 L -137.85758732524044 -100.15939999999998 L -116.11017741085601 -107.22556182323427 L -111.43833488309781 -92.84710898727762 L -101.01395657702923 -96.23419481990231 L -105.68579910478745 -110.61264765585896 L 20.485124530732122 -151.60806583693721 L 25.156967058490324 -137.22961300098058 L 35.5813453645589 -140.61669883360528 L 30.909502836800698 -154.99515166956195 L 52.65691275118513 -162.06131349279622 L 66.09755124555114 -143.56186166956195 L 53.866508717792954 -134.67548911130342 L 60.3091288225304 -125.80798327867872 L 72.54017135028859 -134.69435583693726 L 150.51809054900724 -27.366957655859125 L 138.28704802124906 -18.480585097600596 L 144.7296681259865 -9.61307926497588 L 156.9607106537447 -18.49945182323441 L 170.40134914811074 -1.4210854715202004e-13 ZM 157.25460327989083 18.09494332604681 L 150.22419792286092 27.771466153046457 ZM 31.385031094948292 155.14966016674936 L 20.009596272584574 151.45355733974972 ZM -137.85758732524042 77.79282 L -137.85758732524042 65.83198000000002 ZM -116.58570566900359 -107.0710533260468 L -105.21027084663987 -110.76715615304644 ZM 65.80365861940491 -143.9663701667494 L 72.83406397643483 -134.28984733974977 ZM 72.83406397643486 134.28984733974974 L 65.80365861940494 143.96637016674939 ZM -105.21027084663983 110.76715615304639 L -116.58570566900359 107.07105332604672 ZM -137.85758732524044 -65.83197999999996 L -137.85758732524044 -77.79281999999998 ZM 20.00959627258453 -151.45355733974975 L 31.38503109494829 -155.1496601667494 ZM 150.224197922861 -27.77146615304659 L 157.25460327989094 -18.094943326046945 Z"
               id="path109" />
          </g>
        </g>
        <g
           transform=" translate(-151.08618732524047,0)"
           id="g131">
          <g
             transform="rotate(90) translate(-24.000459999999997,-10.11043)translate(75.26771902805656,1.13388)"
             id="g121">
            <rect
               class="guide"
               x="0"
               y="0"
               fill="none"
               stroke="blue"
               width="48.000919999999994"
               height="20.22086"
               style="display: none;"
               id="rect115" />
            <circle
               fill="none"
               stroke="red"
               r="4.15756"
               cx="8.882059999999997"
               cy="10.11043"
               id="circle117" />
            <circle
               fill="none"
               stroke="red"
               r="4.15756"
               cx="39.11886"
               cy="10.11043"
               id="circle119" />
          </g>
          <g
             transform="rotate(90) translate(-24.000459999999997,-10.11043)translate(-75.26771902805656,1.13388)"
             id="g129">
            <rect
               class="guide"
               x="0"
               y="0"
               fill="none"
               stroke="blue"
               width="48.000919999999994"
               height="20.22086"
               style="display: none;"
               id="rect123" />
            <circle
               fill="none"
               stroke="red"
               r="4.15756"
               cx="8.882059999999997"
               cy="10.11043"
               id="circle125" />
            <circle
               fill="none"
               stroke="red"
               r="4.15756"
               cx="39.11886"
               cy="10.11043"
               id="circle127" />
          </g>
        </g>
      </g>
      <g
         transform="translate(384.24726024010806,0)"
         id="g167">
        <path
           id="path135"
           d="M203.10424684241804, 0L62.762663904031434, 193.16361744670104L-164.31478732524042, 119.38168097194345L-164.31478732524045, -119.3816809719434L62.762663904031385, -193.16361744670107Z"
           fill="none"
           stroke="red" />
        <circle
           fill="none"
           stroke="black"
           cx="0"
           cy="0"
           r="1.8898"
           class="guide"
           style="display: none;"
           id="circle137" />
        <rect
           fill="none"
           stroke="red"
           y="-11.338799999999999"
           x="-3.7796"
           height="22.677599999999998"
           width="7.5592"
           transform="rotate(36) translate(151.08618732524047,0)"
           id="rect139" />
        <rect
           fill="none"
           stroke="red"
           y="-11.338799999999999"
           x="-3.7796"
           height="22.677599999999998"
           width="7.5592"
           transform="rotate(-36) translate(151.08618732524047,0)"
           id="rect141" />
        <g
           class="single-face"
           id="g147">
          <g
             id="g145">
            <path
               stroke="red"
               stroke-width="1"
               fill="none"
               d="M 156.96071065374457 18.499451823234285 L 144.72966812598636 9.613079264975761 L 138.28704802124895 18.48058509760046 L 150.51809054900716 27.366957655858982 L 72.54017135028862 134.6943558369372 L 60.30912882253041 125.80798327867868 L 53.86650871779297 134.6754891113034 L 66.09755124555117 143.56186166956192 L 52.65691275118516 162.06131349279622 L 30.909502836800716 154.9951516695619 L 35.58134536455893 140.61669883360526 L 25.15696705849036 137.22961300098055 L 20.48512453073215 151.6080658369372 L -105.68579910478742 110.61264765585892 L -101.01395657702922 96.23419481990227 L -111.4383348830978 92.84710898727757 L -116.110177410856 107.22556182323422 L -137.85758732524044 100.15939999999992 L -137.85758732524042 77.29282 L -122.73918732524042 77.29282 L -122.73918732524042 66.33198000000002 L -137.85758732524042 66.33198000000002 L -137.85758732524044 -66.33197999999996 L -122.73918732524045 -66.33197999999996 L -122.73918732524045 -77.29281999999998 L -137.85758732524044 -77.29281999999998 L -137.85758732524044 -100.15939999999998 L -116.11017741085601 -107.22556182323427 L -111.43833488309781 -92.84710898727762 L -101.01395657702923 -96.23419481990231 L -105.68579910478745 -110.61264765585896 L 20.485124530732122 -151.60806583693721 L 25.156967058490324 -137.22961300098058 L 35.5813453645589 -140.61669883360528 L 30.909502836800698 -154.99515166956195 L 52.65691275118513 -162.06131349279622 L 66.09755124555114 -143.56186166956195 L 53.866508717792954 -134.67548911130342 L 60.3091288225304 -125.80798327867872 L 72.54017135028859 -134.69435583693726 L 150.51809054900724 -27.366957655859125 L 138.28704802124906 -18.480585097600596 L 144.7296681259865 -9.61307926497588 L 156.9607106537447 -18.49945182323441 L 170.40134914811074 -1.4210854715202004e-13 ZM 157.25460327989083 18.09494332604681 L 150.22419792286092 27.771466153046457 ZM 31.385031094948292 155.14966016674936 L 20.009596272584574 151.45355733974972 ZM -137.85758732524042 77.79282 L -137.85758732524042 65.83198000000002 ZM -116.58570566900359 -107.0710533260468 L -105.21027084663987 -110.76715615304644 ZM 65.80365861940491 -143.9663701667494 L 72.83406397643483 -134.28984733974977 ZM 72.83406397643486 134.28984733974974 L 65.80365861940494 143.96637016674939 ZM -105.21027084663983 110.76715615304639 L -116.58570566900359 107.07105332604672 ZM -137.85758732524044 -65.83197999999996 L -137.85758732524044 -77.79281999999998 ZM 20.00959627258453 -151.45355733974975 L 31.38503109494829 -155.1496601667494 ZM 150.224197922861 -27.77146615304659 L 157.25460327989094 -18.094943326046945 Z"
               id="path143" />
          </g>
        </g>
        <g
           transform=" translate(-151.08618732524047,0)"
           id="g165">
          <g
             transform="rotate(90) translate(-24.000459999999997,-10.11043)translate(75.26771902805656,1.13388)"
             id="g155">
            <rect
               class="guide"
               x="0"
               y="0"
               fill="none"
               stroke="blue"
               width="48.000919999999994"
               height="20.22086"
               style="display: none;"
               id="rect149" />
            <circle
               fill="none"
               stroke="red"
               r="4.15756"
               cx="8.882059999999997"
               cy="10.11043"
               id="circle151" />
            <circle
               fill="none"
               stroke="red"
               r="4.15756"
               cx="39.11886"
               cy="10.11043"
               id="circle153" />
          </g>
          <g
             transform="rotate(90) translate(-24.000459999999997,-10.11043)translate(-75.26771902805656,1.13388)"
             id="g163">
            <rect
               class="guide"
               x="0"
               y="0"
               fill="none"
               stroke="blue"
               width="48.000919999999994"
               height="20.22086"
               style="display: none;"
               id="rect157" />
            <circle
               fill="none"
               stroke="red"
               r="4.15756"
               cx="8.882059999999997"
               cy="10.11043"
               id="circle159" />
            <circle
               fill="none"
               stroke="red"
               r="4.15756"
               cx="39.11886"
               cy="10.11043"
               id="circle161" />
          </g>
        </g>
      </g>
      <g
         transform="translate(768.4945204802161,0)"
         id="g201">
        <path
           id="path169"
           d="M203.10424684241804, 0L62.762663904031434, 193.16361744670104L-164.31478732524042, 119.38168097194345L-164.31478732524045, -119.3816809719434L62.762663904031385, -193.16361744670107Z"
           fill="none"
           stroke="red" />
        <circle
           fill="none"
           stroke="black"
           cx="0"
           cy="0"
           r="1.8898"
           class="guide"
           style="display: none;"
           id="circle171" />
        <rect
           fill="none"
           stroke="red"
           y="-11.338799999999999"
           x="-3.7796"
           height="22.677599999999998"
           width="7.5592"
           transform="rotate(36) translate(151.08618732524047,0)"
           id="rect173" />
        <rect
           fill="none"
           stroke="red"
           y="-11.338799999999999"
           x="-3.7796"
           height="22.677599999999998"
           width="7.5592"
           transform="rotate(-36) translate(151.08618732524047,0)"
           id="rect175" />
        <g
           class="single-face"
           id="g181">
          <g
             id="g179">
            <path
               stroke="red"
               stroke-width="1"
               fill="none"
               d="M 156.96071065374457 18.499451823234285 L 144.72966812598636 9.613079264975761 L 138.28704802124895 18.48058509760046 L 150.51809054900716 27.366957655858982 L 72.54017135028862 134.6943558369372 L 60.30912882253041 125.80798327867868 L 53.86650871779297 134.6754891113034 L 66.09755124555117 143.56186166956192 L 52.65691275118516 162.06131349279622 L 30.909502836800716 154.9951516695619 L 35.58134536455893 140.61669883360526 L 25.15696705849036 137.22961300098055 L 20.48512453073215 151.6080658369372 L -105.68579910478742 110.61264765585892 L -101.01395657702922 96.23419481990227 L -111.4383348830978 92.84710898727757 L -116.110177410856 107.22556182323422 L -137.85758732524044 100.15939999999992 L -137.85758732524042 77.29282 L -122.73918732524042 77.29282 L -122.73918732524042 66.33198000000002 L -137.85758732524042 66.33198000000002 L -137.85758732524044 -66.33197999999996 L -122.73918732524045 -66.33197999999996 L -122.73918732524045 -77.29281999999998 L -137.85758732524044 -77.29281999999998 L -137.85758732524044 -100.15939999999998 L -116.11017741085601 -107.22556182323427 L -111.43833488309781 -92.84710898727762 L -101.01395657702923 -96.23419481990231 L -105.68579910478745 -110.61264765585896 L 20.485124530732122 -151.60806583693721 L 25.156967058490324 -137.22961300098058 L 35.5813453645589 -140.61669883360528 L 30.909502836800698 -154.99515166956195 L 52.65691275118513 -162.06131349279622 L 66.09755124555114 -143.56186166956195 L 53.866508717792954 -134.67548911130342 L 60.3091288225304 -125.80798327867872 L 72.54017135028859 -134.69435583693726 L 150.51809054900724 -27.366957655859125 L 138.28704802124906 -18.480585097600596 L 144.7296681259865 -9.61307926497588 L 156.9607106537447 -18.49945182323441 L 170.40134914811074 -1.4210854715202004e-13 ZM 157.25460327989083 18.09494332604681 L 150.22419792286092 27.771466153046457 ZM 31.385031094948292 155.14966016674936 L 20.009596272584574 151.45355733974972 ZM -137.85758732524042 77.79282 L -137.85758732524042 65.83198000000002 ZM -116.58570566900359 -107.0710533260468 L -105.21027084663987 -110.76715615304644 ZM 65.80365861940491 -143.9663701667494 L 72.83406397643483 -134.28984733974977 ZM 72.83406397643486 134.28984733974974 L 65.80365861940494 143.96637016674939 ZM -105.21027084663983 110.76715615304639 L -116.58570566900359 107.07105332604672 ZM -137.85758732524044 -65.83197999999996 L -137.85758732524044 -77.79281999999998 ZM 20.00959627258453 -151.45355733974975 L 31.38503109494829 -155.1496601667494 ZM 150.224197922861 -27.77146615304659 L 157.25460327989094 -18.094943326046945 Z"
               id="path177" />
          </g>
        </g>
        <g
           transform=" translate(-151.08618732524047,0)"
           id="g199">
          <g
             transform="rotate(90) translate(-24.000459999999997,-10.11043)translate(75.26771902805656,1.13388)"
             id="g189">
            <rect
               class="guide"
               x="0"
               y="0"
               fill="none"
               stroke="blue"
               width="48.000919999999994"
               height="20.22086"
               style="display: none;"
               id="rect183" />
            <circle
               fill="none"
               stroke="red"
               r="4.15756"
               cx="8.882059999999997"
               cy="10.11043"
               id="circle185" />
            <circle
               fill="none"
               stroke="red"
               r="4.15756"
               cx="39.11886"
               cy="10.11043"
               id="circle187" />
          </g>
          <g
             transform="rotate(90) translate(-24.000459999999997,-10.11043)translate(-75.26771902805656,1.13388)"
             id="g197">
            <rect
               class="guide"
               x="0"
               y="0"
               fill="none"
               stroke="blue"
               width="48.000919999999994"
               height="20.22086"
               style="display: none;"
               id="rect191" />
            <circle
               fill="none"
               stroke="red"
               r="4.15756"
               cx="8.882059999999997"
               cy="10.11043"
               id="circle193" />
            <circle
               fill="none"
               stroke="red"
               r="4.15756"
               cx="39.11886"
               cy="10.11043"
               id="circle195" />
          </g>
        </g>
      </g>
      <g
         transform="translate(1152.7417807203242,0)"
         id="g235">
        <path
           id="path203"
           d="M203.10424684241804, 0L62.762663904031434, 193.16361744670104L-164.31478732524042, 119.38168097194345L-164.31478732524045, -119.3816809719434L62.762663904031385, -193.16361744670107Z"
           fill="none"
           stroke="red" />
        <circle
           fill="none"
           stroke="black"
           cx="0"
           cy="0"
           r="1.8898"
           class="guide"
           style="display: none;"
           id="circle205" />
        <rect
           fill="none"
           stroke="red"
           y="-11.338799999999999"
           x="-3.7796"
           height="22.677599999999998"
           width="7.5592"
           transform="rotate(36) translate(151.08618732524047,0)"
           id="rect207" />
        <rect
           fill="none"
           stroke="red"
           y="-11.338799999999999"
           x="-3.7796"
           height="22.677599999999998"
           width="7.5592"
           transform="rotate(-36) translate(151.08618732524047,0)"
           id="rect209" />
        <g
           class="single-face"
           id="g215">
          <g
             id="g213">
            <path
               stroke="red"
               stroke-width="1"
               fill="none"
               d="M 156.96071065374457 18.499451823234285 L 144.72966812598636 9.613079264975761 L 138.28704802124895 18.48058509760046 L 150.51809054900716 27.366957655858982 L 72.54017135028862 134.6943558369372 L 60.30912882253041 125.80798327867868 L 53.86650871779297 134.6754891113034 L 66.09755124555117 143.56186166956192 L 52.65691275118516 162.06131349279622 L 30.909502836800716 154.9951516695619 L 35.58134536455893 140.61669883360526 L 25.15696705849036 137.22961300098055 L 20.48512453073215 151.6080658369372 L -105.68579910478742 110.61264765585892 L -101.01395657702922 96.23419481990227 L -111.4383348830978 92.84710898727757 L -116.110177410856 107.22556182323422 L -137.85758732524044 100.15939999999992 L -137.85758732524042 77.29282 L -122.73918732524042 77.29282 L -122.73918732524042 66.33198000000002 L -137.85758732524042 66.33198000000002 L -137.85758732524044 -66.33197999999996 L -122.73918732524045 -66.33197999999996 L -122.73918732524045 -77.29281999999998 L -137.85758732524044 -77.29281999999998 L -137.85758732524044 -100.15939999999998 L -116.11017741085601 -107.22556182323427 L -111.43833488309781 -92.84710898727762 L -101.01395657702923 -96.23419481990231 L -105.68579910478745 -110.61264765585896 L 20.485124530732122 -151.60806583693721 L 25.156967058490324 -137.22961300098058 L 35.5813453645589 -140.61669883360528 L 30.909502836800698 -154.99515166956195 L 52.65691275118513 -162.06131349279622 L 66.09755124555114 -143.56186166956195 L 53.866508717792954 -134.67548911130342 L 60.3091288225304 -125.80798327867872 L 72.54017135028859 -134.69435583693726 L 150.51809054900724 -27.366957655859125 L 138.28704802124906 -18.480585097600596 L 144.7296681259865 -9.61307926497588 L 156.9607106537447 -18.49945182323441 L 170.40134914811074 -1.4210854715202004e-13 ZM 157.25460327989083 18.09494332604681 L 150.22419792286092 27.771466153046457 ZM 31.385031094948292 155.14966016674936 L 20.009596272584574 151.45355733974972 ZM -137.85758732524042 77.79282 L -137.85758732524042 65.83198000000002 ZM -116.58570566900359 -107.0710533260468 L -105.21027084663987 -110.76715615304644 ZM 65.80365861940491 -143.9663701667494 L 72.83406397643483 -134.28984733974977 ZM 72.83406397643486 134.28984733974974 L 65.80365861940494 143.96637016674939 ZM -105.21027084663983 110.76715615304639 L -116.58570566900359 107.07105332604672 ZM -137.85758732524044 -65.83197999999996 L -137.85758732524044 -77.79281999999998 ZM 20.00959627258453 -151.45355733974975 L 31.38503109494829 -155.1496601667494 ZM 150.224197922861 -27.77146615304659 L 157.25460327989094 -18.094943326046945 Z"
               id="path211" />
          </g>
        </g>
        <g
           transform=" translate(-151.08618732524047,0)"
           id="g233">
          <g
             transform="rotate(90) translate(-24.000459999999997,-10.11043)translate(75.26771902805656,1.13388)"
             id="g223">
            <rect
               class="guide"
               x="0"
               y="0"
               fill="none"
               stroke="blue"
               width="48.000919999999994"
               height="20.22086"
               style="display: none;"
               id="rect217" />
            <circle
               fill="none"
               stroke="red"
               r="4.15756"
               cx="8.882059999999997"
               cy="10.11043"
               id="circle219" />
            <circle
               fill="none"
               stroke="red"
               r="4.15756"
               cx="39.11886"
               cy="10.11043"
               id="circle221" />
          </g>
          <g
             transform="rotate(90) translate(-24.000459999999997,-10.11043)translate(-75.26771902805656,1.13388)"
             id="g231">
            <rect
               class="guide"
               x="0"
               y="0"
               fill="none"
               stroke="blue"
               width="48.000919999999994"
               height="20.22086"
               style="display: none;"
               id="rect225" />
            <circle
               fill="none"
               stroke="red"
               r="4.15756"
               cx="8.882059999999997"
               cy="10.11043"
               id="circle227" />
            <circle
               fill="none"
               stroke="red"
               r="4.15756"
               cx="39.11886"
               cy="10.11043"
               id="circle229" />
          </g>
        </g>
      </g>
      <g
         transform="translate(1536.9890409604322,0)"
         id="g269">
        <path
           id="path237"
           d="M203.10424684241804, 0L62.762663904031434, 193.16361744670104L-164.31478732524042, 119.38168097194345L-164.31478732524045, -119.3816809719434L62.762663904031385, -193.16361744670107Z"
           fill="none"
           stroke="red" />
        <circle
           fill="none"
           stroke="black"
           cx="0"
           cy="0"
           r="1.8898"
           class="guide"
           style="display: none;"
           id="circle239" />
        <rect
           fill="none"
           stroke="red"
           y="-11.338799999999999"
           x="-3.7796"
           height="22.677599999999998"
           width="7.5592"
           transform="rotate(36) translate(151.08618732524047,0)"
           id="rect241" />
        <rect
           fill="none"
           stroke="red"
           y="-11.338799999999999"
           x="-3.7796"
           height="22.677599999999998"
           width="7.5592"
           transform="rotate(-36) translate(151.08618732524047,0)"
           id="rect243" />
        <g
           class="single-face"
           id="g249">
          <g
             id="g247">
            <path
               stroke="red"
               stroke-width="1"
               fill="none"
               d="M 156.96071065374457 18.499451823234285 L 144.72966812598636 9.613079264975761 L 138.28704802124895 18.48058509760046 L 150.51809054900716 27.366957655858982 L 72.54017135028862 134.6943558369372 L 60.30912882253041 125.80798327867868 L 53.86650871779297 134.6754891113034 L 66.09755124555117 143.56186166956192 L 52.65691275118516 162.06131349279622 L 30.909502836800716 154.9951516695619 L 35.58134536455893 140.61669883360526 L 25.15696705849036 137.22961300098055 L 20.48512453073215 151.6080658369372 L -105.68579910478742 110.61264765585892 L -101.01395657702922 96.23419481990227 L -111.4383348830978 92.84710898727757 L -116.110177410856 107.22556182323422 L -137.85758732524044 100.15939999999992 L -137.85758732524042 77.29282 L -122.73918732524042 77.29282 L -122.73918732524042 66.33198000000002 L -137.85758732524042 66.33198000000002 L -137.85758732524044 -66.33197999999996 L -122.73918732524045 -66.33197999999996 L -122.73918732524045 -77.29281999999998 L -137.85758732524044 -77.29281999999998 L -137.85758732524044 -100.15939999999998 L -116.11017741085601 -107.22556182323427 L -111.43833488309781 -92.84710898727762 L -101.01395657702923 -96.23419481990231 L -105.68579910478745 -110.61264765585896 L 20.485124530732122 -151.60806583693721 L 25.156967058490324 -137.22961300098058 L 35.5813453645589 -140.61669883360528 L 30.909502836800698 -154.99515166956195 L 52.65691275118513 -162.06131349279622 L 66.09755124555114 -143.56186166956195 L 53.866508717792954 -134.67548911130342 L 60.3091288225304 -125.80798327867872 L 72.54017135028859 -134.69435583693726 L 150.51809054900724 -27.366957655859125 L 138.28704802124906 -18.480585097600596 L 144.7296681259865 -9.61307926497588 L 156.9607106537447 -18.49945182323441 L 170.40134914811074 -1.4210854715202004e-13 ZM 157.25460327989083 18.09494332604681 L 150.22419792286092 27.771466153046457 ZM 31.385031094948292 155.14966016674936 L 20.009596272584574 151.45355733974972 ZM -137.85758732524042 77.79282 L -137.85758732524042 65.83198000000002 ZM -116.58570566900359 -107.0710533260468 L -105.21027084663987 -110.76715615304644 ZM 65.80365861940491 -143.9663701667494 L 72.83406397643483 -134.28984733974977 ZM 72.83406397643486 134.28984733974974 L 65.80365861940494 143.96637016674939 ZM -105.21027084663983 110.76715615304639 L -116.58570566900359 107.07105332604672 ZM -137.85758732524044 -65.83197999999996 L -137.85758732524044 -77.79281999999998 ZM 20.00959627258453 -151.45355733974975 L 31.38503109494829 -155.1496601667494 ZM 150.224197922861 -27.77146615304659 L 157.25460327989094 -18.094943326046945 Z"
               id="path245" />
          </g>
        </g>
        <g
           transform=" translate(-151.08618732524047,0)"
           id="g267">
          <g
             transform="rotate(90) translate(-24.000459999999997,-10.11043)translate(75.26771902805656,1.13388)"
             id="g257">
            <rect
               class="guide"
               x="0"
               y="0"
               fill="none"
               stroke="blue"
               width="48.000919999999994"
               height="20.22086"
               style="display: none;"
               id="rect251" />
            <circle
               fill="none"
               stroke="red"
               r="4.15756"
               cx="8.882059999999997"
               cy="10.11043"
               id="circle253" />
            <circle
               fill="none"
               stroke="red"
               r="4.15756"
               cx="39.11886"
               cy="10.11043"
               id="circle255" />
          </g>
          <g
             transform="rotate(90) translate(-24.000459999999997,-10.11043)translate(-75.26771902805656,1.13388)"
             id="g265">
            <rect
               class="guide"
               x="0"
               y="0"
               fill="none"
               stroke="blue"
               width="48.000919999999994"
               height="20.22086"
               style="display: none;"
               id="rect259" />
            <circle
               fill="none"
               stroke="red"
               r="4.15756"
               cx="8.882059999999997"
               cy="10.11043"
               id="circle261" />
            <circle
               fill="none"
               stroke="red"
               r="4.15756"
               cx="39.11886"
               cy="10.11043"
               id="circle263" />
          </g>
        </g>
      </g>
      <g
         transform="translate(1921.2363012005403,0)"
         id="g303">
        <path
           id="path271"
           d="M203.10424684241804, 0L62.762663904031434, 193.16361744670104L-164.31478732524042, 119.38168097194345L-164.31478732524045, -119.3816809719434L62.762663904031385, -193.16361744670107Z"
           fill="none"
           stroke="red" />
        <circle
           fill="none"
           stroke="black"
           cx="0"
           cy="0"
           r="1.8898"
           class="guide"
           style="display: none;"
           id="circle273" />
        <rect
           fill="none"
           stroke="red"
           y="-11.338799999999999"
           x="-3.7796"
           height="22.677599999999998"
           width="7.5592"
           transform="rotate(36) translate(151.08618732524047,0)"
           id="rect275" />
        <rect
           fill="none"
           stroke="red"
           y="-11.338799999999999"
           x="-3.7796"
           height="22.677599999999998"
           width="7.5592"
           transform="rotate(-36) translate(151.08618732524047,0)"
           id="rect277" />
        <g
           class="single-face"
           id="g283">
          <g
             id="g281">
            <path
               stroke="red"
               stroke-width="1"
               fill="none"
               d="M 156.96071065374457 18.499451823234285 L 144.72966812598636 9.613079264975761 L 138.28704802124895 18.48058509760046 L 150.51809054900716 27.366957655858982 L 72.54017135028862 134.6943558369372 L 60.30912882253041 125.80798327867868 L 53.86650871779297 134.6754891113034 L 66.09755124555117 143.56186166956192 L 52.65691275118516 162.06131349279622 L 30.909502836800716 154.9951516695619 L 35.58134536455893 140.61669883360526 L 25.15696705849036 137.22961300098055 L 20.48512453073215 151.6080658369372 L -105.68579910478742 110.61264765585892 L -101.01395657702922 96.23419481990227 L -111.4383348830978 92.84710898727757 L -116.110177410856 107.22556182323422 L -137.85758732524044 100.15939999999992 L -137.85758732524042 77.29282 L -122.73918732524042 77.29282 L -122.73918732524042 66.33198000000002 L -137.85758732524042 66.33198000000002 L -137.85758732524044 -66.33197999999996 L -122.73918732524045 -66.33197999999996 L -122.73918732524045 -77.29281999999998 L -137.85758732524044 -77.29281999999998 L -137.85758732524044 -100.15939999999998 L -116.11017741085601 -107.22556182323427 L -111.43833488309781 -92.84710898727762 L -101.01395657702923 -96.23419481990231 L -105.68579910478745 -110.61264765585896 L 20.485124530732122 -151.60806583693721 L 25.156967058490324 -137.22961300098058 L 35.5813453645589 -140.61669883360528 L 30.909502836800698 -154.99515166956195 L 52.65691275118513 -162.06131349279622 L 66.09755124555114 -143.56186166956195 L 53.866508717792954 -134.67548911130342 L 60.3091288225304 -125.80798327867872 L 72.54017135028859 -134.69435583693726 L 150.51809054900724 -27.366957655859125 L 138.28704802124906 -18.480585097600596 L 144.7296681259865 -9.61307926497588 L 156.9607106537447 -18.49945182323441 L 170.40134914811074 -1.4210854715202004e-13 ZM 157.25460327989083 18.09494332604681 L 150.22419792286092 27.771466153046457 ZM 31.385031094948292 155.14966016674936 L 20.009596272584574 151.45355733974972 ZM -137.85758732524042 77.79282 L -137.85758732524042 65.83198000000002 ZM -116.58570566900359 -107.0710533260468 L -105.21027084663987 -110.76715615304644 ZM 65.80365861940491 -143.9663701667494 L 72.83406397643483 -134.28984733974977 ZM 72.83406397643486 134.28984733974974 L 65.80365861940494 143.96637016674939 ZM -105.21027084663983 110.76715615304639 L -116.58570566900359 107.07105332604672 ZM -137.85758732524044 -65.83197999999996 L -137.85758732524044 -77.79281999999998 ZM 20.00959627258453 -151.45355733974975 L 31.38503109494829 -155.1496601667494 ZM 150.224197922861 -27.77146615304659 L 157.25460327989094 -18.094943326046945 Z"
               id="path279" />
          </g>
        </g>
        <g
           transform=" translate(-151.08618732524047,0)"
           id="g301">
          <g
             transform="rotate(90) translate(-24.000459999999997,-10.11043)translate(75.26771902805656,1.13388)"
             id="g291">
            <rect
               class="guide"
               x="0"
               y="0"
               fill="none"
               stroke="blue"
               width="48.000919999999994"
               height="20.22086"
               style="display: none;"
               id="rect285" />
            <circle
               fill="none"
               stroke="red"
               r="4.15756"
               cx="8.882059999999997"
               cy="10.11043"
               id="circle287" />
            <circle
               fill="none"
               stroke="red"
               r="4.15756"
               cx="39.11886"
               cy="10.11043"
               id="circle289" />
          </g>
          <g
             transform="rotate(90) translate(-24.000459999999997,-10.11043)translate(-75.26771902805656,1.13388)"
             id="g299">
            <rect
               class="guide"
               x="0"
               y="0"
               fill="none"
               stroke="blue"
               width="48.000919999999994"
               height="20.22086"
               style="display: none;"
               id="rect293" />
            <circle
               fill="none"
               stroke="red"
               r="4.15756"
               cx="8.882059999999997"
               cy="10.11043"
               id="circle295" />
            <circle
               fill="none"
               stroke="red"
               r="4.15756"
               cx="39.11886"
               cy="10.11043"
               id="circle297" />
          </g>
        </g>
      </g>
      <g
         transform="translate(2305.4835614406484,0)"
         id="g337">
        <path
           id="path305"
           d="M203.10424684241804, 0L62.762663904031434, 193.16361744670104L-164.31478732524042, 119.38168097194345L-164.31478732524045, -119.3816809719434L62.762663904031385, -193.16361744670107Z"
           fill="none"
           stroke="red" />
        <circle
           fill="none"
           stroke="black"
           cx="0"
           cy="0"
           r="1.8898"
           class="guide"
           style="display: none;"
           id="circle307" />
        <rect
           fill="none"
           stroke="red"
           y="-11.338799999999999"
           x="-3.7796"
           height="22.677599999999998"
           width="7.5592"
           transform="rotate(36) translate(151.08618732524047,0)"
           id="rect309" />
        <rect
           fill="none"
           stroke="red"
           y="-11.338799999999999"
           x="-3.7796"
           height="22.677599999999998"
           width="7.5592"
           transform="rotate(-36) translate(151.08618732524047,0)"
           id="rect311" />
        <g
           class="single-face"
           id="g317">
          <g
             id="g315">
            <path
               stroke="red"
               stroke-width="1"
               fill="none"
               d="M 156.96071065374457 18.499451823234285 L 144.72966812598636 9.613079264975761 L 138.28704802124895 18.48058509760046 L 150.51809054900716 27.366957655858982 L 72.54017135028862 134.6943558369372 L 60.30912882253041 125.80798327867868 L 53.86650871779297 134.6754891113034 L 66.09755124555117 143.56186166956192 L 52.65691275118516 162.06131349279622 L 30.909502836800716 154.9951516695619 L 35.58134536455893 140.61669883360526 L 25.15696705849036 137.22961300098055 L 20.48512453073215 151.6080658369372 L -105.68579910478742 110.61264765585892 L -101.01395657702922 96.23419481990227 L -111.4383348830978 92.84710898727757 L -116.110177410856 107.22556182323422 L -137.85758732524044 100.15939999999992 L -137.85758732524042 77.29282 L -122.73918732524042 77.29282 L -122.73918732524042 66.33198000000002 L -137.85758732524042 66.33198000000002 L -137.85758732524044 -66.33197999999996 L -122.73918732524045 -66.33197999999996 L -122.73918732524045 -77.29281999999998 L -137.85758732524044 -77.29281999999998 L -137.85758732524044 -100.15939999999998 L -116.11017741085601 -107.22556182323427 L -111.43833488309781 -92.84710898727762 L -101.01395657702923 -96.23419481990231 L -105.68579910478745 -110.61264765585896 L 20.485124530732122 -151.60806583693721 L 25.156967058490324 -137.22961300098058 L 35.5813453645589 -140.61669883360528 L 30.909502836800698 -154.99515166956195 L 52.65691275118513 -162.06131349279622 L 66.09755124555114 -143.56186166956195 L 53.866508717792954 -134.67548911130342 L 60.3091288225304 -125.80798327867872 L 72.54017135028859 -134.69435583693726 L 150.51809054900724 -27.366957655859125 L 138.28704802124906 -18.480585097600596 L 144.7296681259865 -9.61307926497588 L 156.9607106537447 -18.49945182323441 L 170.40134914811074 -1.4210854715202004e-13 ZM 157.25460327989083 18.09494332604681 L 150.22419792286092 27.771466153046457 ZM 31.385031094948292 155.14966016674936 L 20.009596272584574 151.45355733974972 ZM -137.85758732524042 77.79282 L -137.85758732524042 65.83198000000002 ZM -116.58570566900359 -107.0710533260468 L -105.21027084663987 -110.76715615304644 ZM 65.80365861940491 -143.9663701667494 L 72.83406397643483 -134.28984733974977 ZM 72.83406397643486 134.28984733974974 L 65.80365861940494 143.96637016674939 ZM -105.21027084663983 110.76715615304639 L -116.58570566900359 107.07105332604672 ZM -137.85758732524044 -65.83197999999996 L -137.85758732524044 -77.79281999999998 ZM 20.00959627258453 -151.45355733974975 L 31.38503109494829 -155.1496601667494 ZM 150.224197922861 -27.77146615304659 L 157.25460327989094 -18.094943326046945 Z"
               id="path313" />
          </g>
        </g>
        <g
           transform=" translate(-151.08618732524047,0)"
           id="g335">
          <g
             transform="rotate(90) translate(-24.000459999999997,-10.11043)translate(75.26771902805656,1.13388)"
             id="g325">
            <rect
               class="guide"
               x="0"
               y="0"
               fill="none"
               stroke="blue"
               width="48.000919999999994"
               height="20.22086"
               style="display: none;"
               id="rect319" />
            <circle
               fill="none"
               stroke="red"
               r="4.15756"
               cx="8.882059999999997"
               cy="10.11043"
               id="circle321" />
            <circle
               fill="none"
               stroke="red"
               r="4.15756"
               cx="39.11886"
               cy="10.11043"
               id="circle323" />
          </g>
          <g
             transform="rotate(90) translate(-24.000459999999997,-10.11043)translate(-75.26771902805656,1.13388)"
             id="g333">
            <rect
               class="guide"
               x="0"
               y="0"
               fill="none"
               stroke="blue"
               width="48.000919999999994"
               height="20.22086"
               style="display: none;"
               id="rect327" />
            <circle
               fill="none"
               stroke="red"
               r="4.15756"
               cx="8.882059999999997"
               cy="10.11043"
               id="circle329" />
            <circle
               fill="none"
               stroke="red"
               r="4.15756"
               cx="39.11886"
               cy="10.11043"
               id="circle331" />
          </g>
        </g>
      </g>
      <g
         transform="translate(2689.7308216807564,0)"
         id="g371">
        <path
           id="path339"
           d="M203.10424684241804, 0L62.762663904031434, 193.16361744670104L-164.31478732524042, 119.38168097194345L-164.31478732524045, -119.3816809719434L62.762663904031385, -193.16361744670107Z"
           fill="none"
           stroke="red" />
        <circle
           fill="none"
           stroke="black"
           cx="0"
           cy="0"
           r="1.8898"
           class="guide"
           style="display: none;"
           id="circle341" />
        <rect
           fill="none"
           stroke="red"
           y="-11.338799999999999"
           x="-3.7796"
           height="22.677599999999998"
           width="7.5592"
           transform="rotate(36) translate(151.08618732524047,0)"
           id="rect343" />
        <rect
           fill="none"
           stroke="red"
           y="-11.338799999999999"
           x="-3.7796"
           height="22.677599999999998"
           width="7.5592"
           transform="rotate(-36) translate(151.08618732524047,0)"
           id="rect345" />
        <g
           class="single-face"
           id="g351">
          <g
             id="g349">
            <path
               stroke="red"
               stroke-width="1"
               fill="none"
               d="M 156.96071065374457 18.499451823234285 L 144.72966812598636 9.613079264975761 L 138.28704802124895 18.48058509760046 L 150.51809054900716 27.366957655858982 L 72.54017135028862 134.6943558369372 L 60.30912882253041 125.80798327867868 L 53.86650871779297 134.6754891113034 L 66.09755124555117 143.56186166956192 L 52.65691275118516 162.06131349279622 L 30.909502836800716 154.9951516695619 L 35.58134536455893 140.61669883360526 L 25.15696705849036 137.22961300098055 L 20.48512453073215 151.6080658369372 L -105.68579910478742 110.61264765585892 L -101.01395657702922 96.23419481990227 L -111.4383348830978 92.84710898727757 L -116.110177410856 107.22556182323422 L -137.85758732524044 100.15939999999992 L -137.85758732524042 77.29282 L -122.73918732524042 77.29282 L -122.73918732524042 66.33198000000002 L -137.85758732524042 66.33198000000002 L -137.85758732524044 -66.33197999999996 L -122.73918732524045 -66.33197999999996 L -122.73918732524045 -77.29281999999998 L -137.85758732524044 -77.29281999999998 L -137.85758732524044 -100.15939999999998 L -116.11017741085601 -107.22556182323427 L -111.43833488309781 -92.84710898727762 L -101.01395657702923 -96.23419481990231 L -105.68579910478745 -110.61264765585896 L 20.485124530732122 -151.60806583693721 L 25.156967058490324 -137.22961300098058 L 35.5813453645589 -140.61669883360528 L 30.909502836800698 -154.99515166956195 L 52.65691275118513 -162.06131349279622 L 66.09755124555114 -143.56186166956195 L 53.866508717792954 -134.67548911130342 L 60.3091288225304 -125.80798327867872 L 72.54017135028859 -134.69435583693726 L 150.51809054900724 -27.366957655859125 L 138.28704802124906 -18.480585097600596 L 144.7296681259865 -9.61307926497588 L 156.9607106537447 -18.49945182323441 L 170.40134914811074 -1.4210854715202004e-13 ZM 157.25460327989083 18.09494332604681 L 150.22419792286092 27.771466153046457 ZM 31.385031094948292 155.14966016674936 L 20.009596272584574 151.45355733974972 ZM -137.85758732524042 77.79282 L -137.85758732524042 65.83198000000002 ZM -116.58570566900359 -107.0710533260468 L -105.21027084663987 -110.76715615304644 ZM 65.80365861940491 -143.9663701667494 L 72.83406397643483 -134.28984733974977 ZM 72.83406397643486 134.28984733974974 L 65.80365861940494 143.96637016674939 ZM -105.21027084663983 110.76715615304639 L -116.58570566900359 107.07105332604672 ZM -137.85758732524044 -65.83197999999996 L -137.85758732524044 -77.79281999999998 ZM 20.00959627258453 -151.45355733974975 L 31.38503109494829 -155.1496601667494 ZM 150.224197922861 -27.77146615304659 L 157.25460327989094 -18.094943326046945 Z"
               id="path347" />
          </g>
        </g>
        <g
           transform=" translate(-151.08618732524047,0)"
           id="g369">
          <g
             transform="rotate(90) translate(-24.000459999999997,-10.11043)translate(75.26771902805656,1.13388)"
             id="g359">
            <rect
               class="guide"
               x="0"
               y="0"
               fill="none"
               stroke="blue"
               width="48.000919999999994"
               height="20.22086"
               style="display: none;"
               id="rect353" />
            <circle
               fill="none"
               stroke="red"
               r="4.15756"
               cx="8.882059999999997"
               cy="10.11043"
               id="circle355" />
            <circle
               fill="none"
               stroke="red"
               r="4.15756"
               cx="39.11886"
               cy="10.11043"
               id="circle357" />
          </g>
          <g
             transform="rotate(90) translate(-24.000459999999997,-10.11043)translate(-75.26771902805656,1.13388)"
             id="g367">
            <rect
               class="guide"
               x="0"
               y="0"
               fill="none"
               stroke="blue"
               width="48.000919999999994"
               height="20.22086"
               style="display: none;"
               id="rect361" />
            <circle
               fill="none"
               stroke="red"
               r="4.15756"
               cx="8.882059999999997"
               cy="10.11043"
               id="circle363" />
            <circle
               fill="none"
               stroke="red"
               r="4.15756"
               cx="39.11886"
               cy="10.11043"
               id="circle365" />
          </g>
        </g>
      </g>
      <g
         transform="translate(3073.9780819208645,0)"
         id="g405">
        <path
           id="path373"
           d="M203.10424684241804, 0L62.762663904031434, 193.16361744670104L-164.31478732524042, 119.38168097194345L-164.31478732524045, -119.3816809719434L62.762663904031385, -193.16361744670107Z"
           fill="none"
           stroke="red" />
        <circle
           fill="none"
           stroke="black"
           cx="0"
           cy="0"
           r="1.8898"
           class="guide"
           style="display: none;"
           id="circle375" />
        <rect
           fill="none"
           stroke="red"
           y="-11.338799999999999"
           x="-3.7796"
           height="22.677599999999998"
           width="7.5592"
           transform="rotate(36) translate(151.08618732524047,0)"
           id="rect377" />
        <rect
           fill="none"
           stroke="red"
           y="-11.338799999999999"
           x="-3.7796"
           height="22.677599999999998"
           width="7.5592"
           transform="rotate(-36) translate(151.08618732524047,0)"
           id="rect379" />
        <g
           class="single-face"
           id="g385">
          <g
             id="g383">
            <path
               stroke="red"
               stroke-width="1"
               fill="none"
               d="M 156.96071065374457 18.499451823234285 L 144.72966812598636 9.613079264975761 L 138.28704802124895 18.48058509760046 L 150.51809054900716 27.366957655858982 L 72.54017135028862 134.6943558369372 L 60.30912882253041 125.80798327867868 L 53.86650871779297 134.6754891113034 L 66.09755124555117 143.56186166956192 L 52.65691275118516 162.06131349279622 L 30.909502836800716 154.9951516695619 L 35.58134536455893 140.61669883360526 L 25.15696705849036 137.22961300098055 L 20.48512453073215 151.6080658369372 L -105.68579910478742 110.61264765585892 L -101.01395657702922 96.23419481990227 L -111.4383348830978 92.84710898727757 L -116.110177410856 107.22556182323422 L -137.85758732524044 100.15939999999992 L -137.85758732524042 77.29282 L -122.73918732524042 77.29282 L -122.73918732524042 66.33198000000002 L -137.85758732524042 66.33198000000002 L -137.85758732524044 -66.33197999999996 L -122.73918732524045 -66.33197999999996 L -122.73918732524045 -77.29281999999998 L -137.85758732524044 -77.29281999999998 L -137.85758732524044 -100.15939999999998 L -116.11017741085601 -107.22556182323427 L -111.43833488309781 -92.84710898727762 L -101.01395657702923 -96.23419481990231 L -105.68579910478745 -110.61264765585896 L 20.485124530732122 -151.60806583693721 L 25.156967058490324 -137.22961300098058 L 35.5813453645589 -140.61669883360528 L 30.909502836800698 -154.99515166956195 L 52.65691275118513 -162.06131349279622 L 66.09755124555114 -143.56186166956195 L 53.866508717792954 -134.67548911130342 L 60.3091288225304 -125.80798327867872 L 72.54017135028859 -134.69435583693726 L 150.51809054900724 -27.366957655859125 L 138.28704802124906 -18.480585097600596 L 144.7296681259865 -9.61307926497588 L 156.9607106537447 -18.49945182323441 L 170.40134914811074 -1.4210854715202004e-13 ZM 157.25460327989083 18.09494332604681 L 150.22419792286092 27.771466153046457 ZM 31.385031094948292 155.14966016674936 L 20.009596272584574 151.45355733974972 ZM -137.85758732524042 77.79282 L -137.85758732524042 65.83198000000002 ZM -116.58570566900359 -107.0710533260468 L -105.21027084663987 -110.76715615304644 ZM 65.80365861940491 -143.9663701667494 L 72.83406397643483 -134.28984733974977 ZM 72.83406397643486 134.28984733974974 L 65.80365861940494 143.96637016674939 ZM -105.21027084663983 110.76715615304639 L -116.58570566900359 107.07105332604672 ZM -137.85758732524044 -65.83197999999996 L -137.85758732524044 -77.79281999999998 ZM 20.00959627258453 -151.45355733974975 L 31.38503109494829 -155.1496601667494 ZM 150.224197922861 -27.77146615304659 L 157.25460327989094 -18.094943326046945 Z"
               id="path381" />
          </g>
        </g>
        <g
           transform=" translate(-151.08618732524047,0)"
           id="g403">
          <g
             transform="rotate(90) translate(-24.000459999999997,-10.11043)translate(75.26771902805656,1.13388)"
             id="g393">
            <rect
               class="guide"
               x="0"
               y="0"
               fill="none"
               stroke="blue"
               width="48.000919999999994"
               height="20.22086"
               style="display: none;"
               id="rect387" />
            <circle
               fill="none"
               stroke="red"
               r="4.15756"
               cx="8.882059999999997"
               cy="10.11043"
               id="circle389" />
            <circle
               fill="none"
               stroke="red"
               r="4.15756"
               cx="39.11886"
               cy="10.11043"
               id="circle391" />
          </g>
          <g
             transform="rotate(90) translate(-24.000459999999997,-10.11043)translate(-75.26771902805656,1.13388)"
             id="g401">
            <rect
               class="guide"
               x="0"
               y="0"
               fill="none"
               stroke="blue"
               width="48.000919999999994"
               height="20.22086"
               style="display: none;"
               id="rect395" />
            <circle
               fill="none"
               stroke="red"
               r="4.15756"
               cx="8.882059999999997"
               cy="10.11043"
               id="circle397" />
            <circle
               fill="none"
               stroke="red"
               r="4.15756"
               cx="39.11886"
               cy="10.11043"
               id="circle399" />
          </g>
        </g>
      </g>
      <g
         transform="translate(3458.2253421609726,0)"
         id="g439">
        <path
           id="path407"
           d="M203.10424684241804, 0L62.762663904031434, 193.16361744670104L-164.31478732524042, 119.38168097194345L-164.31478732524045, -119.3816809719434L62.762663904031385, -193.16361744670107Z"
           fill="none"
           stroke="red" />
        <circle
           fill="none"
           stroke="black"
           cx="0"
           cy="0"
           r="1.8898"
           class="guide"
           style="display: none;"
           id="circle409" />
        <rect
           fill="none"
           stroke="red"
           y="-11.338799999999999"
           x="-3.7796"
           height="22.677599999999998"
           width="7.5592"
           transform="rotate(36) translate(151.08618732524047,0)"
           id="rect411" />
        <rect
           fill="none"
           stroke="red"
           y="-11.338799999999999"
           x="-3.7796"
           height="22.677599999999998"
           width="7.5592"
           transform="rotate(-36) translate(151.08618732524047,0)"
           id="rect413" />
        <g
           class="single-face"
           id="g419">
          <g
             id="g417">
            <path
               stroke="red"
               stroke-width="1"
               fill="none"
               d="M 156.96071065374457 18.499451823234285 L 144.72966812598636 9.613079264975761 L 138.28704802124895 18.48058509760046 L 150.51809054900716 27.366957655858982 L 72.54017135028862 134.6943558369372 L 60.30912882253041 125.80798327867868 L 53.86650871779297 134.6754891113034 L 66.09755124555117 143.56186166956192 L 52.65691275118516 162.06131349279622 L 30.909502836800716 154.9951516695619 L 35.58134536455893 140.61669883360526 L 25.15696705849036 137.22961300098055 L 20.48512453073215 151.6080658369372 L -105.68579910478742 110.61264765585892 L -101.01395657702922 96.23419481990227 L -111.4383348830978 92.84710898727757 L -116.110177410856 107.22556182323422 L -137.85758732524044 100.15939999999992 L -137.85758732524042 77.29282 L -122.73918732524042 77.29282 L -122.73918732524042 66.33198000000002 L -137.85758732524042 66.33198000000002 L -137.85758732524044 -66.33197999999996 L -122.73918732524045 -66.33197999999996 L -122.73918732524045 -77.29281999999998 L -137.85758732524044 -77.29281999999998 L -137.85758732524044 -100.15939999999998 L -116.11017741085601 -107.22556182323427 L -111.43833488309781 -92.84710898727762 L -101.01395657702923 -96.23419481990231 L -105.68579910478745 -110.61264765585896 L 20.485124530732122 -151.60806583693721 L 25.156967058490324 -137.22961300098058 L 35.5813453645589 -140.61669883360528 L 30.909502836800698 -154.99515166956195 L 52.65691275118513 -162.06131349279622 L 66.09755124555114 -143.56186166956195 L 53.866508717792954 -134.67548911130342 L 60.3091288225304 -125.80798327867872 L 72.54017135028859 -134.69435583693726 L 150.51809054900724 -27.366957655859125 L 138.28704802124906 -18.480585097600596 L 144.7296681259865 -9.61307926497588 L 156.9607106537447 -18.49945182323441 L 170.40134914811074 -1.4210854715202004e-13 ZM 157.25460327989083 18.09494332604681 L 150.22419792286092 27.771466153046457 ZM 31.385031094948292 155.14966016674936 L 20.009596272584574 151.45355733974972 ZM -137.85758732524042 77.79282 L -137.85758732524042 65.83198000000002 ZM -116.58570566900359 -107.0710533260468 L -105.21027084663987 -110.76715615304644 ZM 65.80365861940491 -143.9663701667494 L 72.83406397643483 -134.28984733974977 ZM 72.83406397643486 134.28984733974974 L 65.80365861940494 143.96637016674939 ZM -105.21027084663983 110.76715615304639 L -116.58570566900359 107.07105332604672 ZM -137.85758732524044 -65.83197999999996 L -137.85758732524044 -77.79281999999998 ZM 20.00959627258453 -151.45355733974975 L 31.38503109494829 -155.1496601667494 ZM 150.224197922861 -27.77146615304659 L 157.25460327989094 -18.094943326046945 Z"
               id="path415" />
          </g>
        </g>
        <g
           transform=" translate(-151.08618732524047,0)"
           id="g437">
          <g
             transform="rotate(90) translate(-24.000459999999997,-10.11043)translate(75.26771902805656,1.13388)"
             id="g427">
            <rect
               class="guide"
               x="0"
               y="0"
               fill="none"
               stroke="blue"
               width="48.000919999999994"
               height="20.22086"
               style="display: none;"
               id="rect421" />
            <circle
               fill="none"
               stroke="red"
               r="4.15756"
               cx="8.882059999999997"
               cy="10.11043"
               id="circle423" />
            <circle
               fill="none"
               stroke="red"
               r="4.15756"
               cx="39.11886"
               cy="10.11043"
               id="circle425" />
          </g>
          <g
             transform="rotate(90) translate(-24.000459999999997,-10.11043)translate(-75.26771902805656,1.13388)"
             id="g435">
            <rect
               class="guide"
               x="0"
               y="0"
               fill="none"
               stroke="blue"
               width="48.000919999999994"
               height="20.22086"
               style="display: none;"
               id="rect429" />
            <circle
               fill="none"
               stroke="red"
               r="4.15756"
               cx="8.882059999999997"
               cy="10.11043"
               id="circle431" />
            <circle
               fill="none"
               stroke="red"
               r="4.15756"
               cx="39.11886"
               cy="10.11043"
               id="circle433" />
          </g>
        </g>
      </g>
    </g>
    <g
       class="face"
       id="g445">
      <g
         class="faces-group"
         id="g443" />
    </g>
    <g
       transform="translate(0,404.24726024010806)"
       id="g555">
      <path
         class="guide"
         id="path447"
         d="M170.4013491481106, 0L52.656912751185146, -162.0613134927962L-137.85758732524042, -100.1594L-137.85758732524044, 100.15939999999998L52.65691275118511, 162.06131349279622ZM203.10424684241804, 0L62.762663904031434, 193.16361744670104L-164.31478732524042, 119.38168097194345L-164.31478732524045, -119.3816809719434L62.762663904031385, -193.16361744670107Z"
         fill="none"
         stroke="black"
         style="display: none;" />
      <path
         class="guide"
         d="M5.553982848911579, 7.6444015798488785L127.7852760103479, -81.16183115502545L116.67731031252475, -96.4506343147232L-5.553982848911579, -7.6444015798488785ZM8.986533022472907, -2.919901579848877L-37.70166647634317, -146.61140455770908L-55.67473252128898, -140.77160139801134L-8.986533022472907, 2.919901579848877ZM1.157168760514334e-15, -9.449L-151.08618732524047, -9.449000000000018L-151.08618732524047, 9.448999999999982L-1.157168760514334e-15, 9.449ZM-8.986533022472905, -2.9199015798488794L-55.674732521289016, 140.7716013980113L-37.701666476343206, 146.61140455770905L8.986533022472905, 2.9199015798488794ZM-5.553982848911581, 7.644401579848878L116.67731031252472, 96.45063431472323L127.7852760103479, 81.16183115502548L5.553982848911581, -7.644401579848878Z"
         fill="none"
         stroke="black"
         style="display: none;"
         id="path449" />
      <path
         d="M203.10424684241804, 0L62.762663904031434, 193.16361744670104L-164.31478732524042, 119.38168097194345L-164.31478732524045, -119.3816809719434L62.762663904031385, -193.16361744670107ZM11.679606319395505, 35.94613208989163L-1.7016664763432061, 35.94613208989163L-34, 134L52.65691275118511, 162.06131349279622L106, 89L23, 28ZM-137.85758732524044, 100.15939999999998L-52, 128L-20, 30L-30.577606319395514, 22.21593139564631L-34.577606319395514, 9.448999999999982L-137.85758732524044, 9.448999999999982ZM34, -13L37.796, 0L34, 13L117, 73L170.4013491481106, 0L117, -73ZM-137.85758732524042, -100.1594L-137.85758732524044, -9.449L-34.796, -9.449L-30.57760631939551, -22.21593139564632L-20, -30L-52, -128ZM-34, -134L-2.0134669775270932, -35.94613208989163L11.679606319395514, -35.94613208989162L23, -28L106, -89L52.656912751185146, -162.0613134927962Z"
         fill="none"
         stroke="red"
         id="path451" />
      <circle
         cx="0"
         cy="0"
         fill="none"
         stroke="red"
         r="5.6693999999999996"
         id="circle453" />
      <g
         transform="rotate(0) translate(-151.08618732524047,0)"
         id="g471">
        <g
           transform="rotate(90) translate(-24.000459999999997,-10.11043)translate(75.26771902805656,0)"
           id="g461">
          <rect
             class="guide"
             x="0"
             y="0"
             fill="none"
             stroke="blue"
             width="48.000919999999994"
             height="20.22086"
             style="display: none;"
             id="rect455" />
          <circle
             fill="none"
             stroke="red"
             r="4.15756"
             cx="8.882059999999997"
             cy="10.11043"
             id="circle457" />
          <circle
             fill="none"
             stroke="red"
             r="4.15756"
             cx="39.11886"
             cy="10.11043"
             id="circle459" />
        </g>
        <g
           transform="rotate(90) translate(-24.000459999999997,-10.11043)translate(-75.26771902805656,0)"
           id="g469">
          <rect
             class="guide"
             x="0"
             y="0"
             fill="none"
             stroke="blue"
             width="48.000919999999994"
             height="20.22086"
             style="display: none;"
             id="rect463" />
          <circle
             fill="none"
             stroke="red"
             r="4.15756"
             cx="8.882059999999997"
             cy="10.11043"
             id="circle465" />
          <circle
             fill="none"
             stroke="red"
             r="4.15756"
             cx="39.11886"
             cy="10.11043"
             id="circle467" />
        </g>
      </g>
      <g
         transform="rotate(72) translate(-151.08618732524047,0)"
         id="g489">
        <g
           transform="rotate(90) translate(-24.000459999999997,-10.11043)translate(75.26771902805656,0)"
           id="g479">
          <rect
             class="guide"
             x="0"
             y="0"
             fill="none"
             stroke="blue"
             width="48.000919999999994"
             height="20.22086"
             style="display: none;"
             id="rect473" />
          <circle
             fill="none"
             stroke="red"
             r="4.15756"
             cx="8.882059999999997"
             cy="10.11043"
             id="circle475" />
          <circle
             fill="none"
             stroke="red"
             r="4.15756"
             cx="39.11886"
             cy="10.11043"
             id="circle477" />
        </g>
        <g
           transform="rotate(90) translate(-24.000459999999997,-10.11043)translate(-75.26771902805656,0)"
           id="g487">
          <rect
             class="guide"
             x="0"
             y="0"
             fill="none"
             stroke="blue"
             width="48.000919999999994"
             height="20.22086"
             style="display: none;"
             id="rect481" />
          <circle
             fill="none"
             stroke="red"
             r="4.15756"
             cx="8.882059999999997"
             cy="10.11043"
             id="circle483" />
          <circle
             fill="none"
             stroke="red"
             r="4.15756"
             cx="39.11886"
             cy="10.11043"
             id="circle485" />
        </g>
      </g>
      <g
         transform="rotate(144) translate(-151.08618732524047,0)"
         id="g507">
        <g
           transform="rotate(90) translate(-24.000459999999997,-10.11043)translate(75.26771902805656,0)"
           id="g497">
          <rect
             class="guide"
             x="0"
             y="0"
             fill="none"
             stroke="blue"
             width="48.000919999999994"
             height="20.22086"
             style="display: none;"
             id="rect491" />
          <circle
             fill="none"
             stroke="red"
             r="4.15756"
             cx="8.882059999999997"
             cy="10.11043"
             id="circle493" />
          <circle
             fill="none"
             stroke="red"
             r="4.15756"
             cx="39.11886"
             cy="10.11043"
             id="circle495" />
        </g>
        <g
           transform="rotate(90) translate(-24.000459999999997,-10.11043)translate(-75.26771902805656,0)"
           id="g505">
          <rect
             class="guide"
             x="0"
             y="0"
             fill="none"
             stroke="blue"
             width="48.000919999999994"
             height="20.22086"
             style="display: none;"
             id="rect499" />
          <circle
             fill="none"
             stroke="red"
             r="4.15756"
             cx="8.882059999999997"
             cy="10.11043"
             id="circle501" />
          <circle
             fill="none"
             stroke="red"
             r="4.15756"
             cx="39.11886"
             cy="10.11043"
             id="circle503" />
        </g>
      </g>
      <g
         transform="rotate(216) translate(-151.08618732524047,0)"
         id="g525">
        <g
           transform="rotate(90) translate(-24.000459999999997,-10.11043)translate(75.26771902805656,0)"
           id="g515">
          <rect
             class="guide"
             x="0"
             y="0"
             fill="none"
             stroke="blue"
             width="48.000919999999994"
             height="20.22086"
             style="display: none;"
             id="rect509" />
          <circle
             fill="none"
             stroke="red"
             r="4.15756"
             cx="8.882059999999997"
             cy="10.11043"
             id="circle511" />
          <circle
             fill="none"
             stroke="red"
             r="4.15756"
             cx="39.11886"
             cy="10.11043"
             id="circle513" />
        </g>
        <g
           transform="rotate(90) translate(-24.000459999999997,-10.11043)translate(-75.26771902805656,0)"
           id="g523">
          <rect
             class="guide"
             x="0"
             y="0"
             fill="none"
             stroke="blue"
             width="48.000919999999994"
             height="20.22086"
             style="display: none;"
             id="rect517" />
          <circle
             fill="none"
             stroke="red"
             r="4.15756"
             cx="8.882059999999997"
             cy="10.11043"
             id="circle519" />
          <circle
             fill="none"
             stroke="red"
             r="4.15756"
             cx="39.11886"
             cy="10.11043"
             id="circle521" />
        </g>
      </g>
      <g
         transform="rotate(288) translate(-151.08618732524047,0)"
         id="g543">
        <g
           transform="rotate(90) translate(-24.000459999999997,-10.11043)translate(75.26771902805656,0)"
           id="g533">
          <rect
             class="guide"
             x="0"
             y="0"
             fill="none"
             stroke="blue"
             width="48.000919999999994"
             height="20.22086"
             style="display: none;"
             id="rect527" />
          <circle
             fill="none"
             stroke="red"
             r="4.15756"
             cx="8.882059999999997"
             cy="10.11043"
             id="circle529" />
          <circle
             fill="none"
             stroke="red"
             r="4.15756"
             cx="39.11886"
             cy="10.11043"
             id="circle531" />
        </g>
        <g
           transform="rotate(90) translate(-24.000459999999997,-10.11043)translate(-75.26771902805656,0)"
           id="g541">
          <rect
             class="guide"
             x="0"
             y="0"
             fill="none"
             stroke="blue"
             width="48.000919999999994"
             height="20.22086"
             style="display: none;"
             id="rect535" />
          <circle
             fill="none"
             stroke="red"
             r="4.15756"
             cx="8.882059999999997"
             cy="10.11043"
             id="circle537" />
          <circle
             fill="none"
             stroke="red"
             r="4.15756"
             cx="39.11886"
             cy="10.11043"
             id="circle539" />
        </g>
      </g>
      <circle
         fill="none"
         stroke="red"
         cx="0"
         cy="0"
         r="5.6693999999999996"
         transform="rotate(36) translate(75.592)"
         id="circle545" />
      <circle
         fill="none"
         stroke="red"
         cx="0"
         cy="0"
         r="5.6693999999999996"
         transform="rotate(108) translate(75.592)"
         id="circle547" />
      <circle
         fill="none"
         stroke="red"
         cx="0"
         cy="0"
         r="5.6693999999999996"
         transform="rotate(180) translate(75.592)"
         id="circle549" />
      <circle
         fill="none"
         stroke="red"
         cx="0"
         cy="0"
         r="5.6693999999999996"
         transform="rotate(252) translate(75.592)"
         id="circle551" />
      <circle
         fill="none"
         stroke="red"
         cx="0"
         cy="0"
         r="5.6693999999999996"
         transform="rotate(324) translate(75.592)"
         id="circle553" />
    </g>
  </g>
</svg>
