<?xml version="1.0" encoding="UTF-8" standalone="no"?>
<svg
   xmlns:dc="http://purl.org/dc/elements/1.1/"
   xmlns:cc="http://creativecommons.org/ns#"
   xmlns:rdf="http://www.w3.org/1999/02/22-rdf-syntax-ns#"
   xmlns:svg="http://www.w3.org/2000/svg"
   xmlns="http://www.w3.org/2000/svg"
   xmlns:sodipodi="http://sodipodi.sourceforge.net/DTD/sodipodi-0.dtd"
   xmlns:inkscape="http://www.inkscape.org/namespaces/inkscape"
   id="svg"
   viewBox="0 0 1584.6352844238281 1828.7755126953125"
   version="1.1"
   sodipodi:docname="popup-inner-pentagons.svg"
   inkscape:version="1.0.1 (3bc2e813f5, 2020-09-07)">
  <metadata
     id="metadata212">
    <rdf:RDF>
      <cc:Work
         rdf:about="">
        <dc:format>image/svg+xml</dc:format>
        <dc:type
           rdf:resource="http://purl.org/dc/dcmitype/StillImage" />
        <dc:title></dc:title>
      </cc:Work>
    </rdf:RDF>
  </metadata>
  <defs
     id="defs210" />
  <sodipodi:namedview
     pagecolor="#ffffff"
     bordercolor="#666666"
     borderopacity="1"
     objecttolerance="10"
     gridtolerance="10"
     guidetolerance="10"
     inkscape:pageopacity="0"
     inkscape:pageshadow="2"
     inkscape:window-width="935"
     inkscape:window-height="480"
     id="namedview208"
     showgrid="false"
     inkscape:zoom="0.40190827"
     inkscape:cx="792.31763"
     inkscape:cy="914.38776"
     inkscape:window-x="0"
     inkscape:window-y="0"
     inkscape:window-maximized="0"
     inkscape:current-layer="svg" />
  <rect
     id="bin"
     width="1311.5212"
     height="933.5612"
     fill="none"
     stroke="black" />
  <g
     transform="translate(0,466.6866455078125)"
     id="g83">
    <g
       transform="translate(0,506.38136775146074)"
       id="g71">
      <g
         transform="translate(0,0)"
         id="g69">
        <g
           class="single-face"
           transform="translate(347.58757850097385,0)"
           id="g7">
          <g
             id="g5">
            <path
               stroke="red"
               stroke-width="1"
               fill="none"
               d="M 113.8093590462623 75.6795756405039 L 104.60692263106048 68.99361422359458 L 97.94214321236659 78.16689611941322 L 107.14457962756842 84.85285753632255 L 52.160149423343796 160.53243317682646 L -36.806527499137985 131.6254075363225 L -33.29150956784062 120.80729471629282 L -44.0753491948081 117.30341282047416 L -47.59036712610546 128.12152564050385 L -136.55704404858722 99.21449999999993 L -136.55704404858724 5.66940000000001 L -125.1822070807783 5.66940000000001 L -125.1822070807783 -5.669399999999982 L -136.55704404858724 -5.669399999999982 L -136.55704404858724 -99.21449999999999 L -47.59036712610548 -128.12152564050388 L -44.07534919480811 -117.3034128204742 L -33.291509567840635 -120.80729471629286 L -36.806527499138 -131.62540753632254 L 52.16014942334377 -160.53243317682646 L 107.14457962756846 -84.85285753632262 L 97.94214321236664 -78.16689611941328 L 104.60692263106054 -68.99361422359465 L 113.80935904626236 -75.67957564050398 L 168.79378925048707 -1.4210854715202004e-13 Z"
               id="path3" />
          </g>
        </g>
        <g
           class="single-face"
           transform="translate(695.1751570019477,0)"
           id="g13">
          <g
             id="g11">
            <path
               stroke="red"
               stroke-width="1"
               fill="none"
               d="M 113.8093590462623 75.6795756405039 L 104.60692263106048 68.99361422359458 L 97.94214321236659 78.16689611941322 L 107.14457962756842 84.85285753632255 L 52.160149423343796 160.53243317682646 L -36.806527499137985 131.6254075363225 L -33.29150956784062 120.80729471629282 L -44.0753491948081 117.30341282047416 L -47.59036712610546 128.12152564050385 L -136.55704404858722 99.21449999999993 L -136.55704404858724 5.66940000000001 L -125.1822070807783 5.66940000000001 L -125.1822070807783 -5.669399999999982 L -136.55704404858724 -5.669399999999982 L -136.55704404858724 -99.21449999999999 L -47.59036712610548 -128.12152564050388 L -44.07534919480811 -117.3034128204742 L -33.291509567840635 -120.80729471629286 L -36.806527499138 -131.62540753632254 L 52.16014942334377 -160.53243317682646 L 107.14457962756846 -84.85285753632262 L 97.94214321236664 -78.16689611941328 L 104.60692263106054 -68.99361422359465 L 113.80935904626236 -75.67957564050398 L 168.79378925048707 -1.4210854715202004e-13 Z"
               id="path9" />
          </g>
        </g>
        <g
           class="single-face"
           transform="translate(1042.7627355029215,0)"
           id="g19">
          <g
             id="g17">
            <path
               stroke="red"
               stroke-width="1"
               fill="none"
               d="M 113.8093590462623 75.6795756405039 L 104.60692263106048 68.99361422359458 L 97.94214321236659 78.16689611941322 L 107.14457962756842 84.85285753632255 L 52.160149423343796 160.53243317682646 L -36.806527499137985 131.6254075363225 L -33.29150956784062 120.80729471629282 L -44.0753491948081 117.30341282047416 L -47.59036712610546 128.12152564050385 L -136.55704404858722 99.21449999999993 L -136.55704404858724 5.66940000000001 L -125.1822070807783 5.66940000000001 L -125.1822070807783 -5.669399999999982 L -136.55704404858724 -5.669399999999982 L -136.55704404858724 -99.21449999999999 L -47.59036712610548 -128.12152564050388 L -44.07534919480811 -117.3034128204742 L -33.291509567840635 -120.80729471629286 L -36.806527499138 -131.62540753632254 L 52.16014942334377 -160.53243317682646 L 107.14457962756846 -84.85285753632262 L 97.94214321236664 -78.16689611941328 L 104.60692263106054 -68.99361422359465 L 113.80935904626236 -75.67957564050398 L 168.79378925048707 -1.4210854715202004e-13 Z"
               id="path15" />
          </g>
        </g>
        <g
           class="single-face"
           transform="translate(0,347.58757850097385)"
           id="g25">
          <g
             id="g23">
            <path
               stroke="red"
               stroke-width="1"
               fill="none"
               d="M 113.8093590462623 75.6795756405039 L 104.60692263106048 68.99361422359458 L 97.94214321236659 78.16689611941322 L 107.14457962756842 84.85285753632255 L 52.160149423343796 160.53243317682646 L -36.806527499137985 131.6254075363225 L -33.29150956784062 120.80729471629282 L -44.0753491948081 117.30341282047416 L -47.59036712610546 128.12152564050385 L -136.55704404858722 99.21449999999993 L -136.55704404858724 5.66940000000001 L -125.1822070807783 5.66940000000001 L -125.1822070807783 -5.669399999999982 L -136.55704404858724 -5.669399999999982 L -136.55704404858724 -99.21449999999999 L -47.59036712610548 -128.12152564050388 L -44.07534919480811 -117.3034128204742 L -33.291509567840635 -120.80729471629286 L -36.806527499138 -131.62540753632254 L 52.16014942334377 -160.53243317682646 L 107.14457962756846 -84.85285753632262 L 97.94214321236664 -78.16689611941328 L 104.60692263106054 -68.99361422359465 L 113.80935904626236 -75.67957564050398 L 168.79378925048707 -1.4210854715202004e-13 Z"
               id="path21" />
          </g>
        </g>
        <g
           class="single-face"
           transform="translate(347.58757850097385,347.58757850097385)"
           id="g31">
          <g
             id="g29">
            <path
               stroke="red"
               stroke-width="1"
               fill="none"
               d="M 113.8093590462623 75.6795756405039 L 104.60692263106048 68.99361422359458 L 97.94214321236659 78.16689611941322 L 107.14457962756842 84.85285753632255 L 52.160149423343796 160.53243317682646 L -36.806527499137985 131.6254075363225 L -33.29150956784062 120.80729471629282 L -44.0753491948081 117.30341282047416 L -47.59036712610546 128.12152564050385 L -136.55704404858722 99.21449999999993 L -136.55704404858724 5.66940000000001 L -125.1822070807783 5.66940000000001 L -125.1822070807783 -5.669399999999982 L -136.55704404858724 -5.669399999999982 L -136.55704404858724 -99.21449999999999 L -47.59036712610548 -128.12152564050388 L -44.07534919480811 -117.3034128204742 L -33.291509567840635 -120.80729471629286 L -36.806527499138 -131.62540753632254 L 52.16014942334377 -160.53243317682646 L 107.14457962756846 -84.85285753632262 L 97.94214321236664 -78.16689611941328 L 104.60692263106054 -68.99361422359465 L 113.80935904626236 -75.67957564050398 L 168.79378925048707 -1.4210854715202004e-13 Z"
               id="path27" />
          </g>
        </g>
        <g
           class="single-face"
           transform="translate(695.1751570019477,347.58757850097385)"
           id="g37">
          <g
             id="g35">
            <path
               stroke="red"
               stroke-width="1"
               fill="none"
               d="M 113.8093590462623 75.6795756405039 L 104.60692263106048 68.99361422359458 L 97.94214321236659 78.16689611941322 L 107.14457962756842 84.85285753632255 L 52.160149423343796 160.53243317682646 L -36.806527499137985 131.6254075363225 L -33.29150956784062 120.80729471629282 L -44.0753491948081 117.30341282047416 L -47.59036712610546 128.12152564050385 L -136.55704404858722 99.21449999999993 L -136.55704404858724 5.66940000000001 L -125.1822070807783 5.66940000000001 L -125.1822070807783 -5.669399999999982 L -136.55704404858724 -5.669399999999982 L -136.55704404858724 -99.21449999999999 L -47.59036712610548 -128.12152564050388 L -44.07534919480811 -117.3034128204742 L -33.291509567840635 -120.80729471629286 L -36.806527499138 -131.62540753632254 L 52.16014942334377 -160.53243317682646 L 107.14457962756846 -84.85285753632262 L 97.94214321236664 -78.16689611941328 L 104.60692263106054 -68.99361422359465 L 113.80935904626236 -75.67957564050398 L 168.79378925048707 -1.4210854715202004e-13 Z"
               id="path33" />
          </g>
        </g>
        <g
           class="single-face"
           transform="translate(1042.7627355029215,347.58757850097385)"
           id="g43">
          <g
             id="g41">
            <path
               stroke="red"
               stroke-width="1"
               fill="none"
               d="M 113.8093590462623 75.6795756405039 L 104.60692263106048 68.99361422359458 L 97.94214321236659 78.16689611941322 L 107.14457962756842 84.85285753632255 L 52.160149423343796 160.53243317682646 L -36.806527499137985 131.6254075363225 L -33.29150956784062 120.80729471629282 L -44.0753491948081 117.30341282047416 L -47.59036712610546 128.12152564050385 L -136.55704404858722 99.21449999999993 L -136.55704404858724 5.66940000000001 L -125.1822070807783 5.66940000000001 L -125.1822070807783 -5.669399999999982 L -136.55704404858724 -5.669399999999982 L -136.55704404858724 -99.21449999999999 L -47.59036712610548 -128.12152564050388 L -44.07534919480811 -117.3034128204742 L -33.291509567840635 -120.80729471629286 L -36.806527499138 -131.62540753632254 L 52.16014942334377 -160.53243317682646 L 107.14457962756846 -84.85285753632262 L 97.94214321236664 -78.16689611941328 L 104.60692263106054 -68.99361422359465 L 113.80935904626236 -75.67957564050398 L 168.79378925048707 -1.4210854715202004e-13 Z"
               id="path39" />
          </g>
        </g>
        <g
           class="single-face"
           transform="translate(0,695.1751570019477)"
           id="g49">
          <g
             id="g47">
            <path
               stroke="red"
               stroke-width="1"
               fill="none"
               d="M 113.8093590462623 75.6795756405039 L 104.60692263106048 68.99361422359458 L 97.94214321236659 78.16689611941322 L 107.14457962756842 84.85285753632255 L 52.160149423343796 160.53243317682646 L -36.806527499137985 131.6254075363225 L -33.29150956784062 120.80729471629282 L -44.0753491948081 117.30341282047416 L -47.59036712610546 128.12152564050385 L -136.55704404858722 99.21449999999993 L -136.55704404858724 5.66940000000001 L -125.1822070807783 5.66940000000001 L -125.1822070807783 -5.669399999999982 L -136.55704404858724 -5.669399999999982 L -136.55704404858724 -99.21449999999999 L -47.59036712610548 -128.12152564050388 L -44.07534919480811 -117.3034128204742 L -33.291509567840635 -120.80729471629286 L -36.806527499138 -131.62540753632254 L 52.16014942334377 -160.53243317682646 L 107.14457962756846 -84.85285753632262 L 97.94214321236664 -78.16689611941328 L 104.60692263106054 -68.99361422359465 L 113.80935904626236 -75.67957564050398 L 168.79378925048707 -1.4210854715202004e-13 Z"
               id="path45" />
          </g>
        </g>
        <g
           class="single-face"
           transform="translate(347.58757850097385,695.1751570019477)"
           id="g55">
          <g
             id="g53">
            <path
               stroke="red"
               stroke-width="1"
               fill="none"
               d="M 113.8093590462623 75.6795756405039 L 104.60692263106048 68.99361422359458 L 97.94214321236659 78.16689611941322 L 107.14457962756842 84.85285753632255 L 52.160149423343796 160.53243317682646 L -36.806527499137985 131.6254075363225 L -33.29150956784062 120.80729471629282 L -44.0753491948081 117.30341282047416 L -47.59036712610546 128.12152564050385 L -136.55704404858722 99.21449999999993 L -136.55704404858724 5.66940000000001 L -125.1822070807783 5.66940000000001 L -125.1822070807783 -5.669399999999982 L -136.55704404858724 -5.669399999999982 L -136.55704404858724 -99.21449999999999 L -47.59036712610548 -128.12152564050388 L -44.07534919480811 -117.3034128204742 L -33.291509567840635 -120.80729471629286 L -36.806527499138 -131.62540753632254 L 52.16014942334377 -160.53243317682646 L 107.14457962756846 -84.85285753632262 L 97.94214321236664 -78.16689611941328 L 104.60692263106054 -68.99361422359465 L 113.80935904626236 -75.67957564050398 L 168.79378925048707 -1.4210854715202004e-13 Z"
               id="path51" />
          </g>
        </g>
        <g
           class="single-face"
           transform="translate(695.1751570019477,695.1751570019477)"
           id="g61">
          <g
             id="g59">
            <path
               stroke="red"
               stroke-width="1"
               fill="none"
               d="M 113.8093590462623 75.6795756405039 L 104.60692263106048 68.99361422359458 L 97.94214321236659 78.16689611941322 L 107.14457962756842 84.85285753632255 L 52.160149423343796 160.53243317682646 L -36.806527499137985 131.6254075363225 L -33.29150956784062 120.80729471629282 L -44.0753491948081 117.30341282047416 L -47.59036712610546 128.12152564050385 L -136.55704404858722 99.21449999999993 L -136.55704404858724 5.66940000000001 L -125.1822070807783 5.66940000000001 L -125.1822070807783 -5.669399999999982 L -136.55704404858724 -5.669399999999982 L -136.55704404858724 -99.21449999999999 L -47.59036712610548 -128.12152564050388 L -44.07534919480811 -117.3034128204742 L -33.291509567840635 -120.80729471629286 L -36.806527499138 -131.62540753632254 L 52.16014942334377 -160.53243317682646 L 107.14457962756846 -84.85285753632262 L 97.94214321236664 -78.16689611941328 L 104.60692263106054 -68.99361422359465 L 113.80935904626236 -75.67957564050398 L 168.79378925048707 -1.4210854715202004e-13 Z"
               id="path57" />
          </g>
        </g>
        <g
           class="single-face"
           transform="translate(1042.7627355029215,695.1751570019477)"
           id="g67">
          <g
             id="g65">
            <path
               stroke="red"
               stroke-width="1"
               fill="none"
               d="M 113.8093590462623 75.6795756405039 L 104.60692263106048 68.99361422359458 L 97.94214321236659 78.16689611941322 L 107.14457962756842 84.85285753632255 L 52.160149423343796 160.53243317682646 L -36.806527499137985 131.6254075363225 L -33.29150956784062 120.80729471629282 L -44.0753491948081 117.30341282047416 L -47.59036712610546 128.12152564050385 L -136.55704404858722 99.21449999999993 L -136.55704404858724 5.66940000000001 L -125.1822070807783 5.66940000000001 L -125.1822070807783 -5.669399999999982 L -136.55704404858724 -5.669399999999982 L -136.55704404858724 -99.21449999999999 L -47.59036712610548 -128.12152564050388 L -44.07534919480811 -117.3034128204742 L -33.291509567840635 -120.80729471629286 L -36.806527499138 -131.62540753632254 L 52.16014942334377 -160.53243317682646 L 107.14457962756846 -84.85285753632262 L 97.94214321236664 -78.16689611941328 L 104.60692263106054 -68.99361422359465 L 113.80935904626236 -75.67957564050398 L 168.79378925048707 -1.4210854715202004e-13 Z"
               id="path63" />
          </g>
        </g>
      </g>
    </g>
    <g
       class="face"
       id="g81">
      <g
         class="single-face"
         transform="translate(168.79378925048692,168.79378925048692)"
         id="g77">
        <g
           id="g75">
          <path
             stroke="red"
             stroke-width="1"
             fill="none"
             d="M 113.8093590462623 75.6795756405039 L 104.60692263106048 68.99361422359458 L 97.94214321236659 78.16689611941322 L 107.14457962756842 84.85285753632255 L 52.160149423343796 160.53243317682646 L -36.806527499137985 131.6254075363225 L -33.29150956784062 120.80729471629282 L -44.0753491948081 117.30341282047416 L -47.59036712610546 128.12152564050385 L -136.55704404858722 99.21449999999993 L -136.55704404858724 5.66940000000001 L -125.1822070807783 5.66940000000001 L -125.1822070807783 -5.669399999999982 L -136.55704404858724 -5.669399999999982 L -136.55704404858724 -99.21449999999999 L -47.59036712610548 -128.12152564050388 L -44.07534919480811 -117.3034128204742 L -33.291509567840635 -120.80729471629286 L -36.806527499138 -131.62540753632254 L 52.16014942334377 -160.53243317682646 L 107.14457962756846 -84.85285753632262 L 97.94214321236664 -78.16689611941328 L 104.60692263106054 -68.99361422359465 L 113.80935904626236 -75.67957564050398 L 168.79378925048707 -1.4210854715202004e-13 Z"
             id="path73" />
        </g>
      </g>
      <g
         class="faces-group"
         id="g79" />
    </g>
  </g>
  <g
     transform="translate(100,0)"
     id="g87">
    <path
       d="M 0 0 L 45.0450002532167 0 L 45.0450002532167 9.449 L 33.67016328540777 9.449 L 33.67016328540777 20.787799999999997 L 45.0450002532167 20.787799999999997 L 45.0450002532167 30.2368 L 18.685565552871033 30.2368 L 6.895231641915835 53.81237685381139 L -1.5558458650210873 49.585925627102995 L 3.5320146129346757 39.412401567019955 L -6.609278395389625 34.34066009496989 L -11.697138873345388 44.514184155052924 L -20.148216380282307 40.28773292834453 Z"
       fill="none"
       stroke="red"
       id="path85" />
  </g>
  <g
     transform="translate(0,53.8123779296875)"
     id="g205">
    <g
       transform="translate(85.19322204589844,20)"
       id="g91">
      <path
         d="M 0 0 L 45.0450002532167 0 L 45.0450002532167 9.449 L 33.67016328540777 9.449 L 33.67016328540777 20.787799999999997 L 45.0450002532167 20.787799999999997 L 45.0450002532167 30.2368 L 18.685565552871033 30.2368 L 6.895231641915835 53.81237685381139 L -1.5558458650210873 49.585925627102995 L 3.5320146129346757 39.412401567019955 L -6.609278395389625 34.34066009496989 L -11.697138873345388 44.514184155052924 L -20.148216380282307 40.28773292834453 Z"
         fill="none"
         stroke="red"
         id="path89" />
    </g>
    <g
       transform="translate(160.38644409179688,20)"
       id="g95">
      <path
         d="M 0 0 L 45.0450002532167 0 L 45.0450002532167 9.449 L 33.67016328540777 9.449 L 33.67016328540777 20.787799999999997 L 45.0450002532167 20.787799999999997 L 45.0450002532167 30.2368 L 18.685565552871033 30.2368 L 6.895231641915835 53.81237685381139 L -1.5558458650210873 49.585925627102995 L 3.5320146129346757 39.412401567019955 L -6.609278395389625 34.34066009496989 L -11.697138873345388 44.514184155052924 L -20.148216380282307 40.28773292834453 Z"
         fill="none"
         stroke="red"
         id="path93" />
    </g>
    <g
       transform="translate(235.5796661376953,20)"
       id="g99">
      <path
         d="M 0 0 L 45.0450002532167 0 L 45.0450002532167 9.449 L 33.67016328540777 9.449 L 33.67016328540777 20.787799999999997 L 45.0450002532167 20.787799999999997 L 45.0450002532167 30.2368 L 18.685565552871033 30.2368 L 6.895231641915835 53.81237685381139 L -1.5558458650210873 49.585925627102995 L 3.5320146129346757 39.412401567019955 L -6.609278395389625 34.34066009496989 L -11.697138873345388 44.514184155052924 L -20.148216380282307 40.28773292834453 Z"
         fill="none"
         stroke="red"
         id="path97" />
    </g>
    <g
       transform="translate(310.77288818359375,20)"
       id="g103">
      <path
         d="M 0 0 L 45.0450002532167 0 L 45.0450002532167 9.449 L 33.67016328540777 9.449 L 33.67016328540777 20.787799999999997 L 45.0450002532167 20.787799999999997 L 45.0450002532167 30.2368 L 18.685565552871033 30.2368 L 6.895231641915835 53.81237685381139 L -1.5558458650210873 49.585925627102995 L 3.5320146129346757 39.412401567019955 L -6.609278395389625 34.34066009496989 L -11.697138873345388 44.514184155052924 L -20.148216380282307 40.28773292834453 Z"
         fill="none"
         stroke="red"
         id="path101" />
    </g>
    <g
       transform="translate(10,83.8123779296875)"
       id="g107">
      <path
         d="M 0 0 L 45.0450002532167 0 L 45.0450002532167 9.449 L 33.67016328540777 9.449 L 33.67016328540777 20.787799999999997 L 45.0450002532167 20.787799999999997 L 45.0450002532167 30.2368 L 18.685565552871033 30.2368 L 6.895231641915835 53.81237685381139 L -1.5558458650210873 49.585925627102995 L 3.5320146129346757 39.412401567019955 L -6.609278395389625 34.34066009496989 L -11.697138873345388 44.514184155052924 L -20.148216380282307 40.28773292834453 Z"
         fill="none"
         stroke="red"
         id="path105" />
    </g>
    <g
       transform="translate(85.19322204589844,83.8123779296875)"
       id="g111">
      <path
         d="M 0 0 L 45.0450002532167 0 L 45.0450002532167 9.449 L 33.67016328540777 9.449 L 33.67016328540777 20.787799999999997 L 45.0450002532167 20.787799999999997 L 45.0450002532167 30.2368 L 18.685565552871033 30.2368 L 6.895231641915835 53.81237685381139 L -1.5558458650210873 49.585925627102995 L 3.5320146129346757 39.412401567019955 L -6.609278395389625 34.34066009496989 L -11.697138873345388 44.514184155052924 L -20.148216380282307 40.28773292834453 Z"
         fill="none"
         stroke="red"
         id="path109" />
    </g>
    <g
       transform="translate(160.38644409179688,83.8123779296875)"
       id="g115">
      <path
         d="M 0 0 L 45.0450002532167 0 L 45.0450002532167 9.449 L 33.67016328540777 9.449 L 33.67016328540777 20.787799999999997 L 45.0450002532167 20.787799999999997 L 45.0450002532167 30.2368 L 18.685565552871033 30.2368 L 6.895231641915835 53.81237685381139 L -1.5558458650210873 49.585925627102995 L 3.5320146129346757 39.412401567019955 L -6.609278395389625 34.34066009496989 L -11.697138873345388 44.514184155052924 L -20.148216380282307 40.28773292834453 Z"
         fill="none"
         stroke="red"
         id="path113" />
    </g>
    <g
       transform="translate(235.5796661376953,83.8123779296875)"
       id="g119">
      <path
         d="M 0 0 L 45.0450002532167 0 L 45.0450002532167 9.449 L 33.67016328540777 9.449 L 33.67016328540777 20.787799999999997 L 45.0450002532167 20.787799999999997 L 45.0450002532167 30.2368 L 18.685565552871033 30.2368 L 6.895231641915835 53.81237685381139 L -1.5558458650210873 49.585925627102995 L 3.5320146129346757 39.412401567019955 L -6.609278395389625 34.34066009496989 L -11.697138873345388 44.514184155052924 L -20.148216380282307 40.28773292834453 Z"
         fill="none"
         stroke="red"
         id="path117" />
    </g>
    <g
       transform="translate(310.77288818359375,83.8123779296875)"
       id="g123">
      <path
         d="M 0 0 L 45.0450002532167 0 L 45.0450002532167 9.449 L 33.67016328540777 9.449 L 33.67016328540777 20.787799999999997 L 45.0450002532167 20.787799999999997 L 45.0450002532167 30.2368 L 18.685565552871033 30.2368 L 6.895231641915835 53.81237685381139 L -1.5558458650210873 49.585925627102995 L 3.5320146129346757 39.412401567019955 L -6.609278395389625 34.34066009496989 L -11.697138873345388 44.514184155052924 L -20.148216380282307 40.28773292834453 Z"
         fill="none"
         stroke="red"
         id="path121" />
    </g>
    <g
       transform="translate(10,147.624755859375)"
       id="g127">
      <path
         d="M 0 0 L 45.0450002532167 0 L 45.0450002532167 9.449 L 33.67016328540777 9.449 L 33.67016328540777 20.787799999999997 L 45.0450002532167 20.787799999999997 L 45.0450002532167 30.2368 L 18.685565552871033 30.2368 L 6.895231641915835 53.81237685381139 L -1.5558458650210873 49.585925627102995 L 3.5320146129346757 39.412401567019955 L -6.609278395389625 34.34066009496989 L -11.697138873345388 44.514184155052924 L -20.148216380282307 40.28773292834453 Z"
         fill="none"
         stroke="red"
         id="path125" />
    </g>
    <g
       transform="translate(85.19322204589844,147.624755859375)"
       id="g131">
      <path
         d="M 0 0 L 45.0450002532167 0 L 45.0450002532167 9.449 L 33.67016328540777 9.449 L 33.67016328540777 20.787799999999997 L 45.0450002532167 20.787799999999997 L 45.0450002532167 30.2368 L 18.685565552871033 30.2368 L 6.895231641915835 53.81237685381139 L -1.5558458650210873 49.585925627102995 L 3.5320146129346757 39.412401567019955 L -6.609278395389625 34.34066009496989 L -11.697138873345388 44.514184155052924 L -20.148216380282307 40.28773292834453 Z"
         fill="none"
         stroke="red"
         id="path129" />
    </g>
    <g
       transform="translate(160.38644409179688,147.624755859375)"
       id="g135">
      <path
         d="M 0 0 L 45.0450002532167 0 L 45.0450002532167 9.449 L 33.67016328540777 9.449 L 33.67016328540777 20.787799999999997 L 45.0450002532167 20.787799999999997 L 45.0450002532167 30.2368 L 18.685565552871033 30.2368 L 6.895231641915835 53.81237685381139 L -1.5558458650210873 49.585925627102995 L 3.5320146129346757 39.412401567019955 L -6.609278395389625 34.34066009496989 L -11.697138873345388 44.514184155052924 L -20.148216380282307 40.28773292834453 Z"
         fill="none"
         stroke="red"
         id="path133" />
    </g>
    <g
       transform="translate(235.5796661376953,147.624755859375)"
       id="g139">
      <path
         d="M 0 0 L 45.0450002532167 0 L 45.0450002532167 9.449 L 33.67016328540777 9.449 L 33.67016328540777 20.787799999999997 L 45.0450002532167 20.787799999999997 L 45.0450002532167 30.2368 L 18.685565552871033 30.2368 L 6.895231641915835 53.81237685381139 L -1.5558458650210873 49.585925627102995 L 3.5320146129346757 39.412401567019955 L -6.609278395389625 34.34066009496989 L -11.697138873345388 44.514184155052924 L -20.148216380282307 40.28773292834453 Z"
         fill="none"
         stroke="red"
         id="path137" />
    </g>
    <g
       transform="translate(310.77288818359375,147.624755859375)"
       id="g143">
      <path
         d="M 0 0 L 45.0450002532167 0 L 45.0450002532167 9.449 L 33.67016328540777 9.449 L 33.67016328540777 20.787799999999997 L 45.0450002532167 20.787799999999997 L 45.0450002532167 30.2368 L 18.685565552871033 30.2368 L 6.895231641915835 53.81237685381139 L -1.5558458650210873 49.585925627102995 L 3.5320146129346757 39.412401567019955 L -6.609278395389625 34.34066009496989 L -11.697138873345388 44.514184155052924 L -20.148216380282307 40.28773292834453 Z"
         fill="none"
         stroke="red"
         id="path141" />
    </g>
    <g
       transform="translate(10,211.4371337890625)"
       id="g147">
      <path
         d="M 0 0 L 45.0450002532167 0 L 45.0450002532167 9.449 L 33.67016328540777 9.449 L 33.67016328540777 20.787799999999997 L 45.0450002532167 20.787799999999997 L 45.0450002532167 30.2368 L 18.685565552871033 30.2368 L 6.895231641915835 53.81237685381139 L -1.5558458650210873 49.585925627102995 L 3.5320146129346757 39.412401567019955 L -6.609278395389625 34.34066009496989 L -11.697138873345388 44.514184155052924 L -20.148216380282307 40.28773292834453 Z"
         fill="none"
         stroke="red"
         id="path145" />
    </g>
    <g
       transform="translate(85.19322204589844,211.4371337890625)"
       id="g151">
      <path
         d="M 0 0 L 45.0450002532167 0 L 45.0450002532167 9.449 L 33.67016328540777 9.449 L 33.67016328540777 20.787799999999997 L 45.0450002532167 20.787799999999997 L 45.0450002532167 30.2368 L 18.685565552871033 30.2368 L 6.895231641915835 53.81237685381139 L -1.5558458650210873 49.585925627102995 L 3.5320146129346757 39.412401567019955 L -6.609278395389625 34.34066009496989 L -11.697138873345388 44.514184155052924 L -20.148216380282307 40.28773292834453 Z"
         fill="none"
         stroke="red"
         id="path149" />
    </g>
    <g
       transform="translate(160.38644409179688,211.4371337890625)"
       id="g155">
      <path
         d="M 0 0 L 45.0450002532167 0 L 45.0450002532167 9.449 L 33.67016328540777 9.449 L 33.67016328540777 20.787799999999997 L 45.0450002532167 20.787799999999997 L 45.0450002532167 30.2368 L 18.685565552871033 30.2368 L 6.895231641915835 53.81237685381139 L -1.5558458650210873 49.585925627102995 L 3.5320146129346757 39.412401567019955 L -6.609278395389625 34.34066009496989 L -11.697138873345388 44.514184155052924 L -20.148216380282307 40.28773292834453 Z"
         fill="none"
         stroke="red"
         id="path153" />
    </g>
    <g
       transform="translate(235.5796661376953,211.4371337890625)"
       id="g159">
      <path
         d="M 0 0 L 45.0450002532167 0 L 45.0450002532167 9.449 L 33.67016328540777 9.449 L 33.67016328540777 20.787799999999997 L 45.0450002532167 20.787799999999997 L 45.0450002532167 30.2368 L 18.685565552871033 30.2368 L 6.895231641915835 53.81237685381139 L -1.5558458650210873 49.585925627102995 L 3.5320146129346757 39.412401567019955 L -6.609278395389625 34.34066009496989 L -11.697138873345388 44.514184155052924 L -20.148216380282307 40.28773292834453 Z"
         fill="none"
         stroke="red"
         id="path157" />
    </g>
    <g
       transform="translate(310.77288818359375,211.4371337890625)"
       id="g163">
      <path
         d="M 0 0 L 45.0450002532167 0 L 45.0450002532167 9.449 L 33.67016328540777 9.449 L 33.67016328540777 20.787799999999997 L 45.0450002532167 20.787799999999997 L 45.0450002532167 30.2368 L 18.685565552871033 30.2368 L 6.895231641915835 53.81237685381139 L -1.5558458650210873 49.585925627102995 L 3.5320146129346757 39.412401567019955 L -6.609278395389625 34.34066009496989 L -11.697138873345388 44.514184155052924 L -20.148216380282307 40.28773292834453 Z"
         fill="none"
         stroke="red"
         id="path161" />
    </g>
    <g
       transform="translate(10,275.24951171875)"
       id="g167">
      <path
         d="M 0 0 L 45.0450002532167 0 L 45.0450002532167 9.449 L 33.67016328540777 9.449 L 33.67016328540777 20.787799999999997 L 45.0450002532167 20.787799999999997 L 45.0450002532167 30.2368 L 18.685565552871033 30.2368 L 6.895231641915835 53.81237685381139 L -1.5558458650210873 49.585925627102995 L 3.5320146129346757 39.412401567019955 L -6.609278395389625 34.34066009496989 L -11.697138873345388 44.514184155052924 L -20.148216380282307 40.28773292834453 Z"
         fill="none"
         stroke="red"
         id="path165" />
    </g>
    <g
       transform="translate(85.19322204589844,275.24951171875)"
       id="g171">
      <path
         d="M 0 0 L 45.0450002532167 0 L 45.0450002532167 9.449 L 33.67016328540777 9.449 L 33.67016328540777 20.787799999999997 L 45.0450002532167 20.787799999999997 L 45.0450002532167 30.2368 L 18.685565552871033 30.2368 L 6.895231641915835 53.81237685381139 L -1.5558458650210873 49.585925627102995 L 3.5320146129346757 39.412401567019955 L -6.609278395389625 34.34066009496989 L -11.697138873345388 44.514184155052924 L -20.148216380282307 40.28773292834453 Z"
         fill="none"
         stroke="red"
         id="path169" />
    </g>
    <g
       transform="translate(160.38644409179688,275.24951171875)"
       id="g175">
      <path
         d="M 0 0 L 45.0450002532167 0 L 45.0450002532167 9.449 L 33.67016328540777 9.449 L 33.67016328540777 20.787799999999997 L 45.0450002532167 20.787799999999997 L 45.0450002532167 30.2368 L 18.685565552871033 30.2368 L 6.895231641915835 53.81237685381139 L -1.5558458650210873 49.585925627102995 L 3.5320146129346757 39.412401567019955 L -6.609278395389625 34.34066009496989 L -11.697138873345388 44.514184155052924 L -20.148216380282307 40.28773292834453 Z"
         fill="none"
         stroke="red"
         id="path173" />
    </g>
    <g
       transform="translate(235.5796661376953,275.24951171875)"
       id="g179">
      <path
         d="M 0 0 L 45.0450002532167 0 L 45.0450002532167 9.449 L 33.67016328540777 9.449 L 33.67016328540777 20.787799999999997 L 45.0450002532167 20.787799999999997 L 45.0450002532167 30.2368 L 18.685565552871033 30.2368 L 6.895231641915835 53.81237685381139 L -1.5558458650210873 49.585925627102995 L 3.5320146129346757 39.412401567019955 L -6.609278395389625 34.34066009496989 L -11.697138873345388 44.514184155052924 L -20.148216380282307 40.28773292834453 Z"
         fill="none"
         stroke="red"
         id="path177" />
    </g>
    <g
       transform="translate(310.77288818359375,275.24951171875)"
       id="g183">
      <path
         d="M 0 0 L 45.0450002532167 0 L 45.0450002532167 9.449 L 33.67016328540777 9.449 L 33.67016328540777 20.787799999999997 L 45.0450002532167 20.787799999999997 L 45.0450002532167 30.2368 L 18.685565552871033 30.2368 L 6.895231641915835 53.81237685381139 L -1.5558458650210873 49.585925627102995 L 3.5320146129346757 39.412401567019955 L -6.609278395389625 34.34066009496989 L -11.697138873345388 44.514184155052924 L -20.148216380282307 40.28773292834453 Z"
         fill="none"
         stroke="red"
         id="path181" />
    </g>
    <g
       transform="translate(10,339.0618896484375)"
       id="g187">
      <path
         d="M 0 0 L 45.0450002532167 0 L 45.0450002532167 9.449 L 33.67016328540777 9.449 L 33.67016328540777 20.787799999999997 L 45.0450002532167 20.787799999999997 L 45.0450002532167 30.2368 L 18.685565552871033 30.2368 L 6.895231641915835 53.81237685381139 L -1.5558458650210873 49.585925627102995 L 3.5320146129346757 39.412401567019955 L -6.609278395389625 34.34066009496989 L -11.697138873345388 44.514184155052924 L -20.148216380282307 40.28773292834453 Z"
         fill="none"
         stroke="red"
         id="path185" />
    </g>
    <g
       transform="translate(85.19322204589844,339.0618896484375)"
       id="g191">
      <path
         d="M 0 0 L 45.0450002532167 0 L 45.0450002532167 9.449 L 33.67016328540777 9.449 L 33.67016328540777 20.787799999999997 L 45.0450002532167 20.787799999999997 L 45.0450002532167 30.2368 L 18.685565552871033 30.2368 L 6.895231641915835 53.81237685381139 L -1.5558458650210873 49.585925627102995 L 3.5320146129346757 39.412401567019955 L -6.609278395389625 34.34066009496989 L -11.697138873345388 44.514184155052924 L -20.148216380282307 40.28773292834453 Z"
         fill="none"
         stroke="red"
         id="path189" />
    </g>
    <g
       transform="translate(160.38644409179688,339.0618896484375)"
       id="g195">
      <path
         d="M 0 0 L 45.0450002532167 0 L 45.0450002532167 9.449 L 33.67016328540777 9.449 L 33.67016328540777 20.787799999999997 L 45.0450002532167 20.787799999999997 L 45.0450002532167 30.2368 L 18.685565552871033 30.2368 L 6.895231641915835 53.81237685381139 L -1.5558458650210873 49.585925627102995 L 3.5320146129346757 39.412401567019955 L -6.609278395389625 34.34066009496989 L -11.697138873345388 44.514184155052924 L -20.148216380282307 40.28773292834453 Z"
         fill="none"
         stroke="red"
         id="path193" />
    </g>
    <g
       transform="translate(235.5796661376953,339.0618896484375)"
       id="g199">
      <path
         d="M 0 0 L 45.0450002532167 0 L 45.0450002532167 9.449 L 33.67016328540777 9.449 L 33.67016328540777 20.787799999999997 L 45.0450002532167 20.787799999999997 L 45.0450002532167 30.2368 L 18.685565552871033 30.2368 L 6.895231641915835 53.81237685381139 L -1.5558458650210873 49.585925627102995 L 3.5320146129346757 39.412401567019955 L -6.609278395389625 34.34066009496989 L -11.697138873345388 44.514184155052924 L -20.148216380282307 40.28773292834453 Z"
         fill="none"
         stroke="red"
         id="path197" />
    </g>
    <g
       transform="translate(310.77288818359375,339.0618896484375)"
       id="g203">
      <path
         d="M 0 0 L 45.0450002532167 0 L 45.0450002532167 9.449 L 33.67016328540777 9.449 L 33.67016328540777 20.787799999999997 L 45.0450002532167 20.787799999999997 L 45.0450002532167 30.2368 L 18.685565552871033 30.2368 L 6.895231641915835 53.81237685381139 L -1.5558458650210873 49.585925627102995 L 3.5320146129346757 39.412401567019955 L -6.609278395389625 34.34066009496989 L -11.697138873345388 44.514184155052924 L -20.148216380282307 40.28773292834453 Z"
         fill="none"
         stroke="red"
         id="path201" />
    </g>
  </g>
</svg>
