<svg xmlns="http://www.w3.org/2000/svg" width="null" height="null" viewBox="0 0 1584.6352844238281 1828.7755126953125"><g transform="translate(0 0)"><rect id="bin" width="1311.5212" height="933.5612" fill="none" stroke="black" class="bin" transform="translate(0 0)"/><g transform="translate(-49.87709699999988 830.182446) rotate(270)"><path class="guide" id="pentagon" d="M 830.182446 243.040717 L 689.84086 436.204337 L 462.76340600000003 362.422397 L 462.76340600000003 123.659037 L 689.84086 49.87709699999999 z" fill="none" stroke="#000000" style="display:none"/><path class="guide hole" id="pentagon" d="M 797.479546 243.040717 L 679.7351090000001 80.97940700000001 L 489.2206060000001 142.881317 L 489.2206060000001 343.200117 L 679.7351090000001 405.102027 z" fill="none" stroke="#000000" style="display:none"/><path d="M 644.894116 311.147587L 689.939116 311.147587L 689.939116 320.596587L 678.564279 320.596587L 678.564279 331.935387L 689.939116 331.935387L 689.939116 341.384387L 663.579682 341.384387L 651.7893476 364.959964L 643.3382701 360.733513L 648.4261306000001 350.559989L 638.2848376000001 345.488247L 633.1969770000001 355.661771L 624.7459 351.43532z" fill="none" stroke="#ff0000" id="path89"/><path d="M 715.369536 216.791617L 760.414536 216.791617L 760.414536 226.24061700000001L 749.039699 226.24061700000001L 749.039699 237.579417L 760.414536 237.579417L 760.414536 247.028417L 734.055102 247.028417L 722.2647676 270.603994L 713.8136901 266.377543L 718.9015506000001 256.204019L 708.7602576 251.132277L 703.672397 261.305801L 695.22132 257.07935z" fill="none" stroke="#ff0000" id="path93"/><path d="M 636.9427760000001 118.897306L 681.987776 118.897306L 681.987776 128.346306L 670.6129390000001 128.346306L 670.6129390000001 139.685106L 681.987776 139.685106L 681.987776 149.134106L 655.6283420000001 149.134106L 643.8380076000001 172.70968299999998L 635.3869301000001 168.483232L 640.4747906000001 158.309708L 630.3334976000001 153.237966L 625.2456370000001 163.41149000000001L 616.79456 159.18503900000002z" fill="none" stroke="#ff0000" id="path101"/><path class="guide" d="M 636.064729 240.1208154 L 589.37653 96.429317 L 571.4034630000001 102.269117 L 618.091663 245.9606186 z" fill="none" stroke="#000000" style="display:none" id="path3-8"/><circle cx="627.078196" cy="243.040717" fill="none" stroke="#ff0000" r="5.6694002" id="circle7" class="null hole"/><path class="guide" d="M 618.091663 240.1208154 L 571.4034630000001 383.812317 L 589.37653 389.652117 L 636.064729 245.9606186 z" fill="none" stroke="#000000" style="display:none" id="path3-8"/><path class="guide hole" d="M 627.078196 233.591717 L 475.99200600000006 233.591717 L 475.99200600000006 252.489717 L 627.078196 252.489717 z" fill="none" stroke="#000000" style="display:none" id="path3-8"/><path d="M 489.2206060000001 343.200117 L 575.078196 371.040717 L 607.078196 273.040717 L 596.5005900000001 265.256648 L 592.5005900000001 252.489717 L 489.2206060000001 252.489717 z" fill="none" stroke="#ff0000" id="path5"/><path d="M 526.4230960000001 277.436487L 571.4680960000001 277.436487L 571.4680960000001 286.885487L 560.0932590000001 286.885487L 560.0932590000001 298.224287L 571.4680960000001 298.224287L 571.4680960000001 307.673287L 545.1086620000001 307.673287L 533.3183276000001 331.248864L 524.8672501000001 327.02241300000003L 529.9551106000001 316.848889L 519.8138176000001 311.777147L 514.7259570000001 321.950671L 506.2748800000001 317.72422z" fill="none" stroke="#ff0000" id="path85" class="null hole"/><path d="M 489.2206060000001 142.881317 L 489.2206060000001 233.591717 L 592.282196 233.591717 L 596.5005900000001 220.824786 L 607.078196 213.040717 L 575.078196 115.040717 z" fill="none" stroke="#ff0000" id="path5"/><path d="M 524.0071660000001 156.639691L 569.052166 156.639691L 569.052166 166.088691L 557.6773290000001 166.088691L 557.6773290000001 177.427491L 569.052166 177.427491L 569.052166 186.876491L 542.6927320000001 186.876491L 530.9023976000001 210.452068L 522.4513201000001 206.225617L 527.5391806000001 196.052093L 517.3978876000001 190.98035099999998L 512.3100270000001 201.153875L 503.8589500000001 196.927424z" fill="none" stroke="#ff0000" id="path97" class="null hole"/><path class="guide hole" d="M 632.6321788 250.6851186 L 754.863476 161.878886 L 743.7555060000001 146.590083 L 621.5242132000001 235.3963154 z" fill="none" stroke="#000000" style="display:none" id="path3-8"/><path class="guide hole" d="M 621.5242132000001 250.6851186 L 743.7555060000001 339.491351 L 754.863476 324.202548 L 632.6321788 235.3963154 z" fill="none" stroke="#000000" style="display:none" id="path3-8"/><path d="M 638.7578020000001 278.986849 L 625.3765295000001 278.986849 L 593.078196 377.040717 L 679.7351090000001 405.102027 L 733.078196 332.040717 L 650.078196 271.040717 z" fill="none" stroke="#ff0000" id="path5" class="null hole"/><path d="M 661.078196 230.040717 L 664.8741960000001 243.040717 L 661.078196 256.040717 L 744.078196 316.040717 L 797.479546 243.040717 L 744.078196 170.040717 z" fill="none" stroke="#ff0000" id="path5" class="null hole"/><path d="M 593.078196 109.040717 L 625.064729 207.094585 L 638.7578020000001 207.094585 L 650.078196 215.040717 L 733.078196 154.040717 L 679.7351090000001 80.97940700000001 z" fill="none" stroke="#ff0000" id="path5" class="null hole"/><polygon points="483.07875600000006,294.307977 483.07875600000006,342.308896342041 462.85789647241216,342.308896342041 462.85789647241216,294.307977 " id="rect9" class="guide hole"/><circle fill="none" stroke="#ff0000" r="4.1575599" cx="472.96832600000005" cy="303.1900371" id="circle11"/><circle fill="none" stroke="#ff0000" r="4.1575599" cx="472.96832600000005" cy="333.426835" id="circle13"/><polygon points="483.07875600000006,143.772537 483.07875600000006,191.77345634204102 462.85789647241216,191.77345634204102 462.85789647241216,143.772537 " id="rect17" class="guide hole"/><circle fill="none" stroke="#ff0000" r="4.1575599" cx="472.96832600000005" cy="152.6545971" id="circle19"/><circle fill="none" stroke="#ff0000" r="4.1575599" cx="472.96832600000005" cy="182.891395" id="circle21"/><polygon points="533.8218596388424,121.93156691177506 488.17027251043623,136.76466673408686 481.921683275543,117.53348651528546 527.5732704039492,102.70038669297367 " id="rect27" class="guide hole"/><circle fill="none" stroke="#ff0000" r="4.1575599" cx="522.2502238121739" cy="115.0606840936887" id="circle29"/><circle fill="none" stroke="#ff0000" r="4.1575599" cx="493.4933201374793" cy="124.40436850026943" id="circle31"/><polygon points="676.9895707842004,75.41355769606481 631.3379836557942,90.24665751837661 625.0893944209009,71.01547729957521 670.7409815493072,56.182377477263415 " id="rect35" class="guide hole"/><circle fill="none" stroke="#ff0000" r="4.1575599" cx="665.4179349575319" cy="68.54267487797846" id="circle37"/><circle fill="none" stroke="#ff0000" r="4.1575599" cx="636.6610312828373" cy="77.88635928455918" id="circle39"/><polygon points="713.4420492600892,116.9238866905071 685.2278167743569,78.09032719717482 701.5868357730442,66.2048041781809 729.8010682587764,105.0383636715132 " id="rect45" class="guide hole"/><circle fill="none" stroke="#ff0000" r="4.1575599" cx="716.4008150137721" cy="103.79538747621207" id="circle47"/><circle fill="none" stroke="#ff0000" r="4.1575599" cx="698.6280711316041" cy="79.33330411963135" id="circle49"/><polygon points="801.9245608394477,238.70961590621732 773.7103283537155,199.87605641288502 790.0693473524027,187.99053339389113 818.2835798381349,226.8240928872234 " id="rect53" class="guide hole"/><circle fill="none" stroke="#ff0000" r="4.1575599" cx="804.8833265931306" cy="225.5811166919223" id="circle55"/><circle fill="none" stroke="#ff0000" r="4.1575599" cx="787.1105827109626" cy="201.11903333534156" id="circle57"/><polygon points="773.7103279669768,286.205378119415 801.9245604527091,247.3718186260827 818.2835794513962,259.2573416450766 790.069346965664,298.0909011384089 " id="rect63" class="guide hole"/><circle fill="none" stroke="#ff0000" r="4.1575599" cx="787.1105815941705" cy="284.9624022017907" id="circle65"/><circle fill="none" stroke="#ff0000" r="4.1575599" cx="804.8833254763385" cy="260.50031884521" id="circle67"/><polygon points="685.2278163876183,407.9911073351252 713.4420488733506,369.1575478417929 729.8010678720377,381.0430708607868 701.5868353863054,419.87663035411913 " id="rect71" class="guide hole"/><circle fill="none" stroke="#ff0000" r="4.1575599" cx="698.628070014812" cy="406.74813141750093" id="circle73"/><circle fill="none" stroke="#ff0000" r="4.1575599" cx="716.40081389698" cy="382.2860480609202" id="circle75"/><polygon points="631.3379830300381,395.83477627830285 676.9895701584443,410.66787610061465 670.7409809235511,429.89905631941605 625.0893937951449,415.06595649710425 " id="rect81" class="guide hole"/><circle fill="none" stroke="#ff0000" r="4.157559899999999" cx="636.66102947583" cy="408.19507412830853" id="circle83"/><circle fill="none" stroke="#ff0000" r="4.157559899999999" cx="665.4179331505246" cy="417.5387585348892" id="circle85"/><polygon points="488.17027188468,349.31676706259265 533.8218590130862,364.14986688490444 527.573269778193,383.38104710370584 481.92168264978676,368.54794728139404 " id="rect89" class="guide hole"/><circle fill="none" stroke="#ff0000" r="4.157559899999999" cx="493.4933183304719" cy="361.6770649125983" id="circle91"/><circle fill="none" stroke="#ff0000" r="4.157559899999999" cx="522.2502220051665" cy="371.020749319179" id="circle93"/></g><g transform="translate(830.182446 803.6233769999999) rotate(180)"><path d="M 830.182446 243.040717 L 689.84086 436.204337 L 462.76340600000003 362.422397 L 462.76340600000003 123.659037 L 689.84086 49.87709699999999 z" fill="none" stroke="#ff0000" id="path5"/></g><g transform="translate(-1092.7962131999998 1527.9586739000003) rotate(270)"><path id="path255" d="M 1348.43225 1613.9553999999998 L 1208.090664 1807.1190199999999 L 981.01321 1733.3370799999998 L 981.01321 1494.5737199999999 L 1208.090664 1420.7917799999998 z" fill="none" stroke="#ff0000"/><path id="path255" d="M 1315.72935 1613.9553999999998 L 1197.984913 1451.8940899999998 L 1007.47041 1513.7959999999998 L 1007.47041 1714.1147999999998 L 1197.984913 1776.0167099999999 z" fill="none" stroke="#ff0000" class="null hole"/><path stroke="#ff0000" stroke-width="1" fill="none" d="M 1258.4137499999997 1689.6349759999998L 1249.2113099999997 1682.9490139999998L 1242.5465329999997 1692.1222959999998L 1251.7489699999996 1698.8082579999998L 1196.7645389999998 1774.4878299999998L 1107.7978629999998 1745.58081L 1111.3128799999997 1734.7626899999998L 1100.5290409999998 1731.2588099999998L 1097.0140229999997 1742.0769299999997L 1008.0473499999997 1713.1698999999999L 1008.0473499999997 1619.6247999999998L 1019.4221799999998 1619.6247999999998L 1019.4221799999998 1608.2859999999998L 1008.0473499999997 1608.2859999999998L 1008.0473499999997 1514.7408999999998L 1097.0140229999997 1485.83387L 1100.5290409999998 1496.6519899999998L 1111.3128799999997 1493.1481099999999L 1107.7978629999998 1482.3299899999997L 1196.7645389999998 1453.4229699999999L 1251.7489699999996 1529.1025419999999L 1242.5465329999997 1535.7885039999999L 1249.2113099999997 1544.9617859999998L 1258.4137499999997 1538.2758239999998L 1313.3981799999997 1613.9553999999998z" id="path73"/><polygon points="1001.32856,1665.22266 1001.32856,1713.223579342041 981.1077004724121,1713.223579342041 981.1077004724121,1665.22266 " id="rect257" class="guide hole"/><circle fill="none" stroke="#ff0000" r="4.1575599" cx="991.2181300000001" cy="1674.1047201" id="circle259"/><circle fill="none" stroke="#ff0000" r="4.1575599" cx="991.2181300000001" cy="1704.341518" id="circle261"/><polygon points="1001.3285599999999,1514.6872199999998 1001.3285599999999,1562.6881393420408 981.107700472412,1562.6881393420408 981.107700472412,1514.6872199999998 " id="rect265" class="guide hole"/><circle fill="none" stroke="#ff0000" r="4.1575599" cx="991.21813" cy="1523.5692800999998" id="circle267"/><circle fill="none" stroke="#ff0000" r="4.1575599" cx="991.21813" cy="1553.8060779999998" id="circle269"/></g><g transform="translate(1527.5624343999998 -265.3422461) rotate(90)"><path id="path167" d="M 1179.7067500000003 997.54126 L 1039.3651640000003 1190.70488 L 812.2877100000002 1116.92294 L 812.2877100000002 878.15958 L 1039.3651640000003 804.3776399999999 z" fill="none" stroke="#ff0000"/><path id="path167" d="M 1147.0038500000003 997.54126 L 1029.2594130000002 835.4799499999999 L 838.7449100000002 897.38186 L 838.7449100000002 1097.70066 L 1029.2594130000002 1159.60257 z" fill="none" stroke="#ff0000" class="null hole"/><path stroke="#ff0000" stroke-width="1" fill="none" d="M 1089.68826 1073.220836L 1080.4858199999999 1066.534874L 1073.821043 1075.708156L 1083.0234799999998 1082.394118L 1028.039049 1158.07369L 939.072373 1129.16667L 942.5873899999999 1118.34855L 931.803551 1114.84467L 928.2885329999999 1125.6627899999999L 839.3218599999999 1096.75576L 839.3218599999999 1003.21066L 850.69669 1003.21066L 850.69669 991.87186L 839.3218599999999 991.87186L 839.3218599999999 898.3267599999999L 928.2885329999999 869.41973L 931.803551 880.23785L 942.5873899999999 876.73397L 939.072373 865.91585L 1028.039049 837.00883L 1083.0234799999998 912.688402L 1073.821043 919.374364L 1080.4858199999999 928.547646L 1089.68826 921.861684L 1144.6726899999999 997.54126z" id="path21"/><polygon points="832.6030600000003,1048.80852 832.6030600000003,1096.809439342041 812.3822004724124,1096.809439342041 812.3822004724124,1048.80852 " id="rect169" class="guide hole"/><circle fill="none" stroke="#ff0000" r="4.1575599" cx="822.4926300000003" cy="1057.6905801" id="circle171"/><circle fill="none" stroke="#ff0000" r="4.1575599" cx="822.4926300000003" cy="1087.927378" id="circle173"/><polygon points="832.6030600000001,898.2730799999999 832.6030600000001,946.273999342041 812.3822004724123,946.273999342041 812.3822004724123,898.2730799999999 " id="rect177" class="guide hole"/><circle fill="none" stroke="#ff0000" r="4.1575599" cx="822.4926300000002" cy="907.1551400999999" id="circle179"/><circle fill="none" stroke="#ff0000" r="4.1575599" cx="822.4926300000002" cy="937.391938" id="circle181"/></g><g transform="translate(2267.5544844 -597.0514100000001) rotate(90)"><path id="path211" d="M 964.4704499999999 1487.7833 L 824.1288639999999 1680.94692 L 597.0514099999999 1607.16498 L 597.0514099999999 1368.40162 L 824.1288639999999 1294.61968 z" fill="none" stroke="#ff0000"/><path id="path211" d="M 931.7675499999999 1487.7833 L 814.023113 1325.72199 L 623.50861 1387.6239 L 623.50861 1587.9427 L 814.023113 1649.84461 z" fill="none" stroke="#ff0000" class="null hole"/><path stroke="#ff0000" stroke-width="1" fill="none" d="M 874.4519600000001 1563.462876L 865.2495200000001 1556.776914L 858.5847430000001 1565.950196L 867.7871800000001 1572.636158L 812.8027490000002 1648.31573L 723.8360730000002 1619.4087100000002L 727.3510900000001 1608.59059L 716.5672510000002 1605.08671L 713.0522330000001 1615.90483L 624.0855600000001 1586.9978L 624.0855600000001 1493.4527L 635.4603900000002 1493.4527L 635.4603900000002 1482.1139L 624.0855600000001 1482.1139L 624.0855600000001 1388.5688L 713.0522330000001 1359.6617700000002L 716.5672510000002 1370.47989L 727.3510900000001 1366.97601L 723.8360730000002 1356.15789L 812.8027490000002 1327.25087L 867.7871800000001 1402.930442L 858.5847430000001 1409.616404L 865.2495200000001 1418.789686L 874.4519600000001 1412.103724L 929.4363900000001 1487.7833z" id="path33"/><polygon points="617.36676,1539.0505600000001 617.36676,1587.0514793420411 597.1459004724121,1587.0514793420411 597.1459004724121,1539.0505600000001 " id="rect213" class="guide hole"/><circle fill="none" stroke="#ff0000" r="4.1575599" cx="607.25633" cy="1547.9326201000001" id="circle215"/><circle fill="none" stroke="#ff0000" r="4.1575599" cx="607.25633" cy="1578.1694180000002" id="circle217"/><polygon points="617.3667599999999,1388.51512 617.3667599999999,1436.516039342041 597.145900472412,1436.516039342041 597.145900472412,1388.51512 " id="rect221" class="guide hole"/><circle fill="none" stroke="#ff0000" r="4.1575599" cx="607.2563299999999" cy="1397.3971801" id="circle223"/><circle fill="none" stroke="#ff0000" r="4.1575599" cx="607.2563299999999" cy="1427.633978" id="circle225"/></g><g transform="translate(639.9682112 -688.2508323) rotate(0)"><path id="path123" d="M 411.21214999999995 1221.5591 L 270.87056399999994 1414.72272 L 43.793109999999984 1340.94078 L 43.793109999999984 1102.17742 L 270.87056399999994 1028.39548 z" fill="none" stroke="#ff0000"/><path id="path123" d="M 378.50924999999995 1221.5591 L 260.764813 1059.49779 L 70.25030999999998 1121.3997 L 70.25030999999998 1321.7185 L 260.764813 1383.62041 z" fill="none" stroke="#ff0000" class="null hole"/><path stroke="#ff0000" stroke-width="1" fill="none" d="M 321.1936599999999 1297.238676L 311.99121999999994 1290.552714L 305.3264429999999 1299.725996L 314.52887999999996 1306.411958L 259.54444899999993 1382.09153L 170.57777299999992 1353.18451L 174.09278999999992 1342.36639L 163.30895099999992 1338.86251L 159.79393299999992 1349.6806299999998L 70.82725999999994 1320.7736L 70.82725999999994 1227.2285L 82.20208999999994 1227.2285L 82.20208999999994 1215.8897L 70.82725999999994 1215.8897L 70.82725999999994 1122.3446L 159.79393299999992 1093.43757L 163.30895099999992 1104.25569L 174.09278999999992 1100.75181L 170.57777299999992 1089.9336899999998L 259.54444899999993 1061.02667L 314.52887999999996 1136.706242L 305.3264429999999 1143.392204L 311.99121999999994 1152.565486L 321.1936599999999 1145.879524L 376.17808999999994 1221.5591z" id="path15"/><polygon points="64.10845999999998,1272.82636 64.10845999999998,1320.827279342041 43.88760047241209,1320.827279342041 43.88760047241209,1272.82636 " id="rect125" class="guide hole"/><circle fill="none" stroke="#ff0000" r="4.1575599" cx="53.99802999999998" cy="1281.7084201" id="circle127"/><circle fill="none" stroke="#ff0000" r="4.1575599" cx="53.998029999999986" cy="1311.945218" id="circle129"/><polygon points="64.10845999999998,1122.29092 64.10845999999998,1170.291839342041 43.88760047241209,1170.291839342041 43.88760047241209,1122.29092 " id="rect133" class="guide hole"/><circle fill="none" stroke="#ff0000" r="4.1575599" cx="53.99802999999998" cy="1131.1729801" id="circle135"/><circle fill="none" stroke="#ff0000" r="4.1575599" cx="53.998029999999986" cy="1161.409778" id="circle137"/></g><g transform="translate(2475.8366771 1158.3077863999997) rotate(180)"><path id="path277" d="M 1575.02395 831.96281 L 1434.682364 1025.12643 L 1207.60491 951.34449 L 1207.60491 712.58113 L 1434.682364 638.79919 z" fill="none" stroke="#ff0000"/><path id="path277" d="M 1542.32105 831.96281 L 1424.576613 669.9014999999999 L 1234.0621099999998 731.80341 L 1234.0621099999998 932.12221 L 1424.576613 994.02412 z" fill="none" stroke="#ff0000" class="null hole"/><path stroke="#ff0000" stroke-width="1" fill="none" d="M 1485.0054599999996 907.642386L 1475.8030199999996 900.956424L 1469.1382429999996 910.1297059999999L 1478.3406799999996 916.815668L 1423.3562489999997 992.49524L 1334.3895729999997 963.58822L 1337.9045899999996 952.7701L 1327.1207509999997 949.26622L 1323.6057329999996 960.08434L 1234.6390599999997 931.17731L 1234.6390599999997 837.63221L 1246.0138899999997 837.63221L 1246.0138899999997 826.29341L 1234.6390599999997 826.29341L 1234.6390599999997 732.74831L 1323.6057329999996 703.84128L 1327.1207509999997 714.6594L 1337.9045899999996 711.15552L 1334.3895729999997 700.3374L 1423.3562489999997 671.43038L 1478.3406799999996 747.109952L 1469.1382429999996 753.795914L 1475.8030199999996 762.969196L 1485.0054599999996 756.283234L 1539.9898899999996 831.96281z" id="path45"/><polygon points="1227.9202599999999,883.23007 1227.9202599999999,931.230989342041 1207.699400472412,931.230989342041 1207.699400472412,883.23007 " id="rect279" class="guide hole"/><circle fill="none" stroke="#ff0000" r="4.1575599" cx="1217.80983" cy="892.1121301" id="circle281"/><circle fill="none" stroke="#ff0000" r="4.1575599" cx="1217.80983" cy="922.348928" id="circle283"/><polygon points="1227.9202599999999,732.69463 1227.9202599999999,780.695549342041 1207.699400472412,780.695549342041 1207.699400472412,732.69463 " id="rect287" class="guide hole"/><circle fill="none" stroke="#ff0000" r="4.1575599" cx="1217.80983" cy="741.5766901" id="circle289"/><circle fill="none" stroke="#ff0000" r="4.1575599" cx="1217.80983" cy="771.813488" id="circle291"/></g><g transform="translate(1767.5994717 1360.99766) rotate(180)"><path d="M 866.8783043 620.6000799999999 L 726.5367183 813.7637 L 499.4592643 739.9817599999999 L 499.4592643 501.2183999999999 L 726.5367183 427.4364599999999 z" fill="none" stroke="#ff0000" id="path327"/></g><g transform="translate(-201.43713999999994 1216.9926540000001) rotate(270)"><path d="M 303.57967 201.43714L 348.62467000000004 201.43714L 348.62467000000004 210.88614L 337.249833 210.88614L 337.249833 222.22494L 348.62467000000004 222.22494L 348.62467000000004 231.67394000000002L 322.265236 231.67394000000002L 310.4749016 255.249517L 302.0238241 251.023066L 307.11168460000005 240.84954199999999L 296.9703916 235.7778L 291.88253100000003 245.951324L 283.43145400000003 241.724873z" fill="none" stroke="#ff0000" id="path137"/></g><g transform="translate(-265.24950999999993 1156.8259896) rotate(270)"><path d="M 303.57967 265.24951L 348.62467000000004 265.24951L 348.62467000000004 274.69851L 337.249833 274.69851L 337.249833 286.03731L 348.62467000000004 286.03731L 348.62467000000004 295.48631L 322.265236 295.48631L 310.4749016 319.06188699999996L 302.0238241 314.83543599999996L 307.11168460000005 304.661912L 296.9703916 299.59017L 291.88253100000003 309.763694L 283.43145400000003 305.537243z" fill="none" stroke="#ff0000" id="path157"/></g><g transform="translate(-329.06188999999995 1096.6593252) rotate(270)"><path d="M 303.57967 329.06189L 348.62467000000004 329.06189L 348.62467000000004 338.51089L 337.249833 338.51089L 337.249833 349.84969L 348.62467000000004 349.84969L 348.62467000000004 359.29869L 322.265236 359.29869L 310.4749016 382.87426700000003L 302.0238241 378.64781600000003L 307.11168460000005 368.474292L 296.9703916 363.40255L 291.88253100000003 373.576074L 283.43145400000003 369.349623z" fill="none" stroke="#ff0000" id="path177"/></g><g transform="translate(319.061887 624.9896552) rotate(90)"><path d="M 78 265.24951L 123.045 265.24951L 123.045 274.69851L 111.670163 274.69851L 111.670163 286.03731L 123.045 286.03731L 123.045 295.48631L 96.685566 295.48631L 84.8952316 319.06188699999996L 76.4441541 314.83543599999996L 81.5320146 304.661912L 71.3907216 299.59017L 66.30286100000001 309.763694L 57.851783999999995 305.537243z" fill="none" stroke="#ff0000" id="path145"/></g><g transform="translate(319.061887 489.62977079999996) rotate(90)"><path d="M 153.19322 265.24951L 198.23822 265.24951L 198.23822 274.69851L 186.863383 274.69851L 186.863383 286.03731L 198.23822 286.03731L 198.23822 295.48631L 171.878786 295.48631L 160.08845159999998 319.06188699999996L 151.6373741 314.83543599999996L 156.7252346 304.661912L 146.5839416 299.59017L 141.496081 309.763694L 133.045004 305.537243z" fill="none" stroke="#ff0000" id="path149"/></g><g transform="translate(198.23822000000004 827.6454269000001) rotate(180)"><path d="M 153.19322 329.06189L 198.23822 329.06189L 198.23822 338.51089L 186.863383 338.51089L 186.863383 349.84969L 198.23822 349.84969L 198.23822 359.29869L 171.878786 359.29869L 160.08845159999998 382.87426700000003L 151.6373741 378.64781600000003L 156.7252346 368.474292L 146.5839416 363.40255L 141.496081 373.576074L 133.045004 369.349623z" fill="none" stroke="#ff0000" id="path169"/></g><g transform="translate(-208.238224 147.91711809999998) rotate(0)"><path d="M 228.38644 265.24951L 273.43144 265.24951L 273.43144 274.69851L 262.056603 274.69851L 262.056603 286.03731L 273.43144 286.03731L 273.43144 295.48631L 247.072006 295.48631L 235.28167159999998 319.06188699999996L 226.83059409999998 314.83543599999996L 231.9184546 304.661912L 221.7771616 299.59017L 216.689301 309.763694L 208.238224 305.537243z" fill="none" stroke="#ff0000" id="path153"/></g><g transform="translate(382.87426700000003 139.73518810000002) rotate(90)"><path d="M 228.38644 329.06189L 273.43144 329.06189L 273.43144 338.51089L 262.056603 338.51089L 262.056603 349.84969L 273.43144 349.84969L 273.43144 359.29869L 247.072006 359.29869L 235.28167159999998 382.87426700000003L 226.83059409999998 378.64781600000003L 231.9184546 368.474292L 221.7771616 363.40255L 216.689301 373.576074L 208.238224 369.349623z" fill="none" stroke="#ff0000" id="path173"/></g><g transform="translate(-392.8742699999999 569.59607) rotate(270)"><path d="M 228.38644 392.87427L 273.43144 392.87427L 273.43144 402.32327000000004L 262.056603 402.32327000000004L 262.056603 413.66207L 273.43144 413.66207L 273.43144 423.11107000000004L 247.072006 423.11107000000004L 235.28167159999998 446.686647L 226.83059409999998 442.460196L 231.9184546 432.286672L 221.7771616 427.21493000000004L 216.689301 437.388454L 208.238224 433.162003z" fill="none" stroke="#ff0000" id="path193"/></g><g transform="translate(198.23822000000004 245.23923749999994) rotate(180)"><path d="M 153.19322 137.62476L 198.23822 137.62476L 198.23822 147.07376000000002L 186.863383 147.07376000000002L 186.863383 158.41256L 198.23822 158.41256L 198.23822 167.86156L 171.878786 167.86156L 160.08845159999998 191.437137L 151.6373741 187.210686L 156.7252346 177.03716200000002L 146.5839416 171.96542L 141.496081 182.138944L 133.045004 177.912493z" fill="none" stroke="#ff0000" id="path109"/></g><g transform="translate(-372.23492209999995 348.62467000000004) rotate(270)"><path d="M 303.57967 392.87427L 348.62467000000004 392.87427L 348.62467000000004 402.32327000000004L 337.249833 402.32327000000004L 337.249833 413.66207L 348.62467000000004 413.66207L 348.62467000000004 423.11107000000004L 322.265236 423.11107000000004L 310.4749016 446.686647L 302.0238241 442.460196L 307.11168460000005 432.286672L 296.9703916 427.21493000000004L 291.88253100000003 437.388454L 283.43145400000003 433.162003z" fill="none" stroke="#ff0000" id="path197"/></g><g transform="translate(285.486317 734.6389664000001) rotate(90)"><path d="M 153.19322 201.43714L 198.23822 201.43714L 198.23822 210.88614L 186.863383 210.88614L 186.863383 222.22494L 198.23822 222.22494L 198.23822 231.67394000000002L 171.878786 231.67394000000002L 160.08845159999998 255.249517L 151.6373741 251.023066L 156.7252346 240.84954199999999L 146.5839416 235.7778L 141.496081 245.951324L 133.045004 241.724873z" fill="none" stroke="#ff0000" id="path129"/></g><g transform="translate(-284.547706 919.7009874) rotate(270)"><path d="M 78 329.06189L 123.045 329.06189L 123.045 338.51089L 111.670163 338.51089L 111.670163 349.84969L 123.045 349.84969L 123.045 359.29869L 96.685566 359.29869L 84.8952316 382.87426700000003L 76.4441541 378.64781600000003L 81.5320146 368.474292L 71.3907216 363.40255L 66.30286100000001 373.576074L 57.851783999999995 369.349623z" fill="none" stroke="#ff0000" id="path165"/></g><g transform="translate(-19.301290800000004 600.6393405) rotate(0)"><path d="M 78 137.62476L 123.045 137.62476L 123.045 147.07376000000002L 111.670163 147.07376000000002L 111.670163 158.41256L 123.045 158.41256L 123.045 167.86156L 96.685566 167.86156L 84.8952316 191.437137L 76.4441541 187.210686L 81.5320146 177.03716200000002L 71.3907216 171.96542L 66.30286100000001 182.138944L 57.851783999999995 177.912493z" fill="none" stroke="#ff0000" id="path105"/></g><g transform="translate(8.128186200000002 -378.07238309999997) rotate(0)"><path d="M 78 392.87427L 123.045 392.87427L 123.045 402.32327000000004L 111.670163 402.32327000000004L 111.670163 413.66207L 123.045 413.66207L 123.045 423.11107000000004L 96.685566 423.11107000000004L 84.8952316 446.686647L 76.4441541 442.460196L 81.5320146 432.286672L 71.3907216 427.21493000000004L 66.30286100000001 437.388454L 57.851783999999995 433.162003z" fill="none" stroke="#ff0000" id="path185"/></g><g transform="translate(-126.68615599999998 901.0154214) rotate(270)"><path d="M 78 201.43714L 123.045 201.43714L 123.045 210.88614L 111.670163 210.88614L 111.670163 222.22494L 123.045 222.22494L 123.045 231.67394000000002L 96.685566 231.67394000000002L 84.8952316 255.249517L 76.4441541 251.023066L 81.5320146 240.84954199999999L 71.3907216 235.7778L 66.30286100000001 245.951324L 57.851783999999995 241.724873z" fill="none" stroke="#ff0000" id="path125"/></g><g transform="translate(-308.8250929999999 1066.6062040000002) rotate(270)"><path d="M 153.19322 392.87427L 198.23822 392.87427L 198.23822 402.32327000000004L 186.863383 402.32327000000004L 186.863383 413.66207L 198.23822 413.66207L 198.23822 423.11107000000004L 171.878786 423.11107000000004L 160.08845159999998 446.686647L 151.6373741 442.460196L 156.7252346 432.286672L 146.5839416 427.21493000000004L 141.496081 437.388454L 133.045004 433.162003z" fill="none" stroke="#ff0000" id="path189"/></g><g transform="translate(-254.07716939999997 558.60429) rotate(0)"><path d="M 378.77289 265.24951L 423.81789000000003 265.24951L 423.81789000000003 274.69851L 412.443053 274.69851L 412.443053 286.03731L 423.81789000000003 286.03731L 423.81789000000003 295.48631L 397.458456 295.48631L 385.6681216 319.06188699999996L 377.2170441 314.83543599999996L 382.30490460000004 304.661912L 372.1636116 299.59017L 367.075751 309.763694L 358.624674 305.537243z" fill="none" stroke="#ff0000" id="path161"/></g><g transform="translate(-253.63688999999997 434.98023219999993) rotate(0)"><path d="M 378.77289 329.06189L 423.81789000000003 329.06189L 423.81789000000003 338.51089L 412.443053 338.51089L 412.443053 349.84969L 423.81789000000003 349.84969L 423.81789000000003 359.29869L 397.458456 359.29869L 385.6681216 382.87426700000003L 377.2170441 378.64781600000003L 382.30490460000004 368.474292L 372.1636116 363.40255L 367.075751 373.576074L 358.624674 369.349623z" fill="none" stroke="#ff0000" id="path181"/></g><g transform="translate(-255.01271599999993 1292.185874) rotate(270)"><path d="M 378.77289 392.87427L 423.81789000000003 392.87427L 423.81789000000003 402.32327000000004L 412.443053 402.32327000000004L 412.443053 413.66207L 423.81789000000003 413.66207L 423.81789000000003 423.11107000000004L 397.458456 423.11107000000004L 385.6681216 446.686647L 377.2170441 442.460196L 382.30490460000004 432.286672L 372.1636116 427.21493000000004L 367.075751 437.388454L 358.624674 433.162003z" fill="none" stroke="#ff0000" id="path201"/></g></g><g transform="translate(0 1026.3000000000002)"><rect id="bin" width="1311.5212" height="933.5612" fill="none" stroke="black" class="bin" transform="translate(0 0)"/><g transform="translate(-1414.03048 496.28905000000026) rotate(270)"><path id="path299" d="M 496.28905 1607.1941000000002 L 355.94746399999997 1800.3577200000002 L 128.87001 1726.5757800000001 L 128.87001 1487.8124200000002 L 355.94746399999997 1414.0304800000001 z" fill="none" stroke="#ff0000"/><path id="path299" d="M 463.58615 1607.1941000000002 L 345.841713 1445.13279 L 155.32721 1507.0347000000002 L 155.32721 1707.3535000000002 L 345.841713 1769.2554100000002 z" fill="none" stroke="#ff0000" class="null hole"/><path stroke="#ff0000" stroke-width="1" fill="none" d="M 406.2705599999997 1682.8736760000002L 397.06811999999974 1676.1877140000001L 390.4033429999997 1685.3609960000001L 399.60577999999975 1692.0469580000001L 344.6213489999997 1767.7265300000001L 255.65467299999972 1738.8195100000003L 259.1696899999997 1728.0013900000001L 248.38585099999972 1724.4975100000001L 244.87083299999972 1735.31563L 155.90415999999973 1706.4086000000002L 155.90415999999973 1612.8635000000002L 167.27898999999974 1612.8635000000002L 167.27898999999974 1601.5247000000002L 155.90415999999973 1601.5247000000002L 155.90415999999973 1507.9796000000001L 244.87083299999972 1479.0725700000003L 248.38585099999972 1489.8906900000002L 259.1696899999997 1486.3868100000002L 255.65467299999972 1475.56869L 344.6213489999997 1446.6616700000002L 399.60577999999975 1522.3412420000002L 390.4033429999997 1529.0272040000002L 397.06811999999974 1538.2004860000002L 406.2705599999997 1531.5145240000002L 461.25498999999974 1607.1941000000002z" id="path51"/><polygon points="149.18536,1658.4613600000002 149.18536,1706.4622793420413 128.9645004724121,1706.4622793420413 128.9645004724121,1658.4613600000002 " id="rect301" class="guide hole"/><circle fill="none" stroke="#ff0000" r="4.1575599" cx="139.07493" cy="1667.3434201000002" id="circle303"/><circle fill="none" stroke="#ff0000" r="4.1575599" cx="139.07493" cy="1697.5802180000003" id="circle305"/><polygon points="149.18536,1507.9259200000001 149.18536,1555.9268393420411 128.9645004724121,1555.9268393420411 128.9645004724121,1507.9259200000001 " id="rect309" class="guide hole"/><circle fill="none" stroke="#ff0000" r="4.1575599" cx="139.07493" cy="1516.8079801000001" id="circle311"/><circle fill="none" stroke="#ff0000" r="4.1575599" cx="139.07493" cy="1547.0447780000002" id="circle313"/></g><g transform="translate(402.8444659999999 -482.92757299999994) rotate(90)"><path id="path101-4" d="M 1217.7656530000002 209.680846 L 1077.4240670000002 402.844466 L 850.346613 329.062526 L 850.346613 90.299166 L 1077.4240670000002 16.517225999999994 z" fill="none" stroke="#ff0000"/><path id="path101-4" d="M 1185.0627530000002 209.680846 L 1067.318316 47.61953600000001 L 876.8038130000001 109.521446 L 876.8038130000001 309.840246 L 1067.318316 371.742156 z" fill="none" stroke="#ff0000" class="null hole"/><path stroke="#ff0000" stroke-width="1" fill="none" d="M 1128.231963 285.36042199999997L 1119.029523 278.67446L 1112.364746 287.847742L 1121.5671829999999 294.533704L 1066.582752 370.21327599999995L 977.616076 341.30625599999996L 981.131093 330.488136L 970.347254 326.984256L 966.832236 337.802376L 877.865563 308.895346L 877.865563 215.350246L 889.240393 215.350246L 889.240393 204.011446L 877.865563 204.011446L 877.865563 110.466346L 966.832236 81.559316L 970.347254 92.37743599999999L 981.131093 88.873556L 977.616076 78.05543599999999L 1066.582752 49.148416L 1121.5671829999999 124.82798799999999L 1112.364746 131.51395L 1119.029523 140.687232L 1128.231963 134.00126999999998L 1183.216393 209.680846z" id="path9"/><polygon points="870.6619630000001,260.948106 870.6619630000001,308.949025342041 850.4411034724122,308.949025342041 850.4411034724122,260.948106 " id="rect103" class="guide hole"/><circle fill="none" stroke="#ff0000" r="4.1575599" cx="860.5515330000002" cy="269.8301661" id="circle105"/><circle fill="none" stroke="#ff0000" r="4.1575599" cx="860.5515330000002" cy="300.066964" id="circle107"/><polygon points="870.661963,110.41266599999999 870.661963,158.41358534204102 850.4411034724121,158.41358534204102 850.4411034724121,110.41266599999999 " id="rect111" class="guide hole"/><circle fill="none" stroke="#ff0000" r="4.1575599" cx="860.5515330000001" cy="119.29472609999999" id="circle113"/><circle fill="none" stroke="#ff0000" r="4.1575599" cx="860.5515330000001" cy="149.531524" id="circle115"/></g><g transform="translate(879.8960099999999 -1075.673124) rotate(90)"><path id="path189-1" d="M 1583.43375 374.18709 L 1443.092164 567.35071 L 1216.01471 493.56877000000003 L 1216.01471 254.80541 L 1443.092164 181.02347 z" fill="none" stroke="#ff0000"/><path id="path189-1" d="M 1550.73085 374.18709 L 1432.9864129999999 212.12578000000002 L 1242.4719099999998 274.02769 L 1242.4719099999998 474.34649 L 1432.9864129999999 536.2484 z" fill="none" stroke="#ff0000" class="null hole"/><path stroke="#ff0000" stroke-width="1" fill="none" d="M 1493.41526 449.866666L 1484.21282 443.180704L 1477.548043 452.353986L 1486.75048 459.039948L 1431.766049 534.71952L 1342.799373 505.8125L 1346.31439 494.99438L 1335.530551 491.4905L 1332.015533 502.30862L 1243.04886 473.40159L 1243.04886 379.85649L 1254.42369 379.85649L 1254.42369 368.51769L 1243.04886 368.51769L 1243.04886 274.97259L 1332.015533 246.06556L 1335.530551 256.88368L 1346.31439 253.3798L 1342.799373 242.56168L 1431.766049 213.65466L 1486.75048 289.334232L 1477.548043 296.020194L 1484.21282 305.19347600000003L 1493.41526 298.507514L 1548.39969 374.18709z" id="path27"/><polygon points="1236.3300599999998,425.45435000000003 1236.3300599999998,473.45526934204105 1216.1092004724119,473.45526934204105 1216.1092004724119,425.45435000000003 " id="rect191" class="guide hole"/><circle fill="none" stroke="#ff0000" r="4.1575599" cx="1226.2196299999998" cy="434.3364101" id="circle193"/><circle fill="none" stroke="#ff0000" r="4.1575599" cx="1226.2196299999998" cy="464.573208" id="circle195"/><polygon points="1236.3300599999998,274.91891000000004 1236.3300599999998,322.91982934204106 1216.1092004724119,322.91982934204106 1216.1092004724119,274.91891000000004 " id="rect199" class="guide hole"/><circle fill="none" stroke="#ff0000" r="4.1575599" cx="1226.2196299999998" cy="283.80097010000003" id="circle201"/><circle fill="none" stroke="#ff0000" r="4.1575599" cx="1226.2196299999998" cy="314.037768" id="circle203"/></g><g transform="translate(-113.13202430000001 45.3316865999999) rotate(0)"><path class="guide" id="path323" d="M 866.8783043 620.6000799999999 L 726.5367183 813.7637 L 499.4592643 739.9817599999999 L 499.4592643 501.2183999999999 L 726.5367183 427.4364599999999 z" fill="none" stroke="#000000" style="display:none"/><path class="guide hole" id="path323" d="M 834.1754043 620.6000799999999 L 716.4309673 458.53876999999994 L 525.9164643 520.4406799999999 L 525.9164643 720.7594799999999 L 716.4309673 782.66139 z" fill="none" stroke="#000000" style="display:none"/><path d="M 751.7738543 587.7003299999999L 796.8188543 587.7003299999999L 796.8188543 597.1493299999998L 785.4440173 597.1493299999998L 785.4440173 608.4881299999998L 796.8188543 608.4881299999998L 796.8188543 617.9371299999999L 770.4594203 617.9371299999999L 758.6690859 641.5127069999999L 750.2180084 637.2862559999999L 755.3058689000001 627.1127319999999L 745.1645759 622.0409899999999L 740.0767153 632.2145139999999L 731.6256383 627.9880629999999z" fill="none" stroke="#ff0000" id="path117"/><path d="M 683.0742243 501.60051L 728.1192242999999 501.60051L 728.1192242999999 511.04951L 716.7443873 511.04951L 716.7443873 522.3883099999999L 728.1192242999999 522.3883099999999L 728.1192242999999 531.83731L 701.7597903 531.83731L 689.9694559 555.412887L 681.5183784 551.186436L 686.6062389 541.012912L 676.4649459 535.9411699999999L 671.3770853 546.114694L 662.9260082999999 541.888243z" fill="none" stroke="#ff0000" id="path121"/><path d="M 680.1189743 693.97289L 725.1639743 693.97289L 725.1639743 703.42189L 713.7891373 703.42189L 713.7891373 714.76069L 725.1639743 714.76069L 725.1639743 724.20969L 698.8045403 724.20969L 687.0142059 747.785267L 678.5631284 743.558816L 683.6509889 733.385292L 673.5096959 728.31355L 668.4218353 738.487074L 659.9707582999999 734.260623z" fill="none" stroke="#ff0000" id="path133"/><path class="guide" d="M 672.7605873 617.6801783999999 L 626.0723883 473.98867999999993 L 608.0993212999999 479.8284799999999 L 654.7875213 623.5199815999999 z" fill="none" stroke="#000000" style="display:none" id="path325"/><circle cx="663.7740543" cy="620.6000799999999" fill="none" stroke="#ff0000" r="5.6694002" id="circle329" class="null hole"/><path class="guide" d="M 654.7875213 617.6801783999999 L 608.0993212999999 761.37168 L 626.0723883 767.2114799999999 L 672.7605873 623.5199815999999 z" fill="none" stroke="#000000" style="display:none" id="path325"/><path class="guide hole" d="M 663.7740543 611.15108 L 512.6878643 611.15108 L 512.6878643 630.0490799999999 L 663.7740543 630.0490799999999 z" fill="none" stroke="#000000" style="display:none" id="path325"/><path d="M 525.9164643 720.7594799999999 L 611.7740543 748.6000799999999 L 643.7740543 650.6000799999999 L 633.1964483 642.8160109999999 L 629.1964482999999 630.0490799999999 L 525.9164643 630.0490799999999 z" fill="none" stroke="#ff0000" id="path327"/><path d="M 564.5329143 647.85226L 609.5779143 647.85226L 609.5779143 657.30126L 598.2030773 657.30126L 598.2030773 668.64006L 609.5779143 668.64006L 609.5779143 678.08906L 583.2184803 678.08906L 571.4281459 701.664637L 562.9770684 697.438186L 568.0649289 687.264662L 557.9236359 682.19292L 552.8357753 692.366444L 544.3846983 688.139993z" fill="none" stroke="#ff0000" id="path113" class="null hole"/><path d="M 525.9164643 520.4406799999999 L 525.9164643 611.15108 L 628.9780542999999 611.15108 L 633.1964483 598.384149 L 643.7740543 590.6000799999999 L 611.7740543 492.60007999999993 z" fill="none" stroke="#ff0000" id="path327"/><path d="M 563.9498242999999 519.41436L 608.9948242999999 519.41436L 608.9948242999999 528.86336L 597.6199872999999 528.86336L 597.6199872999999 540.2021599999999L 608.9948242999999 540.2021599999999L 608.9948242999999 549.65116L 582.6353902999999 549.65116L 570.8450558999999 573.226737L 562.3939783999999 569.000286L 567.4818389 558.826762L 557.3405458999999 553.75502L 552.2526852999999 563.928544L 543.8016082999999 559.702093z" fill="none" stroke="#ff0000" id="path141" class="null hole"/><path class="guide hole" d="M 669.3280371 628.2444816 L 791.5593343 539.4382489999999 L 780.4513643 524.1494459999999 L 658.2200715 612.9556783999999 z" fill="none" stroke="#000000" style="display:none" id="path325"/><path class="guide hole" d="M 658.2200715 628.2444816 L 780.4513643 717.050714 L 791.5593343 701.7619109999999 L 669.3280371 612.9556783999999 z" fill="none" stroke="#000000" style="display:none" id="path325"/><path d="M 675.4536603 656.546212 L 662.0723878 656.546212 L 629.7740543 754.6000799999999 L 716.4309673 782.66139 L 769.7740543 709.6000799999999 L 686.7740543 648.6000799999999 z" fill="none" stroke="#ff0000" id="path327" class="null hole"/><path d="M 697.7740543 607.6000799999999 L 701.5700543 620.6000799999999 L 697.7740543 633.6000799999999 L 780.7740543 693.6000799999999 L 834.1754043 620.6000799999999 L 780.7740543 547.6000799999999 z" fill="none" stroke="#ff0000" id="path327" class="null hole"/><path d="M 629.7740543 486.60007999999993 L 661.7605873 584.6539479999999 L 675.4536603 584.6539479999999 L 686.7740543 592.6000799999999 L 769.7740543 531.6000799999999 L 716.4309673 458.53876999999994 z" fill="none" stroke="#ff0000" id="path327" class="null hole"/><polygon points="519.7746142999999,671.8673399999999 519.7746142999999,719.8682593420409 499.55375477241205,719.8682593420409 499.55375477241205,671.8673399999999 " id="rect331" class="guide hole"/><circle fill="none" stroke="#ff0000" r="4.1575599" cx="509.66418429999993" cy="680.7494000999999" id="circle333"/><circle fill="none" stroke="#ff0000" r="4.1575599" cx="509.66418429999993" cy="710.986198" id="circle335"/><polygon points="519.7746142999999,521.3318999999999 519.7746142999999,569.3328193420409 499.55375477241205,569.3328193420409 499.55375477241205,521.3318999999999 " id="rect339" class="guide hole"/><circle fill="none" stroke="#ff0000" r="4.1575599" cx="509.66418429999993" cy="530.2139600999999" id="circle341"/><circle fill="none" stroke="#ff0000" r="4.1575599" cx="509.66418429999993" cy="560.450758" id="circle343"/><polygon points="570.5177179388423,499.490929911775 524.8661308104362,514.3240297340868 518.6175415755429,495.0928495152854 564.2691287039491,480.2597496929736 " id="rect349" class="guide hole"/><circle fill="none" stroke="#ff0000" r="4.1575599" cx="558.9460821121738" cy="492.62004709368864" id="circle351"/><circle fill="none" stroke="#ff0000" r="4.1575599" cx="530.1891784374792" cy="501.9637315002694" id="circle353"/><polygon points="713.6854290842003,452.9729206960647 668.0338419557942,467.8060205183765 661.7852527209009,448.5748402995751 707.4368398493071,433.7417404772633 " id="rect357" class="guide hole"/><circle fill="none" stroke="#ff0000" r="4.1575599" cx="702.1137932575318" cy="446.1020378779783" id="circle359"/><circle fill="none" stroke="#ff0000" r="4.1575599" cx="673.3568895828372" cy="455.44572228455905" id="circle361"/><polygon points="750.1379075600892,494.4832496905071 721.9236750743569,455.6496901971748 738.2826940730441,443.76416717818086 766.4969265587763,482.59772667151316 " id="rect367" class="guide hole"/><circle fill="none" stroke="#ff0000" r="4.1575599" cx="753.096673313772" cy="481.3547504762121" id="circle369"/><circle fill="none" stroke="#ff0000" r="4.1575599" cx="735.323929431604" cy="456.8926671196313" id="circle371"/><polygon points="838.6204191394477,616.2689789062173 810.4061866537154,577.435419412885 826.7652056524026,565.5498963938911 854.9794381381348,604.3834558872234 " id="rect375" class="guide hole"/><circle fill="none" stroke="#ff0000" r="4.1575599" cx="841.5791848931306" cy="603.1404796919222" id="circle377"/><circle fill="none" stroke="#ff0000" r="4.1575599" cx="823.8064410109625" cy="578.6783963353415" id="circle379"/><polygon points="810.4061862669768,663.7647411194148 838.620418752709,624.9311816260825 854.9794377513962,636.8167046450764 826.7652052656639,675.6502641384087 " id="rect385" class="guide hole"/><circle fill="none" stroke="#ff0000" r="4.1575599" cx="823.8064398941705" cy="662.5217652017906" id="circle387"/><circle fill="none" stroke="#ff0000" r="4.1575599" cx="841.5791837763385" cy="638.0596818452099" id="circle389"/><polygon points="721.9236746876182,785.550470335125 750.1379071733505,746.7169108417928 766.4969261720377,758.6024338607866 738.2826936863054,797.435993354119 " id="rect393" class="guide hole"/><circle fill="none" stroke="#ff0000" r="4.1575599" cx="735.323928314812" cy="784.3074944175008" id="circle395"/><circle fill="none" stroke="#ff0000" r="4.1575599" cx="753.09667219698" cy="759.8454110609201" id="circle397"/><polygon points="668.0338413300381,773.3941392783029 713.6854284584442,788.2272391006146 707.436839223551,807.4584193194161 661.7852520951449,792.6253194971043 " id="rect403" class="guide hole"/><circle fill="none" stroke="#ff0000" r="4.157559899999999" cx="673.3568877758299" cy="785.7544371283085" id="circle405"/><circle fill="none" stroke="#ff0000" r="4.157559899999999" cx="702.1137914505246" cy="795.0981215348893" id="circle407"/><polygon points="524.86613018468,726.8761300625926 570.5177173130861,741.7092298849043 564.2691280781929,760.9404101037057 518.6175409497868,746.107310281394 " id="rect411" class="guide hole"/><circle fill="none" stroke="#ff0000" r="4.157559899999999" cx="530.1891766304718" cy="739.2364279125982" id="circle413"/><circle fill="none" stroke="#ff0000" r="4.157559899999999" cx="558.9460803051664" cy="748.580112319179" id="circle415"/></g><g transform="translate(1374.3680636 1466.7131418) rotate(180)"><path id="path145-9" d="M 756.4997500000001 987.80135 L 616.158164 1180.96497 L 389.08071000000007 1107.18303 L 389.08071000000007 868.41967 L 616.158164 794.6377299999999 z" fill="none" stroke="#ff0000"/><path id="path145-9" d="M 723.7968500000001 987.80135 L 606.0524130000001 825.7400399999999 L 415.5379100000001 887.64195 L 415.5379100000001 1087.96075 L 606.0524130000001 1149.86266 z" fill="none" stroke="#ff0000" class="null hole"/><path stroke="#ff0000" stroke-width="1" fill="none" d="M 666.48126 1063.480926L 657.27882 1056.794964L 650.614043 1065.968246L 659.8164800000001 1072.654208L 604.8320490000001 1148.33378L 515.8653730000001 1119.4267599999998L 519.38039 1108.60864L 508.59655100000003 1105.10476L 505.08153300000004 1115.92288L 416.11486 1087.01585L 416.11486 993.47075L 427.48969000000005 993.47075L 427.48969000000005 982.13195L 416.11486 982.13195L 416.11486 888.5868499999999L 505.08153300000004 859.67982L 508.59655100000003 870.49794L 519.38039 866.99406L 515.8653730000001 856.17594L 604.8320490000001 827.26892L 659.8164800000001 902.948492L 650.614043 909.634454L 657.27882 918.807736L 666.48126 912.121774L 721.46569 987.80135z" id="path3"/><polygon points="409.3960600000001,1039.06861 409.3960600000001,1087.069529342041 389.1752004724122,1087.069529342041 389.1752004724122,1039.06861 " id="rect147" class="guide hole"/><circle fill="none" stroke="#ff0000" r="4.1575599" cx="399.2856300000001" cy="1047.9506701" id="circle149"/><circle fill="none" stroke="#ff0000" r="4.1575599" cx="399.2856300000001" cy="1078.187468" id="circle151"/><polygon points="409.3960600000001,888.5331699999999 409.3960600000001,936.5340893420409 389.1752004724122,936.5340893420409 389.1752004724122,888.5331699999999 " id="rect155" class="guide hole"/><circle fill="none" stroke="#ff0000" r="4.1575599" cx="399.2856300000001" cy="897.4152300999999" id="circle157"/><circle fill="none" stroke="#ff0000" r="4.1575599" cx="399.2856300000001" cy="927.652028" id="circle159"/></g><g transform="translate(224.91611590000002 380.2982700000001) rotate(270)"><path stroke="#ff0000" stroke-width="1" fill="none" d="M 325.31384 768.518636L 316.1114 761.832674L 309.446623 771.005956L 318.64906 777.691918L 263.664629 853.37149L 174.69795299999998 824.46447L 178.21296999999998 813.64635L 167.42913099999998 810.14247L 163.914113 820.96059L 74.94744 792.0535600000001L 74.94744 698.50846L 86.32227 698.50846L 86.32227 687.16966L 74.94744 687.16966L 74.94744 593.62456L 163.914113 564.71753L 167.42913099999998 575.53565L 178.21296999999998 572.03177L 174.69795299999998 561.21365L 263.664629 532.30663L 318.64906 607.986202L 309.446623 614.6721640000001L 316.1114 623.845446L 325.31384 617.159484L 380.29827 692.83906z" id="path63"/></g><g transform="translate(-192.19806249999988 2069.89431) rotate(270)"><path id="path233" d="M 1503.75215 1221.7379 L 1363.410564 1414.9015200000001 L 1136.33311 1341.11958 L 1136.33311 1102.3562200000001 L 1363.410564 1028.57428 z" fill="none" stroke="#ff0000"/><path id="path233" d="M 1471.04925 1221.7379 L 1353.304813 1059.67659 L 1162.7903099999999 1121.5785 L 1162.7903099999999 1321.8973 L 1353.304813 1383.7992100000001 z" fill="none" stroke="#ff0000" class="null hole"/><path stroke="#ff0000" stroke-width="1" fill="none" d="M 1413.73366 1297.417476L 1404.53122 1290.731514L 1397.8664430000001 1299.904796L 1407.06888 1306.590758L 1352.0844490000002 1382.27033L 1263.1177730000002 1353.3633100000002L 1266.63279 1342.54519L 1255.8489510000002 1339.04131L 1252.3339330000001 1349.85943L 1163.3672600000002 1320.9524000000001L 1163.3672600000002 1227.4073L 1174.7420900000002 1227.4073L 1174.7420900000002 1216.0685L 1163.3672600000002 1216.0685L 1163.3672600000002 1122.5234L 1252.3339330000001 1093.6163700000002L 1255.8489510000002 1104.43449L 1266.63279 1100.9306100000001L 1263.1177730000002 1090.11249L 1352.0844490000002 1061.20547L 1407.06888 1136.885042L 1397.8664430000001 1143.5710040000001L 1404.53122 1152.744286L 1413.73366 1146.058324L 1468.71809 1221.7379z" id="path39"/><polygon points="1156.64846,1273.0051600000002 1156.64846,1321.0060793420412 1136.427600472412,1321.0060793420412 1136.427600472412,1273.0051600000002 " id="rect235" class="guide hole"/><circle fill="none" stroke="#ff0000" r="4.1575599" cx="1146.53803" cy="1281.8872201000001" id="circle237"/><circle fill="none" stroke="#ff0000" r="4.1575599" cx="1146.53803" cy="1312.1240180000002" id="circle239"/><polygon points="1156.64846,1122.46972 1156.64846,1170.470639342041 1136.427600472412,1170.470639342041 1136.427600472412,1122.46972 " id="rect243" class="guide hole"/><circle fill="none" stroke="#ff0000" r="4.1575599" cx="1146.53803" cy="1131.3517801" id="circle245"/><circle fill="none" stroke="#ff0000" r="4.1575599" cx="1146.53803" cy="1161.588578" id="circle247"/></g><g transform="translate(2188.7741287 955.7424888999999) rotate(180)"><path stroke="#ff0000" stroke-width="1" fill="none" d="M 1152.34296 677.178106L 1143.14052 670.4921439999999L 1136.475743 679.6654259999999L 1145.6781799999999 686.3513879999999L 1090.693749 762.0309599999999L 1001.727073 733.12394L 1005.24209 722.3058199999999L 994.458251 718.80194L 990.943233 729.62006L 901.97656 700.71303L 901.97656 607.16793L 913.35139 607.16793L 913.35139 595.82913L 901.97656 595.82913L 901.97656 502.28403L 990.943233 473.37699999999995L 994.458251 484.19512L 1005.24209 480.69123999999994L 1001.727073 469.87312L 1090.693749 440.9661L 1145.6781799999999 516.645672L 1136.475743 523.3316339999999L 1143.14052 532.504916L 1152.34296 525.818954L 1207.32739 601.49853z" id="path57"/></g></g></svg>