<?xml version="1.0" encoding="UTF-8" standalone="no"?>
<svg
   xmlns:dc="http://purl.org/dc/elements/1.1/"
   xmlns:cc="http://creativecommons.org/ns#"
   xmlns:rdf="http://www.w3.org/1999/02/22-rdf-syntax-ns#"
   xmlns:svg="http://www.w3.org/2000/svg"
   xmlns="http://www.w3.org/2000/svg"
   xmlns:sodipodi="http://sodipodi.sourceforge.net/DTD/sodipodi-0.dtd"
   xmlns:inkscape="http://www.inkscape.org/namespaces/inkscape"
   id="svg"
   viewBox="0 0 1593.7734069824219 1863.7637939453125"
   version="1.1"
   sodipodi:docname="popup-inner-pentagons.svg"
   inkscape:version="1.0.1 (3bc2e813f5, 2020-09-07)">
  <metadata
     id="metadata212">
    <rdf:RDF>
      <cc:Work
         rdf:about="">
        <dc:format>image/svg+xml</dc:format>
        <dc:type
           rdf:resource="http://purl.org/dc/dcmitype/StillImage" />
        <dc:title></dc:title>
      </cc:Work>
    </rdf:RDF>
  </metadata>
  <defs
     id="defs210" />
  <sodipodi:namedview
     pagecolor="#ffffff"
     bordercolor="#666666"
     borderopacity="1"
     objecttolerance="10"
     gridtolerance="10"
     guidetolerance="10"
     inkscape:pageopacity="0"
     inkscape:pageshadow="2"
     inkscape:window-width="701"
     inkscape:window-height="480"
     id="namedview208"
     showgrid="false"
     inkscape:zoom="0.39436328"
     inkscape:cx="796.88672"
     inkscape:cy="931.8819"
     inkscape:window-x="0"
     inkscape:window-y="0"
     inkscape:window-maximized="0"
     inkscape:current-layer="svg" />
  <rect
     id="bin"
     width="1311.5212"
     height="933.5612"
     fill="none"
     stroke="black" />
  <g
     transform="translate(0,456.77019119262695)"
     id="g83">
    <g
       transform="translate(0,523.3242569018616)"
       id="g71">
      <g
         transform="translate(0,0)"
         id="g69">
        <g
           class="single-face"
           transform="translate(358.8828379345744,0)"
           id="g7">
          <g
             id="g5">
            <path
               stroke="red"
               stroke-width="1"
               fill="none"
               d="M 117.50578068487657 78.36518316239643 L 105.27473815711836 69.4788106041379 L 98.60995873842448 78.65209249995655 L 110.84100126618269 87.53846505821508 L 53.90536298377205 165.9036482206115 L -38.21843492833806 135.97081178718702 L -33.54659240057985 121.59235895123035 L -44.330432027547324 118.0884770554117 L -49.00227455530554 132.46692989136835 L -141.12607246741564 102.53409345794385 L -141.12607246741567 5.66940000000001 L -126.00767246741566 5.66940000000001 L -126.00767246741566 -5.669399999999982 L -141.12607246741567 -5.669399999999982 L -141.12607246741567 -102.53409345794391 L -49.00227455530553 -132.46692989136838 L -44.33043202754733 -118.08847705541173 L -33.546592400579854 -121.59235895123038 L -38.218434928338056 -135.97081178718702 L 53.90536298377205 -165.90364822061153 L 110.84100126618273 -87.53846505821514 L 98.60995873842452 -78.6520924999566 L 105.27473815711843 -69.47881060413795 L 117.50578068487664 -78.36518316239649 L 174.44141896728735 -1.1368683772161603e-13 Z"
               id="path3" />
          </g>
        </g>
        <g
           class="single-face"
           transform="translate(717.7656758691488,0)"
           id="g13">
          <g
             id="g11">
            <path
               stroke="red"
               stroke-width="1"
               fill="none"
               d="M 117.50578068487657 78.36518316239643 L 105.27473815711836 69.4788106041379 L 98.60995873842448 78.65209249995655 L 110.84100126618269 87.53846505821508 L 53.90536298377205 165.9036482206115 L -38.21843492833806 135.97081178718702 L -33.54659240057985 121.59235895123035 L -44.330432027547324 118.0884770554117 L -49.00227455530554 132.46692989136835 L -141.12607246741564 102.53409345794385 L -141.12607246741567 5.66940000000001 L -126.00767246741566 5.66940000000001 L -126.00767246741566 -5.669399999999982 L -141.12607246741567 -5.669399999999982 L -141.12607246741567 -102.53409345794391 L -49.00227455530553 -132.46692989136838 L -44.33043202754733 -118.08847705541173 L -33.546592400579854 -121.59235895123038 L -38.218434928338056 -135.97081178718702 L 53.90536298377205 -165.90364822061153 L 110.84100126618273 -87.53846505821514 L 98.60995873842452 -78.6520924999566 L 105.27473815711843 -69.47881060413795 L 117.50578068487664 -78.36518316239649 L 174.44141896728735 -1.1368683772161603e-13 Z"
               id="path9" />
          </g>
        </g>
        <g
           class="single-face"
           transform="translate(1076.6485138037233,0)"
           id="g19">
          <g
             id="g17">
            <path
               stroke="red"
               stroke-width="1"
               fill="none"
               d="M 117.50578068487657 78.36518316239643 L 105.27473815711836 69.4788106041379 L 98.60995873842448 78.65209249995655 L 110.84100126618269 87.53846505821508 L 53.90536298377205 165.9036482206115 L -38.21843492833806 135.97081178718702 L -33.54659240057985 121.59235895123035 L -44.330432027547324 118.0884770554117 L -49.00227455530554 132.46692989136835 L -141.12607246741564 102.53409345794385 L -141.12607246741567 5.66940000000001 L -126.00767246741566 5.66940000000001 L -126.00767246741566 -5.669399999999982 L -141.12607246741567 -5.669399999999982 L -141.12607246741567 -102.53409345794391 L -49.00227455530553 -132.46692989136838 L -44.33043202754733 -118.08847705541173 L -33.546592400579854 -121.59235895123038 L -38.218434928338056 -135.97081178718702 L 53.90536298377205 -165.90364822061153 L 110.84100126618273 -87.53846505821514 L 98.60995873842452 -78.6520924999566 L 105.27473815711843 -69.47881060413795 L 117.50578068487664 -78.36518316239649 L 174.44141896728735 -1.1368683772161603e-13 Z"
               id="path15" />
          </g>
        </g>
        <g
           class="single-face"
           transform="translate(0,358.8828379345744)"
           id="g25">
          <g
             id="g23">
            <path
               stroke="red"
               stroke-width="1"
               fill="none"
               d="M 117.50578068487657 78.36518316239643 L 105.27473815711836 69.4788106041379 L 98.60995873842448 78.65209249995655 L 110.84100126618269 87.53846505821508 L 53.90536298377205 165.9036482206115 L -38.21843492833806 135.97081178718702 L -33.54659240057985 121.59235895123035 L -44.330432027547324 118.0884770554117 L -49.00227455530554 132.46692989136835 L -141.12607246741564 102.53409345794385 L -141.12607246741567 5.66940000000001 L -126.00767246741566 5.66940000000001 L -126.00767246741566 -5.669399999999982 L -141.12607246741567 -5.669399999999982 L -141.12607246741567 -102.53409345794391 L -49.00227455530553 -132.46692989136838 L -44.33043202754733 -118.08847705541173 L -33.546592400579854 -121.59235895123038 L -38.218434928338056 -135.97081178718702 L 53.90536298377205 -165.90364822061153 L 110.84100126618273 -87.53846505821514 L 98.60995873842452 -78.6520924999566 L 105.27473815711843 -69.47881060413795 L 117.50578068487664 -78.36518316239649 L 174.44141896728735 -1.1368683772161603e-13 Z"
               id="path21" />
          </g>
        </g>
        <g
           class="single-face"
           transform="translate(358.8828379345744,358.8828379345744)"
           id="g31">
          <g
             id="g29">
            <path
               stroke="red"
               stroke-width="1"
               fill="none"
               d="M 117.50578068487657 78.36518316239643 L 105.27473815711836 69.4788106041379 L 98.60995873842448 78.65209249995655 L 110.84100126618269 87.53846505821508 L 53.90536298377205 165.9036482206115 L -38.21843492833806 135.97081178718702 L -33.54659240057985 121.59235895123035 L -44.330432027547324 118.0884770554117 L -49.00227455530554 132.46692989136835 L -141.12607246741564 102.53409345794385 L -141.12607246741567 5.66940000000001 L -126.00767246741566 5.66940000000001 L -126.00767246741566 -5.669399999999982 L -141.12607246741567 -5.669399999999982 L -141.12607246741567 -102.53409345794391 L -49.00227455530553 -132.46692989136838 L -44.33043202754733 -118.08847705541173 L -33.546592400579854 -121.59235895123038 L -38.218434928338056 -135.97081178718702 L 53.90536298377205 -165.90364822061153 L 110.84100126618273 -87.53846505821514 L 98.60995873842452 -78.6520924999566 L 105.27473815711843 -69.47881060413795 L 117.50578068487664 -78.36518316239649 L 174.44141896728735 -1.1368683772161603e-13 Z"
               id="path27" />
          </g>
        </g>
        <g
           class="single-face"
           transform="translate(717.7656758691488,358.8828379345744)"
           id="g37">
          <g
             id="g35">
            <path
               stroke="red"
               stroke-width="1"
               fill="none"
               d="M 117.50578068487657 78.36518316239643 L 105.27473815711836 69.4788106041379 L 98.60995873842448 78.65209249995655 L 110.84100126618269 87.53846505821508 L 53.90536298377205 165.9036482206115 L -38.21843492833806 135.97081178718702 L -33.54659240057985 121.59235895123035 L -44.330432027547324 118.0884770554117 L -49.00227455530554 132.46692989136835 L -141.12607246741564 102.53409345794385 L -141.12607246741567 5.66940000000001 L -126.00767246741566 5.66940000000001 L -126.00767246741566 -5.669399999999982 L -141.12607246741567 -5.669399999999982 L -141.12607246741567 -102.53409345794391 L -49.00227455530553 -132.46692989136838 L -44.33043202754733 -118.08847705541173 L -33.546592400579854 -121.59235895123038 L -38.218434928338056 -135.97081178718702 L 53.90536298377205 -165.90364822061153 L 110.84100126618273 -87.53846505821514 L 98.60995873842452 -78.6520924999566 L 105.27473815711843 -69.47881060413795 L 117.50578068487664 -78.36518316239649 L 174.44141896728735 -1.1368683772161603e-13 Z"
               id="path33" />
          </g>
        </g>
        <g
           class="single-face"
           transform="translate(1076.6485138037233,358.8828379345744)"
           id="g43">
          <g
             id="g41">
            <path
               stroke="red"
               stroke-width="1"
               fill="none"
               d="M 117.50578068487657 78.36518316239643 L 105.27473815711836 69.4788106041379 L 98.60995873842448 78.65209249995655 L 110.84100126618269 87.53846505821508 L 53.90536298377205 165.9036482206115 L -38.21843492833806 135.97081178718702 L -33.54659240057985 121.59235895123035 L -44.330432027547324 118.0884770554117 L -49.00227455530554 132.46692989136835 L -141.12607246741564 102.53409345794385 L -141.12607246741567 5.66940000000001 L -126.00767246741566 5.66940000000001 L -126.00767246741566 -5.669399999999982 L -141.12607246741567 -5.669399999999982 L -141.12607246741567 -102.53409345794391 L -49.00227455530553 -132.46692989136838 L -44.33043202754733 -118.08847705541173 L -33.546592400579854 -121.59235895123038 L -38.218434928338056 -135.97081178718702 L 53.90536298377205 -165.90364822061153 L 110.84100126618273 -87.53846505821514 L 98.60995873842452 -78.6520924999566 L 105.27473815711843 -69.47881060413795 L 117.50578068487664 -78.36518316239649 L 174.44141896728735 -1.1368683772161603e-13 Z"
               id="path39" />
          </g>
        </g>
        <g
           class="single-face"
           transform="translate(0,717.7656758691488)"
           id="g49">
          <g
             id="g47">
            <path
               stroke="red"
               stroke-width="1"
               fill="none"
               d="M 117.50578068487657 78.36518316239643 L 105.27473815711836 69.4788106041379 L 98.60995873842448 78.65209249995655 L 110.84100126618269 87.53846505821508 L 53.90536298377205 165.9036482206115 L -38.21843492833806 135.97081178718702 L -33.54659240057985 121.59235895123035 L -44.330432027547324 118.0884770554117 L -49.00227455530554 132.46692989136835 L -141.12607246741564 102.53409345794385 L -141.12607246741567 5.66940000000001 L -126.00767246741566 5.66940000000001 L -126.00767246741566 -5.669399999999982 L -141.12607246741567 -5.669399999999982 L -141.12607246741567 -102.53409345794391 L -49.00227455530553 -132.46692989136838 L -44.33043202754733 -118.08847705541173 L -33.546592400579854 -121.59235895123038 L -38.218434928338056 -135.97081178718702 L 53.90536298377205 -165.90364822061153 L 110.84100126618273 -87.53846505821514 L 98.60995873842452 -78.6520924999566 L 105.27473815711843 -69.47881060413795 L 117.50578068487664 -78.36518316239649 L 174.44141896728735 -1.1368683772161603e-13 Z"
               id="path45" />
          </g>
        </g>
        <g
           class="single-face"
           transform="translate(358.8828379345744,717.7656758691488)"
           id="g55">
          <g
             id="g53">
            <path
               stroke="red"
               stroke-width="1"
               fill="none"
               d="M 117.50578068487657 78.36518316239643 L 105.27473815711836 69.4788106041379 L 98.60995873842448 78.65209249995655 L 110.84100126618269 87.53846505821508 L 53.90536298377205 165.9036482206115 L -38.21843492833806 135.97081178718702 L -33.54659240057985 121.59235895123035 L -44.330432027547324 118.0884770554117 L -49.00227455530554 132.46692989136835 L -141.12607246741564 102.53409345794385 L -141.12607246741567 5.66940000000001 L -126.00767246741566 5.66940000000001 L -126.00767246741566 -5.669399999999982 L -141.12607246741567 -5.669399999999982 L -141.12607246741567 -102.53409345794391 L -49.00227455530553 -132.46692989136838 L -44.33043202754733 -118.08847705541173 L -33.546592400579854 -121.59235895123038 L -38.218434928338056 -135.97081178718702 L 53.90536298377205 -165.90364822061153 L 110.84100126618273 -87.53846505821514 L 98.60995873842452 -78.6520924999566 L 105.27473815711843 -69.47881060413795 L 117.50578068487664 -78.36518316239649 L 174.44141896728735 -1.1368683772161603e-13 Z"
               id="path51" />
          </g>
        </g>
        <g
           class="single-face"
           transform="translate(717.7656758691488,717.7656758691488)"
           id="g61">
          <g
             id="g59">
            <path
               stroke="red"
               stroke-width="1"
               fill="none"
               d="M 117.50578068487657 78.36518316239643 L 105.27473815711836 69.4788106041379 L 98.60995873842448 78.65209249995655 L 110.84100126618269 87.53846505821508 L 53.90536298377205 165.9036482206115 L -38.21843492833806 135.97081178718702 L -33.54659240057985 121.59235895123035 L -44.330432027547324 118.0884770554117 L -49.00227455530554 132.46692989136835 L -141.12607246741564 102.53409345794385 L -141.12607246741567 5.66940000000001 L -126.00767246741566 5.66940000000001 L -126.00767246741566 -5.669399999999982 L -141.12607246741567 -5.669399999999982 L -141.12607246741567 -102.53409345794391 L -49.00227455530553 -132.46692989136838 L -44.33043202754733 -118.08847705541173 L -33.546592400579854 -121.59235895123038 L -38.218434928338056 -135.97081178718702 L 53.90536298377205 -165.90364822061153 L 110.84100126618273 -87.53846505821514 L 98.60995873842452 -78.6520924999566 L 105.27473815711843 -69.47881060413795 L 117.50578068487664 -78.36518316239649 L 174.44141896728735 -1.1368683772161603e-13 Z"
               id="path57" />
          </g>
        </g>
        <g
           class="single-face"
           transform="translate(1076.6485138037233,717.7656758691488)"
           id="g67">
          <g
             id="g65">
            <path
               stroke="red"
               stroke-width="1"
               fill="none"
               d="M 117.50578068487657 78.36518316239643 L 105.27473815711836 69.4788106041379 L 98.60995873842448 78.65209249995655 L 110.84100126618269 87.53846505821508 L 53.90536298377205 165.9036482206115 L -38.21843492833806 135.97081178718702 L -33.54659240057985 121.59235895123035 L -44.330432027547324 118.0884770554117 L -49.00227455530554 132.46692989136835 L -141.12607246741564 102.53409345794385 L -141.12607246741567 5.66940000000001 L -126.00767246741566 5.66940000000001 L -126.00767246741566 -5.669399999999982 L -141.12607246741567 -5.669399999999982 L -141.12607246741567 -102.53409345794391 L -49.00227455530553 -132.46692989136838 L -44.33043202754733 -118.08847705541173 L -33.546592400579854 -121.59235895123038 L -38.218434928338056 -135.97081178718702 L 53.90536298377205 -165.90364822061153 L 110.84100126618273 -87.53846505821514 L 98.60995873842452 -78.6520924999566 L 105.27473815711843 -69.47881060413795 L 117.50578068487664 -78.36518316239649 L 174.44141896728735 -1.1368683772161603e-13 Z"
               id="path63" />
          </g>
        </g>
      </g>
    </g>
    <g
       class="face"
       id="g81">
      <g
         class="single-face"
         transform="translate(174.4414189672872,174.4414189672872)"
         id="g77">
        <g
           id="g75">
          <path
             stroke="red"
             stroke-width="1"
             fill="none"
             d="M 117.50578068487657 78.36518316239643 L 105.27473815711836 69.4788106041379 L 98.60995873842448 78.65209249995655 L 110.84100126618269 87.53846505821508 L 53.90536298377205 165.9036482206115 L -38.21843492833806 135.97081178718702 L -33.54659240057985 121.59235895123035 L -44.330432027547324 118.0884770554117 L -49.00227455530554 132.46692989136835 L -141.12607246741564 102.53409345794385 L -141.12607246741567 5.66940000000001 L -126.00767246741566 5.66940000000001 L -126.00767246741566 -5.669399999999982 L -141.12607246741567 -5.669399999999982 L -141.12607246741567 -102.53409345794391 L -49.00227455530553 -132.46692989136838 L -44.33043202754733 -118.08847705541173 L -33.546592400579854 -121.59235895123038 L -38.218434928338056 -135.97081178718702 L 53.90536298377205 -165.90364822061153 L 110.84100126618273 -87.53846505821514 L 98.60995873842452 -78.6520924999566 L 105.27473815711843 -69.47881060413795 L 117.50578068487664 -78.36518316239649 L 174.44141896728735 -1.1368683772161603e-13 Z"
             id="path73" />
        </g>
      </g>
      <g
         class="faces-group"
         id="g79" />
    </g>
  </g>
  <g
     transform="translate(100,0)"
     id="g87">
    <path
       d="M 0 0 L 43.46108631759883 0 L 43.46108631759883 9.449 L 28.342686317598826 9.449 L 28.342686317598826 20.787799999999997 L 43.46108631759883 20.787799999999997 L 43.46108631759883 30.2368 L 18.685565552871033 30.2368 L 7.603701850000569 52.395742349184005 L -0.8473756569363537 48.16929112247561 L 5.914946305797075 34.64756711137654 L -4.226346702527225 29.57582563932647 L -10.988668665260654 43.09754965042554 L -19.439746172197573 38.87109842371715 Z"
       fill="none"
       stroke="red"
       id="path85" />
  </g>
  <g
     transform="translate(0,52.3957405090332)"
     id="g205">
    <g
       transform="translate(82.90083312988281,20)"
       id="g91">
      <path
         d="M 0 0 L 43.46108631759883 0 L 43.46108631759883 9.449 L 28.342686317598826 9.449 L 28.342686317598826 20.787799999999997 L 43.46108631759883 20.787799999999997 L 43.46108631759883 30.2368 L 18.685565552871033 30.2368 L 7.603701850000569 52.395742349184005 L -0.8473756569363537 48.16929112247561 L 5.914946305797075 34.64756711137654 L -4.226346702527225 29.57582563932647 L -10.988668665260654 43.09754965042554 L -19.439746172197573 38.87109842371715 Z"
         fill="none"
         stroke="red"
         id="path89" />
    </g>
    <g
       transform="translate(155.80166625976562,20)"
       id="g95">
      <path
         d="M 0 0 L 43.46108631759883 0 L 43.46108631759883 9.449 L 28.342686317598826 9.449 L 28.342686317598826 20.787799999999997 L 43.46108631759883 20.787799999999997 L 43.46108631759883 30.2368 L 18.685565552871033 30.2368 L 7.603701850000569 52.395742349184005 L -0.8473756569363537 48.16929112247561 L 5.914946305797075 34.64756711137654 L -4.226346702527225 29.57582563932647 L -10.988668665260654 43.09754965042554 L -19.439746172197573 38.87109842371715 Z"
         fill="none"
         stroke="red"
         id="path93" />
    </g>
    <g
       transform="translate(228.70249938964844,20)"
       id="g99">
      <path
         d="M 0 0 L 43.46108631759883 0 L 43.46108631759883 9.449 L 28.342686317598826 9.449 L 28.342686317598826 20.787799999999997 L 43.46108631759883 20.787799999999997 L 43.46108631759883 30.2368 L 18.685565552871033 30.2368 L 7.603701850000569 52.395742349184005 L -0.8473756569363537 48.16929112247561 L 5.914946305797075 34.64756711137654 L -4.226346702527225 29.57582563932647 L -10.988668665260654 43.09754965042554 L -19.439746172197573 38.87109842371715 Z"
         fill="none"
         stroke="red"
         id="path97" />
    </g>
    <g
       transform="translate(301.60333251953125,20)"
       id="g103">
      <path
         d="M 0 0 L 43.46108631759883 0 L 43.46108631759883 9.449 L 28.342686317598826 9.449 L 28.342686317598826 20.787799999999997 L 43.46108631759883 20.787799999999997 L 43.46108631759883 30.2368 L 18.685565552871033 30.2368 L 7.603701850000569 52.395742349184005 L -0.8473756569363537 48.16929112247561 L 5.914946305797075 34.64756711137654 L -4.226346702527225 29.57582563932647 L -10.988668665260654 43.09754965042554 L -19.439746172197573 38.87109842371715 Z"
         fill="none"
         stroke="red"
         id="path101" />
    </g>
    <g
       transform="translate(10,82.3957405090332)"
       id="g107">
      <path
         d="M 0 0 L 43.46108631759883 0 L 43.46108631759883 9.449 L 28.342686317598826 9.449 L 28.342686317598826 20.787799999999997 L 43.46108631759883 20.787799999999997 L 43.46108631759883 30.2368 L 18.685565552871033 30.2368 L 7.603701850000569 52.395742349184005 L -0.8473756569363537 48.16929112247561 L 5.914946305797075 34.64756711137654 L -4.226346702527225 29.57582563932647 L -10.988668665260654 43.09754965042554 L -19.439746172197573 38.87109842371715 Z"
         fill="none"
         stroke="red"
         id="path105" />
    </g>
    <g
       transform="translate(82.90083312988281,82.3957405090332)"
       id="g111">
      <path
         d="M 0 0 L 43.46108631759883 0 L 43.46108631759883 9.449 L 28.342686317598826 9.449 L 28.342686317598826 20.787799999999997 L 43.46108631759883 20.787799999999997 L 43.46108631759883 30.2368 L 18.685565552871033 30.2368 L 7.603701850000569 52.395742349184005 L -0.8473756569363537 48.16929112247561 L 5.914946305797075 34.64756711137654 L -4.226346702527225 29.57582563932647 L -10.988668665260654 43.09754965042554 L -19.439746172197573 38.87109842371715 Z"
         fill="none"
         stroke="red"
         id="path109" />
    </g>
    <g
       transform="translate(155.80166625976562,82.3957405090332)"
       id="g115">
      <path
         d="M 0 0 L 43.46108631759883 0 L 43.46108631759883 9.449 L 28.342686317598826 9.449 L 28.342686317598826 20.787799999999997 L 43.46108631759883 20.787799999999997 L 43.46108631759883 30.2368 L 18.685565552871033 30.2368 L 7.603701850000569 52.395742349184005 L -0.8473756569363537 48.16929112247561 L 5.914946305797075 34.64756711137654 L -4.226346702527225 29.57582563932647 L -10.988668665260654 43.09754965042554 L -19.439746172197573 38.87109842371715 Z"
         fill="none"
         stroke="red"
         id="path113" />
    </g>
    <g
       transform="translate(228.70249938964844,82.3957405090332)"
       id="g119">
      <path
         d="M 0 0 L 43.46108631759883 0 L 43.46108631759883 9.449 L 28.342686317598826 9.449 L 28.342686317598826 20.787799999999997 L 43.46108631759883 20.787799999999997 L 43.46108631759883 30.2368 L 18.685565552871033 30.2368 L 7.603701850000569 52.395742349184005 L -0.8473756569363537 48.16929112247561 L 5.914946305797075 34.64756711137654 L -4.226346702527225 29.57582563932647 L -10.988668665260654 43.09754965042554 L -19.439746172197573 38.87109842371715 Z"
         fill="none"
         stroke="red"
         id="path117" />
    </g>
    <g
       transform="translate(301.60333251953125,82.3957405090332)"
       id="g123">
      <path
         d="M 0 0 L 43.46108631759883 0 L 43.46108631759883 9.449 L 28.342686317598826 9.449 L 28.342686317598826 20.787799999999997 L 43.46108631759883 20.787799999999997 L 43.46108631759883 30.2368 L 18.685565552871033 30.2368 L 7.603701850000569 52.395742349184005 L -0.8473756569363537 48.16929112247561 L 5.914946305797075 34.64756711137654 L -4.226346702527225 29.57582563932647 L -10.988668665260654 43.09754965042554 L -19.439746172197573 38.87109842371715 Z"
         fill="none"
         stroke="red"
         id="path121" />
    </g>
    <g
       transform="translate(10,144.7914810180664)"
       id="g127">
      <path
         d="M 0 0 L 43.46108631759883 0 L 43.46108631759883 9.449 L 28.342686317598826 9.449 L 28.342686317598826 20.787799999999997 L 43.46108631759883 20.787799999999997 L 43.46108631759883 30.2368 L 18.685565552871033 30.2368 L 7.603701850000569 52.395742349184005 L -0.8473756569363537 48.16929112247561 L 5.914946305797075 34.64756711137654 L -4.226346702527225 29.57582563932647 L -10.988668665260654 43.09754965042554 L -19.439746172197573 38.87109842371715 Z"
         fill="none"
         stroke="red"
         id="path125" />
    </g>
    <g
       transform="translate(82.90083312988281,144.7914810180664)"
       id="g131">
      <path
         d="M 0 0 L 43.46108631759883 0 L 43.46108631759883 9.449 L 28.342686317598826 9.449 L 28.342686317598826 20.787799999999997 L 43.46108631759883 20.787799999999997 L 43.46108631759883 30.2368 L 18.685565552871033 30.2368 L 7.603701850000569 52.395742349184005 L -0.8473756569363537 48.16929112247561 L 5.914946305797075 34.64756711137654 L -4.226346702527225 29.57582563932647 L -10.988668665260654 43.09754965042554 L -19.439746172197573 38.87109842371715 Z"
         fill="none"
         stroke="red"
         id="path129" />
    </g>
    <g
       transform="translate(155.80166625976562,144.7914810180664)"
       id="g135">
      <path
         d="M 0 0 L 43.46108631759883 0 L 43.46108631759883 9.449 L 28.342686317598826 9.449 L 28.342686317598826 20.787799999999997 L 43.46108631759883 20.787799999999997 L 43.46108631759883 30.2368 L 18.685565552871033 30.2368 L 7.603701850000569 52.395742349184005 L -0.8473756569363537 48.16929112247561 L 5.914946305797075 34.64756711137654 L -4.226346702527225 29.57582563932647 L -10.988668665260654 43.09754965042554 L -19.439746172197573 38.87109842371715 Z"
         fill="none"
         stroke="red"
         id="path133" />
    </g>
    <g
       transform="translate(228.70249938964844,144.7914810180664)"
       id="g139">
      <path
         d="M 0 0 L 43.46108631759883 0 L 43.46108631759883 9.449 L 28.342686317598826 9.449 L 28.342686317598826 20.787799999999997 L 43.46108631759883 20.787799999999997 L 43.46108631759883 30.2368 L 18.685565552871033 30.2368 L 7.603701850000569 52.395742349184005 L -0.8473756569363537 48.16929112247561 L 5.914946305797075 34.64756711137654 L -4.226346702527225 29.57582563932647 L -10.988668665260654 43.09754965042554 L -19.439746172197573 38.87109842371715 Z"
         fill="none"
         stroke="red"
         id="path137" />
    </g>
    <g
       transform="translate(301.60333251953125,144.7914810180664)"
       id="g143">
      <path
         d="M 0 0 L 43.46108631759883 0 L 43.46108631759883 9.449 L 28.342686317598826 9.449 L 28.342686317598826 20.787799999999997 L 43.46108631759883 20.787799999999997 L 43.46108631759883 30.2368 L 18.685565552871033 30.2368 L 7.603701850000569 52.395742349184005 L -0.8473756569363537 48.16929112247561 L 5.914946305797075 34.64756711137654 L -4.226346702527225 29.57582563932647 L -10.988668665260654 43.09754965042554 L -19.439746172197573 38.87109842371715 Z"
         fill="none"
         stroke="red"
         id="path141" />
    </g>
    <g
       transform="translate(10,207.1872215270996)"
       id="g147">
      <path
         d="M 0 0 L 43.46108631759883 0 L 43.46108631759883 9.449 L 28.342686317598826 9.449 L 28.342686317598826 20.787799999999997 L 43.46108631759883 20.787799999999997 L 43.46108631759883 30.2368 L 18.685565552871033 30.2368 L 7.603701850000569 52.395742349184005 L -0.8473756569363537 48.16929112247561 L 5.914946305797075 34.64756711137654 L -4.226346702527225 29.57582563932647 L -10.988668665260654 43.09754965042554 L -19.439746172197573 38.87109842371715 Z"
         fill="none"
         stroke="red"
         id="path145" />
    </g>
    <g
       transform="translate(82.90083312988281,207.1872215270996)"
       id="g151">
      <path
         d="M 0 0 L 43.46108631759883 0 L 43.46108631759883 9.449 L 28.342686317598826 9.449 L 28.342686317598826 20.787799999999997 L 43.46108631759883 20.787799999999997 L 43.46108631759883 30.2368 L 18.685565552871033 30.2368 L 7.603701850000569 52.395742349184005 L -0.8473756569363537 48.16929112247561 L 5.914946305797075 34.64756711137654 L -4.226346702527225 29.57582563932647 L -10.988668665260654 43.09754965042554 L -19.439746172197573 38.87109842371715 Z"
         fill="none"
         stroke="red"
         id="path149" />
    </g>
    <g
       transform="translate(155.80166625976562,207.1872215270996)"
       id="g155">
      <path
         d="M 0 0 L 43.46108631759883 0 L 43.46108631759883 9.449 L 28.342686317598826 9.449 L 28.342686317598826 20.787799999999997 L 43.46108631759883 20.787799999999997 L 43.46108631759883 30.2368 L 18.685565552871033 30.2368 L 7.603701850000569 52.395742349184005 L -0.8473756569363537 48.16929112247561 L 5.914946305797075 34.64756711137654 L -4.226346702527225 29.57582563932647 L -10.988668665260654 43.09754965042554 L -19.439746172197573 38.87109842371715 Z"
         fill="none"
         stroke="red"
         id="path153" />
    </g>
    <g
       transform="translate(228.70249938964844,207.1872215270996)"
       id="g159">
      <path
         d="M 0 0 L 43.46108631759883 0 L 43.46108631759883 9.449 L 28.342686317598826 9.449 L 28.342686317598826 20.787799999999997 L 43.46108631759883 20.787799999999997 L 43.46108631759883 30.2368 L 18.685565552871033 30.2368 L 7.603701850000569 52.395742349184005 L -0.8473756569363537 48.16929112247561 L 5.914946305797075 34.64756711137654 L -4.226346702527225 29.57582563932647 L -10.988668665260654 43.09754965042554 L -19.439746172197573 38.87109842371715 Z"
         fill="none"
         stroke="red"
         id="path157" />
    </g>
    <g
       transform="translate(301.60333251953125,207.1872215270996)"
       id="g163">
      <path
         d="M 0 0 L 43.46108631759883 0 L 43.46108631759883 9.449 L 28.342686317598826 9.449 L 28.342686317598826 20.787799999999997 L 43.46108631759883 20.787799999999997 L 43.46108631759883 30.2368 L 18.685565552871033 30.2368 L 7.603701850000569 52.395742349184005 L -0.8473756569363537 48.16929112247561 L 5.914946305797075 34.64756711137654 L -4.226346702527225 29.57582563932647 L -10.988668665260654 43.09754965042554 L -19.439746172197573 38.87109842371715 Z"
         fill="none"
         stroke="red"
         id="path161" />
    </g>
    <g
       transform="translate(10,269.5829620361328)"
       id="g167">
      <path
         d="M 0 0 L 43.46108631759883 0 L 43.46108631759883 9.449 L 28.342686317598826 9.449 L 28.342686317598826 20.787799999999997 L 43.46108631759883 20.787799999999997 L 43.46108631759883 30.2368 L 18.685565552871033 30.2368 L 7.603701850000569 52.395742349184005 L -0.8473756569363537 48.16929112247561 L 5.914946305797075 34.64756711137654 L -4.226346702527225 29.57582563932647 L -10.988668665260654 43.09754965042554 L -19.439746172197573 38.87109842371715 Z"
         fill="none"
         stroke="red"
         id="path165" />
    </g>
    <g
       transform="translate(82.90083312988281,269.5829620361328)"
       id="g171">
      <path
         d="M 0 0 L 43.46108631759883 0 L 43.46108631759883 9.449 L 28.342686317598826 9.449 L 28.342686317598826 20.787799999999997 L 43.46108631759883 20.787799999999997 L 43.46108631759883 30.2368 L 18.685565552871033 30.2368 L 7.603701850000569 52.395742349184005 L -0.8473756569363537 48.16929112247561 L 5.914946305797075 34.64756711137654 L -4.226346702527225 29.57582563932647 L -10.988668665260654 43.09754965042554 L -19.439746172197573 38.87109842371715 Z"
         fill="none"
         stroke="red"
         id="path169" />
    </g>
    <g
       transform="translate(155.80166625976562,269.5829620361328)"
       id="g175">
      <path
         d="M 0 0 L 43.46108631759883 0 L 43.46108631759883 9.449 L 28.342686317598826 9.449 L 28.342686317598826 20.787799999999997 L 43.46108631759883 20.787799999999997 L 43.46108631759883 30.2368 L 18.685565552871033 30.2368 L 7.603701850000569 52.395742349184005 L -0.8473756569363537 48.16929112247561 L 5.914946305797075 34.64756711137654 L -4.226346702527225 29.57582563932647 L -10.988668665260654 43.09754965042554 L -19.439746172197573 38.87109842371715 Z"
         fill="none"
         stroke="red"
         id="path173" />
    </g>
    <g
       transform="translate(228.70249938964844,269.5829620361328)"
       id="g179">
      <path
         d="M 0 0 L 43.46108631759883 0 L 43.46108631759883 9.449 L 28.342686317598826 9.449 L 28.342686317598826 20.787799999999997 L 43.46108631759883 20.787799999999997 L 43.46108631759883 30.2368 L 18.685565552871033 30.2368 L 7.603701850000569 52.395742349184005 L -0.8473756569363537 48.16929112247561 L 5.914946305797075 34.64756711137654 L -4.226346702527225 29.57582563932647 L -10.988668665260654 43.09754965042554 L -19.439746172197573 38.87109842371715 Z"
         fill="none"
         stroke="red"
         id="path177" />
    </g>
    <g
       transform="translate(301.60333251953125,269.5829620361328)"
       id="g183">
      <path
         d="M 0 0 L 43.46108631759883 0 L 43.46108631759883 9.449 L 28.342686317598826 9.449 L 28.342686317598826 20.787799999999997 L 43.46108631759883 20.787799999999997 L 43.46108631759883 30.2368 L 18.685565552871033 30.2368 L 7.603701850000569 52.395742349184005 L -0.8473756569363537 48.16929112247561 L 5.914946305797075 34.64756711137654 L -4.226346702527225 29.57582563932647 L -10.988668665260654 43.09754965042554 L -19.439746172197573 38.87109842371715 Z"
         fill="none"
         stroke="red"
         id="path181" />
    </g>
    <g
       transform="translate(10,331.978702545166)"
       id="g187">
      <path
         d="M 0 0 L 43.46108631759883 0 L 43.46108631759883 9.449 L 28.342686317598826 9.449 L 28.342686317598826 20.787799999999997 L 43.46108631759883 20.787799999999997 L 43.46108631759883 30.2368 L 18.685565552871033 30.2368 L 7.603701850000569 52.395742349184005 L -0.8473756569363537 48.16929112247561 L 5.914946305797075 34.64756711137654 L -4.226346702527225 29.57582563932647 L -10.988668665260654 43.09754965042554 L -19.439746172197573 38.87109842371715 Z"
         fill="none"
         stroke="red"
         id="path185" />
    </g>
    <g
       transform="translate(82.90083312988281,331.978702545166)"
       id="g191">
      <path
         d="M 0 0 L 43.46108631759883 0 L 43.46108631759883 9.449 L 28.342686317598826 9.449 L 28.342686317598826 20.787799999999997 L 43.46108631759883 20.787799999999997 L 43.46108631759883 30.2368 L 18.685565552871033 30.2368 L 7.603701850000569 52.395742349184005 L -0.8473756569363537 48.16929112247561 L 5.914946305797075 34.64756711137654 L -4.226346702527225 29.57582563932647 L -10.988668665260654 43.09754965042554 L -19.439746172197573 38.87109842371715 Z"
         fill="none"
         stroke="red"
         id="path189" />
    </g>
    <g
       transform="translate(155.80166625976562,331.978702545166)"
       id="g195">
      <path
         d="M 0 0 L 43.46108631759883 0 L 43.46108631759883 9.449 L 28.342686317598826 9.449 L 28.342686317598826 20.787799999999997 L 43.46108631759883 20.787799999999997 L 43.46108631759883 30.2368 L 18.685565552871033 30.2368 L 7.603701850000569 52.395742349184005 L -0.8473756569363537 48.16929112247561 L 5.914946305797075 34.64756711137654 L -4.226346702527225 29.57582563932647 L -10.988668665260654 43.09754965042554 L -19.439746172197573 38.87109842371715 Z"
         fill="none"
         stroke="red"
         id="path193" />
    </g>
    <g
       transform="translate(228.70249938964844,331.978702545166)"
       id="g199">
      <path
         d="M 0 0 L 43.46108631759883 0 L 43.46108631759883 9.449 L 28.342686317598826 9.449 L 28.342686317598826 20.787799999999997 L 43.46108631759883 20.787799999999997 L 43.46108631759883 30.2368 L 18.685565552871033 30.2368 L 7.603701850000569 52.395742349184005 L -0.8473756569363537 48.16929112247561 L 5.914946305797075 34.64756711137654 L -4.226346702527225 29.57582563932647 L -10.988668665260654 43.09754965042554 L -19.439746172197573 38.87109842371715 Z"
         fill="none"
         stroke="red"
         id="path197" />
    </g>
    <g
       transform="translate(301.60333251953125,331.978702545166)"
       id="g203">
      <path
         d="M 0 0 L 43.46108631759883 0 L 43.46108631759883 9.449 L 28.342686317598826 9.449 L 28.342686317598826 20.787799999999997 L 43.46108631759883 20.787799999999997 L 43.46108631759883 30.2368 L 18.685565552871033 30.2368 L 7.603701850000569 52.395742349184005 L -0.8473756569363537 48.16929112247561 L 5.914946305797075 34.64756711137654 L -4.226346702527225 29.57582563932647 L -10.988668665260654 43.09754965042554 L -19.439746172197573 38.87109842371715 Z"
         fill="none"
         stroke="red"
         id="path201" />
    </g>
  </g>
</svg>
