<svg xmlns="http://www.w3.org/2000/svg" id="svg" viewBox="0 0 1077.433464050293 2364.18310546875"><g transform="translate(0,770.5740547180176)"><g transform="translate(0,392.78755393723975)"><g transform="translate(0,0)"><g class="single-face" transform="translate(271.85836929149315,0)"><g><path stroke="red" stroke-width="1" fill="none" d="M 85.57398464574658 26.185836929149303 L 78.01478464574659 13.092918464574646 L 68.84974172054433 18.384358464574646 L 76.40894172054432 31.477276929149305 L -10.944349397671061 81.91072307085068 L -18.503549397671065 68.81780460627603 L -27.66859232287331 74.10924460627602 L -20.109392322873305 87.20216307085067 L -65.46459232287327 113.38799999999998 L -65.46459232287327 61.01632614170139 L -50.346192322873264 61.01632614170139 L -50.34619232287327 50.43344614170139 L -65.46459232287327 50.43344614170139 L -65.46459232287329 -50.43344614170138 L -50.34619232287329 -50.43344614170138 L -50.34619232287329 -61.01632614170137 L -65.46459232287329 -61.01632614170137 L -65.4645923228733 -113.38799999999998 L -20.109392322873333 -87.2021630708507 L -27.668592322873323 -74.10924460627605 L -18.50354939767106 -68.81780460627606 L -10.944349397671068 -81.91072307085071 L 76.40894172054432 -31.477276929149397 L 68.84974172054434 -18.38435846457473 L 78.01478464574662 -13.092918464574751 L 85.57398464574659 -26.185836929149417 L 130.9291846457466 -1.5631940186722204e-13 Z"></path></g></g><g class="single-face" transform="translate(543.7167385829863,0)"><g><path stroke="red" stroke-width="1" fill="none" d="M 85.57398464574658 26.185836929149303 L 78.01478464574659 13.092918464574646 L 68.84974172054433 18.384358464574646 L 76.40894172054432 31.477276929149305 L -10.944349397671061 81.91072307085068 L -18.503549397671065 68.81780460627603 L -27.66859232287331 74.10924460627602 L -20.109392322873305 87.20216307085067 L -65.46459232287327 113.38799999999998 L -65.46459232287327 61.01632614170139 L -50.346192322873264 61.01632614170139 L -50.34619232287327 50.43344614170139 L -65.46459232287327 50.43344614170139 L -65.46459232287329 -50.43344614170138 L -50.34619232287329 -50.43344614170138 L -50.34619232287329 -61.01632614170137 L -65.46459232287329 -61.01632614170137 L -65.4645923228733 -113.38799999999998 L -20.109392322873333 -87.2021630708507 L -27.668592322873323 -74.10924460627605 L -18.50354939767106 -68.81780460627606 L -10.944349397671068 -81.91072307085071 L 76.40894172054432 -31.477276929149397 L 68.84974172054434 -18.38435846457473 L 78.01478464574662 -13.092918464574751 L 85.57398464574659 -26.185836929149417 L 130.9291846457466 -1.5631940186722204e-13 Z"></path></g></g><g class="single-face" transform="translate(815.5751078744795,0)"><g><path stroke="red" stroke-width="1" fill="none" d="M 85.57398464574658 26.185836929149303 L 78.01478464574659 13.092918464574646 L 68.84974172054433 18.384358464574646 L 76.40894172054432 31.477276929149305 L -10.944349397671061 81.91072307085068 L -18.503549397671065 68.81780460627603 L -27.66859232287331 74.10924460627602 L -20.109392322873305 87.20216307085067 L -65.46459232287327 113.38799999999998 L -65.46459232287327 61.01632614170139 L -50.346192322873264 61.01632614170139 L -50.34619232287327 50.43344614170139 L -65.46459232287327 50.43344614170139 L -65.46459232287329 -50.43344614170138 L -50.34619232287329 -50.43344614170138 L -50.34619232287329 -61.01632614170137 L -65.46459232287329 -61.01632614170137 L -65.4645923228733 -113.38799999999998 L -20.109392322873333 -87.2021630708507 L -27.668592322873323 -74.10924460627605 L -18.50354939767106 -68.81780460627606 L -10.944349397671068 -81.91072307085071 L 76.40894172054432 -31.477276929149397 L 68.84974172054434 -18.38435846457473 L 78.01478464574662 -13.092918464574751 L 85.57398464574659 -26.185836929149417 L 130.9291846457466 -1.5631940186722204e-13 Z"></path></g></g><g class="single-face" transform="translate(0,271.85836929149315)"><g><path stroke="red" stroke-width="1" fill="none" d="M 85.57398464574658 26.185836929149303 L 78.01478464574659 13.092918464574646 L 68.84974172054433 18.384358464574646 L 76.40894172054432 31.477276929149305 L -10.944349397671061 81.91072307085068 L -18.503549397671065 68.81780460627603 L -27.66859232287331 74.10924460627602 L -20.109392322873305 87.20216307085067 L -65.46459232287327 113.38799999999998 L -65.46459232287327 61.01632614170139 L -50.346192322873264 61.01632614170139 L -50.34619232287327 50.43344614170139 L -65.46459232287327 50.43344614170139 L -65.46459232287329 -50.43344614170138 L -50.34619232287329 -50.43344614170138 L -50.34619232287329 -61.01632614170137 L -65.46459232287329 -61.01632614170137 L -65.4645923228733 -113.38799999999998 L -20.109392322873333 -87.2021630708507 L -27.668592322873323 -74.10924460627605 L -18.50354939767106 -68.81780460627606 L -10.944349397671068 -81.91072307085071 L 76.40894172054432 -31.477276929149397 L 68.84974172054434 -18.38435846457473 L 78.01478464574662 -13.092918464574751 L 85.57398464574659 -26.185836929149417 L 130.9291846457466 -1.5631940186722204e-13 Z"></path></g></g><g class="single-face" transform="translate(271.85836929149315,271.85836929149315)"><g><path stroke="red" stroke-width="1" fill="none" d="M 85.57398464574658 26.185836929149303 L 78.01478464574659 13.092918464574646 L 68.84974172054433 18.384358464574646 L 76.40894172054432 31.477276929149305 L -10.944349397671061 81.91072307085068 L -18.503549397671065 68.81780460627603 L -27.66859232287331 74.10924460627602 L -20.109392322873305 87.20216307085067 L -65.46459232287327 113.38799999999998 L -65.46459232287327 61.01632614170139 L -50.346192322873264 61.01632614170139 L -50.34619232287327 50.43344614170139 L -65.46459232287327 50.43344614170139 L -65.46459232287329 -50.43344614170138 L -50.34619232287329 -50.43344614170138 L -50.34619232287329 -61.01632614170137 L -65.46459232287329 -61.01632614170137 L -65.4645923228733 -113.38799999999998 L -20.109392322873333 -87.2021630708507 L -27.668592322873323 -74.10924460627605 L -18.50354939767106 -68.81780460627606 L -10.944349397671068 -81.91072307085071 L 76.40894172054432 -31.477276929149397 L 68.84974172054434 -18.38435846457473 L 78.01478464574662 -13.092918464574751 L 85.57398464574659 -26.185836929149417 L 130.9291846457466 -1.5631940186722204e-13 Z"></path></g></g><g class="single-face" transform="translate(543.7167385829863,271.85836929149315)"><g><path stroke="red" stroke-width="1" fill="none" d="M 85.57398464574658 26.185836929149303 L 78.01478464574659 13.092918464574646 L 68.84974172054433 18.384358464574646 L 76.40894172054432 31.477276929149305 L -10.944349397671061 81.91072307085068 L -18.503549397671065 68.81780460627603 L -27.66859232287331 74.10924460627602 L -20.109392322873305 87.20216307085067 L -65.46459232287327 113.38799999999998 L -65.46459232287327 61.01632614170139 L -50.346192322873264 61.01632614170139 L -50.34619232287327 50.43344614170139 L -65.46459232287327 50.43344614170139 L -65.46459232287329 -50.43344614170138 L -50.34619232287329 -50.43344614170138 L -50.34619232287329 -61.01632614170137 L -65.46459232287329 -61.01632614170137 L -65.4645923228733 -113.38799999999998 L -20.109392322873333 -87.2021630708507 L -27.668592322873323 -74.10924460627605 L -18.50354939767106 -68.81780460627606 L -10.944349397671068 -81.91072307085071 L 76.40894172054432 -31.477276929149397 L 68.84974172054434 -18.38435846457473 L 78.01478464574662 -13.092918464574751 L 85.57398464574659 -26.185836929149417 L 130.9291846457466 -1.5631940186722204e-13 Z"></path></g></g><g class="single-face" transform="translate(815.5751078744795,271.85836929149315)"><g><path stroke="red" stroke-width="1" fill="none" d="M 85.57398464574658 26.185836929149303 L 78.01478464574659 13.092918464574646 L 68.84974172054433 18.384358464574646 L 76.40894172054432 31.477276929149305 L -10.944349397671061 81.91072307085068 L -18.503549397671065 68.81780460627603 L -27.66859232287331 74.10924460627602 L -20.109392322873305 87.20216307085067 L -65.46459232287327 113.38799999999998 L -65.46459232287327 61.01632614170139 L -50.346192322873264 61.01632614170139 L -50.34619232287327 50.43344614170139 L -65.46459232287327 50.43344614170139 L -65.46459232287329 -50.43344614170138 L -50.34619232287329 -50.43344614170138 L -50.34619232287329 -61.01632614170137 L -65.46459232287329 -61.01632614170137 L -65.4645923228733 -113.38799999999998 L -20.109392322873333 -87.2021630708507 L -27.668592322873323 -74.10924460627605 L -18.50354939767106 -68.81780460627606 L -10.944349397671068 -81.91072307085071 L 76.40894172054432 -31.477276929149397 L 68.84974172054434 -18.38435846457473 L 78.01478464574662 -13.092918464574751 L 85.57398464574659 -26.185836929149417 L 130.9291846457466 -1.5631940186722204e-13 Z"></path></g></g><g class="single-face" transform="translate(0,543.7167385829863)"><g><path stroke="red" stroke-width="1" fill="none" d="M 85.57398464574658 26.185836929149303 L 78.01478464574659 13.092918464574646 L 68.84974172054433 18.384358464574646 L 76.40894172054432 31.477276929149305 L -10.944349397671061 81.91072307085068 L -18.503549397671065 68.81780460627603 L -27.66859232287331 74.10924460627602 L -20.109392322873305 87.20216307085067 L -65.46459232287327 113.38799999999998 L -65.46459232287327 61.01632614170139 L -50.346192322873264 61.01632614170139 L -50.34619232287327 50.43344614170139 L -65.46459232287327 50.43344614170139 L -65.46459232287329 -50.43344614170138 L -50.34619232287329 -50.43344614170138 L -50.34619232287329 -61.01632614170137 L -65.46459232287329 -61.01632614170137 L -65.4645923228733 -113.38799999999998 L -20.109392322873333 -87.2021630708507 L -27.668592322873323 -74.10924460627605 L -18.50354939767106 -68.81780460627606 L -10.944349397671068 -81.91072307085071 L 76.40894172054432 -31.477276929149397 L 68.84974172054434 -18.38435846457473 L 78.01478464574662 -13.092918464574751 L 85.57398464574659 -26.185836929149417 L 130.9291846457466 -1.5631940186722204e-13 Z"></path></g></g><g class="single-face" transform="translate(271.85836929149315,543.7167385829863)"><g><path stroke="red" stroke-width="1" fill="none" d="M 85.57398464574658 26.185836929149303 L 78.01478464574659 13.092918464574646 L 68.84974172054433 18.384358464574646 L 76.40894172054432 31.477276929149305 L -10.944349397671061 81.91072307085068 L -18.503549397671065 68.81780460627603 L -27.66859232287331 74.10924460627602 L -20.109392322873305 87.20216307085067 L -65.46459232287327 113.38799999999998 L -65.46459232287327 61.01632614170139 L -50.346192322873264 61.01632614170139 L -50.34619232287327 50.43344614170139 L -65.46459232287327 50.43344614170139 L -65.46459232287329 -50.43344614170138 L -50.34619232287329 -50.43344614170138 L -50.34619232287329 -61.01632614170137 L -65.46459232287329 -61.01632614170137 L -65.4645923228733 -113.38799999999998 L -20.109392322873333 -87.2021630708507 L -27.668592322873323 -74.10924460627605 L -18.50354939767106 -68.81780460627606 L -10.944349397671068 -81.91072307085071 L 76.40894172054432 -31.477276929149397 L 68.84974172054434 -18.38435846457473 L 78.01478464574662 -13.092918464574751 L 85.57398464574659 -26.185836929149417 L 130.9291846457466 -1.5631940186722204e-13 Z"></path></g></g><g class="single-face" transform="translate(543.7167385829863,543.7167385829863)"><g><path stroke="red" stroke-width="1" fill="none" d="M 85.57398464574658 26.185836929149303 L 78.01478464574659 13.092918464574646 L 68.84974172054433 18.384358464574646 L 76.40894172054432 31.477276929149305 L -10.944349397671061 81.91072307085068 L -18.503549397671065 68.81780460627603 L -27.66859232287331 74.10924460627602 L -20.109392322873305 87.20216307085067 L -65.46459232287327 113.38799999999998 L -65.46459232287327 61.01632614170139 L -50.346192322873264 61.01632614170139 L -50.34619232287327 50.43344614170139 L -65.46459232287327 50.43344614170139 L -65.46459232287329 -50.43344614170138 L -50.34619232287329 -50.43344614170138 L -50.34619232287329 -61.01632614170137 L -65.46459232287329 -61.01632614170137 L -65.4645923228733 -113.38799999999998 L -20.109392322873333 -87.2021630708507 L -27.668592322873323 -74.10924460627605 L -18.50354939767106 -68.81780460627606 L -10.944349397671068 -81.91072307085071 L 76.40894172054432 -31.477276929149397 L 68.84974172054434 -18.38435846457473 L 78.01478464574662 -13.092918464574751 L 85.57398464574659 -26.185836929149417 L 130.9291846457466 -1.5631940186722204e-13 Z"></path></g></g><g class="single-face" transform="translate(815.5751078744795,543.7167385829863)"><g><path stroke="red" stroke-width="1" fill="none" d="M 85.57398464574658 26.185836929149303 L 78.01478464574659 13.092918464574646 L 68.84974172054433 18.384358464574646 L 76.40894172054432 31.477276929149305 L -10.944349397671061 81.91072307085068 L -18.503549397671065 68.81780460627603 L -27.66859232287331 74.10924460627602 L -20.109392322873305 87.20216307085067 L -65.46459232287327 113.38799999999998 L -65.46459232287327 61.01632614170139 L -50.346192322873264 61.01632614170139 L -50.34619232287327 50.43344614170139 L -65.46459232287327 50.43344614170139 L -65.46459232287329 -50.43344614170138 L -50.34619232287329 -50.43344614170138 L -50.34619232287329 -61.01632614170137 L -65.46459232287329 -61.01632614170137 L -65.4645923228733 -113.38799999999998 L -20.109392322873333 -87.2021630708507 L -27.668592322873323 -74.10924460627605 L -18.50354939767106 -68.81780460627606 L -10.944349397671068 -81.91072307085071 L 76.40894172054432 -31.477276929149397 L 68.84974172054434 -18.38435846457473 L 78.01478464574662 -13.092918464574751 L 85.57398464574659 -26.185836929149417 L 130.9291846457466 -1.5631940186722204e-13 Z"></path></g></g><g class="single-face" transform="translate(0,815.5751078744795)"><g><path stroke="red" stroke-width="1" fill="none" d="M 85.57398464574658 26.185836929149303 L 78.01478464574659 13.092918464574646 L 68.84974172054433 18.384358464574646 L 76.40894172054432 31.477276929149305 L -10.944349397671061 81.91072307085068 L -18.503549397671065 68.81780460627603 L -27.66859232287331 74.10924460627602 L -20.109392322873305 87.20216307085067 L -65.46459232287327 113.38799999999998 L -65.46459232287327 61.01632614170139 L -50.346192322873264 61.01632614170139 L -50.34619232287327 50.43344614170139 L -65.46459232287327 50.43344614170139 L -65.46459232287329 -50.43344614170138 L -50.34619232287329 -50.43344614170138 L -50.34619232287329 -61.01632614170137 L -65.46459232287329 -61.01632614170137 L -65.4645923228733 -113.38799999999998 L -20.109392322873333 -87.2021630708507 L -27.668592322873323 -74.10924460627605 L -18.50354939767106 -68.81780460627606 L -10.944349397671068 -81.91072307085071 L 76.40894172054432 -31.477276929149397 L 68.84974172054434 -18.38435846457473 L 78.01478464574662 -13.092918464574751 L 85.57398464574659 -26.185836929149417 L 130.9291846457466 -1.5631940186722204e-13 Z"></path></g></g><g class="single-face" transform="translate(271.85836929149315,815.5751078744795)"><g><path stroke="red" stroke-width="1" fill="none" d="M 85.57398464574658 26.185836929149303 L 78.01478464574659 13.092918464574646 L 68.84974172054433 18.384358464574646 L 76.40894172054432 31.477276929149305 L -10.944349397671061 81.91072307085068 L -18.503549397671065 68.81780460627603 L -27.66859232287331 74.10924460627602 L -20.109392322873305 87.20216307085067 L -65.46459232287327 113.38799999999998 L -65.46459232287327 61.01632614170139 L -50.346192322873264 61.01632614170139 L -50.34619232287327 50.43344614170139 L -65.46459232287327 50.43344614170139 L -65.46459232287329 -50.43344614170138 L -50.34619232287329 -50.43344614170138 L -50.34619232287329 -61.01632614170137 L -65.46459232287329 -61.01632614170137 L -65.4645923228733 -113.38799999999998 L -20.109392322873333 -87.2021630708507 L -27.668592322873323 -74.10924460627605 L -18.50354939767106 -68.81780460627606 L -10.944349397671068 -81.91072307085071 L 76.40894172054432 -31.477276929149397 L 68.84974172054434 -18.38435846457473 L 78.01478464574662 -13.092918464574751 L 85.57398464574659 -26.185836929149417 L 130.9291846457466 -1.5631940186722204e-13 Z"></path></g></g><g class="single-face" transform="translate(543.7167385829863,815.5751078744795)"><g><path stroke="red" stroke-width="1" fill="none" d="M 85.57398464574658 26.185836929149303 L 78.01478464574659 13.092918464574646 L 68.84974172054433 18.384358464574646 L 76.40894172054432 31.477276929149305 L -10.944349397671061 81.91072307085068 L -18.503549397671065 68.81780460627603 L -27.66859232287331 74.10924460627602 L -20.109392322873305 87.20216307085067 L -65.46459232287327 113.38799999999998 L -65.46459232287327 61.01632614170139 L -50.346192322873264 61.01632614170139 L -50.34619232287327 50.43344614170139 L -65.46459232287327 50.43344614170139 L -65.46459232287329 -50.43344614170138 L -50.34619232287329 -50.43344614170138 L -50.34619232287329 -61.01632614170137 L -65.46459232287329 -61.01632614170137 L -65.4645923228733 -113.38799999999998 L -20.109392322873333 -87.2021630708507 L -27.668592322873323 -74.10924460627605 L -18.50354939767106 -68.81780460627606 L -10.944349397671068 -81.91072307085071 L 76.40894172054432 -31.477276929149397 L 68.84974172054434 -18.38435846457473 L 78.01478464574662 -13.092918464574751 L 85.57398464574659 -26.185836929149417 L 130.9291846457466 -1.5631940186722204e-13 Z"></path></g></g><g class="single-face" transform="translate(815.5751078744795,815.5751078744795)"><g><path stroke="red" stroke-width="1" fill="none" d="M 85.57398464574658 26.185836929149303 L 78.01478464574659 13.092918464574646 L 68.84974172054433 18.384358464574646 L 76.40894172054432 31.477276929149305 L -10.944349397671061 81.91072307085068 L -18.503549397671065 68.81780460627603 L -27.66859232287331 74.10924460627602 L -20.109392322873305 87.20216307085067 L -65.46459232287327 113.38799999999998 L -65.46459232287327 61.01632614170139 L -50.346192322873264 61.01632614170139 L -50.34619232287327 50.43344614170139 L -65.46459232287327 50.43344614170139 L -65.46459232287329 -50.43344614170138 L -50.34619232287329 -50.43344614170138 L -50.34619232287329 -61.01632614170137 L -65.46459232287329 -61.01632614170137 L -65.4645923228733 -113.38799999999998 L -20.109392322873333 -87.2021630708507 L -27.668592322873323 -74.10924460627605 L -18.50354939767106 -68.81780460627606 L -10.944349397671068 -81.91072307085071 L 76.40894172054432 -31.477276929149397 L 68.84974172054434 -18.38435846457473 L 78.01478464574662 -13.092918464574751 L 85.57398464574659 -26.185836929149417 L 130.9291846457466 -1.5631940186722204e-13 Z"></path></g></g><g class="single-face" transform="translate(0,1087.4334771659726)"><g><path stroke="red" stroke-width="1" fill="none" d="M 85.57398464574658 26.185836929149303 L 78.01478464574659 13.092918464574646 L 68.84974172054433 18.384358464574646 L 76.40894172054432 31.477276929149305 L -10.944349397671061 81.91072307085068 L -18.503549397671065 68.81780460627603 L -27.66859232287331 74.10924460627602 L -20.109392322873305 87.20216307085067 L -65.46459232287327 113.38799999999998 L -65.46459232287327 61.01632614170139 L -50.346192322873264 61.01632614170139 L -50.34619232287327 50.43344614170139 L -65.46459232287327 50.43344614170139 L -65.46459232287329 -50.43344614170138 L -50.34619232287329 -50.43344614170138 L -50.34619232287329 -61.01632614170137 L -65.46459232287329 -61.01632614170137 L -65.4645923228733 -113.38799999999998 L -20.109392322873333 -87.2021630708507 L -27.668592322873323 -74.10924460627605 L -18.50354939767106 -68.81780460627606 L -10.944349397671068 -81.91072307085071 L 76.40894172054432 -31.477276929149397 L 68.84974172054434 -18.38435846457473 L 78.01478464574662 -13.092918464574751 L 85.57398464574659 -26.185836929149417 L 130.9291846457466 -1.5631940186722204e-13 Z"></path></g></g><g class="single-face" transform="translate(271.85836929149315,1087.4334771659726)"><g><path stroke="red" stroke-width="1" fill="none" d="M 85.57398464574658 26.185836929149303 L 78.01478464574659 13.092918464574646 L 68.84974172054433 18.384358464574646 L 76.40894172054432 31.477276929149305 L -10.944349397671061 81.91072307085068 L -18.503549397671065 68.81780460627603 L -27.66859232287331 74.10924460627602 L -20.109392322873305 87.20216307085067 L -65.46459232287327 113.38799999999998 L -65.46459232287327 61.01632614170139 L -50.346192322873264 61.01632614170139 L -50.34619232287327 50.43344614170139 L -65.46459232287327 50.43344614170139 L -65.46459232287329 -50.43344614170138 L -50.34619232287329 -50.43344614170138 L -50.34619232287329 -61.01632614170137 L -65.46459232287329 -61.01632614170137 L -65.4645923228733 -113.38799999999998 L -20.109392322873333 -87.2021630708507 L -27.668592322873323 -74.10924460627605 L -18.50354939767106 -68.81780460627606 L -10.944349397671068 -81.91072307085071 L 76.40894172054432 -31.477276929149397 L 68.84974172054434 -18.38435846457473 L 78.01478464574662 -13.092918464574751 L 85.57398464574659 -26.185836929149417 L 130.9291846457466 -1.5631940186722204e-13 Z"></path></g></g><g class="single-face" transform="translate(543.7167385829863,1087.4334771659726)"><g><path stroke="red" stroke-width="1" fill="none" d="M 85.57398464574658 26.185836929149303 L 78.01478464574659 13.092918464574646 L 68.84974172054433 18.384358464574646 L 76.40894172054432 31.477276929149305 L -10.944349397671061 81.91072307085068 L -18.503549397671065 68.81780460627603 L -27.66859232287331 74.10924460627602 L -20.109392322873305 87.20216307085067 L -65.46459232287327 113.38799999999998 L -65.46459232287327 61.01632614170139 L -50.346192322873264 61.01632614170139 L -50.34619232287327 50.43344614170139 L -65.46459232287327 50.43344614170139 L -65.46459232287329 -50.43344614170138 L -50.34619232287329 -50.43344614170138 L -50.34619232287329 -61.01632614170137 L -65.46459232287329 -61.01632614170137 L -65.4645923228733 -113.38799999999998 L -20.109392322873333 -87.2021630708507 L -27.668592322873323 -74.10924460627605 L -18.50354939767106 -68.81780460627606 L -10.944349397671068 -81.91072307085071 L 76.40894172054432 -31.477276929149397 L 68.84974172054434 -18.38435846457473 L 78.01478464574662 -13.092918464574751 L 85.57398464574659 -26.185836929149417 L 130.9291846457466 -1.5631940186722204e-13 Z"></path></g></g><g class="single-face" transform="translate(815.5751078744795,1087.4334771659726)"><g><path stroke="red" stroke-width="1" fill="none" d="M 85.57398464574658 26.185836929149303 L 78.01478464574659 13.092918464574646 L 68.84974172054433 18.384358464574646 L 76.40894172054432 31.477276929149305 L -10.944349397671061 81.91072307085068 L -18.503549397671065 68.81780460627603 L -27.66859232287331 74.10924460627602 L -20.109392322873305 87.20216307085067 L -65.46459232287327 113.38799999999998 L -65.46459232287327 61.01632614170139 L -50.346192322873264 61.01632614170139 L -50.34619232287327 50.43344614170139 L -65.46459232287327 50.43344614170139 L -65.46459232287329 -50.43344614170138 L -50.34619232287329 -50.43344614170138 L -50.34619232287329 -61.01632614170137 L -65.46459232287329 -61.01632614170137 L -65.4645923228733 -113.38799999999998 L -20.109392322873333 -87.2021630708507 L -27.668592322873323 -74.10924460627605 L -18.50354939767106 -68.81780460627606 L -10.944349397671068 -81.91072307085071 L 76.40894172054432 -31.477276929149397 L 68.84974172054434 -18.38435846457473 L 78.01478464574662 -13.092918464574751 L 85.57398464574659 -26.185836929149417 L 130.9291846457466 -1.5631940186722204e-13 Z"></path></g></g></g></g><g class="face"><g class="single-face" transform="translate(130.92918464574657,130.92918464574657)"><g><path stroke="red" stroke-width="1" fill="none" d="M 85.57398464574658 26.185836929149303 L 78.01478464574659 13.092918464574646 L 68.84974172054433 18.384358464574646 L 76.40894172054432 31.477276929149305 L -10.944349397671061 81.91072307085068 L -18.503549397671065 68.81780460627603 L -27.66859232287331 74.10924460627602 L -20.109392322873305 87.20216307085067 L -65.46459232287327 113.38799999999998 L -65.46459232287327 61.01632614170139 L -50.346192322873264 61.01632614170139 L -50.34619232287327 50.43344614170139 L -65.46459232287327 50.43344614170139 L -65.46459232287329 -50.43344614170138 L -50.34619232287329 -50.43344614170138 L -50.34619232287329 -61.01632614170137 L -65.46459232287329 -61.01632614170137 L -65.4645923228733 -113.38799999999998 L -20.109392322873333 -87.2021630708507 L -27.668592322873323 -74.10924460627605 L -18.50354939767106 -68.81780460627606 L -10.944349397671068 -81.91072307085071 L 76.40894172054432 -31.477276929149397 L 68.84974172054434 -18.38435846457473 L 78.01478464574662 -13.092918464574751 L 85.57398464574659 -26.185836929149417 L 130.9291846457466 -1.5631940186722204e-13 Z"></path></g></g><g class="faces-group"></g></g></g><g transform="translate(100,0)"><path d="M 0 0 L 38.64415422292891 0 L 38.64415422292891 9.449 L 23.52575422292891 9.449 L 23.52575422292891 20.03188 L 38.64415422292891 20.03188 L 38.64415422292891 29.48088 L 11.260601309216131 29.48088 L -9.149994283406546 47.736469766767854 L -15.449288909262368 40.693566372807105 L -4.180643478925159 30.614694971437785 L -11.235853459883684 22.726643170201736 L -22.504498890220894 32.80551457157106 L -28.803793516076716 25.762611177610303 Z" fill="none" stroke="red"></path></g><g transform="translate(0,47.73646926879883)"><g transform="translate(87.44794464111328,20)"><path d="M 0 0 L 38.64415422292891 0 L 38.64415422292891 9.449 L 23.52575422292891 9.449 L 23.52575422292891 20.03188 L 38.64415422292891 20.03188 L 38.64415422292891 29.48088 L 11.260601309216131 29.48088 L -9.149994283406546 47.736469766767854 L -15.449288909262368 40.693566372807105 L -4.180643478925159 30.614694971437785 L -11.235853459883684 22.726643170201736 L -22.504498890220894 32.80551457157106 L -28.803793516076716 25.762611177610303 Z" fill="none" stroke="red"></path></g><g transform="translate(164.89588928222656,20)"><path d="M 0 0 L 38.64415422292891 0 L 38.64415422292891 9.449 L 23.52575422292891 9.449 L 23.52575422292891 20.03188 L 38.64415422292891 20.03188 L 38.64415422292891 29.48088 L 11.260601309216131 29.48088 L -9.149994283406546 47.736469766767854 L -15.449288909262368 40.693566372807105 L -4.180643478925159 30.614694971437785 L -11.235853459883684 22.726643170201736 L -22.504498890220894 32.80551457157106 L -28.803793516076716 25.762611177610303 Z" fill="none" stroke="red"></path></g><g transform="translate(242.34383392333984,20)"><path d="M 0 0 L 38.64415422292891 0 L 38.64415422292891 9.449 L 23.52575422292891 9.449 L 23.52575422292891 20.03188 L 38.64415422292891 20.03188 L 38.64415422292891 29.48088 L 11.260601309216131 29.48088 L -9.149994283406546 47.736469766767854 L -15.449288909262368 40.693566372807105 L -4.180643478925159 30.614694971437785 L -11.235853459883684 22.726643170201736 L -22.504498890220894 32.80551457157106 L -28.803793516076716 25.762611177610303 Z" fill="none" stroke="red"></path></g><g transform="translate(319.7917785644531,20)"><path d="M 0 0 L 38.64415422292891 0 L 38.64415422292891 9.449 L 23.52575422292891 9.449 L 23.52575422292891 20.03188 L 38.64415422292891 20.03188 L 38.64415422292891 29.48088 L 11.260601309216131 29.48088 L -9.149994283406546 47.736469766767854 L -15.449288909262368 40.693566372807105 L -4.180643478925159 30.614694971437785 L -11.235853459883684 22.726643170201736 L -22.504498890220894 32.80551457157106 L -28.803793516076716 25.762611177610303 Z" fill="none" stroke="red"></path></g><g transform="translate(10,77.73646926879883)"><path d="M 0 0 L 38.64415422292891 0 L 38.64415422292891 9.449 L 23.52575422292891 9.449 L 23.52575422292891 20.03188 L 38.64415422292891 20.03188 L 38.64415422292891 29.48088 L 11.260601309216131 29.48088 L -9.149994283406546 47.736469766767854 L -15.449288909262368 40.693566372807105 L -4.180643478925159 30.614694971437785 L -11.235853459883684 22.726643170201736 L -22.504498890220894 32.80551457157106 L -28.803793516076716 25.762611177610303 Z" fill="none" stroke="red"></path></g><g transform="translate(87.44794464111328,77.73646926879883)"><path d="M 0 0 L 38.64415422292891 0 L 38.64415422292891 9.449 L 23.52575422292891 9.449 L 23.52575422292891 20.03188 L 38.64415422292891 20.03188 L 38.64415422292891 29.48088 L 11.260601309216131 29.48088 L -9.149994283406546 47.736469766767854 L -15.449288909262368 40.693566372807105 L -4.180643478925159 30.614694971437785 L -11.235853459883684 22.726643170201736 L -22.504498890220894 32.80551457157106 L -28.803793516076716 25.762611177610303 Z" fill="none" stroke="red"></path></g><g transform="translate(164.89588928222656,77.73646926879883)"><path d="M 0 0 L 38.64415422292891 0 L 38.64415422292891 9.449 L 23.52575422292891 9.449 L 23.52575422292891 20.03188 L 38.64415422292891 20.03188 L 38.64415422292891 29.48088 L 11.260601309216131 29.48088 L -9.149994283406546 47.736469766767854 L -15.449288909262368 40.693566372807105 L -4.180643478925159 30.614694971437785 L -11.235853459883684 22.726643170201736 L -22.504498890220894 32.80551457157106 L -28.803793516076716 25.762611177610303 Z" fill="none" stroke="red"></path></g><g transform="translate(242.34383392333984,77.73646926879883)"><path d="M 0 0 L 38.64415422292891 0 L 38.64415422292891 9.449 L 23.52575422292891 9.449 L 23.52575422292891 20.03188 L 38.64415422292891 20.03188 L 38.64415422292891 29.48088 L 11.260601309216131 29.48088 L -9.149994283406546 47.736469766767854 L -15.449288909262368 40.693566372807105 L -4.180643478925159 30.614694971437785 L -11.235853459883684 22.726643170201736 L -22.504498890220894 32.80551457157106 L -28.803793516076716 25.762611177610303 Z" fill="none" stroke="red"></path></g><g transform="translate(319.7917785644531,77.73646926879883)"><path d="M 0 0 L 38.64415422292891 0 L 38.64415422292891 9.449 L 23.52575422292891 9.449 L 23.52575422292891 20.03188 L 38.64415422292891 20.03188 L 38.64415422292891 29.48088 L 11.260601309216131 29.48088 L -9.149994283406546 47.736469766767854 L -15.449288909262368 40.693566372807105 L -4.180643478925159 30.614694971437785 L -11.235853459883684 22.726643170201736 L -22.504498890220894 32.80551457157106 L -28.803793516076716 25.762611177610303 Z" fill="none" stroke="red"></path></g><g transform="translate(10,135.47293853759766)"><path d="M 0 0 L 38.64415422292891 0 L 38.64415422292891 9.449 L 23.52575422292891 9.449 L 23.52575422292891 20.03188 L 38.64415422292891 20.03188 L 38.64415422292891 29.48088 L 11.260601309216131 29.48088 L -9.149994283406546 47.736469766767854 L -15.449288909262368 40.693566372807105 L -4.180643478925159 30.614694971437785 L -11.235853459883684 22.726643170201736 L -22.504498890220894 32.80551457157106 L -28.803793516076716 25.762611177610303 Z" fill="none" stroke="red"></path></g><g transform="translate(87.44794464111328,135.47293853759766)"><path d="M 0 0 L 38.64415422292891 0 L 38.64415422292891 9.449 L 23.52575422292891 9.449 L 23.52575422292891 20.03188 L 38.64415422292891 20.03188 L 38.64415422292891 29.48088 L 11.260601309216131 29.48088 L -9.149994283406546 47.736469766767854 L -15.449288909262368 40.693566372807105 L -4.180643478925159 30.614694971437785 L -11.235853459883684 22.726643170201736 L -22.504498890220894 32.80551457157106 L -28.803793516076716 25.762611177610303 Z" fill="none" stroke="red"></path></g><g transform="translate(164.89588928222656,135.47293853759766)"><path d="M 0 0 L 38.64415422292891 0 L 38.64415422292891 9.449 L 23.52575422292891 9.449 L 23.52575422292891 20.03188 L 38.64415422292891 20.03188 L 38.64415422292891 29.48088 L 11.260601309216131 29.48088 L -9.149994283406546 47.736469766767854 L -15.449288909262368 40.693566372807105 L -4.180643478925159 30.614694971437785 L -11.235853459883684 22.726643170201736 L -22.504498890220894 32.80551457157106 L -28.803793516076716 25.762611177610303 Z" fill="none" stroke="red"></path></g><g transform="translate(242.34383392333984,135.47293853759766)"><path d="M 0 0 L 38.64415422292891 0 L 38.64415422292891 9.449 L 23.52575422292891 9.449 L 23.52575422292891 20.03188 L 38.64415422292891 20.03188 L 38.64415422292891 29.48088 L 11.260601309216131 29.48088 L -9.149994283406546 47.736469766767854 L -15.449288909262368 40.693566372807105 L -4.180643478925159 30.614694971437785 L -11.235853459883684 22.726643170201736 L -22.504498890220894 32.80551457157106 L -28.803793516076716 25.762611177610303 Z" fill="none" stroke="red"></path></g><g transform="translate(319.7917785644531,135.47293853759766)"><path d="M 0 0 L 38.64415422292891 0 L 38.64415422292891 9.449 L 23.52575422292891 9.449 L 23.52575422292891 20.03188 L 38.64415422292891 20.03188 L 38.64415422292891 29.48088 L 11.260601309216131 29.48088 L -9.149994283406546 47.736469766767854 L -15.449288909262368 40.693566372807105 L -4.180643478925159 30.614694971437785 L -11.235853459883684 22.726643170201736 L -22.504498890220894 32.80551457157106 L -28.803793516076716 25.762611177610303 Z" fill="none" stroke="red"></path></g><g transform="translate(10,193.20940780639648)"><path d="M 0 0 L 38.64415422292891 0 L 38.64415422292891 9.449 L 23.52575422292891 9.449 L 23.52575422292891 20.03188 L 38.64415422292891 20.03188 L 38.64415422292891 29.48088 L 11.260601309216131 29.48088 L -9.149994283406546 47.736469766767854 L -15.449288909262368 40.693566372807105 L -4.180643478925159 30.614694971437785 L -11.235853459883684 22.726643170201736 L -22.504498890220894 32.80551457157106 L -28.803793516076716 25.762611177610303 Z" fill="none" stroke="red"></path></g><g transform="translate(87.44794464111328,193.20940780639648)"><path d="M 0 0 L 38.64415422292891 0 L 38.64415422292891 9.449 L 23.52575422292891 9.449 L 23.52575422292891 20.03188 L 38.64415422292891 20.03188 L 38.64415422292891 29.48088 L 11.260601309216131 29.48088 L -9.149994283406546 47.736469766767854 L -15.449288909262368 40.693566372807105 L -4.180643478925159 30.614694971437785 L -11.235853459883684 22.726643170201736 L -22.504498890220894 32.80551457157106 L -28.803793516076716 25.762611177610303 Z" fill="none" stroke="red"></path></g><g transform="translate(164.89588928222656,193.20940780639648)"><path d="M 0 0 L 38.64415422292891 0 L 38.64415422292891 9.449 L 23.52575422292891 9.449 L 23.52575422292891 20.03188 L 38.64415422292891 20.03188 L 38.64415422292891 29.48088 L 11.260601309216131 29.48088 L -9.149994283406546 47.736469766767854 L -15.449288909262368 40.693566372807105 L -4.180643478925159 30.614694971437785 L -11.235853459883684 22.726643170201736 L -22.504498890220894 32.80551457157106 L -28.803793516076716 25.762611177610303 Z" fill="none" stroke="red"></path></g><g transform="translate(242.34383392333984,193.20940780639648)"><path d="M 0 0 L 38.64415422292891 0 L 38.64415422292891 9.449 L 23.52575422292891 9.449 L 23.52575422292891 20.03188 L 38.64415422292891 20.03188 L 38.64415422292891 29.48088 L 11.260601309216131 29.48088 L -9.149994283406546 47.736469766767854 L -15.449288909262368 40.693566372807105 L -4.180643478925159 30.614694971437785 L -11.235853459883684 22.726643170201736 L -22.504498890220894 32.80551457157106 L -28.803793516076716 25.762611177610303 Z" fill="none" stroke="red"></path></g><g transform="translate(319.7917785644531,193.20940780639648)"><path d="M 0 0 L 38.64415422292891 0 L 38.64415422292891 9.449 L 23.52575422292891 9.449 L 23.52575422292891 20.03188 L 38.64415422292891 20.03188 L 38.64415422292891 29.48088 L 11.260601309216131 29.48088 L -9.149994283406546 47.736469766767854 L -15.449288909262368 40.693566372807105 L -4.180643478925159 30.614694971437785 L -11.235853459883684 22.726643170201736 L -22.504498890220894 32.80551457157106 L -28.803793516076716 25.762611177610303 Z" fill="none" stroke="red"></path></g><g transform="translate(10,250.9458770751953)"><path d="M 0 0 L 38.64415422292891 0 L 38.64415422292891 9.449 L 23.52575422292891 9.449 L 23.52575422292891 20.03188 L 38.64415422292891 20.03188 L 38.64415422292891 29.48088 L 11.260601309216131 29.48088 L -9.149994283406546 47.736469766767854 L -15.449288909262368 40.693566372807105 L -4.180643478925159 30.614694971437785 L -11.235853459883684 22.726643170201736 L -22.504498890220894 32.80551457157106 L -28.803793516076716 25.762611177610303 Z" fill="none" stroke="red"></path></g><g transform="translate(87.44794464111328,250.9458770751953)"><path d="M 0 0 L 38.64415422292891 0 L 38.64415422292891 9.449 L 23.52575422292891 9.449 L 23.52575422292891 20.03188 L 38.64415422292891 20.03188 L 38.64415422292891 29.48088 L 11.260601309216131 29.48088 L -9.149994283406546 47.736469766767854 L -15.449288909262368 40.693566372807105 L -4.180643478925159 30.614694971437785 L -11.235853459883684 22.726643170201736 L -22.504498890220894 32.80551457157106 L -28.803793516076716 25.762611177610303 Z" fill="none" stroke="red"></path></g><g transform="translate(164.89588928222656,250.9458770751953)"><path d="M 0 0 L 38.64415422292891 0 L 38.64415422292891 9.449 L 23.52575422292891 9.449 L 23.52575422292891 20.03188 L 38.64415422292891 20.03188 L 38.64415422292891 29.48088 L 11.260601309216131 29.48088 L -9.149994283406546 47.736469766767854 L -15.449288909262368 40.693566372807105 L -4.180643478925159 30.614694971437785 L -11.235853459883684 22.726643170201736 L -22.504498890220894 32.80551457157106 L -28.803793516076716 25.762611177610303 Z" fill="none" stroke="red"></path></g><g transform="translate(242.34383392333984,250.9458770751953)"><path d="M 0 0 L 38.64415422292891 0 L 38.64415422292891 9.449 L 23.52575422292891 9.449 L 23.52575422292891 20.03188 L 38.64415422292891 20.03188 L 38.64415422292891 29.48088 L 11.260601309216131 29.48088 L -9.149994283406546 47.736469766767854 L -15.449288909262368 40.693566372807105 L -4.180643478925159 30.614694971437785 L -11.235853459883684 22.726643170201736 L -22.504498890220894 32.80551457157106 L -28.803793516076716 25.762611177610303 Z" fill="none" stroke="red"></path></g><g transform="translate(319.7917785644531,250.9458770751953)"><path d="M 0 0 L 38.64415422292891 0 L 38.64415422292891 9.449 L 23.52575422292891 9.449 L 23.52575422292891 20.03188 L 38.64415422292891 20.03188 L 38.64415422292891 29.48088 L 11.260601309216131 29.48088 L -9.149994283406546 47.736469766767854 L -15.449288909262368 40.693566372807105 L -4.180643478925159 30.614694971437785 L -11.235853459883684 22.726643170201736 L -22.504498890220894 32.80551457157106 L -28.803793516076716 25.762611177610303 Z" fill="none" stroke="red"></path></g><g transform="translate(10,308.68234634399414)"><path d="M 0 0 L 38.64415422292891 0 L 38.64415422292891 9.449 L 23.52575422292891 9.449 L 23.52575422292891 20.03188 L 38.64415422292891 20.03188 L 38.64415422292891 29.48088 L 11.260601309216131 29.48088 L -9.149994283406546 47.736469766767854 L -15.449288909262368 40.693566372807105 L -4.180643478925159 30.614694971437785 L -11.235853459883684 22.726643170201736 L -22.504498890220894 32.80551457157106 L -28.803793516076716 25.762611177610303 Z" fill="none" stroke="red"></path></g><g transform="translate(87.44794464111328,308.68234634399414)"><path d="M 0 0 L 38.64415422292891 0 L 38.64415422292891 9.449 L 23.52575422292891 9.449 L 23.52575422292891 20.03188 L 38.64415422292891 20.03188 L 38.64415422292891 29.48088 L 11.260601309216131 29.48088 L -9.149994283406546 47.736469766767854 L -15.449288909262368 40.693566372807105 L -4.180643478925159 30.614694971437785 L -11.235853459883684 22.726643170201736 L -22.504498890220894 32.80551457157106 L -28.803793516076716 25.762611177610303 Z" fill="none" stroke="red"></path></g><g transform="translate(164.89588928222656,308.68234634399414)"><path d="M 0 0 L 38.64415422292891 0 L 38.64415422292891 9.449 L 23.52575422292891 9.449 L 23.52575422292891 20.03188 L 38.64415422292891 20.03188 L 38.64415422292891 29.48088 L 11.260601309216131 29.48088 L -9.149994283406546 47.736469766767854 L -15.449288909262368 40.693566372807105 L -4.180643478925159 30.614694971437785 L -11.235853459883684 22.726643170201736 L -22.504498890220894 32.80551457157106 L -28.803793516076716 25.762611177610303 Z" fill="none" stroke="red"></path></g><g transform="translate(242.34383392333984,308.68234634399414)"><path d="M 0 0 L 38.64415422292891 0 L 38.64415422292891 9.449 L 23.52575422292891 9.449 L 23.52575422292891 20.03188 L 38.64415422292891 20.03188 L 38.64415422292891 29.48088 L 11.260601309216131 29.48088 L -9.149994283406546 47.736469766767854 L -15.449288909262368 40.693566372807105 L -4.180643478925159 30.614694971437785 L -11.235853459883684 22.726643170201736 L -22.504498890220894 32.80551457157106 L -28.803793516076716 25.762611177610303 Z" fill="none" stroke="red"></path></g><g transform="translate(319.7917785644531,308.68234634399414)"><path d="M 0 0 L 38.64415422292891 0 L 38.64415422292891 9.449 L 23.52575422292891 9.449 L 23.52575422292891 20.03188 L 38.64415422292891 20.03188 L 38.64415422292891 29.48088 L 11.260601309216131 29.48088 L -9.149994283406546 47.736469766767854 L -15.449288909262368 40.693566372807105 L -4.180643478925159 30.614694971437785 L -11.235853459883684 22.726643170201736 L -22.504498890220894 32.80551457157106 L -28.803793516076716 25.762611177610303 Z" fill="none" stroke="red"></path></g><g transform="translate(10,366.41881561279297)"><path d="M 0 0 L 38.64415422292891 0 L 38.64415422292891 9.449 L 23.52575422292891 9.449 L 23.52575422292891 20.03188 L 38.64415422292891 20.03188 L 38.64415422292891 29.48088 L 11.260601309216131 29.48088 L -9.149994283406546 47.736469766767854 L -15.449288909262368 40.693566372807105 L -4.180643478925159 30.614694971437785 L -11.235853459883684 22.726643170201736 L -22.504498890220894 32.80551457157106 L -28.803793516076716 25.762611177610303 Z" fill="none" stroke="red"></path></g><g transform="translate(87.44794464111328,366.41881561279297)"><path d="M 0 0 L 38.64415422292891 0 L 38.64415422292891 9.449 L 23.52575422292891 9.449 L 23.52575422292891 20.03188 L 38.64415422292891 20.03188 L 38.64415422292891 29.48088 L 11.260601309216131 29.48088 L -9.149994283406546 47.736469766767854 L -15.449288909262368 40.693566372807105 L -4.180643478925159 30.614694971437785 L -11.235853459883684 22.726643170201736 L -22.504498890220894 32.80551457157106 L -28.803793516076716 25.762611177610303 Z" fill="none" stroke="red"></path></g><g transform="translate(164.89588928222656,366.41881561279297)"><path d="M 0 0 L 38.64415422292891 0 L 38.64415422292891 9.449 L 23.52575422292891 9.449 L 23.52575422292891 20.03188 L 38.64415422292891 20.03188 L 38.64415422292891 29.48088 L 11.260601309216131 29.48088 L -9.149994283406546 47.736469766767854 L -15.449288909262368 40.693566372807105 L -4.180643478925159 30.614694971437785 L -11.235853459883684 22.726643170201736 L -22.504498890220894 32.80551457157106 L -28.803793516076716 25.762611177610303 Z" fill="none" stroke="red"></path></g><g transform="translate(242.34383392333984,366.41881561279297)"><path d="M 0 0 L 38.64415422292891 0 L 38.64415422292891 9.449 L 23.52575422292891 9.449 L 23.52575422292891 20.03188 L 38.64415422292891 20.03188 L 38.64415422292891 29.48088 L 11.260601309216131 29.48088 L -9.149994283406546 47.736469766767854 L -15.449288909262368 40.693566372807105 L -4.180643478925159 30.614694971437785 L -11.235853459883684 22.726643170201736 L -22.504498890220894 32.80551457157106 L -28.803793516076716 25.762611177610303 Z" fill="none" stroke="red"></path></g><g transform="translate(319.7917785644531,366.41881561279297)"><path d="M 0 0 L 38.64415422292891 0 L 38.64415422292891 9.449 L 23.52575422292891 9.449 L 23.52575422292891 20.03188 L 38.64415422292891 20.03188 L 38.64415422292891 29.48088 L 11.260601309216131 29.48088 L -9.149994283406546 47.736469766767854 L -15.449288909262368 40.693566372807105 L -4.180643478925159 30.614694971437785 L -11.235853459883684 22.726643170201736 L -22.504498890220894 32.80551457157106 L -28.803793516076716 25.762611177610303 Z" fill="none" stroke="red"></path></g><g transform="translate(10,424.1552848815918)"><path d="M 0 0 L 38.64415422292891 0 L 38.64415422292891 9.449 L 23.52575422292891 9.449 L 23.52575422292891 20.03188 L 38.64415422292891 20.03188 L 38.64415422292891 29.48088 L 11.260601309216131 29.48088 L -9.149994283406546 47.736469766767854 L -15.449288909262368 40.693566372807105 L -4.180643478925159 30.614694971437785 L -11.235853459883684 22.726643170201736 L -22.504498890220894 32.80551457157106 L -28.803793516076716 25.762611177610303 Z" fill="none" stroke="red"></path></g><g transform="translate(87.44794464111328,424.1552848815918)"><path d="M 0 0 L 38.64415422292891 0 L 38.64415422292891 9.449 L 23.52575422292891 9.449 L 23.52575422292891 20.03188 L 38.64415422292891 20.03188 L 38.64415422292891 29.48088 L 11.260601309216131 29.48088 L -9.149994283406546 47.736469766767854 L -15.449288909262368 40.693566372807105 L -4.180643478925159 30.614694971437785 L -11.235853459883684 22.726643170201736 L -22.504498890220894 32.80551457157106 L -28.803793516076716 25.762611177610303 Z" fill="none" stroke="red"></path></g><g transform="translate(164.89588928222656,424.1552848815918)"><path d="M 0 0 L 38.64415422292891 0 L 38.64415422292891 9.449 L 23.52575422292891 9.449 L 23.52575422292891 20.03188 L 38.64415422292891 20.03188 L 38.64415422292891 29.48088 L 11.260601309216131 29.48088 L -9.149994283406546 47.736469766767854 L -15.449288909262368 40.693566372807105 L -4.180643478925159 30.614694971437785 L -11.235853459883684 22.726643170201736 L -22.504498890220894 32.80551457157106 L -28.803793516076716 25.762611177610303 Z" fill="none" stroke="red"></path></g><g transform="translate(242.34383392333984,424.1552848815918)"><path d="M 0 0 L 38.64415422292891 0 L 38.64415422292891 9.449 L 23.52575422292891 9.449 L 23.52575422292891 20.03188 L 38.64415422292891 20.03188 L 38.64415422292891 29.48088 L 11.260601309216131 29.48088 L -9.149994283406546 47.736469766767854 L -15.449288909262368 40.693566372807105 L -4.180643478925159 30.614694971437785 L -11.235853459883684 22.726643170201736 L -22.504498890220894 32.80551457157106 L -28.803793516076716 25.762611177610303 Z" fill="none" stroke="red"></path></g><g transform="translate(319.7917785644531,424.1552848815918)"><path d="M 0 0 L 38.64415422292891 0 L 38.64415422292891 9.449 L 23.52575422292891 9.449 L 23.52575422292891 20.03188 L 38.64415422292891 20.03188 L 38.64415422292891 29.48088 L 11.260601309216131 29.48088 L -9.149994283406546 47.736469766767854 L -15.449288909262368 40.693566372807105 L -4.180643478925159 30.614694971437785 L -11.235853459883684 22.726643170201736 L -22.504498890220894 32.80551457157106 L -28.803793516076716 25.762611177610303 Z" fill="none" stroke="red"></path></g><g transform="translate(10,481.8917541503906)"><path d="M 0 0 L 38.64415422292891 0 L 38.64415422292891 9.449 L 23.52575422292891 9.449 L 23.52575422292891 20.03188 L 38.64415422292891 20.03188 L 38.64415422292891 29.48088 L 11.260601309216131 29.48088 L -9.149994283406546 47.736469766767854 L -15.449288909262368 40.693566372807105 L -4.180643478925159 30.614694971437785 L -11.235853459883684 22.726643170201736 L -22.504498890220894 32.80551457157106 L -28.803793516076716 25.762611177610303 Z" fill="none" stroke="red"></path></g><g transform="translate(87.44794464111328,481.8917541503906)"><path d="M 0 0 L 38.64415422292891 0 L 38.64415422292891 9.449 L 23.52575422292891 9.449 L 23.52575422292891 20.03188 L 38.64415422292891 20.03188 L 38.64415422292891 29.48088 L 11.260601309216131 29.48088 L -9.149994283406546 47.736469766767854 L -15.449288909262368 40.693566372807105 L -4.180643478925159 30.614694971437785 L -11.235853459883684 22.726643170201736 L -22.504498890220894 32.80551457157106 L -28.803793516076716 25.762611177610303 Z" fill="none" stroke="red"></path></g><g transform="translate(164.89588928222656,481.8917541503906)"><path d="M 0 0 L 38.64415422292891 0 L 38.64415422292891 9.449 L 23.52575422292891 9.449 L 23.52575422292891 20.03188 L 38.64415422292891 20.03188 L 38.64415422292891 29.48088 L 11.260601309216131 29.48088 L -9.149994283406546 47.736469766767854 L -15.449288909262368 40.693566372807105 L -4.180643478925159 30.614694971437785 L -11.235853459883684 22.726643170201736 L -22.504498890220894 32.80551457157106 L -28.803793516076716 25.762611177610303 Z" fill="none" stroke="red"></path></g><g transform="translate(242.34383392333984,481.8917541503906)"><path d="M 0 0 L 38.64415422292891 0 L 38.64415422292891 9.449 L 23.52575422292891 9.449 L 23.52575422292891 20.03188 L 38.64415422292891 20.03188 L 38.64415422292891 29.48088 L 11.260601309216131 29.48088 L -9.149994283406546 47.736469766767854 L -15.449288909262368 40.693566372807105 L -4.180643478925159 30.614694971437785 L -11.235853459883684 22.726643170201736 L -22.504498890220894 32.80551457157106 L -28.803793516076716 25.762611177610303 Z" fill="none" stroke="red"></path></g><g transform="translate(319.7917785644531,481.8917541503906)"><path d="M 0 0 L 38.64415422292891 0 L 38.64415422292891 9.449 L 23.52575422292891 9.449 L 23.52575422292891 20.03188 L 38.64415422292891 20.03188 L 38.64415422292891 29.48088 L 11.260601309216131 29.48088 L -9.149994283406546 47.736469766767854 L -15.449288909262368 40.693566372807105 L -4.180643478925159 30.614694971437785 L -11.235853459883684 22.726643170201736 L -22.504498890220894 32.80551457157106 L -28.803793516076716 25.762611177610303 Z" fill="none" stroke="red"></path></g><g transform="translate(10,539.6282234191895)"><path d="M 0 0 L 38.64415422292891 0 L 38.64415422292891 9.449 L 23.52575422292891 9.449 L 23.52575422292891 20.03188 L 38.64415422292891 20.03188 L 38.64415422292891 29.48088 L 11.260601309216131 29.48088 L -9.149994283406546 47.736469766767854 L -15.449288909262368 40.693566372807105 L -4.180643478925159 30.614694971437785 L -11.235853459883684 22.726643170201736 L -22.504498890220894 32.80551457157106 L -28.803793516076716 25.762611177610303 Z" fill="none" stroke="red"></path></g><g transform="translate(87.44794464111328,539.6282234191895)"><path d="M 0 0 L 38.64415422292891 0 L 38.64415422292891 9.449 L 23.52575422292891 9.449 L 23.52575422292891 20.03188 L 38.64415422292891 20.03188 L 38.64415422292891 29.48088 L 11.260601309216131 29.48088 L -9.149994283406546 47.736469766767854 L -15.449288909262368 40.693566372807105 L -4.180643478925159 30.614694971437785 L -11.235853459883684 22.726643170201736 L -22.504498890220894 32.80551457157106 L -28.803793516076716 25.762611177610303 Z" fill="none" stroke="red"></path></g><g transform="translate(164.89588928222656,539.6282234191895)"><path d="M 0 0 L 38.64415422292891 0 L 38.64415422292891 9.449 L 23.52575422292891 9.449 L 23.52575422292891 20.03188 L 38.64415422292891 20.03188 L 38.64415422292891 29.48088 L 11.260601309216131 29.48088 L -9.149994283406546 47.736469766767854 L -15.449288909262368 40.693566372807105 L -4.180643478925159 30.614694971437785 L -11.235853459883684 22.726643170201736 L -22.504498890220894 32.80551457157106 L -28.803793516076716 25.762611177610303 Z" fill="none" stroke="red"></path></g><g transform="translate(242.34383392333984,539.6282234191895)"><path d="M 0 0 L 38.64415422292891 0 L 38.64415422292891 9.449 L 23.52575422292891 9.449 L 23.52575422292891 20.03188 L 38.64415422292891 20.03188 L 38.64415422292891 29.48088 L 11.260601309216131 29.48088 L -9.149994283406546 47.736469766767854 L -15.449288909262368 40.693566372807105 L -4.180643478925159 30.614694971437785 L -11.235853459883684 22.726643170201736 L -22.504498890220894 32.80551457157106 L -28.803793516076716 25.762611177610303 Z" fill="none" stroke="red"></path></g><g transform="translate(319.7917785644531,539.6282234191895)"><path d="M 0 0 L 38.64415422292891 0 L 38.64415422292891 9.449 L 23.52575422292891 9.449 L 23.52575422292891 20.03188 L 38.64415422292891 20.03188 L 38.64415422292891 29.48088 L 11.260601309216131 29.48088 L -9.149994283406546 47.736469766767854 L -15.449288909262368 40.693566372807105 L -4.180643478925159 30.614694971437785 L -11.235853459883684 22.726643170201736 L -22.504498890220894 32.80551457157106 L -28.803793516076716 25.762611177610303 Z" fill="none" stroke="red"></path></g><g transform="translate(10,597.3646926879883)"><path d="M 0 0 L 38.64415422292891 0 L 38.64415422292891 9.449 L 23.52575422292891 9.449 L 23.52575422292891 20.03188 L 38.64415422292891 20.03188 L 38.64415422292891 29.48088 L 11.260601309216131 29.48088 L -9.149994283406546 47.736469766767854 L -15.449288909262368 40.693566372807105 L -4.180643478925159 30.614694971437785 L -11.235853459883684 22.726643170201736 L -22.504498890220894 32.80551457157106 L -28.803793516076716 25.762611177610303 Z" fill="none" stroke="red"></path></g><g transform="translate(87.44794464111328,597.3646926879883)"><path d="M 0 0 L 38.64415422292891 0 L 38.64415422292891 9.449 L 23.52575422292891 9.449 L 23.52575422292891 20.03188 L 38.64415422292891 20.03188 L 38.64415422292891 29.48088 L 11.260601309216131 29.48088 L -9.149994283406546 47.736469766767854 L -15.449288909262368 40.693566372807105 L -4.180643478925159 30.614694971437785 L -11.235853459883684 22.726643170201736 L -22.504498890220894 32.80551457157106 L -28.803793516076716 25.762611177610303 Z" fill="none" stroke="red"></path></g><g transform="translate(164.89588928222656,597.3646926879883)"><path d="M 0 0 L 38.64415422292891 0 L 38.64415422292891 9.449 L 23.52575422292891 9.449 L 23.52575422292891 20.03188 L 38.64415422292891 20.03188 L 38.64415422292891 29.48088 L 11.260601309216131 29.48088 L -9.149994283406546 47.736469766767854 L -15.449288909262368 40.693566372807105 L -4.180643478925159 30.614694971437785 L -11.235853459883684 22.726643170201736 L -22.504498890220894 32.80551457157106 L -28.803793516076716 25.762611177610303 Z" fill="none" stroke="red"></path></g><g transform="translate(242.34383392333984,597.3646926879883)"><path d="M 0 0 L 38.64415422292891 0 L 38.64415422292891 9.449 L 23.52575422292891 9.449 L 23.52575422292891 20.03188 L 38.64415422292891 20.03188 L 38.64415422292891 29.48088 L 11.260601309216131 29.48088 L -9.149994283406546 47.736469766767854 L -15.449288909262368 40.693566372807105 L -4.180643478925159 30.614694971437785 L -11.235853459883684 22.726643170201736 L -22.504498890220894 32.80551457157106 L -28.803793516076716 25.762611177610303 Z" fill="none" stroke="red"></path></g><g transform="translate(319.7917785644531,597.3646926879883)"><path d="M 0 0 L 38.64415422292891 0 L 38.64415422292891 9.449 L 23.52575422292891 9.449 L 23.52575422292891 20.03188 L 38.64415422292891 20.03188 L 38.64415422292891 29.48088 L 11.260601309216131 29.48088 L -9.149994283406546 47.736469766767854 L -15.449288909262368 40.693566372807105 L -4.180643478925159 30.614694971437785 L -11.235853459883684 22.726643170201736 L -22.504498890220894 32.80551457157106 L -28.803793516076716 25.762611177610303 Z" fill="none" stroke="red"></path></g><g transform="translate(10,655.1011619567871)"><path d="M 0 0 L 38.64415422292891 0 L 38.64415422292891 9.449 L 23.52575422292891 9.449 L 23.52575422292891 20.03188 L 38.64415422292891 20.03188 L 38.64415422292891 29.48088 L 11.260601309216131 29.48088 L -9.149994283406546 47.736469766767854 L -15.449288909262368 40.693566372807105 L -4.180643478925159 30.614694971437785 L -11.235853459883684 22.726643170201736 L -22.504498890220894 32.80551457157106 L -28.803793516076716 25.762611177610303 Z" fill="none" stroke="red"></path></g><g transform="translate(87.44794464111328,655.1011619567871)"><path d="M 0 0 L 38.64415422292891 0 L 38.64415422292891 9.449 L 23.52575422292891 9.449 L 23.52575422292891 20.03188 L 38.64415422292891 20.03188 L 38.64415422292891 29.48088 L 11.260601309216131 29.48088 L -9.149994283406546 47.736469766767854 L -15.449288909262368 40.693566372807105 L -4.180643478925159 30.614694971437785 L -11.235853459883684 22.726643170201736 L -22.504498890220894 32.80551457157106 L -28.803793516076716 25.762611177610303 Z" fill="none" stroke="red"></path></g><g transform="translate(164.89588928222656,655.1011619567871)"><path d="M 0 0 L 38.64415422292891 0 L 38.64415422292891 9.449 L 23.52575422292891 9.449 L 23.52575422292891 20.03188 L 38.64415422292891 20.03188 L 38.64415422292891 29.48088 L 11.260601309216131 29.48088 L -9.149994283406546 47.736469766767854 L -15.449288909262368 40.693566372807105 L -4.180643478925159 30.614694971437785 L -11.235853459883684 22.726643170201736 L -22.504498890220894 32.80551457157106 L -28.803793516076716 25.762611177610303 Z" fill="none" stroke="red"></path></g><g transform="translate(242.34383392333984,655.1011619567871)"><path d="M 0 0 L 38.64415422292891 0 L 38.64415422292891 9.449 L 23.52575422292891 9.449 L 23.52575422292891 20.03188 L 38.64415422292891 20.03188 L 38.64415422292891 29.48088 L 11.260601309216131 29.48088 L -9.149994283406546 47.736469766767854 L -15.449288909262368 40.693566372807105 L -4.180643478925159 30.614694971437785 L -11.235853459883684 22.726643170201736 L -22.504498890220894 32.80551457157106 L -28.803793516076716 25.762611177610303 Z" fill="none" stroke="red"></path></g><g transform="translate(319.7917785644531,655.1011619567871)"><path d="M 0 0 L 38.64415422292891 0 L 38.64415422292891 9.449 L 23.52575422292891 9.449 L 23.52575422292891 20.03188 L 38.64415422292891 20.03188 L 38.64415422292891 29.48088 L 11.260601309216131 29.48088 L -9.149994283406546 47.736469766767854 L -15.449288909262368 40.693566372807105 L -4.180643478925159 30.614694971437785 L -11.235853459883684 22.726643170201736 L -22.504498890220894 32.80551457157106 L -28.803793516076716 25.762611177610303 Z" fill="none" stroke="red"></path></g></g><rect id="bin" width="1311.5212" height="933.5612" fill="none" stroke="black"></rect></svg>