<?xml version="1.0" encoding="UTF-8" standalone="no"?>
<svg
   xmlns:dc="http://purl.org/dc/elements/1.1/"
   xmlns:cc="http://creativecommons.org/ns#"
   xmlns:rdf="http://www.w3.org/1999/02/22-rdf-syntax-ns#"
   xmlns:svg="http://www.w3.org/2000/svg"
   xmlns="http://www.w3.org/2000/svg"
   xmlns:sodipodi="http://sodipodi.sourceforge.net/DTD/sodipodi-0.dtd"
   xmlns:inkscape="http://www.inkscape.org/namespaces/inkscape"
   id="svg"
   version="1.1"
   sodipodi:docname="popup_icosahedron-study.svg"
   inkscape:version="1.0.1 (c497b03c, 2020-09-10)">
  <metadata
     id="metadata1339">
    <rdf:RDF>
      <cc:Work
         rdf:about="">
        <dc:format>image/svg+xml</dc:format>
        <dc:type
           rdf:resource="http://purl.org/dc/dcmitype/StillImage" />
        <dc:title></dc:title>
      </cc:Work>
    </rdf:RDF>
  </metadata>
  <defs
     id="defs1337" />
  <sodipodi:namedview
     pagecolor="#ffffff"
     bordercolor="#666666"
     borderopacity="1"
     objecttolerance="10"
     gridtolerance="10"
     guidetolerance="10"
     inkscape:pageopacity="0"
     inkscape:pageshadow="2"
     inkscape:window-width="1440"
     inkscape:window-height="856"
     id="namedview1335"
     showgrid="false"
     inkscape:zoom="0.21372546"
     inkscape:cx="2140.69"
     inkscape:cy="371.02243"
     inkscape:window-x="0"
     inkscape:window-y="22"
     inkscape:window-maximized="1"
     inkscape:current-layer="svg" />
  <path
     class="guide"
     id="pentagon"
     d="M 370.40135,200 252.65691,37.93869 62.14241,99.8406 v 200.3188 l 190.5145,61.90191 z m 32.7029,0 L 262.76266,393.16362 35.68521,319.38168 V 80.61832 L 262.76266,6.83638 Z"
     fill="none"
     stroke="#000000"
     style="display:none" />
  <path
     class="guide"
     d="m 205.55398,207.6444 122.2313,-88.80623 -11.10797,-15.2888 -122.23129,88.80623 z m 3.43255,-10.5643 -46.6882,-143.6915 -17.97306,5.8398 46.6882,143.6915 z M 200,190.551 H 48.91381 v 18.898 H 200 Z m -8.98653,6.5291 -46.6882,143.6915 17.97306,5.8398 46.6882,-143.6915 z m 3.43255,10.5643 122.23129,88.80623 11.10797,-15.2888 -122.2313,-88.80623 z"
     fill="none"
     stroke="#000000"
     style="display:none"
     id="path843" />
  <path
     class="guide"
     id="path1223"
     d="M 370.40135,604.24726 252.65691,442.18595 62.14241,504.08786 v 200.3188 l 190.5145,61.90191 z m 32.7029,0 L 262.76266,797.41088 35.68521,723.62894 V 484.86558 l 227.07745,-73.78194 z"
     fill="none"
     stroke="#000000"
     style="display:none" />
  <path
     class="guide"
     d="m 205.55398,611.89166 122.2313,-88.80623 -11.10797,-15.2888 -122.23129,88.80623 z m 3.43255,-10.5643 -46.6882,-143.6915 -17.97306,5.8398 46.6882,143.6915 z M 200,594.79826 H 48.91381 v 18.898 H 200 Z m -8.98653,6.5291 -46.6882,143.6915 17.97306,5.8398 46.6882,-143.6915 z m 3.43255,10.5643 122.23129,88.80623 11.10797,-15.2888 -122.2313,-88.80623 z"
     fill="none"
     stroke="#000000"
     style="display:none"
     id="path1225" />
  <g
     id="g5529"
     transform="translate(-800.09184,-88.899093)">
    <g
       transform="translate(968.49452,200)"
       id="g995">
      <path
         id="path969"
         d="M 170.40135,0 52.656913,-162.06131 -137.85759,-100.1594 V 100.1594 L 52.656913,162.06131 Z M 203.10425,0 62.762664,193.16362 -164.31479,119.38168 v -238.76336 l 227.077454,-73.78194 z"
         fill="none"
         stroke="#ff0000" />
      <circle
         fill="none"
         stroke="#000000"
         cx="0"
         cy="0"
         r="1.8898"
         class="guide"
         style="display:none"
         id="circle971" />
      <rect
         fill="none"
         stroke="#ff0000"
         y="-11.3388"
         x="-3.7795999"
         height="22.677601"
         width="7.5591998"
         transform="rotate(36,-75.543094,232.49774)"
         id="rect973" />
      <rect
         fill="none"
         stroke="#ff0000"
         y="-11.3388"
         x="-3.7795999"
         height="22.677601"
         width="7.5591998"
         transform="rotate(-36,-75.543094,-232.49774)"
         id="rect975" />
      <g
         transform="translate(-151.08619)"
         id="g993">
        <g
           transform="rotate(90,-21.145355,30.121905)"
           id="g983">
          <rect
             class="guide"
             x="0"
             y="0"
             fill="none"
             stroke="#0000ff"
             width="48.000919"
             height="20.22086"
             style="display:none"
             id="rect977" />
          <circle
             fill="none"
             stroke="#ff0000"
             r="4.1575599"
             cx="8.8820601"
             cy="10.11043"
             id="circle979" />
          <circle
             fill="none"
             stroke="#ff0000"
             r="4.1575599"
             cx="39.118858"
             cy="10.11043"
             id="circle981" />
        </g>
        <g
           transform="rotate(90,54.122365,-45.145815)"
           id="g991">
          <rect
             class="guide"
             x="0"
             y="0"
             fill="none"
             stroke="#0000ff"
             width="48.000919"
             height="20.22086"
             style="display:none"
             id="rect985" />
          <circle
             fill="none"
             stroke="#ff0000"
             r="4.1575599"
             cx="8.8820601"
             cy="10.11043"
             id="circle987" />
          <circle
             fill="none"
             stroke="#ff0000"
             r="4.1575599"
             cx="39.118858"
             cy="10.11043"
             id="circle989" />
        </g>
      </g>
    </g>
    <path
       stroke="#ff0000"
       stroke-width="1"
       fill="none"
       d="m 905.84256,232.88008 -8.04416,-13.93105 -9.75309,5.63013 8.04416,13.93116 -56.0799,32.37355 v -64.74711 h 16.08832 v -11.26035 h -16.08832 v -64.74706 l 56.0799,32.37353 -8.04416,13.93108 9.75309,5.63018 8.04416,-13.93108 56.0799,32.37352 z"
       id="path3456" />
    <path
       stroke="#ff0000"
       stroke-width="1"
       fill="none"
       d="m 896.08947,303.25731 8.04416,-13.93105 9.75309,5.63013 -8.04416,13.93116 56.0799,32.37355 v -64.74711 h -16.08832 v -11.26035 h 16.08832 v -64.74706 l -56.0799,32.37353 8.04416,13.93108 -9.75309,5.63018 -8.04416,-13.93108 -56.0799,32.37352 z"
       id="path4532" />
    <path
       stroke="#ff0000"
       stroke-width="1"
       fill="none"
       d="m 1027.7555,303.25731 -8.0442,-13.93105 -9.7531,5.63013 8.0442,13.93117 -56.07994,32.37355 v -64.74712 h 16.08832 v -11.26035 h -16.08832 v -64.74706 l 56.07994,32.37353 -8.0442,13.93108 9.7531,5.63018 8.0442,-13.93108 56.0799,32.37352 z"
       id="path3456-9" />
    <path
       stroke="#ff0000"
       stroke-width="1"
       fill="none"
       d="m 1018.0024,168.13309 8.0441,13.93105 9.7531,-5.63013 -8.0442,-13.93116 56.0799,-32.37355 v 64.74711 h -16.0883 v 11.26035 h 16.0883 v 64.74706 l -56.0799,-32.37353 8.0442,-13.93108 -9.7531,-5.63018 -8.0441,13.93108 -56.07995,-32.37352 z"
       id="path4554" />
    <path
       stroke="#ff0000"
       stroke-width="1"
       fill="none"
       d="m 1027.7554,97.755861 -8.0441,13.931049 -9.7531,-5.63013 8.0442,-13.931161 -56.07995,-32.373547 v 64.747108 h 16.08832 v 11.26035 h -16.08832 v 64.74706 l 56.07995,-32.37353 -8.0442,-13.93108 9.7531,-5.63018 8.0441,13.93108 56.0799,-32.37352 z"
       id="path4556" />
    <path
       stroke="#ff0000"
       stroke-width="1"
       fill="none"
       d="m 896.08943,97.755861 8.04416,13.931049 9.75308,-5.63013 -8.04416,-13.931172 56.07994,-32.373547 v 64.747119 h -16.08832 v 11.26035 h 16.08832 v 64.74706 l -56.07994,-32.37353 8.04416,-13.93108 -9.75308,-5.63018 -8.04416,13.93108 -56.07991,-32.37352 z"
       id="path4558" />
    <path
       style="fill:none;stroke:#000000;stroke-width:3;stroke-linecap:butt;stroke-linejoin:miter;stroke-miterlimit:4;stroke-dasharray:none;stroke-opacity:1"
       d="m 961.92245,59.752072 10e-6,140.754508"
       id="path4586" />
    <path
       style="fill:none;stroke:#008000;stroke-width:3;stroke-linecap:butt;stroke-linejoin:miter;stroke-miterlimit:4;stroke-dasharray:none;stroke-opacity:1"
       d="M 830.63693,99.8406 V 300.1594"
       id="path5004" />
    <text
       xml:space="preserve"
       style="font-size:24px;font-family:Monaco;-inkscape-font-specification:Monaco;fill:#008000;stroke:none;stroke-width:3;stroke-miterlimit:4;stroke-dasharray:none;stop-color:#000000"
       x="732.9632"
       y="11.581811"
       id="text5008"><tspan
         sodipodi:role="line"
         id="tspan5006"
         x="732.9632"
         y="11.581811">53</tspan></text>
    <text
       xml:space="preserve"
       style="font-size:24px;font-family:Monaco;-inkscape-font-specification:Monaco;fill:#000000;stroke:none;stroke-width:3;stroke-miterlimit:4;stroke-dasharray:none;stop-color:#000000"
       x="915.79034"
       y="-37.227249"
       id="text5012"><tspan
         sodipodi:role="line"
         id="tspan5010"
         x="915.79034"
         y="-37.227249">37</tspan></text>
  </g>
</svg>
